<?xml version="1.0" encoding="utf-8"?>
<!-- Generator: Adobe Illustrator 24.1.2, SVG Export Plug-In . SVG Version: 6.00 Build 0)  -->
<svg version="1.1" id="Capa_1" xmlns="http://www.w3.org/2000/svg" xmlns:xlink="http://www.w3.org/1999/xlink" x="0px" y="0px"
	 viewBox="0 0 385 385" style="enable-background:new 0 0 385 385;" xml:space="preserve">
<style type="text/css">
	.st0{fill:#FFFFFF;}
</style>
<g>
	<g id="Cancel">
		<path class="st0" d="M192.5,0C86.2,0,0,86.2,0,192.5C0,298.8,86.2,385,192.5,385C298.8,385,385,298.8,385,192.5S298.8,0,192.5,0z
			 M192.5,360.9c-93,0-168.4-75.4-168.4-168.4S99.5,24.1,192.5,24.1s168.4,75.4,168.4,168.4S285.5,360.9,192.5,360.9z"/>
		<path class="st0" d="M273.4,255.9l-63.4-63.4l63-62.5c4.8-4.7,4.8-12.3,0-17c-4.7-4.7-12.4-4.7-17.2,0L193,175.4l-63.9-63.9
			c-4.7-4.8-12.4-4.8-17.2,0c-4.7,4.8-4.7,12.5,0,17.2l63.8,63.8l-64.1,63.6c-4.7,4.7-4.7,12.3,0,17c4.7,4.7,12.4,4.7,17.2,0
			l64-63.5l63.5,63.5c4.7,4.8,12.4,4.8,17.2,0C278.2,268.4,278.2,260.7,273.4,255.9z"/>
	</g>
</g>
</svg>
