<svg id="Layer_1" data-name="Layer 1" xmlns="http://www.w3.org/2000/svg" viewBox="0 0 282.77 38.8"><defs><style>.cls-1{fill:#fff;}</style></defs><path class="cls-1" d="M0,14.6V13H2.8V2.2H0V.6H7.5V2.2H4.7V13H7.5v1.6Z"/><path class="cls-1" d="M11.91,5.8l1.3-1.2h4.6l2.3,2.1v7.9h-1.8V7.4L17,6.2h-3.4l-1.3,1.2v7.2h-1.8V4.6h1.2Z"/><path class="cls-1" d="M22.4,4.6h2V2h1.8V4.6h3V6.2h-3v5.4L27.7,13h2.4v1.6H26.9l-2.5-2.3V6.2h-2Z"/><path class="cls-1" d="M39.15,4.4l2.51,2.3v3.8H34.05v1.1l1.5,1.4h5.31v1.6H34.75l-2.5-2.3V6.7l2.5-2.3Zm-5.1,4.5h5.8V7.4L38.35,6h-2.8l-1.5,1.4Z"/><path class="cls-1" d="M45,14.6V2.2h-1.7V.6h3.5v14Z"/><path class="cls-1" d="M63.79,0l3.4,3.2v9l-3.4,3.2H53.48l-3.4-3.2v-9L53.48,0ZM54.28,13.8H63l2.3-2.2V3.8L63,1.6H54.28L52,3.8v7.8ZM59,9H57.08v2.6h-1.8V3.8h5.31l1.8,1.6v2l-1.5,1.4,2,2.8h-2ZM57.08,5.4v2h2.71l.8-.7V6.1l-.8-.7Z"/><path class="cls-1" d="M88.93,14.6H80L77.22,12V3.2L80,.6h8.91V2.2H80.82l-1.7,1.6v7.6l1.7,1.6h8.11Z"/><path class="cls-1" d="M94.13,4.4h5l2.5,2.3v5.8l-2.5,2.3h-5l-2.5-2.3V6.7ZM98.33,6h-3.4l-1.5,1.4v4.4l1.5,1.4h3.4l1.5-1.4V7.4Z"/><path class="cls-1" d="M106,5.8l1.3-1.2h4.61V6.2h-4.2l-1.3,1.2v7.2h-1.81V4.6h1.2Z"/><path class="cls-1" d="M121,4.4l2.5,2.3v3.8h-7.61v1.1l1.51,1.4h5.3v1.6h-6.11l-2.5-2.3V6.7l2.5-2.3Zm-5.11,4.5h5.81V7.4L120.22,6h-2.8l-1.51,1.4Z"/><path class="cls-1" d="M127.34,8.4V2h-2.9V.6h7.4V2h-2.9V8.4ZM141.14.6h1.5V8.4H141V3.1l-2.7,3.6h-1l-2.7-3.58V8.4H133V.6h1.5l3.3,4.4Z"/><path class="cls-1" d="M152.58,2.7V.4h1.8V2.7Zm1.8,1.9v10h-1.8V4.6Z"/><path class="cls-1" d="M157,.6h11.7V1.9l-7.2,12.7h-2.1l7.1-12.4H157Z"/><path class="cls-1" d="M180.25,10v4.6h-1.9V.6h9.7l2.7,2.5V7.5l-2.7,2.5Zm7-7.8h-7V8.4h7l1.6-1.5V3.7Z"/><path class="cls-1" d="M195.18,5.8l1.3-1.2h4.6V6.2h-4.2l-1.3,1.2v7.2h-1.8V4.6H195Z"/><path class="cls-1" d="M205.78,4.4h5l2.5,2.3v5.8l-2.5,2.3h-5l-2.5-2.3V6.7ZM210,6h-3.4l-1.5,1.4v4.4l1.5,1.4H210l1.5-1.4V7.4Z"/><path class="cls-1" d="M218,13h6.6v1.6h-9V13.2l6.41-7h-6.21V4.6h8.61V6Z"/><path class="cls-1" d="M233.8,4.4l2.5,2.3v3.8h-7.6v1.1l1.5,1.4h5.3v1.6h-6.1l-2.5-2.3V6.7l2.5-2.3Zm-5.1,4.5h5.8V7.4L233,6h-2.8l-1.5,1.4Z"/><path class="cls-1" d="M246.12,8.7l2.1,1.9v2.1l-2.1,1.9H239V13h6.3l1.1-1v-.7l-1.1-1H241l-2.1-1.9V6.6l2.2-2h6.5V6.2h-5.7l-1.2,1.1v.4l1.1,1Z"/><path class="cls-1" d="M257.83,8.7l2.1,1.9v2.1l-2.1,1.9h-7.1V13H257l1.1-1v-.7l-1.1-1h-4.3l-2.1-1.9V6.6l2.2-2h6.5V6.2h-5.7l-1.2,1.1v.4l1.1,1Z"/><path class="cls-1" d="M265,4.4h5l2.5,2.3v5.8L270,14.8h-5l-2.5-2.3V6.7Zm4.2,1.6h-3.4l-1.5,1.4v4.4l1.5,1.4h3.4l1.5-1.4V7.4Z"/><path class="cls-1" d="M276.87,5.8l1.3-1.2h4.6V6.2h-4.2l-1.3,1.2v7.2h-1.8V4.6h1.2Z"/><path class="cls-1" d="M54.15,37.4l-1.3,1.2h-4.5l-2.51-2.3V30.9l2.51-2.3h5.4v-4h1.8v14h-1.2Zm-5-.4h3.3l1.3-1.2V30.2h-4.6l-1.5,1.4v4Z"/><path class="cls-1" d="M65.45,28.4,68,30.7v3.8h-7.6v1.1l1.5,1.4h5.3v1.6h-6.1l-2.5-2.3V30.7l2.5-2.3Zm-5.1,4.5h5.8V31.4L64.65,30h-2.8l-1.5,1.4Z"/><path class="cls-1" d="M72.21,29.8l1.3-1.2h4.6v1.6h-4.2l-1.3,1.2v7.2h-1.8v-10H72Z"/><path class="cls-1" d="M86.53,38.6V37h3V26.2h-3V24.6h4.8V37h3v1.6Z"/><path class="cls-1" d="M106.89,24.4l2.8,2.6v9.2l-2.8,2.6H100l-2.8-2.6V27l2.8-2.6Zm-7.8,3.2v8l1.7,1.6h5.3l1.7-1.6v-8l-1.7-1.6h-5.3Z"/><path class="cls-1" d="M112.85,38.6V36.4H115v2.2Z"/><path class="cls-1" d="M135.89,32.3h-4.3V30.7h6.2V36L135,38.6h-7.6l-2.8-2.6V27.2l2.8-2.6h8.9v1.6h-8.1l-1.7,1.6v7.6l1.7,1.6h6l1.7-1.6Z"/><path class="cls-1" d="M147.62,28.4l2.5,2.3v3.8h-7.6v1.1L144,37h5.3v1.6h-6.1l-2.51-2.3V30.7l2.51-2.3Zm-5.1,4.5h5.8V31.4l-1.5-1.4H144l-1.5,1.4Z"/><path class="cls-1" d="M154.38,29.8l1.3-1.2h4.6l2.3,2.1v7.9h-1.8V31.4l-1.3-1.2h-3.4l-1.3,1.2v7.2H153v-10h1.2Z"/><path class="cls-1" d="M172.37,28.4l2.5,2.3v3.8h-7.6v1.1l1.5,1.4h5.3v1.6H168l-2.51-2.3V30.7L168,28.4Zm-5.1,4.5h5.8V31.4l-1.5-1.4h-2.8l-1.5,1.4Z"/><path class="cls-1" d="M179.13,29.8l1.3-1.2H185v1.6h-4.2l-1.3,1.2v7.2h-1.8v-10h1.2Z"/><path class="cls-1" d="M193.28,38.6h-4.7l-2.1-1.9V34.5l2.1-1.9h5.6V31.3L193,30.2h-5.2V28.6h6l2.2,2v8h-1.2l-.2-1.2Zm.9-4.4h-4.8l-1.1,1V36l1.1,1h3.5l1.3-1.2Z"/><path class="cls-1" d="M198.3,28.6h2V26h1.8v2.6h3v1.6h-3v5.4l1.5,1.4H206v1.6h-3.2l-2.5-2.3V30.2h-2Z"/><path class="cls-1" d="M208.5,26.7V24.4h1.8v2.3Zm1.8,1.9v10h-1.8v-10Z"/><path class="cls-1" d="M215.82,28.4h5l2.5,2.3v5.8l-2.5,2.3h-5l-2.5-2.3V30.7ZM220,30h-3.4l-1.5,1.4v4.4l1.5,1.4H220l1.51-1.4V31.4Z"/><path class="cls-1" d="M227.71,29.8l1.3-1.2h4.6l2.3,2.1v7.9h-1.8V31.4l-1.3-1.2h-3.4l-1.3,1.2v7.2h-1.8v-10h1.2Z"/></svg>