<svg id="Layer_1" data-name="Layer 1" xmlns="http://www.w3.org/2000/svg" viewBox="0 0 195 57"><defs><style>.cls-1{fill:#00b4ff;fill-rule:evenodd;}.cls-2{fill:#fff;}</style></defs><path class="cls-1" d="M0,0H195V57H0Z"/><path class="cls-2" d="M33.26,22.05H35V34.66H33.35l-7.92-9.91v9.91H23.72V22.05h1.62L33.26,32Z"/><path class="cls-2" d="M40.23,25.47h4.51L47,27.54v5.23l-2.25,2.07H40.23L38,32.77V27.54ZM44,26.91H41L39.6,28.17v4L41,33.4H44l1.35-1.26v-4Z"/><path class="cls-2" d="M52.47,33.22h4.86v1.44H51.75L49.5,32.59V27.72l2.25-2.07h5.58v1.44H52.47l-1.35,1.26V32Z"/><path class="cls-2" d="M61.39,22.05v3.6h5l2.07,1.89v7.12H66.8V28.17l-1.17-1.08H61.39v7.57H59.77V22.05Z"/><path class="cls-2" d="M80.08,27.09l-1.18,1.1v6.47H77.28V28.17l-1.17-1.08H74l-1.17,1.08v6.49H71.25v-9h1.08l.18,1.08,1.17-1.08h3.15l1.26,1.17,1.28-1.17H83L85,27.54v7.12H83.41V28.17l-1.17-1.08Z"/><path class="cls-2" d="M93.57,34.66H89.34L87.45,33V31l1.89-1.72h5V28.08l-1.08-1H88.62V25.65H94l2,1.8v7.21H94.92l-.18-1.08Zm.81-4H90.06l-1,.91v.72l1,.9h3.15l1.17-1.08Z"/><path class="cls-2" d="M99.18,34.66V23.49H97.65V22.05h3.15V34.66Z"/><path class="cls-2" d="M116,29.34l1.89,1.72V33L116,34.66h-6.4V33.22h5.68l1-.9v-.63l-1-.91h-3.87l-1.9-1.71V27.45l2-1.8h5.85v1.44h-5.13l-1.08,1v.36l1,.9Z"/><path class="cls-2" d="M121.55,26.73l1.17-1.08H127L129,27.54v5.05l-2.25,2.07h-4.87v3.6h-1.62V25.65h1.08Zm4.68.36h-3.15l-1.17,1.08v5h4.14L127.4,32V28.17Z"/><path class="cls-2" d="M131.77,23.94V21.87h1.62v2.07Zm1.62,1.71v9h-1.62v-9Z"/><path class="cls-2" d="M142.32,25.47l2.25,2.07V31h-6.84v1l1.35,1.26h4.77v1.44h-5.49l-2.25-2.07V27.54l2.25-2.07Zm-4.59,4.05H143V28.17l-1.35-1.26h-2.52l-1.35,1.26Z"/><path class="cls-2" d="M147.56,34.66V23.49H146V22.05h3.15V34.66Z"/><path class="cls-2" d="M158.09,25.47l2.25,2.07V31H153.5v1l1.35,1.26h4.77v1.44h-5.49l-2.25-2.07V27.54l2.25-2.07Zm-4.59,4.05h5.22V28.17l-1.35-1.26h-2.52l-1.35,1.26Z"/><path class="cls-2" d="M164.19,26.73l1.17-1.08h4.14l2.07,1.89v7.12H170V28.17l-1.17-1.08h-3.06l-1.17,1.08v6.49h-1.62v-9H164Z"/></svg>