<svg id="fc4df1f5-3bbc-4d70-bc9c-a3dbe1c9dc15" data-name="Layer 1" xmlns="http://www.w3.org/2000/svg" xmlns:xlink="http://www.w3.org/1999/xlink" viewBox="0 0 334.61 34.6"><defs><style>.fd501571-12d7-47d3-84a4-b24262b8121e{fill:url(#f9c19a60-f2f6-42f5-85ea-3ddfd01beace);}.f75ce762-0098-4594-aa5d-abe0a9d5ce40{fill:url(#e1c8723c-f57b-4298-9e6b-9f83c3e9cedd);}.fa6f9bcb-da43-46d2-82b0-dde405a38138{fill:url(#ed7a2398-2edc-4cbb-b192-20d70b64e81b);}.ba4bc8f7-7ce5-4e12-80c0-cae66fc1dd48{fill:url(#ac1795c8-468a-455b-9c31-09d108efc1cd);}.a5fef5e8-f6eb-4aab-a887-93fbe3e229e1{fill:url(#a19bd26d-36d7-4a08-a542-1b6076b4ee04);}.aceba6a9-a8c9-450c-a711-9007749e7a9f{fill:url(#ec724201-aab2-43ec-b941-718979e31e42);}.efef1d8b-2616-49ca-9421-17c37a811e91{fill:url(#fa4cd0f4-33bc-4db5-b5f7-8f9bd6d0533f);}.bf20b598-306d-4538-af59-4d6344600bd1{fill:url(#ba176941-e068-43c2-8373-289814bda00d);}.a8358789-c09f-4e74-86e4-c6c137bfc720{fill:url(#b618d5fd-b804-4653-b780-3990667e1e10);}</style><linearGradient id="f9c19a60-f2f6-42f5-85ea-3ddfd01beace" x1="50.28" y1="-84.92" x2="50.28" y2="-50.35" gradientTransform="matrix(1, 0, 0, -1, 0, -45.19)" gradientUnits="userSpaceOnUse"><stop offset="0" stop-color="#1efe97"/><stop offset="1" stop-color="#00b4ff"/></linearGradient><linearGradient id="e1c8723c-f57b-4298-9e6b-9f83c3e9cedd" x1="90.22" y1="-84.46" x2="90.22" y2="-50.86" xlink:href="#f9c19a60-f2f6-42f5-85ea-3ddfd01beace"/><linearGradient id="ed7a2398-2edc-4cbb-b192-20d70b64e81b" x1="119.28" y1="-84.46" x2="119.28" y2="-50.86" xlink:href="#f9c19a60-f2f6-42f5-85ea-3ddfd01beace"/><linearGradient id="ac1795c8-468a-455b-9c31-09d108efc1cd" x1="150.84" y1="-84.95" x2="150.84" y2="-50.35" xlink:href="#f9c19a60-f2f6-42f5-85ea-3ddfd01beace"/><linearGradient id="a19bd26d-36d7-4a08-a542-1b6076b4ee04" x1="190.33" y1="-84.46" x2="190.33" y2="-50.86" xlink:href="#f9c19a60-f2f6-42f5-85ea-3ddfd01beace"/><linearGradient id="ec724201-aab2-43ec-b941-718979e31e42" x1="241.92" y1="-84.46" x2="241.92" y2="-50.86" xlink:href="#f9c19a60-f2f6-42f5-85ea-3ddfd01beace"/><linearGradient id="fa4cd0f4-33bc-4db5-b5f7-8f9bd6d0533f" x1="278.62" y1="-84.95" x2="278.62" y2="-50.35" xlink:href="#f9c19a60-f2f6-42f5-85ea-3ddfd01beace"/><linearGradient id="ba176941-e068-43c2-8373-289814bda00d" x1="316.39" y1="-84.95" x2="316.39" y2="-50.35" xlink:href="#f9c19a60-f2f6-42f5-85ea-3ddfd01beace"/><linearGradient id="b618d5fd-b804-4653-b780-3990667e1e10" x1="354.17" y1="-84.95" x2="354.17" y2="-50.35" xlink:href="#f9c19a60-f2f6-42f5-85ea-3ddfd01beace"/></defs><path class="fd501571-12d7-47d3-84a4-b24262b8121e" d="M59.24,5.2,66,11.41V33.49l-6.72,6.25h-18l-6.72-6.25V11.41l6.72-6.24ZM39.08,12.88v19.2l4.08,3.84H57.32l4.08-3.84V12.88L57.32,9H43.16Z" transform="translate(-34.56 -5.17)"/><path class="f75ce762-0098-4594-aa5d-abe0a9d5ce40" d="M79.3,27.28v12H74.74V5.68H97.3l6.48,6v9.6l-6.48,6,8.4,12h-5l-8.4-12ZM95.38,9.52H79.3V23.41H95.38l3.84-3.6V13.09Z" transform="translate(-34.56 -5.17)"/><path class="fa6f9bcb-da43-46d2-82b0-dde405a38138" d="M110.31,39.28V35.41H117V9.52h-6.72V5.68h18V9.52h-6.72V35.41h6.72v3.84Z" transform="translate(-34.56 -5.17)"/><path class="ba4bc8f7-7ce5-4e12-80c0-cae66fc1dd48" d="M159.84,5.2l6.72,6.24V33.52l-6.72,6.25h-18l-6.72-6.25V11.41l6.72-6.24Zm-20.16,7.68v19.2l4.08,3.84h14.16L162,32.08V12.88L157.92,9H143.76Z" transform="translate(-34.56 -5.17)"/><path class="a5fef5e8-f6eb-4aab-a887-93fbe3e229e1" d="M200.79,5.68h4.56v33.6H201l-21.12-26.4v26.4h-4.56V5.68h4.32l21.12,26.4Z" transform="translate(-34.56 -5.17)"/><path class="aceba6a9-a8c9-450c-a711-9007749e7a9f" d="M228,5.68h21.84l5.52,5v7.73L252,21.52l4.32,4.08v8.64l-5.52,5H227.52V35.41h21.36l2.88-2.64V27l-3.36-3.12H235.2V20.05h12.24l3.36-3.12v-4.8l-2.88-2.64H228Z" transform="translate(-34.56 -5.17)"/><path class="efef1d8b-2616-49ca-9421-17c37a811e91" d="M286.9,5.2l6.72,6.24V33.52l-6.72,6.25H270.34l-6.72-6.25V11.41l6.72-6.24Zm-18.72,7.68v19.2l4.08,3.84H285l4.08-3.84V12.88L285,9H272.26Z" transform="translate(-34.56 -5.17)"/><path class="bf20b598-306d-4538-af59-4d6344600bd1" d="M324.67,5.2l6.72,6.24V33.52l-6.72,6.25H308.11l-6.72-6.25V11.41l6.72-6.24ZM306,12.88v19.2l4.08,3.84H322.8l4.08-3.84V12.88L322.8,9H310Z" transform="translate(-34.56 -5.17)"/><path class="a8358789-c09f-4e74-86e4-c6c137bfc720" d="M362.45,5.2l6.72,6.24V33.52l-6.72,6.25H345.89l-6.72-6.25V11.41l6.72-6.24Zm-18.72,7.68v19.2l4.08,3.84h12.72l4.08-3.84V12.88L360.53,9H347.81Z" transform="translate(-34.56 -5.17)"/></svg>