<svg id="Layer_1" data-name="Layer 1" xmlns="http://www.w3.org/2000/svg" xmlns:xlink="http://www.w3.org/1999/xlink" viewBox="0 0 404.68 137.78"><defs><style>.cls-1{fill:#00b4ff;}.cls-2{fill:url(#linear-gradient);}.cls-3{fill:url(#linear-gradient-2);}.cls-4{fill:url(#linear-gradient-3);}.cls-5{fill:url(#linear-gradient-4);}.cls-6{fill:url(#linear-gradient-5);}.cls-7{fill:url(#linear-gradient-6);}.cls-8{fill:url(#linear-gradient-7);}.cls-9{fill:url(#linear-gradient-8);}.cls-10{fill:url(#linear-gradient-9);}</style><linearGradient id="linear-gradient" x1="50.24" y1="132.36" x2="50.24" y2="97.79" gradientUnits="userSpaceOnUse"><stop offset="0" stop-color="#1efe97"/><stop offset="1" stop-color="#00b4ff"/></linearGradient><linearGradient id="linear-gradient-2" x1="90.22" y1="131.87" x2="90.22" y2="98.27" xlink:href="#linear-gradient"/><linearGradient id="linear-gradient-3" x1="119.31" y1="131.87" x2="119.31" y2="98.27" xlink:href="#linear-gradient"/><linearGradient id="linear-gradient-4" x1="150.84" y1="132.36" x2="150.84" y2="97.79" xlink:href="#linear-gradient"/><linearGradient id="linear-gradient-5" x1="190.35" y1="131.87" x2="190.35" y2="98.27" xlink:href="#linear-gradient"/><linearGradient id="linear-gradient-6" x1="241.92" y1="131.87" x2="241.92" y2="98.27" xlink:href="#linear-gradient"/><linearGradient id="linear-gradient-7" x1="278.62" y1="132.36" x2="278.62" y2="97.79" xlink:href="#linear-gradient"/><linearGradient id="linear-gradient-8" x1="316.39" y1="132.36" x2="316.39" y2="97.79" xlink:href="#linear-gradient"/><linearGradient id="linear-gradient-9" x1="354.17" y1="132.36" x2="354.17" y2="97.79" xlink:href="#linear-gradient"/></defs><path class="cls-1" d="M105.62,23.51v-3.3l13-14.1h-12.6V2.51h18.15v3.3l-13,14.1h13.35v3.6Z"/><path class="cls-1" d="M144.13,2.51h4.2v17.4l-4.2,3.9h-11.4l-4.2-3.9V2.51h4.2v15.9l2,1.8h7.5l1.95-1.8Z"/><path class="cls-1" d="M167.89,16.61v6.9h-4.2v-21h15.15l3.9,3.6V13l-3.6,3.45,5.1,7.05h-5l-4.95-6.9Zm9-10.5h-9V13h9l1.65-1.5V7.61Z"/><path class="cls-1" d="M206.13,2.51v3.6h-13.8v5.1h10.5v3.6h-10.5v5.1h14.1v3.6h-18.3v-21Z"/><path class="cls-1" d="M217.13,23.51V6.11h-7.8V2.51h19.8v3.6h-7.8v17.4Z"/><path class="cls-1" d="M237.13,16.61v6.9h-4.2v-21h15.15l3.9,3.6V13l-3.6,3.45,5.1,7.05h-4.95l-4.95-6.9Zm9-10.5h-9V13h9l1.65-1.5V7.61Z"/><path class="cls-1" d="M272.72,2.21l4.2,3.9v13.8l-4.2,3.9H260.57l-4.2-3.9V6.11l4.2-3.9Zm-12.15,5.4v10.8l1.95,1.8h8.25l2-1.8V7.61l-2-1.8h-8.25Z"/><path class="cls-1" d="M293.41,10V7.76l-1.8-1.65h-11.1V2.51h13.05l4.05,3.75v5.25l-4.05,3.75h-4.05v1.65h-4.2V13l1.5-1.35h4.8Zm-8.1,13.5V19.46h4.2v4.05Z"/><path class="cls-1" d="M16.11,50.81h-5.7v-3.6h9.9v8.4l-4.2,3.9H3.81l-4.2-3.9V42.41l4.2-3.9h14.1v3.6H5.76l-1.95,1.8v10.2l1.95,1.8h8.4l1.95-1.8Z"/><path class="cls-1" d="M39.65,54H29.76l-2.4,5.55H22.71l9.3-21H37.4l9.3,21H42.05Zm-8.24-3.6H38l-3.3-7.65Z"/><path class="cls-1" d="M54.43,45.71v13.8h-4.2v-21h4.2l8,11.4,7.95-11.4h4.2v21h-4.2V45.71l-6.45,9h-3Z"/><path class="cls-1" d="M78.88,59.51v-3.6h4.2V42.11h-4.2v-3.6h12.6v3.6h-4.2v13.8h4.2v3.6Z"/><path class="cls-1" d="M111.38,38.51h4.2v21h-4L100,45.11v14.4h-4.2v-21h4l11.55,14.4Z"/><path class="cls-1" d="M136.69,50.81H131v-3.6h9.9v8.4l-4.2,3.9h-12.3l-4.2-3.9V42.41l4.2-3.9h14.1v3.6H126.34l-2,1.8v10.2l2,1.8h8.4l1.95-1.8Z"/><path class="cls-1" d="M171.1,38.51h4.2v17.4l-4.2,3.9H159.7l-4.2-3.9V38.51h4.2v15.9l2,1.8h7.5l1.95-1.8Z"/><path class="cls-1" d="M184.42,53.21v6.3h-4.2v-21h15.45l3.9,3.6v7.5l-3.9,3.6Zm9.3-11.1h-9.3v7.5h9.3l1.65-1.5v-4.5Z"/><path class="cls-1" d="M220,50.81h-5.7v-3.6h9.9v8.4l-4.2,3.9h-12.3l-4.2-3.9V42.41l4.2-3.9h14.1v3.6H209.67l-1.95,1.8v10.2l1.95,1.8h8.4l2-1.8Z"/><path class="cls-1" d="M232.83,52.61v6.9h-4.2v-21h15.15l3.9,3.6V49l-3.6,3.45,5.1,7h-5l-4.95-6.9Zm9-10.5h-9V49h9l1.65-1.5v-3.9Z"/><path class="cls-1" d="M268.76,54h-9.89l-2.4,5.55h-4.65l9.3-21h5.39l9.3,21h-4.64Zm-8.25-3.6h6.61l-3.3-7.65Z"/><path class="cls-1" d="M279.34,38.51h15.6l4.2,3.9v13.2l-4.2,3.9h-15.6ZM293,55.91l1.95-1.8V43.91L293,42.11h-9.45v13.8Z"/><path class="cls-1" d="M321.75,38.51v3.6H308v5.1h10.5v3.6H308v5.1h14.1v3.6h-18.3v-21Z"/><path class="cls-1" d="M340.08,45.71v13.8h-4.2v-21h4.2L348,49.91l8-11.4h4.2v21H356V45.71l-6.45,9h-3Z"/><path class="cls-1" d="M364.53,59.51v-3.6h4.2V42.11h-4.2v-3.6h12.6v3.6h-4.2v13.8h4.2v3.6Z"/><path class="cls-1" d="M388.27,59.51V42.11h-7.8v-3.6h19.8v3.6h-7.8v17.4Z"/><path class="cls-1" d="M399.73,48.56V44.51h4.2v4.05Zm0,10.95v-4h4.2v4Z"/><path class="cls-2" d="M59.24,97.79,66,104v22.08l-6.72,6.25h-18l-6.72-6.25V104l6.72-6.24Zm-20.16,7.68v19.2l4.08,3.84H57.32l4.08-3.84v-19.2l-4.08-3.84H43.16Z"/><path class="cls-3" d="M79.3,119.87v12H74.74V98.27H97.3l6.48,6v9.6l-6.48,6,8.4,12h-5l-8.4-12Zm16.08-17.76H79.3V116H95.38l3.84-3.6v-6.72Z"/><path class="cls-4" d="M110.31,131.87V128H117V102.11h-6.72V98.27h18v3.84h-6.72V128h6.72v3.84Z"/><path class="cls-5" d="M159.84,97.79l6.72,6.24v22.08l-6.72,6.25h-18l-6.72-6.25V104l6.72-6.24Zm-20.16,7.68v19.2l4.08,3.84h14.16l4.08-3.84v-19.2l-4.08-3.84H143.76Z"/><path class="cls-6" d="M200.79,98.27h4.56v33.6H201l-21.12-26.4v26.4h-4.56V98.27h4.32l21.12,26.4Z"/><path class="cls-7" d="M228,98.27h21.84l5.52,5V111L252,114.11l4.32,4.08v8.64l-5.52,5H227.52V128h21.36l2.88-2.64v-5.76l-3.36-3.12H235.2v-3.84h12.24l3.36-3.12v-4.8l-2.88-2.64H228Z"/><path class="cls-8" d="M286.9,97.79l6.72,6.24v22.08l-6.72,6.25H270.34l-6.72-6.25V104l6.72-6.24Zm-18.72,7.68v19.2l4.08,3.84H285l4.08-3.84v-19.2L285,101.63H272.26Z"/><path class="cls-9" d="M324.67,97.79l6.72,6.24v22.08l-6.72,6.25H308.11l-6.72-6.25V104l6.72-6.24ZM306,105.47v19.2l4.08,3.84h12.72l4.08-3.84v-19.2l-4.08-3.84H310Z"/><path class="cls-10" d="M362.45,97.79l6.72,6.24v22.08l-6.72,6.25H345.89l-6.72-6.25V104l6.72-6.24Zm-18.72,7.68v19.2l4.08,3.84h12.72l4.08-3.84v-19.2l-4.08-3.84H347.81Z"/></svg>