<svg id="Layer_1" data-name="Layer 1" xmlns="http://www.w3.org/2000/svg" viewBox="0 0 320.66 59.6"><defs><style>.cls-1{fill:#00b4ff;}</style></defs><path class="cls-1" d="M21,13.9v5.25L17.5,22.3H1V1.3H16.45L19.9,4.45v5L18,11.05Zm-6.45-9H5.2V9.85h8.85l1.65-1.5V6Zm2.25,12.75V15l-1.65-1.5H5.2V18.7H15.55Z"/><path class="cls-1" d="M41.35,1l4.2,3.9V18.7l-4.2,3.9H29.2L25,18.7V4.9L29.2,1ZM29.2,6.4V17.2L31.15,19H39.4l2-1.8V6.4l-2-1.8H31.15Z"/><path class="cls-1" d="M68.18,22.3H54.08l-4.2-3.9V5.2l4.2-3.9h14.1V4.9H56l-2,1.8V16.9l2,1.8H68.18Z"/><path class="cls-1" d="M76.54,22.3h-4.2V1.3h4.2V10h3.6l6.45-8.7h5.1L84,11.5l8.25,10.8h-5.1l-6.6-8.7h-4Z"/><path class="cls-1" d="M119.44,16.75h-9.9l-2.4,5.55h-4.65l9.3-21h5.4l9.3,21h-4.65Zm-8.25-3.6h6.6l-3.3-7.65Z"/><path class="cls-1" d="M144.92,1.3h4.2V18.7l-4.2,3.9h-11.4l-4.2-3.9V1.3h4.2V17.2l1.95,1.8H143l1.95-1.8Z"/><path class="cls-1" d="M172,1.3V4.9h-13.8v5.7h10.5v3.6h-10.5v8.1H154V1.3Z"/><path class="cls-1" d="M184,22.3V19L197.08,4.9h-12.6V1.3h18.15V4.6l-13,14.1h13.35v3.6Z"/><path class="cls-1" d="M223.08,1l4.2,3.9V18.7l-4.2,3.9H210.93l-4.2-3.9V4.9l4.2-3.9ZM210.93,6.4V17.2l1.95,1.8h8.25l2-1.8V6.4l-2-1.8h-8.25Z"/><path class="cls-1" d="M249.91,22.3h-14.1l-4.2-3.9V5.2l4.2-3.9h14.1V4.9H237.76l-1.95,1.8V16.9l1.95,1.8h12.15Z"/><path class="cls-1" d="M258.27,22.3h-4.2V1.3h4.2V10h3.6l6.45-8.7h5.1l-7.65,10.2L274,22.3h-5.1l-6.6-8.7h-4.05Z"/><path class="cls-1" d="M295.54,1.3V4.9H281.75V10h10.5v3.6h-10.5v5.1h14.09v3.6H277.55V1.3Z"/><path class="cls-1" d="M315.46,1.3h4.2v21h-4.05L304.06,7.9V22.3h-4.2V1.3h4.05l11.55,14.4Z"/><path class="cls-1" d="M50.69,58.3H45.14l-6.3-21h4.5L48,53.8l4.8-16.5h5.1l4.8,16.5,4.65-16.5h4.5l-6.3,21H60L55.34,43Z"/><path class="cls-1" d="M75.1,58.3V54.7h4.2V40.9H75.1V37.3H87.7v3.6H83.5V54.7h4.2v3.6Z"/><path class="cls-1" d="M110,37.3v3.6H96.2V46h10.5v3.6H96.2v5.1h14.1v3.6H92v-21Z"/><path class="cls-1" d="M142.13,37.3v3.6h-13.8v5.7h10.5v3.6h-10.5v8.1h-4.2v-21Z"/><path class="cls-1" d="M150.2,51.4v6.9H146v-21h15.15l3.9,3.6v6.9l-3.6,3.45,5.1,7h-5l-4.95-6.9Zm9-10.5h-9v6.9h9l1.65-1.5V42.4Z"/><path class="cls-1" d="M185.27,37.3h4.2V54.7l-4.2,3.9h-11.4l-4.2-3.9V37.3h4.2V53.2l1.95,1.8h7.5l2-1.8Zm-10.8-2.85V30.7h3.9v3.75Zm6.3,0V30.7h3.9v3.75Z"/><path class="cls-1" d="M198.58,58.3h-4.2v-21h4.2V46h11.1V37.3h4.2v21h-4.2V49.6h-11.1Z"/><path class="cls-1" d="M236.81,37.3v3.6H223V46h10.5v3.6H223v5.1h14.1v3.6h-18.3v-21Z"/><path class="cls-1" d="M245.32,51.4v6.9h-4.2v-21h15.15l3.9,3.6v6.9l-3.6,3.45,5.1,7h-4.95l-5-6.9Zm9-10.5h-9v6.9h9L256,46.3V42.4Z"/><path class="cls-1" d="M276.72,44.8V42.55l-1.8-1.65h-11.1V37.3h13.05l4.05,3.75V46.3l-4.05,3.75h-4.05V51.7h-4.2V47.8l1.5-1.35h4.8Zm-8.1,13.5v-4h4.2v4Z"/></svg>