<svg id="Ebene_1" data-name="Ebene 1" xmlns="http://www.w3.org/2000/svg" xmlns:xlink="http://www.w3.org/1999/xlink" viewBox="0 0 198.51 222.35"><defs><style>.cls-1{fill:none;}.cls-2{fill:#fff;}.cls-3{fill:url(#Unbenannter_Verlauf_4);}.cls-4{clip-path:url(#clip-path);}.cls-5{fill:url(#Unbenannter_Verlauf_2);}.cls-6{fill:#8c8c96;}</style><linearGradient id="Unbenannter_Verlauf_4" x1="-492.54" y1="1147.43" x2="-491.61" y2="1147.43" gradientTransform="matrix(226.54, -130.79, -130.79, -226.54, 261637.84, 195709.93)" gradientUnits="userSpaceOnUse"><stop offset="0" stop-color="#ad785d"/><stop offset="0.02" stop-color="#ad785d"/><stop offset="0.49" stop-color="#f8c2a9"/><stop offset="0.81" stop-color="#cb957a"/><stop offset="1" stop-color="#ae785c"/></linearGradient><clipPath id="clip-path"><path class="cls-1" d="M105.34,47.8A46.66,46.66,0,1,0,152,1.14,46.66,46.66,0,0,0,105.34,47.8"/></clipPath><linearGradient id="Unbenannter_Verlauf_2" x1="-489.49" y1="1149.34" x2="-488.55" y2="1149.34" gradientTransform="matrix(136.26, 0, 0, -136.26, 66786.94, 156659.76)" gradientUnits="userSpaceOnUse"><stop offset="0" stop-color="#ad785d"/><stop offset="0.02" stop-color="#ae785c"/><stop offset="0.15" stop-color="#ca9479"/><stop offset="0.29" stop-color="#e3ad93"/><stop offset="0.42" stop-color="#f3bda3"/><stop offset="0.52" stop-color="#f8c2a9"/><stop offset="0.65" stop-color="#e8b298"/><stop offset="0.9" stop-color="#bf896e"/><stop offset="1" stop-color="#ae785c"/></linearGradient></defs><title>1_price</title><path class="cls-2" d="M90.85,220A87.22,87.22,0,1,0,3.63,132.79,87.22,87.22,0,0,0,90.85,220"/><path class="cls-3" d="M90.85,220v-2.34A84.88,84.88,0,1,0,6,132.79a85,85,0,0,0,84.89,84.88v4.68a89.56,89.56,0,1,1,89.56-89.56,89.56,89.56,0,0,1-89.56,89.56h0Z"/><g class="cls-4"><rect class="cls-5" x="88.26" y="-15.93" width="127.46" height="127.46" transform="translate(-3.54 82.4) rotate(-30)"/></g><path class="cls-2" d="M120.29,52.51a.18.18,0,0,0-.2-.18h-3.3c-.15,0-.24.06-.26.18l-.64,3.27a.36.36,0,0,1-.34.26h-5.17c-.18,0-.24-.09-.18-.26.12-.53.28-1.24.49-2.11s.43-1.84.69-2.87l.81-3.26c.29-1.14.57-2.24.84-3.33s.53-2.09.77-3,.45-1.74.62-2.39a.32.32,0,0,1,.31-.26h7.88a.31.31,0,0,1,.31.26c.17.63.38,1.44.63,2.42s.52,2,.8,3.17.57,2.29.85,3.48.56,2.29.81,3.33.48,2,.67,2.78l.42,1.82c.05.17,0,.26-.19.26h-5.64a.3.3,0,0,1-.33-.26Zm-.59-4.3a.07.07,0,0,0,.08-.08c0-.22-.09-.57-.16-1s-.14-1-.23-1.48-.17-1-.25-1.52L118.93,43a.12.12,0,0,0-.08-.06,1.51,1.51,0,0,0-.31,0l-.31,0s-.07,0-.07.06c-.07.28-.15.66-.25,1.15s-.19,1-.29,1.52-.2,1-.29,1.48l-.18,1a.07.07,0,0,0,.08.08Z"/><path class="cls-2" d="M135.34,46.92c.15-.33.32-.69.49-1.08s.34-.8.5-1.2.32-.79.48-1.16.28-.7.38-1a.32.32,0,0,1,.34-.23h5.38a.33.33,0,0,1,.21.05s.06.09,0,.18-.22.47-.46.94L141.86,45l-1,1.84c-.32.63-.6,1.16-.82,1.61a.5.5,0,0,0-.1.28.73.73,0,0,0,.12.34l.72,1.54.93,2c.31.69.6,1.33.87,1.91s.44,1,.52,1.21,0,.26-.25.26h-5.41a.33.33,0,0,1-.22-.08.46.46,0,0,1-.12-.13c-.08-.26-.21-.62-.37-1.08s-.34-1-.52-1.46-.35-1-.53-1.45-.3-.83-.41-1.11-.21-.26-.49-.26-.3,0-.34.06a.18.18,0,0,0-.07.17v5.08a.23.23,0,0,1-.26.26h-4.89a.23.23,0,0,1-.26-.26V37.36a.23.23,0,0,1,.26-.26h4.89a.23.23,0,0,1,.26.26v9.46c0,.13.16.2.46.2S135.32,47,135.34,46.92Z"/><path class="cls-2" d="M152.16,56a4.54,4.54,0,0,1-1.26.24c-.53,0-1.05.07-1.55.07a4.5,4.5,0,0,1-2.75-.74,3,3,0,0,1-1-2.54V46.61a.15.15,0,0,0-.16-.16h-1.13c-.17,0-.26-.08-.26-.25V42.51c0-.17.09-.25.26-.25h1.13a.15.15,0,0,0,.16-.16V38.88c0-.17.08-.26.25-.26h4.95a.23.23,0,0,1,.26.26V42.1a.14.14,0,0,0,.15.16h1.55c.17,0,.26.08.26.25V46.2c0,.17-.09.25-.26.25h-1.55a.14.14,0,0,0-.15.16v4.51c0,.5.07.8.22.91a1.44,1.44,0,0,0,.83.17h.16a.23.23,0,0,1,.26.26l-.11,3.19a.26.26,0,0,1-.09.21Z"/><path class="cls-2" d="M154.92,38a2.83,2.83,0,0,1,.23-1.16,2.92,2.92,0,0,1,.63-.95,2.91,2.91,0,0,1,3.22-.65,3,3,0,0,1,.93.65,3.28,3.28,0,0,1,.63.95,3,3,0,0,1,0,2.32,3.28,3.28,0,0,1-.63,1,3,3,0,0,1-.93.65,2.91,2.91,0,0,1-1.15.23,2.82,2.82,0,0,1-2.07-.88,2.92,2.92,0,0,1-.63-1A2.83,2.83,0,0,1,154.92,38Zm.43,18c-.17,0-.25-.09-.25-.26V42.51a.22.22,0,0,1,.25-.25h5c.17,0,.26.08.26.25V55.78a.23.23,0,0,1-.26.26Z"/><path class="cls-2" d="M177,49a11.25,11.25,0,0,1-.51,3.5,5.48,5.48,0,0,1-1.37,2.37,4.75,4.75,0,0,1-2,1.07,11.59,11.59,0,0,1-3,.33,11.21,11.21,0,0,1-3-.33,4.55,4.55,0,0,1-1.94-1.07,5.51,5.51,0,0,1-1.41-2.37,11,11,0,0,1-.52-3.5,10.12,10.12,0,0,1,.52-3.42,5.55,5.55,0,0,1,1.41-2.27,4.43,4.43,0,0,1,2-1.05,13.39,13.39,0,0,1,3-.29,12.75,12.75,0,0,1,3,.29,4.58,4.58,0,0,1,2,1.05,5.51,5.51,0,0,1,1.37,2.27A10.39,10.39,0,0,1,177,49Zm-8.26-.1a11.77,11.77,0,0,0,.11,1.76,3.42,3.42,0,0,0,.3,1.1.69.69,0,0,0,.32.29,1.61,1.61,0,0,0,.63.09,1.67,1.67,0,0,0,.64-.09.73.73,0,0,0,.34-.29,4.3,4.3,0,0,0,.27-1.1,11.68,11.68,0,0,0,.12-1.76,9.41,9.41,0,0,0-.12-1.64,3.84,3.84,0,0,0-.27-1,.76.76,0,0,0-.32-.3,1.61,1.61,0,0,0-.63-.09,1.72,1.72,0,0,0-.66.09.71.71,0,0,0-.32.3,3,3,0,0,0-.3,1A9.53,9.53,0,0,0,168.78,48.93Z"/><path class="cls-2" d="M187.48,56a.23.23,0,0,1-.26-.26V47.43a1.42,1.42,0,0,0-.25-1,1.12,1.12,0,0,0-.88-.28h-.47a2.11,2.11,0,0,0-.33,0,.21.21,0,0,0-.21.23v9.3a.23.23,0,0,1-.26.26h-4.94a.23.23,0,0,1-.26-.26v-13c0-.14.09-.23.26-.26l1.29-.17,1.67-.18c.6-.06,1.22-.11,1.85-.14s1.25,0,1.83,0a11.41,11.41,0,0,1,2.89.31,4.57,4.57,0,0,1,1.92,1,3.91,3.91,0,0,1,1.07,1.66,7.89,7.89,0,0,1,.33,2.43v8.42a.23.23,0,0,1-.26.26Z"/><path class="cls-6" d="M58.79,145.66h-15c-.31,0-.49,0-.56-.1s-.1-.25-.1-.56a2,2,0,0,1,.4-1.07A10.43,10.43,0,0,1,45,142.3c.73-.68,1.73-1.57,3-2.66s2.88-2.44,4.87-4.08a31.77,31.77,0,0,0,3.22-3A12.35,12.35,0,0,0,58,129.81a9.23,9.23,0,0,0,.93-3,26,26,0,0,0,.23-3.79,14.05,14.05,0,0,0-1.09-6A8,8,0,0,0,55,113.56,12.19,12.19,0,0,0,50.2,112a48,48,0,0,0-6.27-.37c-1.51,0-3,.05-4.58.13s-3,.21-4.38.37-2.61.32-3.71.5a23.29,23.29,0,0,0-2.59.53q-.66.14-.66.66l.46,10.24a.8.8,0,0,0,.17.53.47.47,0,0,0,.5.13c.53-.13,1.26-.27,2.18-.43l2.89-.46c1-.16,1.93-.28,2.82-.37s1.59-.13,2.12-.13a20.7,20.7,0,0,1,3.65.23c.75.16,1.13.74,1.13,1.76s-.76,2.28-2.26,3.79-3.93,3.7-7.29,6.58a31.25,31.25,0,0,0-4.71,4.79,14.64,14.64,0,0,0-2.26,3.78,6.56,6.56,0,0,0-.36,1.53,19.46,19.46,0,0,0-.1,2.33v8.71a.53.53,0,0,0,.29.53,1.71,1.71,0,0,0,.7.13H58.79a.58.58,0,0,0,.66-.66V146.32A.58.58,0,0,0,58.79,145.66Zm19.66.2a7.08,7.08,0,0,0-2.32-1.56,7.76,7.76,0,0,0-5.84,0A7.08,7.08,0,0,0,68,145.86a7.18,7.18,0,0,0-1.56,2.39,8,8,0,0,0-.56,3,7.32,7.32,0,0,0,2.09,5.45,7.77,7.77,0,0,0,10.54,0,7.28,7.28,0,0,0,2.09-5.45,7.83,7.83,0,0,0-.56-3A7,7,0,0,0,78.45,145.86Zm34.49-31.21a13.14,13.14,0,0,0-5.51-2.35,40.1,40.1,0,0,0-7.89-.67,38.54,38.54,0,0,0-6.6.53,12.44,12.44,0,0,0-5.24,2.16A10.52,10.52,0,0,0,84.25,119,21.37,21.37,0,0,0,83,126.92a38.7,38.7,0,0,0,.5,6.61,11.71,11.71,0,0,0,1.79,4.69A7.6,7.6,0,0,0,88.79,141a14.6,14.6,0,0,0,5.51.9l1.49,0a18.78,18.78,0,0,0,2.09-.23c.35,0,.53.15.53.46a1.32,1.32,0,0,1-.13.6q-1.94,3.06-3.78,5.52c-1.24,1.64-2.35,3-3.32,4.22l-2.32,2.79a3.89,3.89,0,0,0-.86,1.23,1.77,1.77,0,0,0,.13.86c.09.13.35.2.79.2h14.2a2.55,2.55,0,0,0,.93-.13,1.81,1.81,0,0,0,.66-.53,94,94,0,0,0,6.67-8.81,38.47,38.47,0,0,0,3.78-7.21,27.56,27.56,0,0,0,1.66-6.65,65.61,65.61,0,0,0,.36-7.18,23.74,23.74,0,0,0-1-7.64A9.73,9.73,0,0,0,112.94,114.65Zm-9.49,15.66a4,4,0,0,1-.46,1.53,1.59,1.59,0,0,1-1,.69,6.94,6.94,0,0,1-1.66.17,6.1,6.1,0,0,1-1.55-.17,1.67,1.67,0,0,1-1-.69,3.66,3.66,0,0,1-.5-1.53,20.93,20.93,0,0,1-.13-2.66,21.73,21.73,0,0,1,.13-2.73,3.66,3.66,0,0,1,.5-1.53,1.54,1.54,0,0,1,1-.66,9.61,9.61,0,0,1,3.15,0,1.6,1.6,0,0,1,1,.66,4,4,0,0,1,.53,1.53,17.8,17.8,0,0,1,.16,2.73A20.93,20.93,0,0,1,103.45,130.31Zm52-11a9.82,9.82,0,0,0-3.22-4.69,13.1,13.1,0,0,0-5.5-2.35,40.14,40.14,0,0,0-7.9-.67,38.71,38.71,0,0,0-6.6.53,12.55,12.55,0,0,0-5.24,2.16,10.43,10.43,0,0,0-3.44,4.66,21.37,21.37,0,0,0-1.23,7.94,37.71,37.71,0,0,0,.5,6.61,11.56,11.56,0,0,0,1.79,4.69,7.6,7.6,0,0,0,3.48,2.75,14.54,14.54,0,0,0,5.5.9l1.5,0a18.78,18.78,0,0,0,2.09-.23c.35,0,.53.15.53.46a1.33,1.33,0,0,1-.14.6q-1.92,3.06-3.78,5.52c-1.23,1.64-2.34,3-3.31,4.22l-2.32,2.79a4,4,0,0,0-.87,1.23,1.74,1.74,0,0,0,.14.86c.08.13.35.2.79.2h14.2a2.63,2.63,0,0,0,.93-.13,1.81,1.81,0,0,0,.66-.53A93.67,93.67,0,0,0,150.7,148a39.17,39.17,0,0,0,3.79-7.21,27.07,27.07,0,0,0,1.65-6.65,63.07,63.07,0,0,0,.37-7.18A23.74,23.74,0,0,0,155.48,119.34Zm-12.7,11a4,4,0,0,1-.47,1.53,1.56,1.56,0,0,1-1,.69,7,7,0,0,1-1.66.17,6.24,6.24,0,0,1-1.56-.17,1.68,1.68,0,0,1-1-.69,3.53,3.53,0,0,1-.5-1.53,20.93,20.93,0,0,1-.13-2.66,21.73,21.73,0,0,1,.13-2.73,3.53,3.53,0,0,1,.5-1.53,1.54,1.54,0,0,1,1-.66,9.61,9.61,0,0,1,3.15,0,1.55,1.55,0,0,1,1,.66,3.94,3.94,0,0,1,.54,1.53,17.8,17.8,0,0,1,.16,2.73A20.93,20.93,0,0,1,142.78,130.31Z"/></svg>