<svg id="Ebene_1" data-name="Ebene 1" xmlns="http://www.w3.org/2000/svg" xmlns:xlink="http://www.w3.org/1999/xlink" viewBox="0 0 198.51 222.35"><defs><style>.cls-1{fill:none;}.cls-2{clip-path:url(#clip-path);}.cls-3{fill:url(#Unbenannter_Verlauf_2);}.cls-4{fill:#fff;}.cls-5{fill:url(#Unbenannter_Verlauf_4);}.cls-6{clip-path:url(#clip-path-2);}.cls-7{fill:url(#Unbenannter_Verlauf_2-2);}.cls-8{fill:#8c8c96;}</style><clipPath id="clip-path"><path class="cls-1" d="M-113.17,47.8A46.65,46.65,0,0,0-66.52,94.45,46.66,46.66,0,0,0-19.87,47.8,46.66,46.66,0,0,0-66.52,1.14,46.65,46.65,0,0,0-113.17,47.8"/></clipPath><linearGradient id="Unbenannter_Verlauf_2" x1="-708" y1="1149.34" x2="-707.06" y2="1149.34" gradientTransform="matrix(136.26, 0, 0, -136.26, 96343.7, 156659.76)" gradientUnits="userSpaceOnUse"><stop offset="0" stop-color="#ad785d"/><stop offset="0.02" stop-color="#ae785c"/><stop offset="0.15" stop-color="#ca9479"/><stop offset="0.29" stop-color="#e3ad93"/><stop offset="0.42" stop-color="#f3bda3"/><stop offset="0.52" stop-color="#f8c2a9"/><stop offset="0.65" stop-color="#e8b298"/><stop offset="0.9" stop-color="#bf896e"/><stop offset="1" stop-color="#ae785c"/></linearGradient><linearGradient id="Unbenannter_Verlauf_4" x1="-710.33" y1="1147.02" x2="-709.4" y2="1147.02" gradientTransform="matrix(226.54, -130.79, -130.79, -226.54, 310920.81, 167130.28)" gradientUnits="userSpaceOnUse"><stop offset="0" stop-color="#ad785d"/><stop offset="0.02" stop-color="#ad785d"/><stop offset="0.49" stop-color="#f8c2a9"/><stop offset="0.81" stop-color="#cb957a"/><stop offset="1" stop-color="#ae785c"/></linearGradient><clipPath id="clip-path-2"><path class="cls-1" d="M104.86,47.8A46.66,46.66,0,1,0,151.51,1.14,46.66,46.66,0,0,0,104.86,47.8"/></clipPath><linearGradient id="Unbenannter_Verlauf_2-2" x1="-706.61" y1="1148.54" x2="-705.68" y2="1148.54" gradientTransform="matrix(136.26, 0, 0, -136.26, 96372.92, 156550.74)" xlink:href="#Unbenannter_Verlauf_2"/></defs><title>2_price</title><g class="cls-2"><rect class="cls-3" x="-130.25" y="-15.93" width="127.46" height="127.46" transform="translate(-32.81 -26.86) rotate(-30)"/></g><path class="cls-4" d="M90.37,220A87.22,87.22,0,1,0,3.15,132.79,87.22,87.22,0,0,0,90.37,220"/><path class="cls-5" d="M90.37,220v-2.34A84.88,84.88,0,1,0,5.49,132.79a85,85,0,0,0,84.88,84.88v4.68a89.56,89.56,0,1,1,89.56-89.56,89.57,89.57,0,0,1-89.56,89.56h0Z"/><g class="cls-6"><rect class="cls-7" x="87.79" y="-15.93" width="127.46" height="127.46" transform="translate(-3.6 82.16) rotate(-30)"/></g><path class="cls-4" d="M119.82,52.51a.19.19,0,0,0-.21-.18h-3.3c-.15,0-.24.06-.25.18l-.65,3.27a.35.35,0,0,1-.33.26H109.9c-.17,0-.23-.09-.18-.26.12-.53.28-1.24.49-2.11s.44-1.84.69-2.87l.81-3.26c.29-1.14.57-2.24.84-3.33s.53-2.09.77-3,.45-1.74.62-2.39a.32.32,0,0,1,.31-.26h7.89a.31.31,0,0,1,.3.26c.18.63.39,1.44.64,2.42s.51,2,.79,3.17.57,2.29.85,3.48.56,2.29.82,3.33.48,2,.66,2.78l.42,1.82c0,.17,0,.26-.18.26H120.8a.31.31,0,0,1-.34-.26Zm-.6-4.3c.06,0,.08,0,.08-.08,0-.22-.09-.57-.15-1l-.23-1.48c-.09-.53-.18-1-.26-1.52L118.45,43a.12.12,0,0,0-.08-.06,1.43,1.43,0,0,0-.31,0,1.7,1.7,0,0,0-.3,0c-.06,0-.08,0-.08.06-.07.28-.15.66-.25,1.15s-.19,1-.29,1.52-.2,1-.29,1.48l-.18,1a.07.07,0,0,0,.08.08Z"/><path class="cls-4" d="M134.86,46.92c.16-.33.32-.69.49-1.08s.34-.8.5-1.2.32-.79.48-1.16.28-.7.39-1a.31.31,0,0,1,.33-.23h5.38a.33.33,0,0,1,.21.05q.08,0,0,.18c-.07.15-.23.47-.47.94L141.38,45l-1,1.84c-.32.63-.6,1.16-.82,1.61a.5.5,0,0,0-.1.28.66.66,0,0,0,.13.34c.17.38.41.89.72,1.54s.62,1.33.92,2,.6,1.33.87,1.91.44,1,.53,1.21,0,.26-.26.26H137a.33.33,0,0,1-.22-.08.46.46,0,0,1-.12-.13c-.08-.26-.21-.62-.37-1.08l-.51-1.46c-.19-.5-.36-1-.53-1.45s-.31-.83-.42-1.11-.21-.26-.49-.26a.59.59,0,0,0-.34.06.18.18,0,0,0-.07.17v5.08c0,.17-.08.26-.25.26h-4.9a.23.23,0,0,1-.26-.26V37.36a.23.23,0,0,1,.26-.26h4.9c.17,0,.25.09.25.26v9.46c0,.13.16.2.47.2S134.84,47,134.86,46.92Z"/><path class="cls-4" d="M151.68,56a4.54,4.54,0,0,1-1.26.24c-.53,0-1,.07-1.55.07a4.5,4.5,0,0,1-2.75-.74,3,3,0,0,1-1-2.54V46.61a.14.14,0,0,0-.16-.16h-1.13c-.17,0-.26-.08-.26-.25V42.51c0-.17.09-.25.26-.25H145a.14.14,0,0,0,.16-.16V38.88a.23.23,0,0,1,.26-.26h4.94a.23.23,0,0,1,.26.26V42.1a.14.14,0,0,0,.15.16h1.55c.17,0,.26.08.26.25V46.2c0,.17-.09.25-.26.25h-1.55a.14.14,0,0,0-.15.16v4.51c0,.5.07.8.22.91a1.46,1.46,0,0,0,.84.17h.15a.23.23,0,0,1,.26.26l-.1,3.19a.24.24,0,0,1-.1.21Z"/><path class="cls-4" d="M154.44,38a3,3,0,0,1,.23-1.16,2.92,2.92,0,0,1,.63-.95,3,3,0,0,1,.93-.65,3,3,0,0,1,2.29,0,3,3,0,0,1,.93.65,3.09,3.09,0,0,1,.63.95,3,3,0,0,1,0,2.32,3.09,3.09,0,0,1-.63,1,3,3,0,0,1-.93.65,3,3,0,0,1-2.29,0,3,3,0,0,1-.93-.65,2.92,2.92,0,0,1-.63-1A3,3,0,0,1,154.44,38Zm.44,18a.23.23,0,0,1-.26-.26V42.51c0-.17.08-.25.26-.25h5c.17,0,.26.08.26.25V55.78a.23.23,0,0,1-.26.26Z"/><path class="cls-4" d="M176.57,49a11.24,11.24,0,0,1-.52,3.5,5.48,5.48,0,0,1-1.37,2.37,4.66,4.66,0,0,1-2,1.07,11.64,11.64,0,0,1-3,.33,11.11,11.11,0,0,1-3-.33,4.53,4.53,0,0,1-1.95-1.07,5.5,5.5,0,0,1-1.4-2.37,10.67,10.67,0,0,1-.53-3.5,9.87,9.87,0,0,1,.53-3.42,5.54,5.54,0,0,1,1.4-2.27,4.42,4.42,0,0,1,2-1.05,13.29,13.29,0,0,1,3-.29,12.75,12.75,0,0,1,3,.29,4.52,4.52,0,0,1,2,1.05,5.51,5.51,0,0,1,1.37,2.27A10.38,10.38,0,0,1,176.57,49Zm-8.27-.1a13.27,13.27,0,0,0,.11,1.76,3.42,3.42,0,0,0,.3,1.1.69.69,0,0,0,.32.29,1.61,1.61,0,0,0,.63.09,1.76,1.76,0,0,0,.65-.09.71.71,0,0,0,.33-.29,4.3,4.3,0,0,0,.27-1.1,11.68,11.68,0,0,0,.12-1.76,9.41,9.41,0,0,0-.12-1.64,3.84,3.84,0,0,0-.27-1,.71.71,0,0,0-.32-.3,1.61,1.61,0,0,0-.63-.09A1.72,1.72,0,0,0,169,46a.71.71,0,0,0-.32.3,3,3,0,0,0-.3,1A10.66,10.66,0,0,0,168.3,48.93Z"/><path class="cls-4" d="M187,56a.23.23,0,0,1-.26-.26V47.43a1.49,1.49,0,0,0-.24-1,1.14,1.14,0,0,0-.89-.28h-.47a2.29,2.29,0,0,0-.33,0,.21.21,0,0,0-.21.23v9.3c0,.17-.08.26-.25.26H179.4a.23.23,0,0,1-.26-.26v-13c0-.14.09-.23.26-.26l1.29-.17,1.67-.18c.6-.06,1.22-.11,1.86-.14s1.24,0,1.83,0a11.38,11.38,0,0,1,2.88.31,4.57,4.57,0,0,1,1.92,1,3.82,3.82,0,0,1,1.07,1.66,7.89,7.89,0,0,1,.33,2.43v8.42c0,.17-.08.26-.25.26Z"/><path class="cls-8" d="M58.06,145.71H43.19a1,1,0,0,1-.56-.1.93.93,0,0,1-.1-.56,2,2,0,0,1,.39-1.06,11.46,11.46,0,0,1,1.48-1.61c.73-.69,1.72-1.56,3-2.64s2.86-2.43,4.83-4.06a32.51,32.51,0,0,0,3.2-3,13.16,13.16,0,0,0,1.91-2.7,9.53,9.53,0,0,0,.92-2.94,27,27,0,0,0,.23-3.76,13.84,13.84,0,0,0-1.09-6,7.88,7.88,0,0,0-3.06-3.43,12.25,12.25,0,0,0-4.77-1.55,49.08,49.08,0,0,0-6.22-.36c-1.49,0-3,0-4.54.13s-3,.21-4.35.36-2.59.32-3.68.5a20.73,20.73,0,0,0-2.57.53c-.44.08-.66.3-.66.65L28,124.27a.8.8,0,0,0,.17.53.46.46,0,0,0,.49.13c.53-.13,1.25-.27,2.17-.43l2.87-.46q1.47-.23,2.79-.36c.88-.09,1.58-.13,2.11-.13a19.45,19.45,0,0,1,3.62.23c.75.15,1.12.73,1.12,1.74s-.75,2.27-2.24,3.76-3.91,3.68-7.24,6.53a31.65,31.65,0,0,0-4.67,4.75,14.71,14.71,0,0,0-2.24,3.76,6.48,6.48,0,0,0-.36,1.52,19.2,19.2,0,0,0-.1,2.31v8.64a.51.51,0,0,0,.29.52,1.68,1.68,0,0,0,.7.14h30.6a.58.58,0,0,0,.66-.66V146.37A.58.58,0,0,0,58.06,145.71Zm19.52.19a7.21,7.21,0,0,0-5.2-2.11,7.42,7.42,0,0,0-2.9.56,7.29,7.29,0,0,0-2.3,1.55,7,7,0,0,0-1.55,2.38,7.89,7.89,0,0,0-.56,3,7.21,7.21,0,0,0,2.08,5.4,7.7,7.7,0,0,0,10.46,0,7.24,7.24,0,0,0,2.07-5.4,7.88,7.88,0,0,0-.55-3A7.11,7.11,0,0,0,77.58,145.9Zm41.53-6.46h-2.56a.35.35,0,0,1-.4-.4V128.76a.58.58,0,0,0-.66-.66H103.78a.58.58,0,0,0-.66.66V139a.35.35,0,0,1-.4.4H98.31c-.31,0-.46-.17-.46-.53q0-1.91,8.16-25.59a.64.64,0,0,0-.72-.72H93.64a.78.78,0,0,0-.86.66q-1.91,6.26-3.26,10.65t-2.2,7.35c-.57,2-1,3.58-1.35,4.78s-.57,2.19-.72,2.94a11.5,11.5,0,0,0-.27,1.81c0,.46,0,.94,0,1.42v8a.58.58,0,0,0,.66.66h17.11a.35.35,0,0,1,.4.4v5.54a.58.58,0,0,0,.66.66h11.71a.58.58,0,0,0,.66-.66v-5.54a.35.35,0,0,1,.4-.4h2.56a.58.58,0,0,0,.66-.66V140.1A.58.58,0,0,0,119.11,139.44Zm37.24-19.85a9.65,9.65,0,0,0-3.19-4.65,13,13,0,0,0-5.46-2.34,40.44,40.44,0,0,0-7.83-.66,37,37,0,0,0-6.55.53,12.18,12.18,0,0,0-5.2,2.14,10.42,10.42,0,0,0-3.43,4.62,21.31,21.31,0,0,0-1.21,7.88,38.25,38.25,0,0,0,.49,6.56,11.51,11.51,0,0,0,1.78,4.65,7.63,7.63,0,0,0,3.45,2.74,14.59,14.59,0,0,0,5.47.89c.43,0,.93,0,1.48,0a18.5,18.5,0,0,0,2.07-.23c.35,0,.53.16.53.46a1.3,1.3,0,0,1-.14.6c-1.27,2-2.52,3.85-3.75,5.47s-2.32,3-3.29,4.19-1.73,2.09-2.3,2.77a4.26,4.26,0,0,0-.86,1.22,1.91,1.91,0,0,0,.13.86c.09.13.35.2.79.2h14.09a2.5,2.5,0,0,0,.92-.14,1.68,1.68,0,0,0,.66-.52,92.69,92.69,0,0,0,6.61-8.74,38.59,38.59,0,0,0,3.76-7.16A27,27,0,0,0,157,134.3a64.79,64.79,0,0,0,.36-7.13A23.73,23.73,0,0,0,156.35,119.59Zm-12.6,10.88a3.91,3.91,0,0,1-.46,1.52,1.56,1.56,0,0,1-1,.69,6.88,6.88,0,0,1-1.64.17,6.1,6.1,0,0,1-1.55-.17,1.68,1.68,0,0,1-1-.69,3.44,3.44,0,0,1-.49-1.52,20.58,20.58,0,0,1-.13-2.64,21.21,21.21,0,0,1,.13-2.7,3.44,3.44,0,0,1,.49-1.52,1.54,1.54,0,0,1,1-.66,7.4,7.4,0,0,1,1.58-.13,7.5,7.5,0,0,1,1.54.13,1.55,1.55,0,0,1,1,.66,3.83,3.83,0,0,1,.53,1.52,17.37,17.37,0,0,1,.16,2.7A20.58,20.58,0,0,1,143.75,130.47Z"/></svg>