<svg id="Ebene_1" data-name="Ebene 1" xmlns="http://www.w3.org/2000/svg" xmlns:xlink="http://www.w3.org/1999/xlink" viewBox="0 0 198.51 222.35"><defs><style>.cls-1{fill:none;}.cls-2{clip-path:url(#clip-path);}.cls-3{fill:url(#Unbenannter_Verlauf_2);}.cls-4{fill:#fff;}.cls-5{fill:url(#Unbenannter_Verlauf_4);}.cls-6{clip-path:url(#clip-path-2);}.cls-7{fill:url(#Unbenannter_Verlauf_2-2);}.cls-8{fill:#8c8c96;}</style><clipPath id="clip-path"><path class="cls-1" d="M-113.88,47.8A46.65,46.65,0,0,0-67.23,94.45,46.66,46.66,0,0,0-20.58,47.8,46.66,46.66,0,0,0-67.23,1.14,46.65,46.65,0,0,0-113.88,47.8"/></clipPath><linearGradient id="Unbenannter_Verlauf_2" x1="-1142.25" y1="1147.74" x2="-1141.32" y2="1147.74" gradientTransform="matrix(136.26, 0, 0, -136.26, 155515.7, 156441.6)" gradientUnits="userSpaceOnUse"><stop offset="0" stop-color="#ad785d"/><stop offset="0.02" stop-color="#ae785c"/><stop offset="0.15" stop-color="#ca9479"/><stop offset="0.29" stop-color="#e3ad93"/><stop offset="0.42" stop-color="#f3bda3"/><stop offset="0.52" stop-color="#f8c2a9"/><stop offset="0.65" stop-color="#e8b298"/><stop offset="0.9" stop-color="#bf896e"/><stop offset="1" stop-color="#ae785c"/></linearGradient><linearGradient id="Unbenannter_Verlauf_4" x1="-1145.92" y1="1146.18" x2="-1144.98" y2="1146.18" gradientTransform="matrix(226.54, -130.79, -130.79, -226.54, 409486.75, 109970.97)" gradientUnits="userSpaceOnUse"><stop offset="0" stop-color="#ad785d"/><stop offset="0.02" stop-color="#ad785d"/><stop offset="0.49" stop-color="#f8c2a9"/><stop offset="0.81" stop-color="#cb957a"/><stop offset="1" stop-color="#ae785c"/></linearGradient><clipPath id="clip-path-2"><path class="cls-1" d="M104.63,47.8A46.66,46.66,0,1,0,151.28,1.14,46.66,46.66,0,0,0,104.63,47.8"/></clipPath><linearGradient id="Unbenannter_Verlauf_2-2" x1="-1140.87" y1="1146.94" x2="-1139.93" y2="1146.94" gradientTransform="matrix(136.26, 0, 0, -136.26, 155544.97, 156332.34)" xlink:href="#Unbenannter_Verlauf_2"/></defs><title>4_price</title><g class="cls-2"><rect class="cls-3" x="-130.96" y="-15.93" width="127.46" height="127.46" transform="translate(-32.91 -27.21) rotate(-30)"/></g><path class="cls-4" d="M90.14,220A87.22,87.22,0,1,0,2.92,132.79,87.22,87.22,0,0,0,90.14,220"/><path class="cls-5" d="M90.14,220v-2.34A84.88,84.88,0,1,0,5.25,132.79a85,85,0,0,0,84.89,84.88v4.68a89.56,89.56,0,1,1,89.56-89.56,89.56,89.56,0,0,1-89.56,89.56h0Z"/><g class="cls-6"><rect class="cls-7" x="87.55" y="-15.93" width="127.46" height="127.46" transform="translate(-3.63 82.05) rotate(-30)"/></g><path class="cls-4" d="M119.59,52.51a.19.19,0,0,0-.21-.18h-3.3c-.15,0-.24.06-.26.18l-.64,3.27a.35.35,0,0,1-.33.26h-5.18c-.17,0-.23-.09-.18-.26.12-.53.28-1.24.49-2.11s.43-1.84.69-2.87l.81-3.26c.29-1.14.57-2.24.84-3.33s.53-2.09.77-3,.45-1.74.62-2.39a.32.32,0,0,1,.31-.26h7.88a.31.31,0,0,1,.31.26c.17.63.38,1.44.63,2.42s.52,2,.8,3.17.57,2.29.85,3.48.56,2.29.81,3.33.48,2,.67,2.78l.42,1.82c0,.17,0,.26-.18.26h-5.65a.3.3,0,0,1-.33-.26Zm-.6-4.3a.07.07,0,0,0,.08-.08c0-.22-.09-.57-.15-1s-.15-1-.24-1.48-.17-1-.25-1.52L118.22,43a.12.12,0,0,0-.08-.06,1.43,1.43,0,0,0-.31,0l-.31,0s-.07,0-.07.06c-.07.28-.15.66-.25,1.15s-.19,1-.29,1.52-.2,1-.29,1.48l-.18,1a.07.07,0,0,0,.08.08Z"/><path class="cls-4" d="M134.63,46.92c.15-.33.32-.69.49-1.08s.34-.8.5-1.2.32-.79.48-1.16.28-.7.38-1a.32.32,0,0,1,.34-.23h5.38a.33.33,0,0,1,.21.05c.05,0,.06.09,0,.18s-.22.47-.46.94L141.15,45l-1,1.84c-.32.63-.6,1.16-.82,1.61a.5.5,0,0,0-.1.28.73.73,0,0,0,.12.34l.73,1.54c.31.66.61,1.33.92,2s.6,1.33.87,1.91.44,1,.52,1.21,0,.26-.25.26h-5.41a.33.33,0,0,1-.22-.08.46.46,0,0,1-.12-.13c-.08-.26-.21-.62-.37-1.08s-.34-1-.52-1.46-.35-1-.53-1.45-.3-.83-.41-1.11-.21-.26-.49-.26-.3,0-.34.06a.18.18,0,0,0-.07.17v5.08a.23.23,0,0,1-.26.26h-4.89a.23.23,0,0,1-.26-.26V37.36a.23.23,0,0,1,.26-.26h4.89a.23.23,0,0,1,.26.26v9.46c0,.13.16.2.47.2S134.61,47,134.63,46.92Z"/><path class="cls-4" d="M151.45,56a4.54,4.54,0,0,1-1.26.24c-.53,0-1.05.07-1.55.07a4.5,4.5,0,0,1-2.75-.74,3,3,0,0,1-1-2.54V46.61a.14.14,0,0,0-.16-.16h-1.13c-.17,0-.26-.08-.26-.25V42.51c0-.17.09-.25.26-.25h1.13a.14.14,0,0,0,.16-.16V38.88a.23.23,0,0,1,.26-.26h4.94a.23.23,0,0,1,.26.26V42.1a.14.14,0,0,0,.15.16h1.55c.17,0,.26.08.26.25V46.2c0,.17-.09.25-.26.25h-1.55a.14.14,0,0,0-.15.16v4.51c0,.5.07.8.22.91a1.44,1.44,0,0,0,.83.17h.16a.23.23,0,0,1,.26.26l-.11,3.19a.26.26,0,0,1-.09.21Z"/><path class="cls-4" d="M154.21,38a2.83,2.83,0,0,1,.23-1.16,2.92,2.92,0,0,1,.63-.95,2.91,2.91,0,0,1,3.22-.65,3,3,0,0,1,.93.65,3.28,3.28,0,0,1,.63.95,3,3,0,0,1,0,2.32,3.28,3.28,0,0,1-.63,1,3,3,0,0,1-.93.65,2.87,2.87,0,0,1-3.22-.65,2.92,2.92,0,0,1-.63-1A2.83,2.83,0,0,1,154.21,38Zm.43,18c-.17,0-.25-.09-.25-.26V42.51a.22.22,0,0,1,.25-.25h5c.17,0,.26.08.26.25V55.78a.23.23,0,0,1-.26.26Z"/><path class="cls-4" d="M176.33,49a11.25,11.25,0,0,1-.51,3.5,5.48,5.48,0,0,1-1.37,2.37,4.75,4.75,0,0,1-2,1.07,11.59,11.59,0,0,1-3,.33,11.21,11.21,0,0,1-3-.33,4.55,4.55,0,0,1-1.94-1.07,5.41,5.41,0,0,1-1.4-2.37,10.67,10.67,0,0,1-.53-3.5,9.87,9.87,0,0,1,.53-3.42,5.44,5.44,0,0,1,1.4-2.27,4.42,4.42,0,0,1,2-1.05,13.23,13.23,0,0,1,3-.29,12.75,12.75,0,0,1,3,.29,4.58,4.58,0,0,1,2,1.05,5.51,5.51,0,0,1,1.37,2.27A10.39,10.39,0,0,1,176.33,49Zm-8.26-.1a11.77,11.77,0,0,0,.11,1.76,3.42,3.42,0,0,0,.3,1.1.69.69,0,0,0,.32.29,1.61,1.61,0,0,0,.63.09,1.67,1.67,0,0,0,.64-.09.73.73,0,0,0,.34-.29,4.3,4.3,0,0,0,.27-1.1,11.68,11.68,0,0,0,.12-1.76,9.41,9.41,0,0,0-.12-1.64,3.84,3.84,0,0,0-.27-1,.76.76,0,0,0-.32-.3,1.61,1.61,0,0,0-.63-.09,1.72,1.72,0,0,0-.66.09.71.71,0,0,0-.32.3,3,3,0,0,0-.3,1A9.53,9.53,0,0,0,168.07,48.93Z"/><path class="cls-4" d="M186.77,56a.23.23,0,0,1-.26-.26V47.43a1.49,1.49,0,0,0-.24-1,1.14,1.14,0,0,0-.89-.28h-.47a2.11,2.11,0,0,0-.33,0,.21.21,0,0,0-.21.23v9.3a.23.23,0,0,1-.26.26h-4.94a.23.23,0,0,1-.26-.26v-13c0-.14.09-.23.26-.26l1.29-.17,1.67-.18c.6-.06,1.22-.11,1.86-.14s1.24,0,1.82,0a11.41,11.41,0,0,1,2.89.31,4.57,4.57,0,0,1,1.92,1,3.91,3.91,0,0,1,1.07,1.66,7.89,7.89,0,0,1,.33,2.43v8.42a.23.23,0,0,1-.26.26Z"/><path class="cls-8" d="M56.56,145.92H50.38a.35.35,0,0,1-.4-.4V113.15a.59.59,0,0,0-.67-.66H37.81a4.05,4.05,0,0,0-1.26.2l-9.17,2.06a.85.85,0,0,0-.66.87v10.32a.59.59,0,0,0,.66.67l8.31-2a.44.44,0,0,1,.4.33v20.58a.35.35,0,0,1-.4.4H28a.59.59,0,0,0-.66.67v10.52a.58.58,0,0,0,.66.66H56.56a.58.58,0,0,0,.66-.66V146.59A.59.59,0,0,0,56.56,145.92Zm20.49.2a7.26,7.26,0,0,0-2.32-1.57,7.92,7.92,0,0,0-5.85,0,7.31,7.31,0,0,0-2.33,1.57,7.12,7.12,0,0,0-1.56,2.4,7.83,7.83,0,0,0-.56,3,7.38,7.38,0,1,0,14.75,0,8,8,0,0,0-.56-3A7,7,0,0,0,77.05,146.12Zm34.56-31.27a13,13,0,0,0-5.52-2.36,41.1,41.1,0,0,0-7.91-.67,37.63,37.63,0,0,0-6.61.54,12.23,12.23,0,0,0-5.25,2.16,10.46,10.46,0,0,0-3.46,4.66,21.49,21.49,0,0,0-1.23,8,39,39,0,0,0,.5,6.63,11.57,11.57,0,0,0,1.8,4.69,7.68,7.68,0,0,0,3.48,2.76,14.65,14.65,0,0,0,5.52.9l1.5,0a18.78,18.78,0,0,0,2.09-.23c.35,0,.53.15.53.46a1.26,1.26,0,0,1-.13.6c-1.29,2-2.55,3.89-3.79,5.53s-2.35,3.05-3.32,4.23l-2.33,2.8a3.89,3.89,0,0,0-.86,1.23,1.77,1.77,0,0,0,.13.86c.09.14.35.2.8.2h14.22a2.55,2.55,0,0,0,.93-.13,1.92,1.92,0,0,0,.67-.53,94.69,94.69,0,0,0,6.68-8.83,38.53,38.53,0,0,0,3.78-7.22,27.32,27.32,0,0,0,1.67-6.66,65.93,65.93,0,0,0,.36-7.19,23.87,23.87,0,0,0-1-7.66A9.8,9.8,0,0,0,111.61,114.85Zm-9.51,15.69a4,4,0,0,1-.46,1.53,1.6,1.6,0,0,1-1,.7,7.06,7.06,0,0,1-1.66.16,6.29,6.29,0,0,1-1.56-.16,1.71,1.71,0,0,1-1-.7,3.66,3.66,0,0,1-.5-1.53,21.11,21.11,0,0,1-.13-2.67,21.73,21.73,0,0,1,.13-2.73,3.66,3.66,0,0,1,.5-1.53,1.54,1.54,0,0,1,1-.67,9.67,9.67,0,0,1,3.16,0,1.57,1.57,0,0,1,1,.67,4,4,0,0,1,.53,1.53,17.59,17.59,0,0,1,.17,2.73A20.81,20.81,0,0,1,102.1,130.54Zm52.14-11a9.82,9.82,0,0,0-3.23-4.7,13,13,0,0,0-5.51-2.36,41.18,41.18,0,0,0-7.91-.67,37.75,37.75,0,0,0-6.62.54,12.33,12.33,0,0,0-5.25,2.16,10.52,10.52,0,0,0-3.45,4.66,21.49,21.49,0,0,0-1.23,8,38,38,0,0,0,.5,6.63,11.71,11.71,0,0,0,1.79,4.69,7.71,7.71,0,0,0,3.49,2.76,14.62,14.62,0,0,0,5.52.9l1.49,0a18.93,18.93,0,0,0,2.1-.23c.35,0,.53.15.53.46a1.27,1.27,0,0,1-.14.6c-1.28,2-2.54,3.89-3.78,5.53s-2.35,3.05-3.33,4.23l-2.32,2.8a4,4,0,0,0-.87,1.23,1.74,1.74,0,0,0,.14.86c.08.14.35.2.79.2h14.23a2.63,2.63,0,0,0,.93-.13,1.81,1.81,0,0,0,.66-.53,93,93,0,0,0,6.68-8.83,38.62,38.62,0,0,0,3.79-7.22,27.29,27.29,0,0,0,1.66-6.66,65.79,65.79,0,0,0,.37-7.19A24.15,24.15,0,0,0,154.24,119.55Zm-12.73,11a4,4,0,0,1-.47,1.53,1.58,1.58,0,0,1-1,.7,7.15,7.15,0,0,1-1.67.16,6.29,6.29,0,0,1-1.56-.16,1.69,1.69,0,0,1-1-.7,3.53,3.53,0,0,1-.5-1.53,20.81,20.81,0,0,1-.14-2.67,21.41,21.41,0,0,1,.14-2.73,3.53,3.53,0,0,1,.5-1.53,1.52,1.52,0,0,1,1-.67,8.31,8.31,0,0,1,1.59-.13,8.62,8.62,0,0,1,1.57.13,1.53,1.53,0,0,1,1,.67,3.79,3.79,0,0,1,.53,1.53,16.42,16.42,0,0,1,.17,2.73A21.11,21.11,0,0,1,141.51,130.54Z"/></svg>