<svg id="Ebene_1" data-name="Ebene 1" xmlns="http://www.w3.org/2000/svg" xmlns:xlink="http://www.w3.org/1999/xlink" viewBox="0 0 328.16 73.12"><defs><style>.cls-1{fill-rule:evenodd;fill:url(#linear-gradient);}.cls-2{fill:#fff;}</style><linearGradient id="linear-gradient" x1="0.78" y1="36.56" x2="327.37" y2="36.56" gradientUnits="userSpaceOnUse"><stop offset="0" stop-color="#d59e85"/><stop offset="1" stop-color="#ad785a"/></linearGradient></defs><title>cta</title><path class="cls-1" d="M36.66.56H291.5a35.87,35.87,0,0,1,35.87,35.88v.24A35.87,35.87,0,0,1,291.5,72.56H36.66A35.87,35.87,0,0,1,.78,36.68v-.24A35.87,35.87,0,0,1,36.66.56Z"/><path class="cls-2" d="M62.84,25.2H55.6a.41.41,0,0,0-.46.36L51.61,36.47a3.38,3.38,0,0,1-.18.47.3.3,0,0,1-.29.14c-.16,0-.31-.2-.42-.61L47.29,25.56q-.13-.36-.39-.36H39.17a.32.32,0,0,0-.36.36V49.17a.32.32,0,0,0,.36.36h5.49a.32.32,0,0,0,.35-.36L44.73,34c0-.34.09-.5.28-.5a.33.33,0,0,1,.23.07.59.59,0,0,1,.16.35l2.86,9.63a1,1,0,0,0,.25.47.93.93,0,0,0,.42.07h3.85a.51.51,0,0,0,.38-.11,2.2,2.2,0,0,0,.23-.5L56.31,34c.1-.34.24-.5.43-.5s.2,0,.23.07a.73.73,0,0,1,.06.39l-.32,15.24c0,.24.11.36.35.36h5.78a.32.32,0,0,0,.35-.36V25.56A.32.32,0,0,0,62.84,25.2ZM75.63,30a12.44,12.44,0,0,0-3.79.54A7.08,7.08,0,0,0,69,32.28a7.71,7.71,0,0,0-1.84,3.1,15,15,0,0,0-.64,4.67c0,3.44.77,5.93,2.32,7.5s4,2.34,7.41,2.34a22.47,22.47,0,0,0,3.85-.32,12.2,12.2,0,0,0,2.71-.72.29.29,0,0,0,.22-.32l-.39-3.79c0-.17-.19-.22-.43-.15a28.24,28.24,0,0,1-2.89.51,23.13,23.13,0,0,1-2.42.14,5.37,5.37,0,0,1-3-.7,3,3,0,0,1-1-2.63c0-.12.07-.18.22-.18h9.37a.83.83,0,0,0,.57-.16,1.26,1.26,0,0,0,.25-.73c0-.38.09-.82.13-1.31s.05-.91.05-1.27q0-4.29-1.78-6.26C80.4,30.69,78.42,30,75.63,30Zm2.29,8.14a.39.39,0,0,1-.29.13H72.82a.2.2,0,0,1-.22-.22,10.62,10.62,0,0,1,.11-1.54,3.43,3.43,0,0,1,.41-1.23,2.09,2.09,0,0,1,.87-.82,3.1,3.1,0,0,1,1.5-.31,3.06,3.06,0,0,1,1.36.25,1.94,1.94,0,0,1,.76.68,2.5,2.5,0,0,1,.34,1A11.31,11.31,0,0,1,78,37.51,1.24,1.24,0,0,1,77.92,38.17Zm24.13-6.6A4.42,4.42,0,0,0,100,30.39,11.87,11.87,0,0,0,96.81,30a15.33,15.33,0,0,0-1.66.11c-.63.07-1.29.18-2,.32-.26,0-.39-.1-.39-.29V23.59a.32.32,0,0,0-.36-.36H86.83a.32.32,0,0,0-.36.36V49.17a.32.32,0,0,0,.36.36h5.59a.32.32,0,0,0,.36-.36V35.4A.32.32,0,0,1,93.1,35a6.71,6.71,0,0,1,.75-.11q.44,0,1,0a2.43,2.43,0,0,1,1.89.55,3.09,3.09,0,0,1,.47,1.95V49.17c0,.24.11.36.35.36h5.67a.32.32,0,0,0,.36-.36V37a13,13,0,0,0-.36-3.31A5,5,0,0,0,102.05,31.57Zm15.72-1.4c-.57,0-1.1-.08-1.59-.1s-1,0-1.65,0a31.2,31.2,0,0,0-3.78.23c-1.24.16-2.38.33-3.42.52a.38.38,0,0,0-.36.4v18a.32.32,0,0,0,.36.36h5.59q.39,0,.39-.36V35.61q0-.31.18-.36a5.41,5.41,0,0,1,.88-.14l.83,0,1.16,0c.39,0,.78.06,1.16.11q.21,0,.21-.18l.18-4.62C117.91,30.28,117.86,30.2,117.77,30.17Zm16.9-.14a12.5,12.5,0,0,0-3.8.54A7.08,7.08,0,0,0,128,32.28a7.81,7.81,0,0,0-1.83,3.1,14.76,14.76,0,0,0-.64,4.67c0,3.44.77,5.93,2.31,7.5s4,2.34,7.42,2.34a22.55,22.55,0,0,0,3.85-.32,12.52,12.52,0,0,0,2.71-.72.29.29,0,0,0,.21-.32l-.39-3.79c-.05-.17-.19-.22-.43-.15a28.24,28.24,0,0,1-2.89.51,23.13,23.13,0,0,1-2.42.14,5.39,5.39,0,0,1-3-.7,3,3,0,0,1-1-2.63q0-.18.21-.18h9.38a.83.83,0,0,0,.57-.16,1.33,1.33,0,0,0,.25-.73c0-.38.08-.82.12-1.31s.05-.91.05-1.27q0-4.29-1.78-6.26T134.67,30ZM137,38.17a.38.38,0,0,1-.29.13h-4.81a.19.19,0,0,1-.21-.22,10.68,10.68,0,0,1,.1-1.54,3.64,3.64,0,0,1,.41-1.23,2.18,2.18,0,0,1,.88-.82,3.1,3.1,0,0,1,1.5-.31,3,3,0,0,1,1.35.25,2,2,0,0,1,.77.68,2.66,2.66,0,0,1,.34,1c0,.41.07.86.07,1.36A1.21,1.21,0,0,1,137,38.17Zm23.74-6.49a5.9,5.9,0,0,0-2.57-1.26,17,17,0,0,0-4-.39c-.69,0-1.43,0-2.21.07s-1.56.11-2.32.18-1.48.16-2.16.25l-1.73.25c-.23,0-.35.17-.35.36v18a.32.32,0,0,0,.35.36h5.64a.32.32,0,0,0,.35-.36V35.4c0-.22.1-.34.29-.36a6.07,6.07,0,0,1,.75-.11q.42,0,1,0a2.56,2.56,0,0,1,1.92.53,3,3,0,0,1,.47,1.94v11.8a.32.32,0,0,0,.35.36h5.67a.32.32,0,0,0,.36-.36v-12a11.08,11.08,0,0,0-.43-3.33A4.82,4.82,0,0,0,160.69,31.68ZM176,30.39h-2.49c-.14,0-.21-.07-.21-.22V25.7a.32.32,0,0,0-.36-.36h-5.6c-.24,0-.35.12-.35.36v4.47a.2.2,0,0,1-.22.22h-2a.32.32,0,0,0-.36.36V34.9c0,.24.12.35.36.35h2a.2.2,0,0,1,.22.22V45.6a4,4,0,0,0,1.21,3.29,5.44,5.44,0,0,0,3.56,1q.93,0,1.89-.09a7.6,7.6,0,0,0,1.61-.3.43.43,0,0,0,.35-.47l.11-3.54a.32.32,0,0,0-.36-.36h-.57a1.72,1.72,0,0,1-1.17-.29,1.61,1.61,0,0,1-.32-1.21V35.47a.19.19,0,0,1,.21-.22H176c.24,0,.36-.11.36-.35V30.75A.32.32,0,0,0,176,30.39Zm19.08-7.16h-5.6a.32.32,0,0,0-.36.36V30c0,.21-.08.32-.25.32a9.73,9.73,0,0,1-1.08-.09,12.8,12.8,0,0,0-1.55-.09q-4.5,0-6.46,2.44c-1.3,1.62-2,4.1-2,7.44a22.59,22.59,0,0,0,.41,4.65,6.42,6.42,0,0,0,1.48,3.06,6,6,0,0,0,3,1.68,18.6,18.6,0,0,0,4.85.52c.71,0,1.45,0,2.21,0s1.48-.09,2.16-.16,1.29-.17,1.85-.27a7.21,7.21,0,0,0,1.34-.38c.23-.09.35-.22.35-.39v-25A.32.32,0,0,0,195.06,23.23ZM189.1,45c0,.17-.06.26-.18.28a5.52,5.52,0,0,1-1.39.15A4.53,4.53,0,0,1,186,45.2a1.81,1.81,0,0,1-1-.8,4.62,4.62,0,0,1-.5-1.63,21.43,21.43,0,0,1-.14-2.68,18.47,18.47,0,0,1,.16-2.72,4.66,4.66,0,0,1,.54-1.7,1.89,1.89,0,0,1,1-.86,4,4,0,0,1,1.49-.24,3.94,3.94,0,0,1,1.36.18.29.29,0,0,1,.21.29Zm18.58-15a12.46,12.46,0,0,0-3.8.54A7.08,7.08,0,0,0,201,32.28a7.59,7.59,0,0,0-1.83,3.1,14.73,14.73,0,0,0-.65,4.67c0,3.44.78,5.93,2.32,7.5s4,2.34,7.42,2.34a22.64,22.64,0,0,0,3.85-.32,12.52,12.52,0,0,0,2.71-.72.29.29,0,0,0,.21-.32l-.39-3.79c0-.17-.19-.22-.43-.15a28.24,28.24,0,0,1-2.89.51,23.13,23.13,0,0,1-2.42.14,5.37,5.37,0,0,1-3-.7,3,3,0,0,1-1-2.63c0-.12.07-.18.22-.18h9.37a.83.83,0,0,0,.57-.16,1.19,1.19,0,0,0,.25-.73c.05-.38.09-.82.13-1.31s0-.91,0-1.27q0-4.29-1.78-6.26T207.68,30ZM210,38.17a.38.38,0,0,1-.29.13h-4.81a.19.19,0,0,1-.21-.22,10.68,10.68,0,0,1,.1-1.54,3.43,3.43,0,0,1,.41-1.23,2.12,2.12,0,0,1,.88-.82,3.78,3.78,0,0,1,2.85-.06,1.87,1.87,0,0,1,.76.68,2.5,2.5,0,0,1,.34,1,11.31,11.31,0,0,1,.07,1.36A1.24,1.24,0,0,1,210,38.17Zm20.49,6.37a.5.5,0,0,0-.21,0c-.36.07-.75.13-1.18.18a10.54,10.54,0,0,1-1.24.07,5.65,5.65,0,0,1-1.61-.2,1.9,1.9,0,0,1-1-.71,3.29,3.29,0,0,1-.52-1.44,14.93,14.93,0,0,1-.14-2.34,16.33,16.33,0,0,1,.16-2.59,3.9,3.9,0,0,1,.53-1.56,1.82,1.82,0,0,1,1-.77,5.14,5.14,0,0,1,1.52-.2,10.27,10.27,0,0,1,2.35.29c.09,0,.16,0,.19,0a.2.2,0,0,0,.06-.14l.21-4.29a.29.29,0,0,0-.21-.32,7.78,7.78,0,0,0-1.78-.34,21.47,21.47,0,0,0-2.43-.13,9.58,9.58,0,0,0-3.9.7,6.09,6.09,0,0,0-2.55,2,8.54,8.54,0,0,0-1.39,3.18,18.4,18.4,0,0,0-.43,4.16,17.79,17.79,0,0,0,.45,4.2,7.58,7.58,0,0,0,1.44,3.08,6.33,6.33,0,0,0,2.6,1.88,10.55,10.55,0,0,0,3.92.64,22.29,22.29,0,0,0,2.3-.12,10.07,10.07,0,0,0,2-.42c.12,0,.18-.12.18-.28l-.18-4.37C230.57,44.61,230.53,44.55,230.45,44.54Zm20.43,3.74q-.36-.68-.87-1.59c-.35-.61-.72-1.27-1.11-2l-1.14-2c-.37-.66-.71-1.24-1-1.75l-.68-1.13a.9.9,0,0,1-.14-.47.85.85,0,0,1,.17-.43l1.34-2.12c.49-.78,1-1.55,1.43-2.31l1.3-2.15,1-1.61c.05-.05,0-.11,0-.2a.31.31,0,0,0-.26-.12h-6.14a.5.5,0,0,0-.49.32c-.2.41-.44.88-.74,1.41l-.92,1.69-1,1.73c-.33.57-.63,1.09-.91,1.54-.08.1-.3.14-.68.14s-.64-.09-.64-.28V23.59a.32.32,0,0,0-.36-.36h-5.56a.32.32,0,0,0-.36.36V49.17a.32.32,0,0,0,.36.36H239a.32.32,0,0,0,.36-.36V41.73a.28.28,0,0,1,.1-.25,1.06,1.06,0,0,1,.5-.07.73.73,0,0,1,.72.36c.21.4.48.95.82,1.63s.67,1.38,1,2.11.67,1.43,1,2.11l.75,1.63a.73.73,0,0,0,.2.19.55.55,0,0,0,.34.09h6.13a.47.47,0,0,0,.39-.14c.07-.1.08-.18,0-.25S251.12,48.73,250.88,48.28ZM261.5,30a12.44,12.44,0,0,0-3.79.54,7.08,7.08,0,0,0-2.89,1.71,7.71,7.71,0,0,0-1.84,3.1,15,15,0,0,0-.64,4.67c0,3.44.77,5.93,2.32,7.5s4,2.34,7.41,2.34a22.47,22.47,0,0,0,3.85-.32,12.2,12.2,0,0,0,2.71-.72.29.29,0,0,0,.22-.32l-.39-3.79c0-.17-.19-.22-.43-.15a28.24,28.24,0,0,1-2.89.51,23.13,23.13,0,0,1-2.42.14,5.37,5.37,0,0,1-3.05-.7,3,3,0,0,1-1-2.63c0-.12.07-.18.22-.18h9.37a.83.83,0,0,0,.57-.16,1.26,1.26,0,0,0,.25-.73c.05-.38.09-.82.13-1.31s.05-.91.05-1.27q0-4.29-1.78-6.26C266.27,30.69,264.29,30,261.5,30Zm2.29,8.14a.39.39,0,0,1-.29.13h-4.81a.2.2,0,0,1-.22-.22,10.62,10.62,0,0,1,.11-1.54,3.43,3.43,0,0,1,.41-1.23,2.09,2.09,0,0,1,.87-.82,3.1,3.1,0,0,1,1.5-.31,3.06,3.06,0,0,1,1.36.25,1.94,1.94,0,0,1,.76.68,2.5,2.5,0,0,1,.34,1,11.31,11.31,0,0,1,.07,1.36A1.24,1.24,0,0,1,263.79,38.17Zm25.13-4.28a4.9,4.9,0,0,0-1.39-2.21A5.9,5.9,0,0,0,285,30.42a17.07,17.07,0,0,0-4-.39c-.69,0-1.42,0-2.21.07s-1.55.11-2.31.18-1.48.16-2.16.25l-1.73.25q-.36.07-.36.36v18a.32.32,0,0,0,.36.36h5.63a.32.32,0,0,0,.36-.36V35.4c0-.22.09-.34.28-.36a6.71,6.71,0,0,1,.75-.11c.29,0,.61,0,1,0a2.57,2.57,0,0,1,1.92.53,3,3,0,0,1,.46,1.94v11.8a.32.32,0,0,0,.36.36H289a.32.32,0,0,0,.36-.36v-12A11.41,11.41,0,0,0,288.92,33.89Z"/></svg>