<svg id="Ebene_1" data-name="Ebene 1" xmlns="http://www.w3.org/2000/svg" viewBox="0 0 641.52 57.12"><defs><style>.cls-1{fill:#cd1414;}.cls-2{fill:#ffd400;}.cls-3{fill:#fff;fill-rule:evenodd;}</style></defs><title>footer</title><rect class="cls-1" width="641.52" height="57.12"/><path class="cls-2" d="M623.26,37.14a6,6,0,1,1-6-6A6,6,0,0,1,623.26,37.14Z"/><path class="cls-3" d="M489.69,28H492a4.1,4.1,0,0,0,4.37-3.54A3.12,3.12,0,0,0,493,21h-2.15Zm113.24-4.09,5.1-9.56h11.73l-17.7,28H590.13l5.67-8L589.33,15l-4.42,27.42h-9.38l-5.76-12.94-2.09,12.94H558.3l4.51-28h9.63L578,26.91l2-12.53h20.5Zm-43.85-9.56-4.51,28h-9.38l-5.76-12.94-2.09,12.94H528l4.51-28h9.63l5.58,12.53,2-12.53ZM495.65,14c6.48,0,10.88,3.51,10.92,9.17L508,14.38h21.24l-1.14,7.08H516.87l-.56,3.36h10.15l-1.12,7H515.15l-.58,3.48H526l-1.14,7.08H503.47l2.44-15.17c-1.64,4.92-6.13,7.81-12,7.81h-5.36l-1.18,7.36h-10.2L481.76,14Z"/></svg>