<svg id="Ebene_1" data-name="Ebene 1" xmlns="http://www.w3.org/2000/svg" xmlns:xlink="http://www.w3.org/1999/xlink" viewBox="0 0 582.17 226.77"><defs><style>.cls-1{fill:#fff;}.cls-2{fill:url(#linear-gradient);}.cls-3{fill:none;}</style><linearGradient id="linear-gradient" x1="97.59" y1="101.93" x2="495.2" y2="101.93" gradientUnits="userSpaceOnUse"><stop offset="0" stop-color="#d59e85"/><stop offset="1" stop-color="#ad785a"/></linearGradient></defs><title>headline</title><path class="cls-1" d="M34.29,3.07c.48.29.94,2.05.89,3.92.15,5.16-1,3.43-3.92-5.74L30.79-.24h-7.9c.44,1.14,1,3.67,1.65,6.52.67,3.57,2.32,7.32,3.59,8.09a4.15,4.15,0,0,1,1.62,4.14c-.6,2.81,3.67,15.53,4.7,13.82.28-.46,1.16,1.33,2,3.94,1.37,4.21,1.85,4.5,3.52,3.17s2.2-.78,3.61,4.09c1.09,3.61,1,6.29-.33,7.4-1.23,1-1.31,2.17-.45,2.9s2.2,1.75,2.75,2.29,1.88,1.56,2.58,2.19.71,1.7-.42,2.5c-1,.64-1.44,1.67-.8,2,2.14,1.5,4.73,10.88,3,10.89-1.08,0-2.36-1.84-2.95-4.1s-1.66-3.75-2.35-3.32c-.6.27.13,3,1.68,5.87,2.28,4.13,3.15,4.86,4,3.46,1.49-2.48,3.63-1,4.91,3.38,1.7,5.47,7.26,13.89,8.77,13.54.76-.18.9-2.21.24-4.72-1-3.77-1.37-4.21-3.42-3.33-1.54.76-2.11.63-1.46-.46a2,2,0,0,0-.82-2.6c-1.75-1.06-1.67-5.87.1-6.29.5-.12.77.89.59,2.26s1,3.36,2.77,4.42,4.25,4.46,5.45,7.51,2.78,5.48,3.54,5.3,1.5,1.12,2.12,3A11.32,11.32,0,0,0,77.39,103c4.46,2.69,7.34,9.08,4.89,11a2.75,2.75,0,0,0-1,3.43c.81,1.54.62,1.85-.65,1.09a1.68,1.68,0,0,0-2.34.27c-.38.63,0,1.73,1.16,2.4a2.23,2.23,0,0,0,3-.71c.84-1.4,2.41,0,8.08,6.77,3.91,4.68,7.94,8.8,8.92,9a6.83,6.83,0,0,1,3.45,2.92c1,1.89,1.86,2,2.7.57.65-1.08.48-2.24-.57-2.67-3.46-1.45-4.68-3-3.75-4.58.56-.93,2.37-.69,4.35.72,2.77,1.88,3.1,3.13,1.89,6.21-1.13,3.33-.64,4.68,3.54,8.9a52.86,52.86,0,0,0,9.67,7.73c2.55,1.53,4.59,3.19,4.47,3.75-.3.87,3.59,4.49,8.89,8.31,1.88,1.56-2.23,2.25-4.62.81-1.43-.86-2.73-1.22-3.11-.6-1,1.7,7.9,7.08,13.54,8.16,4.25.87,5.37,1.54,5.51,3.1,0,3.19,8.44,5.09,10.12,2.3a3.38,3.38,0,0,1,3.28-1.83c1.39.21,1.18.92-.93,2.61-2.26,1.6-2.69,3-2.16,5,.65,2.51,1.07,2.55,3,.76,1.32-1.11,3.37-2,4.51-1.72,1.81.24,1.78.65-.55,2-2,1.13-2.45,1.91-1.49,2.48a1.43,1.43,0,0,1,0,2.13c-1.88,2-8.62-.12-8.77-2.75,0-1.06-.39-1.5-.77-.89s-1.07,0-1.4-1.26c-.73-2.77-2.45-4.23-3-2.64-.12.56-1.47,2.07-3.14,3.4-2.79,2.12-2.79,2.12-3.23-1.11-.41-2.57-1.11-3.21-2.88-2.79a6.59,6.59,0,0,1-4.76-.76c-1.91-1.15-1.95-1.8.29-3,2.07-1.29,2.29-2,1.23-3.49-1.6-2-2.55-1.53-7.49,4.15-1.79,1.89-2.75,3.84-1.38,4.46,3,1.57,7.55,2.23,7.48.91-.11-.91.49-1.18,1.29-.7a1.57,1.57,0,0,1,.62,1.85c-.28.47,3.67,3.27,8.86,6.19,8.4,4.43,9.7,4.79,11.74,2.85l2.23-2.25.41,3.63c.5,4.95,3.23,6.17,5.57,2.29,1.68-2.79,2.09-2.75,2.94-.55.64,1.45.37,3-.32,3.4s-.17,1.38,1.1,2.15c2.07,1.24,2.86.66,5-3.56,2.67-5.16,5.65-7.58,7.19-5.81a1,1,0,0,0,1.67-.26c.38-.62-.3-1.66-1.41-2.33-1.37-.62-1.38-1.68-.5-2.42s2.43-.43,3.59.89c1.31,1.43,2.29,1.6,3.13.21.66-1.09,1.85-1.64,2.65-1.16s.65,1.45-.23,2.19-2.22,3.31-2.86,5.46c-.86,2.87-2,4.07-4.2,4.45-1.68.25-2.27.53-1,.64,1.33,0,1.59,1,.75,2.35-.93,1.55-.28,3,1.85,4.5,2.23,1.34,3.06,1.42,2.73.16a5.06,5.06,0,0,1,1.51-4c1.76-1.47,2.33-1.34,3.91,1.09,1.48,2.58,2.62,2.85,6.34,1.71,5-1.43,8.35-.89,7.14,1.13-.47.77,0,1.47.9,1.39,2.56.06,4.12-3.23,3.19-6.74-1.09-4.67.89-6.87,4.55-4.66,3.34,2,3.48,3.58.2,4.35-1,.23-2.48,2.31-3.28,4.36-1.21,3.08-.85,3.93,1.6,4.55a31.65,31.65,0,0,1,5.11,1.61c1.21.52,4.2-.85,6.58-3l4.49-3.84-4.72,8.56,4.32-1.41c2.46-.84,3.95-.79,3.39.14a2.2,2.2,0,0,0,1,2.7c1.11.68,2.06.19,2.23-1.19s1-1.95,1.76-1.47c1.91,1.15,4.72-3.5,3.18-5.27-.7-.64.84-1.4,3.24-1.43,4.41-.09,4.41-.09,2.12,3-1.18,1.61-1.95,4.32-1.55,5.82,1.14,3.86,6.8,2.41,8.52-2.26.71-1.89,1.71-3.19,2.35-2.81a1.26,1.26,0,0,1,.46,1.76c-.37.62.94,2,2.85,3.2,3.82,2.3,17.1,3.33,17.65,1.33.58-1.33,3.15-1.27,12,.26,2.38.38,5.13.13,6.1-.76,5.46-4.74,5.3-4.84,6.28-2.13a3.61,3.61,0,0,0,6.59.59c.66-1.09,2.24-1.19,3.51-.42s6.87.12,12.37-1.43,10.1-2.36,10.3-1.61c.53,2,10.32-.54,10.71-2.63.24-1.13.9-1.15,1.67-.26,1.54,1.77,9.94.07,9.92-2.06,0-.65,1.23-.95,2.94-.55,1.62.56,6.08-.35,9.89-1.64s7.27-2,7.56-1.37,3-.3,5.77-2c3.9-2.51,6.15-2.63,9.2-1.21,4.74,2.22,8.41,1.89,7.34-.65-1.81-3.84,3.75-7.67,11.22-7.82,2.66-.09,5.19-.68,5.66-1.46,1.21-2,11.94-5,15.21-4.35,1.56.3,3-.3,3.16-1.27s2.53-3.12,5.11-4.53,5.38-3.52,6.13-4.76a11.62,11.62,0,0,1,4.55-3.59c3.6-1.64,3.94-1.86,6.28-5.73.93-1.55,4.62-3.35,8.32-4.08,6.13-1.17,14.7-5.3,16.1-7.62,1-1.71,8.66-7.89,10-7.93,2-.07,12.72-9.24,12.68-11a1.6,1.6,0,0,1,1.76-1.48,1.42,1.42,0,0,0,1.75-1.47c-.1-.91,1.25-2.42,2.88-3.34s5.43-5.4,8.45-9.7c3.13-4.46,6.75-9,8-10.39,2.57-2.47,0-5.73-2.76-3.36-.79.59-.45-.69.86-2.86,1.87-3.1,2.9-3.74,4.66-2.69a3.54,3.54,0,0,0,4.17-.44C535.05,99,560,54,562.58,46.49c1.44-4.2,1.25-7.49-.24-7.54-.91.08-1.21-.52-.83-1.14.46-.77,1.89-1,3.28-.76,1.81.24,2.34-.29,2.2-1.85a8.83,8.83,0,0,1,.81-4.58c.75-1.25,2-3.67,2.86-5.47,1-1.7,1.42-3.79,1-4.49s.19-2.84,1.22-4.54c1.39-2.32,3.59-9,5.49-16.36H32.54A10.25,10.25,0,0,0,34.29,3.07ZM341.38,206.74c.64.39-1,1.3-3.62,2s-5.05,1.18-5.37,1C331.28,209.1,340.27,206.07,341.38,206.74ZM322.9,210.4c.28-.47,1.86-.57,3.76-.48s3.21.45,3,.76-1.77.41-3.76.48C324,211.07,322.62,210.86,322.9,210.4ZM279.32,215a2.72,2.72,0,0,1,2-.47c.32.19.26,1-.11,1.62a1.57,1.57,0,0,1-2,.47C278.41,216.13,278.47,215.32,279.32,215Zm-20.1.57c1-1.3,1.35-1.52,1.26-.3a2.74,2.74,0,0,1-1.56,2.23C258.33,217.76,258.47,216.8,259.22,215.56Zm-26.41-6.62c-.1-.91,1-2.36,2.54-3.12,2.23-1.19,2.3-.94.52,2C233.73,211.39,232.62,211.78,232.81,208.94Zm-13-5.09c1.39.21,1.88,1.56,1,3.77-.8,2-2.12,3.16-3.26,2.9s-1.85-.91-1.47-1.53a14.46,14.46,0,0,0,1.13-3.33A2.21,2.21,0,0,1,219.82,203.85ZM202,191.64c1.76-.42,2.56.06,3,1.82s-.14,2-2.37.69C200.27,192.71,200.23,192.05,202,191.64Zm-10.8,10c1-1.3,1.35-1.51,1.27-.3-.15,1-.8,2.06-1.56,2.23C190.31,203.83,190.46,202.86,191.2,201.62ZM166.6,175.8c.84-1.39,13.16,5.18,13.37,7-.06.81.83,1.14,1.78.65a4.26,4.26,0,0,1,3.71.33c1.75,1.06,1.65,1.21-1.13,1.86C181.3,186.35,165.57,177.51,166.6,175.8ZM166,194.86c.65-1.08,1.6-1.57,2.08-1.28s1.29-.7,1.81-2.29,1.49-2.48,2.61-1.81c.95.58.78-.58-.25-2.47-2.22-3.88.24-4.72,3.73-1.14,1.85,2,1.89,2.62-.44,4-1.54.76-3,2.42-3.13,3.39a6.42,6.42,0,0,1-2.88,3.34C166.48,198.34,164.63,197.44,166,194.86Zm-6-19.65a1.58,1.58,0,0,1,.53,2c-.38.62-1.23.95-1.39.85a5,5,0,0,1-.52-2C158.68,175.25,159.37,174.83,160,175.21Zm-7.34.65c1.44.87,2.46,1.69,2.27,2-.75,1.24-4.94-.44-4.93-1.91C150.16,175,151.24,175,152.67,175.86ZM145.78,170c1.75,1.06,2.08,2.31,1.05,4-1.68,2.79-1.52,2.89-3.52-.64S142.59,168.09,145.78,170ZM126.53,154.4c5.17,4.38,5.56,4.83,3.32,6-2.14,1-2.85.39-5.62-5.08l-2.33-4.79Zm-11.74-9c.24-1.12.64-2.15,1-2,1.59,1,5.23,7.17,4.67,8.1-.84,1.4-1.79.82-2-1.4a2.09,2.09,0,0,0-2-2.06C115.35,148.09,114.55,146.54,114.79,145.42Zm-3.87-4c.65-1.09,1.76-1.48,2.39-1.09s.81,1.54.16,2.62-1.76,1.48-2.4,1.1S110.26,142.48,110.92,141.4ZM98.59,121.5a.87.87,0,0,1,1.65.15,2.76,2.76,0,0,1,.53,2c-.09.15-.92.08-1.65-.15A1.45,1.45,0,0,1,98.59,121.5Zm-2.41,2.56c1,2.71.95,3.11-.64,2.15A6.1,6.1,0,0,1,93,122.14C92.58,118.51,94.4,119.82,96.18,124.06Zm-10.45-7.14c.37-.62,1.86-.57,3.29.29,1.6,1,2,2.06,1.17,2.39a3.88,3.88,0,0,1-3.3-.29C85.78,118.64,85.35,117.54,85.73,116.92ZM55.64,71.73a1.59,1.59,0,0,1,.53,2c-.37.62-1.22,1-1.38.86a5.08,5.08,0,0,1-.53-2C54.31,71.78,54.85,71.25,55.64,71.73ZM34.78,23.87c-1.91-1.16-3.56-7.43-2-7.79.5-.11,1.63,1.62,2.29,4.13C35.78,22.57,35.51,24.1,34.78,23.87Z"/><path class="cls-2" d="M423.24,136.32c-.77.47-.5,0-4.09.05.41.48,1.13,1.11,2.07,2.24.43.52,0,4.31-3.89-.52-1.49-1.83.49-1.85-6.12-1.09,4.23,6.19,1.15,3,6.44,4.16.49.06,1.41.11,1.36,1.08-.08,1.36-1.78.87-3.76.75,2.09,2.86,3,3,2.17,4.16-.93,1.35-2.22.47-3.67-1.39-1.14,5.31-3.67,3.17-1.54-2.22-1-1.61-2.09-3.48-3.14-5.23-2.66,6.72-1.77,2.15-.19,8.57a1,1,0,0,1-2,.62c-.34-1.11-.55-1.89-.74-2.43-1.79,3.64-3.41,5.73-4.15,3.43a19,19,0,0,1,1.43-4c-.81.28-1.88.65-3.34,1.06a1.33,1.33,0,0,1-.8-2.53,42.08,42.08,0,0,1,5.36-1.37c2.32-5.29,2.89-4-2.59-3.75a2.87,2.87,0,0,1-.61.9c-5.55,5.73-5.13,1.9-4.52,1.46a22.37,22.37,0,0,0,2.75-2.27l-4,.14a1.39,1.39,0,0,1-.1-2.78c.77,0,1.5-.05,2.22-.09-3.25-2.66-1.55-3.59-.75-3.62s.92.39,1.72,1.2c2.72,2.72,1.57,2.42,8,1.81-3.71-5.31-2.54-3.82-6.13-4.21-2.29-.26-4.42.08-4.32-1.65s3-1.35,5.18-.94c-2.77-3.44-4.39-5.68-1.78-5.53.53,0,1.83,1.42,3.45,3.46a5.66,5.66,0,0,1,.64-2.47c-.47,0,1.88-.82,1.73.83-.49,5.46-1.1,3.11,2.75,8.58,2-5.38,1.41-2.82.51-6.22-1-4-1.63-5.44-.32-5.84-.13,0,1.18-.29,1.41.73.11.45.57,2.51,1,4.1,1.42-4.16,1.63-4.85,2.64-4.89,2.54-.08.85,3.77-.23,6.48,1.95-.66,3.67-1.95,4.08-.64.35,1.1-3.1,2.12-4.82,2.61-.49,1.34-1.14,3.17-1.89,5.19,8.22-1,6.17.12,10.41-4.33-.08,0,.31-.28.67-.29a.94.94,0,0,1,.73,1.59c-2.9,3-2.76,2,.4,2.58A1.37,1.37,0,0,1,423.24,136.32Zm-231.36-7.7c-3.68-.17-3.67,1-.87-2.87a1.08,1.08,0,0,0-1.08-1.69c-.41.08-.8.46-.72.45-4.09,5.71-1.94,4.14-11.1,6.56.53-2.41,1-4.59,1.32-6.18,1.87-.84,5.62-2.54,5-3.73-.67-1.41-2.41.32-4.52,1.38.79-3.25,2.1-7.88-.76-7.38-1.14.2-1.27,1-2.22,6-.69-1.74-1.55-4-1.74-4.5-.42-1.11-1.86-.57-1.71-.6-1.42.67-.52,2.2,1.29,6.57,1.56,3.71,1.8.71.41,7.12-5.23-5.58-4.17-3-4.48-9.28-.1-1.88-2.64-.61-2.09-.66a6.45,6.45,0,0,0-.33,2.91c-2.17-2.06-3.86-3.44-4.46-3.38-3,.24-.79,2.52,2.89,6-2.52-.11-5.87,0-5.71,1.89s2.52,1.26,5.15,1.18c4.13-.12,2.57-1.62,7.62,3.8-7.17,1.71-5.82,1.86-9.34-.79-1-.78-1.28-1.23-2.13-1.08s-2.68,1.49,1.42,4l-2.5.45a1.59,1.59,0,0,0,.56,3.13l4.5-.8a27.58,27.58,0,0,1-2.75,3c-.63.59-.49,5,4.88-2.38a3.3,3.3,0,0,0,.55-1.12c6.16-1.12,5.32-2.52,3.53,3.85a47.65,47.65,0,0,0-5.86,2.39,1.52,1.52,0,0,0,1.31,2.75c1.6-.7,2.75-1.29,3.62-1.73a22,22,0,0,0-1,4.71c1.2,2.49,2.7-.14,4.16-4.55.3.58.65,1.44,1.22,2.63a1.2,1.2,0,0,0,2.17-1c-2.82-7-3.1-1.69-1.15-9.73,1.46,1.82,3,3.76,4.39,5.42-1.55,6.45,1.65,8.47,2.1,2.27,1.93,1.88,3.53,2.67,4.38,1,.73-1.45-.31-1.47-3.13-4.37,2.27-.18,4.27.11,4.14-1.46-.09-1.11-1.15-1-1.7-1-6.18-.47-2.19,2.66-8-3.68,7.37-1.91,5.14-1.58,7.11.26,5.24,4.84,5.07.5,4.5,0-1.25-1.12-2.17-1.73-2.71-2.21,4-.66,3.83-.05,4.62-.71A1.55,1.55,0,0,0,191.88,128.62ZM156.45,33a15,15,0,0,0-1.87-1.06,5.63,5.63,0,0,0-2.3-.59,2.5,2.5,0,0,0-1.78.63,4.79,4.79,0,0,0-1.11,1.58,9.28,9.28,0,0,0-.64,1.95,11.53,11.53,0,0,1-.46,1.7c-.12.4-.34,1.34-.69,2.81s-.73,3.26-1.19,5.36-.93,4.44-1.44,7-1,5.17-1.58,7.78-1,5.13-1.53,7.57-.92,4.59-1.31,6.46-.71,3.38-.94,4.51-.34,1.67-.34,1.62a1.38,1.38,0,0,0-.17-.52q-1.18-8.49-2.68-16.54T133,46.78a.32.32,0,0,0,0-.21s0-.1,0-.21l-.59-2.55c-.23-1-.51-1.94-.85-2.94s-.73-1.95-1.15-2.89a13.63,13.63,0,0,0-1.49-2.51,7.11,7.11,0,0,0-2.38-1.95,5.67,5.67,0,0,0-2.55-.68,3.26,3.26,0,0,0-2.43,1,4.1,4.1,0,0,0-1,3,5.06,5.06,0,0,0,0,.68c0,.23.07.49.12.77L122,46.15c.31,1.84.53,3.19.64,4l.25,1.7a14,14,0,0,1-.25,1.87c-.17,1-.38,2.15-.64,3.57s-.54,3-.85,4.72-.64,3.48-1,5.23c-.28,1.48-.56,2.92-.85,4.34s-.55,2.71-.8,3.87-.49,2.17-.69,3-.35,1.44-.46,1.79a9.94,9.94,0,0,1-.6-2c-.28-1.17-.61-2.61-1-4.34s-.79-3.63-1.27-5.7-1-4-1.41-5.91-.9-3.84-1.36-5.74-.88-3.64-1.27-5.23l-1-4.08a19.17,19.17,0,0,0-.68-2.3c-.46-1.42-.85-2.85-1.19-4.3a12.19,12.19,0,0,0-1.62-3.87,7.2,7.2,0,0,0-2.64-2.38,6.61,6.61,0,0,0-3.14-.93,2.38,2.38,0,0,0-2.56,2.72,5.46,5.46,0,0,0,.09,1.1c.28,1.65.67,3.65,1.15,6s1,4.91,1.61,7.66,1.22,5.65,1.88,8.71,1.31,6.13,2,9.19Q106,76.81,107.8,84t3.49,12a8.27,8.27,0,0,0,2,3.4,3.41,3.41,0,0,0,2.21.94h.51a4,4,0,0,0,2-.94,6.79,6.79,0,0,0,1.57-3.23c.51-2,1.07-4.41,1.66-7.27s1.16-5.66,1.7-8.38,1-5.13,1.45-7.23.69-3.37.81-3.83a8.26,8.26,0,0,1,.89,2.39c.31,1.19.64,2.6,1,4.25s.69,3.43,1.06,5.36.75,3.82,1.15,5.69c.51,2.39,1,4.54,1.57,6.47a12.09,12.09,0,0,0,1.75,4.08,12.62,12.62,0,0,0,2.5,2.13,6.32,6.32,0,0,0,2.51.93h.6q2.46,0,3.57-3a49.69,49.69,0,0,0,1.79-6.68c.56-2.75,1.16-5.8,1.78-9.14q.86-4.52,1.7-9.44t1.83-9.83q1-4.89,2-9.48t2.34-8.42l2.55-7.66c.29-.85.54-1.53.77-2a3.21,3.21,0,0,0,.34-1.27A1.12,1.12,0,0,0,156.45,33Zm4.69,57.71c0,.12-.12.31-.21.6a4.09,4.09,0,0,0-.13,1.1,4.55,4.55,0,0,0,.47,1.87,4.82,4.82,0,0,0,2.09,2c.56.34,1,.62,1.36.85a3.58,3.58,0,0,0,1.87.34,6.62,6.62,0,0,0,1.44-.13c.4-.08.82-.15,1.28-.21s1-.11,1.61-.17,1.48-.08,2.56-.08h1.78c.51,0,1.09,0,1.75,0s1.31,0,2,0a30.3,30.3,0,0,0,5.11-.43,6.44,6.44,0,0,0,3.91-2,1.84,1.84,0,0,0,.51-1.19c0-.85-.77-1.56-2.3-2.13a17.72,17.72,0,0,0-3.27-.81,24.73,24.73,0,0,0-3.27-.21c-1.14,0-2.27,0-3.41.13s-2.35.13-3.65.13c-.63-.06-1-.2-1.15-.43a2.63,2.63,0,0,1-.21-1.27V86.85c0-1.08,0-2.12,0-3.14s0-2.07,0-3.14,0-2.13,0-3.15,0-2.06,0-3.14-.09-2.25-.09-3.35V64.77c.51,0,1.15,0,1.91,0s1.58-.09,2.43-.17,1.71-.2,2.59-.34,1.69-.3,2.43-.47a3.1,3.1,0,0,0,2.12-1.23,3.62,3.62,0,0,0,.43-1.74v-.34a2.52,2.52,0,0,0-.39-1.32A3,3,0,0,0,181,58.06a12.38,12.38,0,0,0-1.4-.25,12.17,12.17,0,0,0-1.49-.09c-.91,0-1.79.05-2.64.13a22.57,22.57,0,0,1-2.38.13q-1.62,0-2-.51c-.11-1.47-.21-2.78-.3-3.91s-.17-2.4-.25-3.82-.22-2.83-.39-4.25-.19-3-.25-4.28-.09-2.39-.09-3.19V37a4,4,0,0,1,1.54-.42c.62-.06,1.33-.09,2.12-.09h2c.79,0,1.56,0,2.29,0s1.51,0,2.3,0a25.35,25.35,0,0,0,4.64-.39,3.49,3.49,0,0,0,2.76-1.85,3.16,3.16,0,0,0,.17-.69,2.12,2.12,0,0,0-.55-1.42,2.86,2.86,0,0,0-1-.82,17.15,17.15,0,0,0-4.13-.9q-2.92-.39-6.42-.56c-.51,0-1,0-1.53-.05s-1,0-1.53,0a52.85,52.85,0,0,0-6.38.34c-1.87.23-3,.6-3.49,1.11a1.77,1.77,0,0,0-.38.68,4.12,4.12,0,0,0,0,.68,3.77,3.77,0,0,1-.09.93c-.11.63-.22.95-.34,1a1.72,1.72,0,0,0-.38.17c-.14.09-.25.37-.34.85a21.79,21.79,0,0,0-.13,2.94q0,2.88,0,6.5t.08,7.7q0,4.08.13,8.38c.05,2.86.14,5.71.25,8.54.06,1.93.1,3.82.13,5.66s0,3.61,0,5.32c0,1.92,0,3.72-.08,5.4S161.26,89.25,161.14,90.67Zm42.11,8.93a53.93,53.93,0,0,1-.76-6.59c-.17-2.64-.32-5.47-.43-8.5s-.18-6.14-.21-9.32,0-6.21,0-9.1V57.25c0-2.44,0-5,.12-7.79s.13-5.2.13-7.35a33.82,33.82,0,0,0-.25-4.94,14.09,14.09,0,0,0-1.06-3.35,3.84,3.84,0,0,0-2.06-1.92,9.28,9.28,0,0,0-3.63-.93c-1.29,0-2.09.46-2.4,1.4a9.79,9.79,0,0,0-.46,3.1v2.47q-.25,9.95-.26,19.48c0,.79,0,2.18,0,4.16s0,4.31,0,7q0,4.43,0,9.52c0,3.41.08,6.62.17,9.66s.18,5.71.29,8a22.75,22.75,0,0,0,.51,4.6,5.15,5.15,0,0,0,2.53,3.23,8,8,0,0,0,4,1.1,5.5,5.5,0,0,0,1.19-.08,3.26,3.26,0,0,0,2-1,3.58,3.58,0,0,0,.81-2.55,5.07,5.07,0,0,0,0-.68C203.35,100.14,203.31,99.89,203.25,99.6Zm5-3.06a5.54,5.54,0,0,0,.26,1.7,4.87,4.87,0,0,0,1.31,1.62A10.63,10.63,0,0,0,212,101.3a8.62,8.62,0,0,0,2.47.81,3.69,3.69,0,0,0,2.3-.3,4,4,0,0,0,1.7-1.87,8.75,8.75,0,0,0,.68-3.83c0-.51,0-1.44,0-2.8s-.05-3-.05-4.77V82.76c0-2,0-4,.05-5.82s0-3.5.08-5,.07-2.52.13-3.15a33,33,0,0,0,3.49-.34L226,68a24.3,24.3,0,0,1,2.68-.26,6.27,6.27,0,0,1,2,.21v8.85c-.05,1.59-.11,3.36-.17,5.31s-.11,4-.17,6.08-.1,4.2-.12,6.3-.05,4-.05,5.87a8,8,0,0,0,2.11,5.78,8.34,8.34,0,0,0,5.91,2.38,2.75,2.75,0,0,0,2.83-1.57c.65-1.16.78-3.25.38-6.25q.09-8,.3-15.91t.3-15.9q.08-5.7.12-11.57t0-10.67c0-3.2,0-5.86-.09-7.95s-.11-3.26-.17-3.49a6.44,6.44,0,0,0-2.24-2.72,8.12,8.12,0,0,0-3-1.32,4.87,4.87,0,0,0-2.8.21,2.59,2.59,0,0,0-1.61,1.87L231,60.82a11.57,11.57,0,0,0-2.54.17c-1.24.17-2.53.3-3.86.38a17.9,17.9,0,0,1-3.56-.08c-1-.14-1.59-.53-1.65-1.15-.22-3.91-.27-7.84-.12-11.78a72.77,72.77,0,0,0-.56-11.87,12.86,12.86,0,0,0-.81-2.72,17.68,17.68,0,0,0-1.57-3.06,7.91,7.91,0,0,0-2.93-3,2.33,2.33,0,0,0-2.3.09,4.15,4.15,0,0,0-1.53,2.08,8.28,8.28,0,0,0-.55,3q-.09,7.74-.26,15.56t-.34,15.74c0,.22,0,.93,0,2.12s-.06,2.67-.09,4.42-.07,3.73-.12,5.92-.09,4.35-.09,6.5v5.4c0,1.73,0,3.28,0,4.64S208.2,95.63,208.26,96.54Zm71.43,6.72a3.44,3.44,0,0,0,1.54-1.87,9.44,9.44,0,0,0,.46-3.19c0-1.28,0-2.68-.08-4.21l-.94-28.15c-.06-1-.11-2.46-.17-4.3s-.14-3.87-.25-6.08-.27-4.49-.47-6.85-.46-4.55-.77-6.59a41.06,41.06,0,0,0-1.14-5.36,8.64,8.64,0,0,0-1.54-3.23,23.87,23.87,0,0,0-2.72-1.83,3.19,3.19,0,0,0-2-.38,6,6,0,0,0-1.87.68,3.1,3.1,0,0,0-1,1,3.13,3.13,0,0,0-.38,1.41c0,.53-.05,1.12-.05,1.74a53.62,53.62,0,0,0,.13,5.48c.14,1.91.29,3.79.43,5.66s.25,3.69.34,5.44a42.39,42.39,0,0,1,0,4.94,22,22,0,0,1-1.37-2c-.62-1-1.33-2.08-2.12-3.36s-1.65-2.64-2.55-4.08-1.79-2.82-2.64-4.13-1.63-2.48-2.34-3.53a16.93,16.93,0,0,0-1.74-2.25,18,18,0,0,0-2.64-2.34,3.89,3.89,0,0,0-2.47-.81,3.82,3.82,0,0,0-2.8,1,3.93,3.93,0,0,0-.9,2.21,12.73,12.73,0,0,0,.13,3,23.6,23.6,0,0,1,.26,3.49l.25,8.59c.12,1.25.2,3,.26,5.14s.11,4.61.17,7.28q.07,4.5.17,9.35c.05,3.23.13,6.24.21,9s.2,5.13.34,7.06a11.76,11.76,0,0,0,.55,3.48A4.11,4.11,0,0,0,251.33,96a7.08,7.08,0,0,0,2.38.93,3.85,3.85,0,0,0,2.3-.16,2.48,2.48,0,0,0,1.27-2.13,10.37,10.37,0,0,0-.12-3.57c-.26-1.31-.44-2.38-.56-3.24q-.77-5.35-1-10.8l-.51-10.88c-.11-2.5-.17-4.92-.17-7.28s.06-4.6.17-6.76c.06-1,.07-1.9,0-2.63a3.11,3.11,0,0,1,.13-1.36c.34.45.82,1.13,1.45,2l1.44,2.12a26.82,26.82,0,0,1,1.49,2.3l1.32,2.25c.45.77.92,1.53,1.4,2.3s1,1.6,1.66,2.51q.6.77,1.11,1.53a15.77,15.77,0,0,0,1.1,1.45,12.67,12.67,0,0,0,1.28,1.44,6.37,6.37,0,0,1,1.11,1.36,5.78,5.78,0,0,1,.25,1.62c.06.85.09,1.78.09,2.81v3a20.78,20.78,0,0,0,.08,2.21L270.3,95.6c-.12,2.67.28,4.58,1.19,5.75s2.6,1.91,5.1,2.25A5.11,5.11,0,0,0,279.69,103.26Zm7.4-7.61a13.56,13.56,0,0,1-.3-3.28c0-1.19,0-2.21,0-3.06,0-.34,0-1.26,0-2.76s.06-3.24.08-5.19.06-3.94.09-6,.07-3.69.13-5.06q.07-3.65.42-7.91t1-8.63a65.3,65.3,0,0,1,2-8.63,37.48,37.48,0,0,1,3.32-7.83,22.84,22.84,0,0,1,2.42-3.44,22.05,22.05,0,0,1,3.06-3,16,16,0,0,1,3.49-2.12,8.86,8.86,0,0,1,3.61-.81,6.56,6.56,0,0,1,4.64,1.62,14.45,14.45,0,0,1,3.44,4.54,31,31,0,0,1,2.38,6.6,65.82,65.82,0,0,1,1.45,7.65,79.8,79.8,0,0,1,.72,9.48q.13,5.32.13,10.93,0,3.75-.13,7.83t-.17,8.25c0,2.78-.05,5.53-.08,8.25s0,5.3,0,7.74a5.59,5.59,0,0,1,0,1.83A4.43,4.43,0,0,1,317.8,104a4,4,0,0,1-3.53,1.07,11.88,11.88,0,0,1-3.7-1.07,4,4,0,0,1-1.62-2.67,34.41,34.41,0,0,1-.94-5.24c-.22-2-.37-4.25-.42-6.63s-.09-4.71-.09-7V71.88q-3.48.16-7,.42t-6.76.34c-.06.8-.09,1.94-.09,3.45s0,3.16,0,5-.06,3.66-.09,5.53-.07,3.57-.12,5.1c-.06,1-.1,1.89-.13,2.6a10.88,10.88,0,0,1-.21,1.82,2.38,2.38,0,0,1-1.88,2c-1.24.46-2.18.41-2.8-.13A4.13,4.13,0,0,1,287.09,95.65Zm7-28.45,2-.09c1.24,0,2.63-.14,4.17-.25l4.42-.34a28.08,28.08,0,0,0,2.89-.34,47.79,47.79,0,0,0,.34-5.49q.09-3.87-.17-8.38c-.12-1.92-.28-3.88-.51-5.86a50.26,50.26,0,0,0-.89-5.36A14.34,14.34,0,0,0,305,37.22c-.56-1-1.22-1.49-1.95-1.49a3.38,3.38,0,0,0-2.34,1.7,18.47,18.47,0,0,0-2.13,4.21,50,50,0,0,0-1.78,5.91q-.81,3.31-1.37,6.8t-.93,6.85A52.42,52.42,0,0,0,294.07,67.2Zm33.94,19a27.37,27.37,0,0,0,6.59,9.23,18.16,18.16,0,0,0,10.63,4.46,8.66,8.66,0,0,0,1.53.09,20,20,0,0,0,3-.26,12.56,12.56,0,0,0,3.11-.89,8.78,8.78,0,0,0,2.51-1.66,4.11,4.11,0,0,0,1.23-2.55,4.42,4.42,0,0,0-2.34-1.4,12.42,12.42,0,0,0-2.76-.3c-.51,0-1,0-1.58,0s-1.12,0-1.74,0a19.12,19.12,0,0,1-2.85-.21,7.63,7.63,0,0,1-2.72-1,10.33,10.33,0,0,1-2.6-2.25,14.42,14.42,0,0,1-2.29-4,43.6,43.6,0,0,1-2.43-9.19A113.66,113.66,0,0,1,334,61.92c-.06-.45-.1-.94-.13-1.48s0-1.12,0-1.75a56.42,56.42,0,0,1,.46-6.84,44.7,44.7,0,0,1,1.53-7.36,26.06,26.06,0,0,1,2.85-6.42,10.16,10.16,0,0,1,4.43-4,3.86,3.86,0,0,1,1.53-.26,11.14,11.14,0,0,1,2.8.38c1,.26,1.79.5,2.47.73a.17.17,0,0,1,.13,0,.16.16,0,0,0,.12,0,4.84,4.84,0,0,0,1.62.34c.91,0,1.36-.39,1.36-1.19a4.34,4.34,0,0,0-.93-2.29,9.06,9.06,0,0,0-4-2.9,15.08,15.08,0,0,0-5.83-1.19,9.55,9.55,0,0,0-2.72.34,18.06,18.06,0,0,0-6.85,3.79,20.26,20.26,0,0,0-4.46,5.82,33.92,33.92,0,0,0-2.68,7.15,66.6,66.6,0,0,0-1.49,7.65,82.89,82.89,0,0,0,.47,21.9A45.8,45.8,0,0,0,328,86.25Zm65.9-51a6.39,6.39,0,0,0-2.25-2.72,8,8,0,0,0-3-1.32,4.83,4.83,0,0,0-2.79.21,2.57,2.57,0,0,0-1.61,1.87L383,60.82a11.66,11.66,0,0,0-2.55.17c-1.24.17-2.52.3-3.85.38a17.86,17.86,0,0,1-3.56-.08c-1-.14-1.6-.53-1.65-1.15q-.35-5.87-.13-11.78a72.76,72.76,0,0,0-.55-11.87,14.17,14.17,0,0,0-.81-2.72,18.4,18.4,0,0,0-1.57-3.06,7.84,7.84,0,0,0-2.94-3,2.31,2.31,0,0,0-2.29.09,4.11,4.11,0,0,0-1.54,2.08,8.5,8.5,0,0,0-.55,3q-.09,7.74-.25,15.56t-.34,15.74c0,.22,0,.93,0,2.12s-.05,2.67-.08,4.42-.07,3.73-.13,5.92-.08,4.35-.08,6.5v5.4c0,1.73,0,3.28,0,4.64s.07,2.49.13,3.4a5.66,5.66,0,0,0,.25,1.7,5.05,5.05,0,0,0,1.32,1.62A10.11,10.11,0,0,0,364,101.3a8.46,8.46,0,0,0,2.46.81,3.68,3.68,0,0,0,2.3-.3,3.93,3.93,0,0,0,1.7-1.87,8.61,8.61,0,0,0,.68-3.83c0-.51,0-1.44,0-2.8s0-3,0-4.77V82.76c0-2,0-4,0-5.82s.06-3.5.09-5,.07-2.52.12-3.15a33,33,0,0,0,3.49-.34L378,68a23.85,23.85,0,0,1,2.68-.26,6.34,6.34,0,0,1,2,.21v8.85c-.06,1.59-.11,3.36-.17,5.31s-.11,4-.17,6.08-.1,4.2-.13,6.3,0,4,0,5.87a8,8,0,0,0,2.11,5.78,8.32,8.32,0,0,0,5.91,2.38A2.75,2.75,0,0,0,393,107c.65-1.16.77-3.25.38-6.25q.08-8,.29-15.91t.3-15.9q.09-5.7.13-11.57t0-10.67c0-3.2,0-5.86-.08-7.95S394,35.45,393.91,35.22ZM426,27.05a6.08,6.08,0,0,0-2.89-.89A38.12,38.12,0,0,0,419,26c-1.3,0-2.55,0-3.74.13l-2.89.21q-3.75.34-7.11.55c-2.24.14-4.57.38-7,.72-1.53.29-2.3.91-2.3,1.87a2.68,2.68,0,0,0,1.11,1.92,7.36,7.36,0,0,0,3.14,1.49,10,10,0,0,0,2.81.34c.45,0,.94,0,1.45,0s1,0,1.53,0a7.06,7.06,0,0,1,.72,0,4.26,4.26,0,0,0,.64,0q-.44,3.57-.55,7.65c-.09,2.72-.13,5.62-.13,8.68q0,3.74.08,7.65c.06,2.61.14,5.27.26,8,.17,3.68.35,7.13.55,10.33s.4,6.25.6,9.14.41,5.7.63,8.42.43,5.45.6,8.17a5.13,5.13,0,0,0,1.87,4,5.64,5.64,0,0,0,3.49,1.32,3.83,3.83,0,0,0,2.46-.81,3.41,3.41,0,0,0,1.2-2.42c.16-2.44.25-5,.25-7.57q0-7.65-.6-15.52t-.76-15.27Q416.81,50.27,416,35a2.19,2.19,0,0,0-.21-1,2,2,0,0,1-.21-.89,5.63,5.63,0,0,1,1-.08h3.19c1,0,1.89,0,2.8-.13a9.62,9.62,0,0,0,2.64-.64c1.59-.62,2.38-1.53,2.38-2.72A2.93,2.93,0,0,0,426,27.05Zm29.89,64.13a17.92,17.92,0,0,0-3.27-.81,24.77,24.77,0,0,0-3.28-.21c-1.13,0-2.27,0-3.4.13s-2.35.13-3.66.13c-.62-.06-1-.2-1.15-.43a2.63,2.63,0,0,1-.21-1.27V86.85c0-1.08,0-2.12,0-3.14s.05-2.07.05-3.14,0-2.13-.05-3.15,0-2.06,0-3.14-.08-2.25-.08-3.35V64.77c.51,0,1.15,0,1.91,0s1.57-.09,2.42-.17,1.72-.2,2.6-.34,1.68-.3,2.42-.47a3.13,3.13,0,0,0,2.13-1.23,3.73,3.73,0,0,0,.42-1.74v-.34a2.51,2.51,0,0,0-.38-1.32,3.07,3.07,0,0,0-1.74-1.06,12.56,12.56,0,0,0-1.41-.25,11.88,11.88,0,0,0-1.48-.09c-.91,0-1.79.05-2.64.13a22.71,22.71,0,0,1-2.38.13q-1.62,0-2-.51c-.12-1.47-.22-2.78-.3-3.91s-.17-2.4-.26-3.82-.21-2.83-.38-4.25-.2-3-.25-4.28-.09-2.39-.09-3.19V37a4,4,0,0,1,1.53-.42c.63-.06,1.33-.09,2.13-.09H445c.8,0,1.56,0,2.3,0s1.5,0,2.3,0a25.24,25.24,0,0,0,4.63-.39A3.5,3.5,0,0,0,457,34.34a3.16,3.16,0,0,0,.17-.69,2.13,2.13,0,0,0-.56-1.42,2.85,2.85,0,0,0-1-.82,17.15,17.15,0,0,0-4.13-.9q-2.94-.39-6.42-.56c-.51,0-1,0-1.53-.05s-1,0-1.53,0a52.85,52.85,0,0,0-6.38.34c-1.87.23-3,.6-3.49,1.11a1.64,1.64,0,0,0-.38.68,4.12,4.12,0,0,0,0,.68,3.77,3.77,0,0,1-.09.93c-.11.63-.23.95-.34,1a1.72,1.72,0,0,0-.38.17c-.14.09-.26.37-.34.85a20.17,20.17,0,0,0-.13,2.94q0,2.88,0,6.5t.09,7.7q0,4.08.13,8.38c.05,2.86.14,5.71.25,8.54.06,1.93.1,3.82.13,5.66s0,3.61,0,5.32c0,1.92,0,3.72-.08,5.4s-.15,3.21-.26,4.63a3.48,3.48,0,0,0-.21.6,3.72,3.72,0,0,0-.13,1.1,4.55,4.55,0,0,0,.47,1.87,4.78,4.78,0,0,0,2.08,2c.57.34,1,.62,1.36.85a3.61,3.61,0,0,0,1.87.34,6.71,6.71,0,0,0,1.45-.13c.4-.08.82-.15,1.28-.21s1-.11,1.61-.17,1.48-.08,2.55-.08h1.79c.51,0,1.09,0,1.74,0s1.32,0,2,0a30.27,30.27,0,0,0,5.1-.43,6.44,6.44,0,0,0,3.92-2,1.84,1.84,0,0,0,.51-1.19C458.18,92.46,457.41,91.75,455.88,91.18ZM495.11,94l-.93-28.15c-.06-1-.12-2.46-.17-4.3s-.14-3.87-.26-6.08-.27-4.49-.46-6.85-.46-4.55-.77-6.59a39.38,39.38,0,0,0-1.15-5.36,8.5,8.5,0,0,0-1.53-3.23,23.87,23.87,0,0,0-2.72-1.83,3.19,3.19,0,0,0-2-.38,5.89,5.89,0,0,0-1.87.68,2.92,2.92,0,0,0-1,1,3.14,3.14,0,0,0-.39,1.41c0,.53,0,1.12,0,1.74a50.9,50.9,0,0,0,.13,5.48c.14,1.91.28,3.79.42,5.66s.26,3.69.34,5.44a38.39,38.39,0,0,1,0,4.94,22.6,22.6,0,0,1-1.36-2q-.93-1.44-2.13-3.36c-.79-1.27-1.64-2.64-2.55-4.08s-1.78-2.82-2.63-4.13-1.63-2.48-2.34-3.53a16,16,0,0,0-1.75-2.25,17.51,17.51,0,0,0-2.63-2.34,3.91,3.91,0,0,0-2.47-.81,3.86,3.86,0,0,0-2.81,1,3.92,3.92,0,0,0-.89,2.21,12.73,12.73,0,0,0,.13,3,23.6,23.6,0,0,1,.25,3.49l.26,8.59c.11,1.25.2,3,.25,5.14s.12,4.61.17,7.28q.09,4.5.17,9.35t.22,9c.08,2.78.2,5.13.34,7.06a11.42,11.42,0,0,0,.55,3.48A4.11,4.11,0,0,0,464.84,96a7,7,0,0,0,2.38.93,3.81,3.81,0,0,0,2.29-.16,2.49,2.49,0,0,0,1.28-2.13,10.14,10.14,0,0,0-.13-3.57c-.25-1.31-.44-2.38-.55-3.24q-.76-5.35-1-10.8l-.51-10.88c-.12-2.5-.17-4.92-.17-7.28s0-4.6.17-6.76c.05-1,.07-1.9,0-2.63a2.82,2.82,0,0,1,.13-1.36q.51.68,1.44,2c.63.91,1.11,1.61,1.45,2.12.57.8,1.06,1.56,1.49,2.3s.86,1.49,1.32,2.25.92,1.53,1.4,2.3,1,1.6,1.66,2.51c.39.51.76,1,1.1,1.53a15.87,15.87,0,0,0,1.11,1.45A11.76,11.76,0,0,0,481,66.09a6.25,6.25,0,0,1,1.1,1.36,5.65,5.65,0,0,1,.26,1.62c.05.85.08,1.78.08,2.81v3a20.25,20.25,0,0,0,.09,2.21L483.8,95.6c-.11,2.67.29,4.58,1.19,5.75s2.61,1.91,5.11,2.25a5.11,5.11,0,0,0,3.1-.34,3.38,3.38,0,0,0,1.53-1.87,9.42,9.42,0,0,0,.47-3.19C495.2,96.92,495.17,95.52,495.11,94ZM226.64,122h-3.59a.27.27,0,0,1-.31-.3v-1a1.25,1.25,0,0,1,.31-.85,2.25,2.25,0,0,1,.72-.51,3.13,3.13,0,0,1,.9-.23c.32,0,.59,0,.79,0,.38,0,.77,0,1.18,0s.77.09,1.08.15.55,0,.62-.3l.35-6c.07-.38-.05-.6-.35-.67a7.54,7.54,0,0,0-1.21-.26l-1.56-.17c-.55-.06-1.09-.1-1.62-.13s-1,0-1.36,0q-5.59,0-8.2,1.87c-1.75,1.25-2.62,3.32-2.62,6.23v1.85c0,.2-.1.3-.31.3h-2.31a.45.45,0,0,0-.51.52v7.33a.45.45,0,0,0,.51.51h2.31a.28.28,0,0,1,.31.31v18.26a.45.45,0,0,0,.51.51h9.95a.45.45,0,0,0,.51-.51V130.62a.28.28,0,0,1,.31-.31h3.59a.46.46,0,0,0,.52-.51v-7.33A.46.46,0,0,0,226.64,122Zm21.5-2.46a4.33,4.33,0,0,0,3.21-1.31,4.4,4.4,0,0,0,1.3-3.25,4.53,4.53,0,0,0-1.3-3.29,4.53,4.53,0,0,0-6.41,0,4.49,4.49,0,0,0-1.31,3.29,4.37,4.37,0,0,0,1.31,3.25A4.32,4.32,0,0,0,248.14,119.49Zm6.77,28.82V122.47a.45.45,0,0,0-.51-.52h-9.8a.45.45,0,0,0-.51.52v18.41c0,.17-.1.29-.31.36a3.72,3.72,0,0,1-.82.1h-.87a2.32,2.32,0,0,1-1.8-.59,2.82,2.82,0,0,1-.51-1.87V122.47a.45.45,0,0,0-.51-.52h-10a.45.45,0,0,0-.51.52v16.77c0,3.76,1,6.48,3.05,8.15s5.31,2.51,9.82,2.51c1.16,0,2.35,0,3.56-.1s2.39-.16,3.52-.28l3.15-.36,2.49-.33A.45.45,0,0,0,254.91,148.31Zm-18.62-38a4.34,4.34,0,0,0-3.2,1.33,4.53,4.53,0,0,0-1.31,3.29,4.41,4.41,0,0,0,1.31,3.25,4.58,4.58,0,0,0,6.41,0,4.41,4.41,0,0,0,1.31-3.25,4.53,4.53,0,0,0-1.31-3.29A4.35,4.35,0,0,0,236.29,110.31Zm32.82,39.08a.46.46,0,0,0,.52-.51V130.72c0-.27.08-.42.25-.46a7.17,7.17,0,0,1,1.05-.13l.95,0c.45,0,.92,0,1.41,0s1,.09,1.51.15c.21,0,.31-.06.31-.3l.26-8.06q0-.3-.21-.36c-.48,0-.9-.06-1.28-.07l-1.05,0c-.32,0-.67,0-1,0h-1.25a52.5,52.5,0,0,0-5.9.33c-1.95.23-3.74.47-5.39.75-.34.07-.51.25-.51.56v25.8a.45.45,0,0,0,.51.51Zm41.29-.61a19.22,19.22,0,0,1-2.36.51q-1.34.21-2.85.36c-1,.1-2,.17-3.08.2s-2,.05-2.94.05a47.79,47.79,0,0,1-6.29-.35,10.89,10.89,0,0,1-4.08-1.29,5.18,5.18,0,0,1-2.2-2.54,10.76,10.76,0,0,1-.67-4.12,16.36,16.36,0,0,1,.34-3.67,5,5,0,0,1,1.28-2.44,6.23,6.23,0,0,1,2.67-1.51,26.85,26.85,0,0,1,4.53-.9l5.18-.66c.21,0,.31-.14.31-.31v-.82a1,1,0,0,0-.84-.95,13.51,13.51,0,0,0-3.11-.23c-.48,0-1,0-1.69,0s-1.32.09-2,.15l-2,.21c-.63.07-1.15.14-1.56.2a1.37,1.37,0,0,1-.49,0,.31.31,0,0,1-.28-.28l-.36-7.29c-.07-.37,0-.61.31-.71a14.88,14.88,0,0,1,2.1-.39q1.4-.18,3-.33c1.08-.1,2.16-.18,3.26-.23s2.07-.08,2.92-.08a26.87,26.87,0,0,1,4.49.36,11.45,11.45,0,0,1,3.69,1.23,6.37,6.37,0,0,1,3.41,6.05V148a.9.9,0,0,1-.12.46A.87.87,0,0,1,310.4,148.78Zm-10.16-10.52a.32.32,0,0,0-.36-.36h-.56c-.55,0-1,0-1.44,0a2.29,2.29,0,0,0-1.05.34,1.84,1.84,0,0,0-.67.84,4.27,4.27,0,0,0-.23,1.54,4.69,4.69,0,0,0,.21,1.59,1.92,1.92,0,0,0,.54.85,1.58,1.58,0,0,0,.82.36,6.85,6.85,0,0,0,1.05.07,6,6,0,0,0,.87,0,2.57,2.57,0,0,0,.67-.15c.1,0,.15-.14.15-.31Zm24.94-26.56h-9.95c-.34,0-.51.2-.51.61V143q0,3.6,2.1,5.23a9.7,9.7,0,0,0,6.1,1.64,14.61,14.61,0,0,0,5-.71,2.33,2.33,0,0,0,.38-.26.51.51,0,0,0,.18-.41l.21-6.26a.46.46,0,0,0-.52-.51H328a3.44,3.44,0,0,1-1.75-.33c-.34-.23-.51-.83-.51-1.82V112.31C325.69,111.9,325.52,111.7,325.18,111.7Zm15.65,0h-9.94c-.35,0-.52.2-.52.61V143q0,3.6,2.11,5.23a9.7,9.7,0,0,0,6.1,1.64,14.51,14.51,0,0,0,5-.71,2,2,0,0,0,.39-.26.51.51,0,0,0,.18-.41l.2-6.26a.45.45,0,0,0-.51-.51h-.21a3.37,3.37,0,0,1-1.74-.33c-.34-.23-.51-.83-.51-1.82V112.31C341.35,111.9,341.18,111.7,340.83,111.7Zm27.41,37.23c-.68.17-1.47.33-2.36.49s-1.84.27-2.87.36-2.07.12-3.13.12a25.87,25.87,0,0,1-6.31-.69,10.74,10.74,0,0,1-4.56-2.33,10.1,10.1,0,0,1-2.77-4.33,24.86,24.86,0,0,1,.13-13.85,10.5,10.5,0,0,1,2.92-4.41,10.37,10.37,0,0,1,4.41-2.23,23.38,23.38,0,0,1,5.52-.62,19.24,19.24,0,0,1,5,.59,8,8,0,0,1,3.54,2,8.5,8.5,0,0,1,2.1,3.65,19.14,19.14,0,0,1,.69,5.54c0,.61,0,1.37-.1,2.28s-.16,1.7-.26,2.38a.85.85,0,0,1-.33.59,1.73,1.73,0,0,1-.8.13H356.39q-.3,0-.3.21a2.75,2.75,0,0,0,1.1,2.48,6.48,6.48,0,0,0,3.56.75c.72,0,1.45,0,2.18-.08s1.47-.11,2.18-.18,1.39-.15,2-.23,1.17-.18,1.64-.28a.81.81,0,0,1,.44,0,.3.3,0,0,1,.23.2l.72,6.57c0,.17-.07.3-.31.41A9.35,9.35,0,0,1,368.24,148.93ZM356,133.08h5a.53.53,0,0,0,.39-.13,1.17,1.17,0,0,0,.12-.69c0-.51,0-1-.05-1.49a3.43,3.43,0,0,0-.3-1.25,2.09,2.09,0,0,0-.8-.87,2.91,2.91,0,0,0-1.56-.34,3.38,3.38,0,0,0-1.7.36,2.55,2.55,0,0,0-1,1,3.87,3.87,0,0,0-.41,1.41c-.05.53-.07,1.1-.07,1.71A.27.27,0,0,0,356,133.08Zm26.82,7.34a5.44,5.44,0,0,0-1.8-1.21,6.13,6.13,0,0,0-4.51,0,5.5,5.5,0,0,0-1.79,1.21,5.41,5.41,0,0,0-1.21,1.84,6.13,6.13,0,0,0-.44,2.31,5.64,5.64,0,0,0,1.62,4.21,6,6,0,0,0,8.15,0,5.64,5.64,0,0,0,1.62-4.21,6.13,6.13,0,0,0-.44-2.31A5.53,5.53,0,0,0,382.86,140.42ZM219.25,163h-4.63a.26.26,0,0,0-.3.21l-2.26,6.59a1.46,1.46,0,0,1-.11.28.18.18,0,0,1-.18.09c-.11,0-.2-.12-.28-.37l-2.19-6.59c-.06-.14-.14-.21-.25-.21h-5c-.16,0-.23.07-.23.21v14.26c0,.15.07.22.23.22h3.51c.15,0,.23-.07.23-.22l-.18-9.18q0-.3.18-.3a.24.24,0,0,1,.15,0,.41.41,0,0,1,.1.22l1.83,5.81a.59.59,0,0,0,.16.28.53.53,0,0,0,.27,0h2.47a.35.35,0,0,0,.24-.06,2.29,2.29,0,0,0,.14-.3l1.88-5.73q.09-.3.27-.3c.08,0,.13,0,.15,0a.56.56,0,0,1,0,.24l-.2,9.2c0,.15.07.22.23.22h3.69c.16,0,.23-.07.23-.22V163.21C219.48,163.07,219.41,163,219.25,163Zm6.65,3.13h-3.63c-.15,0-.23.07-.23.22v11.12c0,.15.08.22.23.22h3.63c.15,0,.23-.07.23-.22V166.35C226.13,166.2,226.05,166.13,225.9,166.13Zm-.21-5a2.49,2.49,0,0,0-.72-.47,2.36,2.36,0,0,0-.87-.17,2.32,2.32,0,0,0-.87.17,2.49,2.49,0,0,0-.72.47,2.2,2.2,0,0,0-.48.68,2.16,2.16,0,0,0,0,1.68,2.2,2.2,0,0,0,.48.68,2.49,2.49,0,0,0,.72.47,2.32,2.32,0,0,0,.87.17,2.36,2.36,0,0,0,.87-.17,2.49,2.49,0,0,0,.72-.47,2.2,2.2,0,0,0,.48-.68,2.16,2.16,0,0,0,0-1.68A2.2,2.2,0,0,0,225.69,161.11Zm9.35,5h-1.6c-.09,0-.14,0-.14-.13v-2.7a.2.2,0,0,0-.23-.22h-3.58a.2.2,0,0,0-.23.22V166c0,.09,0,.13-.14.13h-1.25c-.15,0-.23.07-.23.22v2.5c0,.15.08.22.23.22h1.25c.09,0,.14,0,.14.13v6.11a2.36,2.36,0,0,0,.78,2,3.65,3.65,0,0,0,2.28.6c.39,0,.8,0,1.21-.05a5.87,5.87,0,0,0,1-.18.26.26,0,0,0,.22-.28l.07-2.14c0-.15-.07-.22-.23-.22h-.36a1.21,1.21,0,0,1-.75-.17,1,1,0,0,1-.21-.74V169.2c0-.09,0-.13.14-.13H235a.19.19,0,0,0,.22-.22v-2.5A.19.19,0,0,0,235,166.13Zm17.57,6.17a4.9,4.9,0,0,1,.19,1.43,3.7,3.7,0,0,1-.46,1.91,3.79,3.79,0,0,1-1.18,1.21,5,5,0,0,1-1.61.64,8.17,8.17,0,0,1-1.75.2h-6.17c-.15,0-.23-.07-.23-.22V163.21c0-.14.08-.21.23-.21h5.55a11,11,0,0,1,2,.17,5.21,5.21,0,0,1,1.68.59,3.12,3.12,0,0,1,1.14,1.14,3.37,3.37,0,0,1,.43,1.79,5.15,5.15,0,0,1-.14,1.28,3.28,3.28,0,0,1-.35.86,2.13,2.13,0,0,1-.51.56,2.71,2.71,0,0,1-.58.35,1.5,1.5,0,0,0-.23.15.17.17,0,0,0,0,.13c0,.09.07.15.2.19a7.62,7.62,0,0,1,.7.42,2.85,2.85,0,0,1,.63.66A3.94,3.94,0,0,1,252.61,172.3Zm-7.12-3.38a.28.28,0,0,0,0,.16.28.28,0,0,0,.15,0h.48a3.26,3.26,0,0,0,1.71-.35,1.67,1.67,0,0,0,.55-1.49,1.51,1.51,0,0,0-.41-1.16,1.86,1.86,0,0,0-1.32-.39h-1q-.18,0-.18.15Zm3.08,4.19a1.47,1.47,0,0,0-.52-1.32,2.46,2.46,0,0,0-1.37-.35h-1c-.12,0-.18.07-.18.2v3.07c0,.11.06.17.18.17h.83a4.82,4.82,0,0,0,1-.09,1.23,1.23,0,0,0,.64-.29,1.08,1.08,0,0,0,.32-.55A3.37,3.37,0,0,0,248.57,173.11Zm15.58-6a5.31,5.31,0,0,1,1.14,3.78,7.63,7.63,0,0,1,0,.77c0,.3-.05.56-.08.79a.68.68,0,0,1-.16.44.52.52,0,0,1-.36.1h-6c-.09,0-.13,0-.13.11a1.73,1.73,0,0,0,.65,1.58,3.52,3.52,0,0,0,1.95.43,14.24,14.24,0,0,0,1.55-.09c.55-.06,1.17-.16,1.85-.3.15-.05.24,0,.27.08l.26,2.29a.2.2,0,0,1-.14.2,8.37,8.37,0,0,1-1.74.43,14.79,14.79,0,0,1-2.46.19q-3.27,0-4.75-1.41T254.47,172a8.31,8.31,0,0,1,.41-2.82,4.34,4.34,0,0,1,3-2.9,8.35,8.35,0,0,1,2.43-.33A5.17,5.17,0,0,1,264.15,167.1Zm-2.29,3.33a6.82,6.82,0,0,0,0-.82,1.47,1.47,0,0,0-.22-.63,1.18,1.18,0,0,0-.49-.41,2.06,2.06,0,0,0-.87-.15,2.22,2.22,0,0,0-1,.18,1.44,1.44,0,0,0-.56.5,2.08,2.08,0,0,0-.26.75,6.53,6.53,0,0,0-.07.93c0,.08.05.12.14.12h3.08a.21.21,0,0,0,.18-.07C261.84,170.78,261.86,170.65,261.86,170.43Zm13.27,2.19a3.58,3.58,0,0,0-.76-.74,10.67,10.67,0,0,0-1.29-.8c-.43-.23-.77-.42-1-.58a6.57,6.57,0,0,1-.58-.38.88.88,0,0,1-.27-.3.93.93,0,0,1,0-.32c0-.29.1-.47.29-.54a4.15,4.15,0,0,1,1.17-.11c.26,0,.63,0,1.12.08s.93.1,1.34.16c.11,0,.16,0,.16-.09l.19-2.59a.16.16,0,0,0-.12-.15c-.2,0-.44-.09-.74-.13l-.95-.11-1-.07c-.35,0-.67,0-1,0a10.63,10.63,0,0,0-2,.17,4,4,0,0,0-1.47.55,2.67,2.67,0,0,0-.93,1,4.32,4.32,0,0,0-.22,2.69,2.06,2.06,0,0,0,.39.8,3.33,3.33,0,0,0,.73.72,10,10,0,0,0,1.14.73c.43.25.77.45,1,.62a5.83,5.83,0,0,1,.6.42,1,1,0,0,1,.29.31.77.77,0,0,1,.07.29c0,.36-.09.59-.24.67a2.76,2.76,0,0,1-1.09.13c-.2,0-.42,0-.67,0l-.76-.05-.73-.08a4.05,4.05,0,0,1-.6-.11.23.23,0,0,0-.14,0s-.07.06-.07.09l-.11,2.55c0,.09,0,.14.14.17a10.85,10.85,0,0,0,1.49.21c.6,0,1.29.07,2.07.07a17.37,17.37,0,0,0,2-.11,4.64,4.64,0,0,0,1.59-.49,2.58,2.58,0,0,0,1-1.07,3.92,3.92,0,0,0,.38-1.85,4.61,4.61,0,0,0-.09-1A2.32,2.32,0,0,0,275.13,172.62Zm9-6.49h-1.59c-.1,0-.14,0-.14-.13v-2.7a.2.2,0,0,0-.23-.22h-3.58c-.16,0-.23.08-.23.22V166c0,.09-.05.13-.14.13h-1.25c-.16,0-.23.07-.23.22v2.5c0,.15.07.22.23.22h1.25c.09,0,.14,0,.14.13v6.11a2.39,2.39,0,0,0,.77,2,3.7,3.7,0,0,0,2.29.6c.39,0,.8,0,1.21-.05a5.57,5.57,0,0,0,1-.18.26.26,0,0,0,.23-.28l.07-2.14c0-.15-.08-.22-.23-.22h-.36a1.27,1.27,0,0,1-.76-.17,1,1,0,0,1-.2-.74V169.2c0-.09,0-.13.14-.13h1.59c.15,0,.23-.07.23-.22v-2.5C284.33,166.2,284.25,166.13,284.1,166.13ZM305.86,163h-4.64a.26.26,0,0,0-.29.21l-2.26,6.59a2.26,2.26,0,0,1-.12.28.18.18,0,0,1-.18.09c-.11,0-.2-.12-.27-.37l-2.2-6.59c-.06-.14-.14-.21-.25-.21H290.7c-.15,0-.23.07-.23.21v14.26c0,.15.08.22.23.22h3.52a.19.19,0,0,0,.22-.22l-.18-9.18q0-.3.18-.3a.24.24,0,0,1,.15,0,.41.41,0,0,1,.1.22l1.83,5.81a.69.69,0,0,0,.16.28.61.61,0,0,0,.28,0h2.46a.35.35,0,0,0,.24-.06,1.34,1.34,0,0,0,.15-.3l1.87-5.73q.09-.3.27-.3c.08,0,.13,0,.15,0s0,.11,0,.24l-.21,9.2c0,.15.08.22.23.22h3.7c.15,0,.23-.07.23-.22V163.21C306.09,163.07,306,163,305.86,163Zm13.58,5.94a8.62,8.62,0,0,1,.43,2.87,9.36,9.36,0,0,1-.43,2.94,4.59,4.59,0,0,1-1.17,2,3.79,3.79,0,0,1-1.67.89,10.27,10.27,0,0,1-2.57.27,9.86,9.86,0,0,1-2.54-.27,3.79,3.79,0,0,1-1.64-.89,4.7,4.7,0,0,1-1.18-2,9.36,9.36,0,0,1-.44-2.94,8.61,8.61,0,0,1,.44-2.87,4.65,4.65,0,0,1,1.18-1.9,3.66,3.66,0,0,1,1.68-.88,11.21,11.21,0,0,1,2.54-.25,11,11,0,0,1,2.56.25,3.67,3.67,0,0,1,1.64.88A4.54,4.54,0,0,1,319.44,168.94Zm-3.68,2.81a8.91,8.91,0,0,0-.13-1.67,2.66,2.66,0,0,0-.37-1,.88.88,0,0,0-.41-.3,2.51,2.51,0,0,0-.78-.09,2.67,2.67,0,0,0-.82.09.88.88,0,0,0-.41.3,2.21,2.21,0,0,0-.38,1,10,10,0,0,0-.12,1.67,12,12,0,0,0,.12,1.78,2.37,2.37,0,0,0,.38,1.09.82.82,0,0,0,.41.3,2.51,2.51,0,0,0,.78.09,2.67,2.67,0,0,0,.82-.09.82.82,0,0,0,.41-.3,2.8,2.8,0,0,0,.37-1.09A10.69,10.69,0,0,0,315.76,171.75Zm22.81-4.81a3.84,3.84,0,0,0-1.58-.78,10.34,10.34,0,0,0-2.42-.25c-.49,0-1,0-1.66.09a9.4,9.4,0,0,0-1.88.39.57.57,0,0,1-.34,0,3.12,3.12,0,0,0-.64-.23,8.62,8.62,0,0,0-.85-.16c-.3,0-.61-.07-.92-.08l-.86,0c-.45,0-.93,0-1.44,0s-1,.05-1.46.09l-1.34.15q-.65.09-1.08.18c-.15,0-.22.1-.22.21v10.89a.19.19,0,0,0,.22.22h3.61c.15,0,.23-.07.23-.22v-8.32a.18.18,0,0,1,.18-.21,5,5,0,0,1,.5-.07l.62,0a1.79,1.79,0,0,1,1.14.29,1.34,1.34,0,0,1,.34,1.05v7.28c0,.15.08.22.23.22h3.63c.15,0,.23-.07.23-.22v-8.32q0-.19.21-.21a3.61,3.61,0,0,1,.48-.07l.59,0a1.68,1.68,0,0,1,1.21.34,1.57,1.57,0,0,1,.34,1.15v7.13c0,.15.08.22.23.22h3.61a.19.19,0,0,0,.22-.22v-7.24a6.28,6.28,0,0,0-.26-1.94A2.83,2.83,0,0,0,338.57,166.94Zm12.75.16a5.31,5.31,0,0,1,1.14,3.78c0,.22,0,.47,0,.77s-.05.56-.08.79a.74.74,0,0,1-.16.44.55.55,0,0,1-.37.1h-6c-.09,0-.14,0-.14.11a1.75,1.75,0,0,0,.65,1.58,3.55,3.55,0,0,0,1.95.43,14.1,14.1,0,0,0,1.55-.09c.55-.06,1.17-.16,1.85-.3.16-.05.25,0,.28.08l.25,2.29a.2.2,0,0,1-.14.2,8.41,8.41,0,0,1-1.73.43,15,15,0,0,1-2.47.19c-2.17,0-3.76-.47-4.75-1.41s-1.48-2.45-1.48-4.53a8.57,8.57,0,0,1,.41-2.82,4.62,4.62,0,0,1,1.18-1.87,4.53,4.53,0,0,1,1.85-1,8.3,8.3,0,0,1,2.43-.33A5.13,5.13,0,0,1,351.32,167.1ZM349,170.43a6.68,6.68,0,0,0-.05-.82,1.35,1.35,0,0,0-.22-.63,1.12,1.12,0,0,0-.49-.41,2,2,0,0,0-.86-.15,2.16,2.16,0,0,0-1,.18,1.37,1.37,0,0,0-.56.5,2.08,2.08,0,0,0-.27.75,6.61,6.61,0,0,0-.06.93c0,.08,0,.12.13.12h3.09a.24.24,0,0,0,.18-.07A.74.74,0,0,0,349,170.43Zm15.29-3.52a3.85,3.85,0,0,0-1.64-.76,11.4,11.4,0,0,0-2.54-.24c-.44,0-.91,0-1.41.05l-1.49.1-1.38.16-1.1.15c-.16,0-.23.1-.23.21v10.89c0,.15.07.22.23.22h3.6c.15,0,.23-.07.23-.22v-8.32a.18.18,0,0,1,.18-.21l.48-.07.62,0a1.68,1.68,0,0,1,1.23.33,1.7,1.7,0,0,1,.3,1.16v7.13c0,.15.07.22.23.22h3.63a.19.19,0,0,0,.22-.22v-7.21a6.43,6.43,0,0,0-.27-2A2.86,2.86,0,0,0,364.33,166.91Zm10-.78h-1.6c-.09,0-.13,0-.13-.13v-2.7a.2.2,0,0,0-.23-.22h-3.59a.2.2,0,0,0-.22.22V166c0,.09,0,.13-.14.13h-1.26a.19.19,0,0,0-.22.22v2.5a.19.19,0,0,0,.22.22h1.26c.09,0,.14,0,.14.13v6.11a2.36,2.36,0,0,0,.77,2,3.7,3.7,0,0,0,2.29.6c.39,0,.79,0,1.21-.05a5.57,5.57,0,0,0,1-.18.26.26,0,0,0,.23-.28l.07-2.14c0-.15-.08-.22-.23-.22h-.36a1.27,1.27,0,0,1-.76-.17,1,1,0,0,1-.2-.74V169.2c0-.09,0-.13.13-.13h1.6c.15,0,.23-.07.23-.22v-2.5C374.53,166.2,374.45,166.13,374.3,166.13Zm9.64,6.49a3.58,3.58,0,0,0-.76-.74,10.67,10.67,0,0,0-1.29-.8c-.43-.23-.77-.42-1-.58s-.44-.28-.58-.38a.74.74,0,0,1-.26-.3.73.73,0,0,1-.06-.32q0-.44.3-.54a4,4,0,0,1,1.16-.11c.26,0,.63,0,1.12.08s.93.1,1.35.16c.1,0,.16,0,.16-.09l.18-2.59a.16.16,0,0,0-.12-.15c-.19,0-.44-.09-.74-.13l-.95-.11-1-.07c-.35,0-.67,0-1,0a10.44,10.44,0,0,0-2,.17,4,4,0,0,0-1.48.55,2.67,2.67,0,0,0-.93,1,4.53,4.53,0,0,0-.22,2.69,2.38,2.38,0,0,0,.39.8,3.33,3.33,0,0,0,.73.72,10,10,0,0,0,1.14.73c.43.25.77.45,1,.62a4.89,4.89,0,0,1,.6.42,1,1,0,0,1,.29.31.77.77,0,0,1,.07.29c0,.36-.08.59-.24.67a2.73,2.73,0,0,1-1.09.13c-.2,0-.42,0-.67,0l-.75-.05-.74-.08a4.05,4.05,0,0,1-.6-.11.23.23,0,0,0-.14,0s-.07.06-.07.09l-.11,2.55a.17.17,0,0,0,.14.17,10.85,10.85,0,0,0,1.49.21c.6,0,1.29.07,2.07.07a17.24,17.24,0,0,0,2-.11,4.64,4.64,0,0,0,1.59-.49,2.58,2.58,0,0,0,1-1.07,3.92,3.92,0,0,0,.38-1.85,4.61,4.61,0,0,0-.09-1A2.15,2.15,0,0,0,383.94,172.62Z"/><path class="cls-3" d="M160.54,177.22a1.58,1.58,0,0,0-.53-2c-.64-.38-1.33,0-1.38.86a5,5,0,0,0,.52,2C159.31,178.17,160.16,177.84,160.54,177.22Z"/><path class="cls-3" d="M184.33,185.64c2.78-.65,2.88-.8,1.13-1.86a4.26,4.26,0,0,0-3.71-.33c-.95.49-1.84.16-1.78-.65-.21-1.82-12.53-8.39-13.37-7C165.57,177.51,181.3,186.35,184.33,185.64Z"/><path class="cls-3" d="M169.5,196.57a6.42,6.42,0,0,0,2.88-3.34c.15-1,1.59-2.63,3.13-3.39,2.33-1.35,2.29-2,.44-4-3.49-3.58-5.95-2.74-3.73,1.14,1,1.89,1.2,3.05.25,2.47-1.12-.67-2,.07-2.61,1.81s-1.18,2.67-1.81,2.29-1.43.2-2.08,1.28C164.63,197.44,166.48,198.34,169.5,196.57Z"/><path class="cls-3" d="M190.91,203.55c.76-.17,1.41-1.26,1.56-2.23.08-1.21-.26-1-1.27.3C190.46,202.86,190.31,203.83,190.91,203.55Z"/><path class="cls-3" d="M154.94,177.86c.19-.31-.83-1.13-2.27-2s-2.51-.88-2.66.09C150,177.42,154.19,179.1,154.94,177.86Z"/><path class="cls-3" d="M116.43,148.1a2.09,2.09,0,0,1,2,2.06c.18,2.22,1.13,2.8,2,1.4.56-.93-3.08-7.14-4.67-8.1-.32-.19-.72.84-1,2S115.35,148.09,116.43,148.1Z"/><path class="cls-3" d="M202.65,194.15c2.23,1.34,2.74,1.22,2.37-.69s-1.26-2.24-3-1.82S200.27,192.71,202.65,194.15Z"/><path class="cls-3" d="M129.85,160.42c2.24-1.19,1.85-1.64-3.32-6l-4.63-3.85,2.33,4.79C127,160.81,127.71,161.45,129.85,160.42Z"/><path class="cls-3" d="M146.83,174c1-1.71.7-3-1.05-4-3.19-1.92-4.47-.15-2.47,3.38S145.15,176.82,146.83,174Z"/><path class="cls-3" d="M325.92,211.16c2-.07,3.57-.17,3.76-.48s-1.12-.67-3-.76-3.48,0-3.76.48S324,211.07,325.92,211.16Z"/><path class="cls-3" d="M35.18,7c0-1.87-.41-3.63-.89-3.92A10.25,10.25,0,0,1,32.54-.24H30.79l.47,1.49C34.2,10.42,35.33,12.15,35.18,7Z"/><path class="cls-3" d="M111.07,144c.64.38,1.74,0,2.4-1.1s.48-2.24-.16-2.62-1.74,0-2.39,1.09S110.43,143.64,111.07,144Z"/><path class="cls-3" d="M332.39,209.78c.32.19,2.75-.25,5.37-1s4.26-1.66,3.62-2C340.27,206.07,331.28,209.1,332.39,209.78Z"/><path class="cls-3" d="M279.21,216.61a1.57,1.57,0,0,0,2-.47c.37-.62.43-1.43.11-1.62a2.72,2.72,0,0,0-2,.47C278.47,215.32,278.41,216.13,279.21,216.61Z"/><path class="cls-3" d="M217.54,210.52c1.14.26,2.46-.85,3.26-2.9.9-2.21.41-3.56-1-3.77a2.21,2.21,0,0,0-2.62,1.81,14.46,14.46,0,0,1-1.13,3.33C215.69,209.61,216.4,210.25,217.54,210.52Z"/><path class="cls-3" d="M258.92,217.49a2.74,2.74,0,0,0,1.56-2.23c.09-1.22-.26-1-1.26.3C258.47,216.8,258.33,217.76,258.92,217.49Z"/><path class="cls-3" d="M235.87,207.83c1.78-3,1.71-3.2-.52-2-1.55.76-2.64,2.21-2.54,3.12C232.62,211.78,233.73,211.39,235.87,207.83Z"/><path class="cls-3" d="M32.74,16.08c-1.52.36.13,6.63,2,7.79.73.23,1-1.3.25-3.66C34.37,17.7,33.24,16,32.74,16.08Z"/><path class="cls-3" d="M56.17,73.74a1.59,1.59,0,0,0-.53-2c-.79-.48-1.33,0-1.38.86a5.08,5.08,0,0,0,.53,2C55,74.7,55.8,74.36,56.17,73.74Z"/><path class="cls-3" d="M99.12,123.51c.73.23,1.56.3,1.65.15a2.76,2.76,0,0,0-.53-2,.87.87,0,0,0-1.65-.15A1.45,1.45,0,0,0,99.12,123.51Z"/><path class="cls-3" d="M95.54,126.21c1.59,1,1.62.56.64-2.15-1.78-4.24-3.6-5.55-3.18-1.92A6.1,6.1,0,0,0,95.54,126.21Z"/><path class="cls-3" d="M86.89,119.31a3.88,3.88,0,0,0,3.3.29c.85-.33.43-1.43-1.17-2.39-1.43-.86-2.92-.91-3.29-.29S85.78,118.64,86.89,119.31Z"/><path class="cls-1" d="M3,.92a2.25,2.25,0,0,1,.8-1.16H.53C.6,2.05,2.28,3.1,3,.92Z"/><path class="cls-1" d="M7.65,4.77C7.41,7,8.17,9.31,9.6,10.17a6.62,6.62,0,0,1,2.86,4.26c.14,1.57,0,2.53-.48,2.25-.64-.39-.79.58-.55,2a5.49,5.49,0,0,0,3.48,3.58c2.77.82,2.95.51,1.76-1.48-.74-1.29-.82-2.6-.12-3s.8-2,.09-3.75c-1.3-2.9-1.18-7,.08-10.94C17.15,1.61,17.78,2,19,4c.9,1.38,1.27,3.3.9,3.92S20,9.06,21.11,9.08c1.33,0,1.57-1.17.6-3.87a8.11,8.11,0,0,1-.52-5.45H5.39A5.17,5.17,0,0,1,7.65,4.77Z"/></svg>