<svg id="Layer_1" data-name="Layer 1" xmlns="http://www.w3.org/2000/svg" viewBox="0 0 532 52"><defs><style>.cls-1{fill:#fff;}</style></defs><title>1_headline_btm</title><path class="cls-1" d="M22.51,1.74H1V50.26H11.79V33.64H21.5c15.75,0,23.66-5.5,23.66-16C45.16,6.84,37.25,1.74,22.51,1.74Zm-1.68,24h-9V9.65H21.5c9.05,0,12.47,2.55,12.47,8S30.62,25.73,20.83,25.73Zm51.77-24L47.14,50.26h12L64.29,40.2H92l5.23,10.06h12.13L83.86,1.74ZM68.31,31.83,78.16,12.2,88,31.83Zm68.34-10.45c-9.58-1.95-13.53-3.35-13.53-6.5,0-3.69,3.88-5.9,12.59-5.9a58,58,0,0,1,17.49,2.95V3.69c-3.89-1.68-9.92-3-17.49-3-16.82,0-23.58,6.23-23.58,14.68,0,7.9,6.7,12.33,19.56,14.87,9.58,1.94,13.34,3.35,13.34,6.5,0,4-4.69,6.37-14.61,6.37a61.28,61.28,0,0,1-18.49-3.22v8.31c3.95,1.61,10.92,3.15,19,3.15,17.28,0,25.33-6.44,25.33-15C156.22,27.94,149.51,23.92,136.65,21.38Zm51.13,0c-9.58-1.95-13.54-3.35-13.54-6.5,0-3.69,3.89-5.9,12.6-5.9a58,58,0,0,1,17.49,2.95V3.69c-3.89-1.68-9.92-3-17.49-3C170,.67,163.26,6.9,163.26,15.35c0,7.9,6.7,12.33,19.56,14.87,9.58,1.94,13.33,3.35,13.33,6.5,0,4-4.69,6.37-14.6,6.37a61.41,61.41,0,0,1-18.5-3.22v8.31a53.89,53.89,0,0,0,19,3.15c17.28,0,25.32-6.44,25.32-15C207.34,27.94,200.64,23.92,187.78,21.38ZM215,9.65h8v32.7h-8v7.91h26.73V42.35h-8V9.65h8V1.74H215Zm62.09-9C258.38.67,249.47,12.4,249.47,26c0,13.87,8.38,25.33,27.61,25.33,18.69,0,27.6-11.73,27.6-25.33C304.68,12.13,296.31.67,277.08.67Zm0,42.15c-11.86,0-16.49-7.71-16.49-16.82s4.63-16.82,16.49-16.82S293.56,16.89,293.56,26,288.94,42.82,277.08,42.82ZM355,37.39,326.7,1.74H314.11V50.26h10.52V14.68L352.9,50.26h12.6V1.74H355ZM396.27,1.74,370.81,50.26h12L388,40.2h27.67l5.23,10.06H433L407.52,1.74ZM392,31.83l9.85-19.63,9.85,19.63ZM433.45,9.65h17.82V50.26h10.79V9.65H480V1.74h-46.5Zm64.9,32.7v-13h25.79V21.44H498.35V9.65h30.08V1.74H487.56V50.26H528.7V42.35Z"/></svg>