<svg id="Layer_1" data-name="Layer 1" xmlns="http://www.w3.org/2000/svg" viewBox="0 0 280 52"><defs><style>.cls-1{fill:#fff;}</style></defs><title>2_headline_btm</title><path class="cls-1" d="M36.91,24.93c4.29-1.81,6.77-4.76,6.77-9.72,0-8.71-5.29-13.47-19.3-13.47H1V50.26H26.13c15.47,0,20.63-6,20.63-13.94C46.76,30.69,43.08,26.94,36.91,24.93ZM11.72,9.38H23.45c6.23,0,9.24,2.35,9.24,6.17s-3,6.3-9.24,6.3H11.72ZM26,42.62H11.72V29.22H26c7.17,0,9.78,2.54,9.78,6.76S33.16,42.62,26,42.62ZM88.51,29.89c7.91-2.15,12.4-6.7,12.4-13.61,0-9.51-8.11-14.54-22.65-14.54H57.69V50.26H68.48V31.7h4.29c4.89,0,5.89.53,8.24,3.48L93.07,50.26h13.47L92.87,33.44A13.15,13.15,0,0,0,88.51,29.89Zm-11.39-6H68.48V9.65h8.64c8.51,0,12.47,2.28,12.47,6.77C89.59,21.11,86.17,23.86,77.12,23.86ZM132.74,1.74,107.28,50.26h12l5.16-10.06h27.67l5.23,10.06h12.12L144,1.74Zm-4.28,30.09,9.85-19.63,9.85,19.63Zm70.81,7.77L181.18,1.74H168.85l24.53,48.52h11.25L229.16,1.74H217.37ZM247,42.35v-13H272.8V21.44H247V9.65h30.08V1.74H236.22V50.26h41.14V42.35Z"/></svg>