<svg id="Layer_1" data-name="Layer 1" xmlns="http://www.w3.org/2000/svg" viewBox="0 0 462 52"><defs><style>.cls-1{fill:#fff;}</style></defs><title>3_headline_btm</title><path class="cls-1" d="M1,9.65H9v32.7H1v7.91H27.73V42.35h-8V9.65h8V1.74H1ZM70.86,31,50.36,1.74H38.43V50.26H48.88V16.08L66.71,41.54h7.57L92.17,16.08V50.26h10.45V1.74H91.36ZM136.41,1.74h-21.5V50.26h10.78V33.64h9.72c15.74,0,23.65-5.5,23.65-16C159.06,6.84,151.15,1.74,136.41,1.74Zm-1.67,24h-9.05V9.65h9.72c9,0,12.46,2.55,12.46,8S144.52,25.73,134.74,25.73Zm70.53,4.42c0,8.58-4,12.73-13.67,12.73s-13.67-4.15-13.67-12.73V1.74H167.21v29c0,13.74,7.3,20.64,24.39,20.64,16.48,0,24.39-6.9,24.39-20.64V1.74H205.27ZM238.51,1.74H227.72V50.26h37.12V42.35H238.51Zm55.78,19.64c-9.58-1.95-13.53-3.35-13.53-6.5,0-3.69,3.88-5.9,12.59-5.9a58,58,0,0,1,17.49,2.95V3.69C307,2,300.93.67,293.35.67c-16.81,0-23.58,6.23-23.58,14.68,0,7.9,6.7,12.33,19.56,14.87,9.59,1.94,13.34,3.35,13.34,6.5,0,4-4.69,6.37-14.61,6.37a61.34,61.34,0,0,1-18.49-3.22v8.31c3.95,1.61,10.92,3.15,19,3.15,17.29,0,25.33-6.44,25.33-15C313.86,27.94,307.16,23.92,294.29,21.38ZM321.5,9.65h8v32.7h-8v7.91h26.73V42.35h-8V9.65h8V1.74H321.5Zm60.35,30L363.76,1.74H351.43L376,50.26h11.26L411.73,1.74H399.94Zm46.39,2.75v-13H454V21.44h-25.8V9.65h30.09V1.74H417.45V50.26h41.14V42.35Z"/></svg>