<svg id="Layer_1" data-name="Layer 1" xmlns="http://www.w3.org/2000/svg" viewBox="0 0 501 259"><defs><style>.cls-1{fill:#fff;}.cls-2{fill:#e30613;}</style></defs><title>4_headline_btm</title><path class="cls-1" d="M13.44,84.53H21c12.16,0,18.26-4.24,18.26-12.37,0-8.33-6.1-12.26-17.49-12.26H5.11V97.36h8.33Zm0-18.52H21c7,0,9.62,2,9.62,6.15S28,78.43,20.43,78.43h-7Zm42,15.21H75.35V75.11H55.43V66H78.66V59.9H47.1V97.36H78.87v-6.1H55.43ZM96.36,83h3.31c3.78,0,4.55.41,6.36,2.69l9.32,11.64h10.4l-10.56-13a10.2,10.2,0,0,0-3.36-2.75c6.1-1.65,9.57-5.17,9.57-10.5,0-7.35-6.26-11.23-17.49-11.23H88V97.36h8.33Zm0-17H103c6.57,0,9.63,1.76,9.63,5.22C112.66,74.85,110,77,103,77H96.36Zm44.09,16.24h18v-6.1h-18V66h21.42V59.9H132.12V97.36h8.33Zm69.79-3.62c0-10.71-6.47-19.56-21.32-19.56-14.43,0-21.31,9.06-21.31,19.56,0,10.71,6.46,19.56,21.31,19.56C203.36,98.19,210.24,89.14,210.24,78.63Zm-21.32,13c-9.16,0-12.73-6-12.73-13s3.57-13,12.73-13,12.73,6,12.73,13S198.08,91.62,188.92,91.62ZM227.59,83h3.31c3.78,0,4.55.41,6.37,2.69l9.31,11.64H257l-10.56-13a10.1,10.1,0,0,0-3.36-2.75c6.11-1.65,9.57-5.17,9.57-10.5,0-7.35-6.26-11.23-17.49-11.23H219.26V97.36h8.33Zm0-17h6.67c6.58,0,9.63,1.76,9.63,5.22,0,3.62-2.64,5.75-9.63,5.75h-6.67Zm43.84,5,13.76,19.67H291L304.85,71V97.36h8.07V59.9h-8.69L288.4,82.51,272.57,59.9h-9.22V97.36h8.08ZM332.11,89.6h21.37l4,7.76h9.36L347.22,59.9h-8.69L318.86,97.36h9.27ZM342.82,68l7.61,15.16H335.21Zm38,1.92,21.84,27.47h9.73V59.9h-8.13V87.43L382.4,59.9h-9.73V97.36h8.12Zm61.3,28.3a41.59,41.59,0,0,0,14.49-2.43V89.39a46.06,46.06,0,0,1-13.92,2.33c-9.52,0-13.3-6-13.3-13.09,0-7.45,4.14-13.09,13.3-13.09A33.23,33.23,0,0,1,456,68.39V61.82a35.13,35.13,0,0,0-13.92-2.75c-14.44,0-21.27,9.06-21.27,19.56C420.82,89.34,427.24,98.19,442.09,98.19Zm54.77-6.93H473.42v-10h19.92V75.11H473.42V66h23.23V59.9H465.09V97.36h31.77ZM3.46,117.31H9.62v25.25H3.46v6.11H24.1v-6.11H18V117.31H24.1v-6.1H3.46Zm44.4,9.06c-7.4-1.5-10.46-2.59-10.46-5,0-2.85,3-4.56,9.73-4.56a44.81,44.81,0,0,1,13.51,2.28v-6.36a35.12,35.12,0,0,0-13.51-2.33c-13,0-18.21,4.81-18.21,11.33,0,6.1,5.17,9.52,15.11,11.49,7.4,1.5,10.29,2.58,10.29,5,0,3.1-3.62,4.91-11.28,4.91a47.31,47.31,0,0,1-14.28-2.48v6.41a41.44,41.44,0,0,0,14.65,2.44c13.35,0,19.56-5,19.56-11.6C63,131.44,57.79,128.33,47.86,126.37Zm51.32-15.16L79.52,148.67h9.26l4-7.76h21.37l4,7.76h9.37l-19.66-37.46Zm-3.31,23.23,7.61-15.16,7.6,15.16Zm66.69,4.29-21.84-27.52H131v37.46h8.12V121.19L161,148.67h9.72V111.21h-8.12Zm46.08-27.52L189,148.67h9.26l4-7.76H223.6l4,7.76H237l-19.66-37.46Zm-3.31,23.23,7.61-15.16,7.61,15.16Zm31.2-17.13h13.76v31.36h8.33V117.31h13.82v-6.1H236.53Zm36.48,0h13.77v31.36h8.33V117.31h13.81v-6.1H273Zm38.77,0h6.16v25.25h-6.16v6.11h20.64v-6.11h-6.15V117.31h6.15v-6.1H311.78Zm23.65,0h13.76v31.36h8.33V117.31h13.82v-6.1H335.43Zm69.08,15.83c0,6.63-3.1,9.84-10.55,9.84s-10.56-3.21-10.56-9.84V111.21h-8.28v22.35c0,10.61,5.64,15.94,18.84,15.94,12.73,0,18.83-5.33,18.83-15.94V111.21h-8.28ZM439,111.21H420.78v37.46h17.7c14.75,0,21.32-8.59,21.32-19.1C459.8,118.86,453.38,111.21,439,111.21Zm-1.71,31.35h-8.23V117.31h8.23c10.61,0,14,5.18,14,12.63S447.9,142.56,437.29,142.56Zm36.76,0v-10H494v-6.1H474.05v-9.11h23.23v-6.1H465.72v37.46h31.77v-6.11Z"/><path class="cls-1" d="M8.78,161.33H2.45v15.93H8.78c5.46,0,8.72-3.28,8.72-8C17.5,164.43,14.37,161.33,8.78,161.33Zm.16,14.08H4.71V163.18H8.94c4.18,0,6.25,2.55,6.25,6.12S13.12,175.41,8.94,175.41Zm17.54-9.7c-4,0-6.29,2.51-6.29,5.74,0,3.52,2.18,6.07,6.62,6.07a11.77,11.77,0,0,0,5.13-1v-1.74a12,12,0,0,1-4.88,1c-3,0-4.54-1.45-4.69-3.69h10.3c0-.2,0-.57,0-.86C32.71,168,30.42,165.71,26.48,165.71Zm-4.09,4.69c.18-1.79,1.87-3,4.09-3s3.9,1.23,4.1,3ZM38.25,168,38.07,166h-2v11.29h2.17v-7.35a4.36,4.36,0,0,1,3.94-2.2,8.62,8.62,0,0,1,2.27.27V166a6,6,0,0,0-2-.29A4.79,4.79,0,0,0,38.25,168Zm21.19-6.69-8,15.93H54l2-3.94h9.59l2,3.94H70l-8-15.93Zm-2.71,10.14,4-8.05,4,8.05Zm25.65,3.26a7.16,7.16,0,0,1-4,1.08c-2.36,0-3.68-.75-3.68-2.88v-7H72.54v7.33c0,3.45,2.56,4.22,5.39,4.22a8.64,8.64,0,0,0,4.62-1.23l.18,1h1.83V166H82.38Zm17.13-8a8,8,0,0,0-4.2-1c-4.2,0-6.67,2.22-6.67,5.9s2.55,5.91,6.54,5.91a8.45,8.45,0,0,0,4.51-1.25l.17,1h1.83V161.33H99.51Zm0,8a7.25,7.25,0,0,1-3.89,1.1c-3.06,0-4.73-1.43-4.73-4.22s1.67-4.21,4.73-4.21a7.25,7.25,0,0,1,3.89,1.1Zm7.06-11h2.17v-2.38h-2.17Zm0,13.55h2.17V166h-2.17Zm22.09-6.78c3.06-.46,4.76-2,4.76-4.49,0-2.9-1.87-4.66-6.78-4.66h-6.18v15.93h2.26V170.7h2.14c1.25,0,1.62.14,2.26.84l5.11,5.72h2.9l-5.35-6A3,3,0,0,0,128.66,170.48Zm-2.51-1.58h-3.43v-5.72h3.43c3.68,0,5,.77,5,2.81S129.83,168.9,126.15,168.9Zm18.2-.64c-3.69-1-4.49-1.58-4.49-3s1.57-2.25,4.6-2.25a16,16,0,0,1,5.44.9v-2a14.52,14.52,0,0,0-5.39-.88c-4.54,0-6.93,1.67-7,4.26-.06,3,2.55,3.9,6.16,4.89,3.35.92,4.53,1.5,4.53,3s-1.89,2.4-5.25,2.4a20.26,20.26,0,0,1-5.75-.86v1.94a17.35,17.35,0,0,0,5.68.85c5.13,0,7.61-1.8,7.66-4.42C150.62,170.11,148.4,169.38,144.35,168.26ZM168.79,167a8.3,8.3,0,0,0-5.23,1.66c.33-3.92,2.61-5.64,6.71-5.64a15.08,15.08,0,0,1,4.11.55v-2a14.36,14.36,0,0,0-4.2-.52c-5.9,0-9,3.16-9,9,0,5,2.62,7.5,7.35,7.5s6.89-2.55,6.89-5.25C175.44,169.05,173.06,167,168.79,167Zm-.24,8.78c-2.77,0-4.93-1.16-5.06-5.43a9,9,0,0,1,5.06-1.47c2.95,0,4.58,1.1,4.58,3.41S171.39,175.76,168.55,175.76Zm15.76-11.53a14,14,0,0,0,.85-1.14l.75-1.32-1.3-.73-.74,1.3a5.81,5.81,0,0,0-.55,1.32,10.94,10.94,0,0,0-.55-1.32L182,161l-1.3.73.75,1.32a6.7,6.7,0,0,0,.86,1.12,8.07,8.07,0,0,0-1.41-.17h-1.83v1.49h1.83a9.16,9.16,0,0,0,1.41-.17,6.7,6.7,0,0,0-.86,1.12l-.75,1.32,1.3.73.75-1.3a11.66,11.66,0,0,0,.55-1.32,6,6,0,0,0,.55,1.32l.74,1.3,1.3-.73-.75-1.32a13.79,13.79,0,0,0-.85-1.12,6.3,6.3,0,0,0,1.4.17h1.83V164h-1.83A6.36,6.36,0,0,0,184.31,164.23Zm7.51,10.35v2.68h2.68v-2.68Z"/><polygon class="cls-2" points="0.89 37.49 19.22 3 56.23 3 37.9 37.49 0.89 37.49"/><path class="cls-2" d="M65,3.58H76.16c7.88,0,12.27,2.73,12.27,7.88,0,3.74-2.43,6.21-6.72,7.37a7.11,7.11,0,0,1,2.36,1.93l7.41,9.12h-7.3L77.65,21.7c-1.27-1.59-1.82-1.88-4.47-1.88H70.85V29.88H65Zm5.84,4.29v7.7h4.69c4.9,0,6.76-1.49,6.76-4s-2.15-3.66-6.76-3.66Z"/><path class="cls-2" d="M94.56,28.75v-4.5a33.16,33.16,0,0,0,10,1.74c5.38,0,7.92-1.27,7.92-3.45,0-1.71-2-2.47-7.23-3.52-7-1.38-10.6-3.78-10.6-8.07C94.67,6.38,98.34,3,107.45,3a24.85,24.85,0,0,1,9.48,1.63V9.1a31.54,31.54,0,0,0-9.48-1.6c-4.72,0-6.82,1.2-6.82,3.2,0,1.71,2.14,2.47,7.33,3.52,7,1.38,10.61,3.56,10.61,8.1s-4.36,8.14-13.73,8.14A29.21,29.21,0,0,1,94.56,28.75Z"/><path class="cls-2" d="M134.51,17.85C134.51,8.45,139.42,3,150,3a22.8,22.8,0,0,1,7.88,1.38V8.81a26.08,26.08,0,0,0-7.73-1.31c-5.63,0-8.57,2.36-9.37,6.58a14,14,0,0,1,7-1.78c7.52,0,11.95,3.38,11.95,8.9,0,4.9-4.21,9.26-12.56,9.26S134.51,26,134.51,17.85Zm5.85.37v.25c0,4.76,2.51,7.77,7,7.77,4.21,0,6.28-2.39,6.28-5,0-2.91-2.4-4.47-6.25-4.47A15.48,15.48,0,0,0,140.36,18.22Z"/><path class="cls-1" d="M2,200v57H275V200Zm54.4,32.56c0,3.65-1.93,5.41-5.16,5.41a3.83,3.83,0,0,1-1.22-.15v-2.49a5.41,5.41,0,0,0,1.07.09c1.69,0,2.29-1.16,2.29-3.2V221.5H51.17v-2.4H56.4ZM69.1,230h-7c.11,1.48.9,2.44,2.85,2.44a11,11,0,0,0,3.56-.55v2.31a8.77,8.77,0,0,1-3.9.77c-3.6,0-5.45-2.23-5.45-5.76,0-3.2,1.33-5.9,5-5.9s5,2.81,5,5.66A8.89,8.89,0,0,1,69.1,230Zm9.6-3.9H75.12v4.71c0,1.12.26,1.61,1.63,1.61a9.17,9.17,0,0,0,1.91-.19v2.29a7.54,7.54,0,0,1-2.66.45c-3,0-3.84-1.48-3.84-4v-4.91H70.45v-2.45h1.71V221c0-.49.26-.81,1-.81h2v3.4H78.7Zm11,8.55H80.33v-1.8l5.08-6.75h-5v-2.45h9v1.8l-5.13,6.76h5.34Zm9.46-8.55H95.55v4.71c0,1.12.26,1.61,1.63,1.61a9.17,9.17,0,0,0,1.91-.19v2.29a7.5,7.5,0,0,1-2.66.45c-3,0-3.83-1.48-3.83-4v-4.91H90.88v-2.45H92.6V221c0-.49.25-.81,1-.81h2v3.4h3.59Zm16.93,3.9h-7c.1,1.48.9,2.44,2.85,2.44a11.14,11.14,0,0,0,3.56-.55v2.31a8.78,8.78,0,0,1-3.91.77c-3.6,0-5.44-2.23-5.44-5.76,0-3.2,1.33-5.9,5-5.9s5,2.81,5,5.66A7.13,7.13,0,0,1,116.07,230Zm12.82,4.65H126V227.8a1.76,1.76,0,0,0-2-2,4.33,4.33,0,0,0-2.29.6v8.19h-2.94v-11h2.55l.24.9a4.79,4.79,0,0,1,3.43-1.24c2.79,0,4,1.65,4,4.14Zm10.23-8.55h-3.58v4.71c0,1.12.26,1.61,1.63,1.61a9.17,9.17,0,0,0,1.91-.19v2.29a7.54,7.54,0,0,1-2.66.45c-3,0-3.84-1.48-3.84-4v-4.91h-1.71v-2.45h1.71V221c0-.49.26-.81,1-.81h2v3.4h3.58Zm12.27,8.55h-2.51l-.26-.94a4,4,0,0,1-3.19,1.28c-2.94,0-4.74-2.22-4.74-5.8,0-3.76,1.84-5.88,5-5.88a4.53,4.53,0,0,1,2.72.79v-5.7h2.94ZM163.91,230h-7c.11,1.48.9,2.44,2.85,2.44a11,11,0,0,0,3.56-.55v2.31a8.77,8.77,0,0,1-3.9.77c-3.6,0-5.45-2.23-5.45-5.76,0-3.2,1.33-5.9,5-5.9s5,2.81,5,5.66A8.89,8.89,0,0,1,163.91,230Zm10.2,4.35a8.83,8.83,0,0,1-3.53.62c-3.18,0-4.91-2.25-4.91-5.78,0-3.76,1.73-5.86,5.12-5.86a8.66,8.66,0,0,1,3.24.58v2.4a8.06,8.06,0,0,0-2.79-.43c-1.76,0-2.57,1.35-2.57,3.22s.83,3.34,2.59,3.34a8.61,8.61,0,0,0,2.85-.42Zm9.31.3-3.92-5v5h-2.94V218.37h2.94v9.69l3.83-4.44h3.5l-3.54,4.1a6.6,6.6,0,0,1-1.2,1.05,7.21,7.21,0,0,1,1.26,1.22l3.71,4.63ZM197.68,230h-7c.11,1.48.9,2.44,2.85,2.44a11,11,0,0,0,3.56-.55v2.31a8.77,8.77,0,0,1-3.9.77c-3.6,0-5.45-2.23-5.45-5.76,0-3.2,1.33-5.9,5-5.9s5,2.81,5,5.66A8.89,8.89,0,0,1,197.68,230Zm12.82,4.65h-2.94V227.8a1.75,1.75,0,0,0-2-2,4.37,4.37,0,0,0-2.3.6v8.19h-2.94v-11h2.56l.23.9a4.79,4.79,0,0,1,3.43-1.24c2.79,0,4,1.65,4,4.14Zm20.81-6.75h0l-8.47,8.48a.49.49,0,0,1-.35.15.49.49,0,0,1-.36-.15l-1.3-1.3a.48.48,0,0,1,0-.7l6.84-6.85-6.85-6.84a.5.5,0,0,1,0-.71l1.3-1.3a.5.5,0,0,1,.71,0l8.51,8.49a.5.5,0,0,1,.14.37A.52.52,0,0,1,231.31,227.87Z"/><path class="cls-1" d="M192.75,225.58c-1.29,0-1.91.87-2,2.31h4.07C194.7,226.45,194,225.58,192.75,225.58Z"/><path class="cls-1" d="M159,225.58c-1.29,0-1.91.87-2,2.31H161C160.93,226.45,160.26,225.58,159,225.58Z"/><path class="cls-1" d="M111.14,225.58c-1.28,0-1.91.87-2,2.31h4.07C113.09,226.45,112.43,225.58,111.14,225.58Z"/><path class="cls-1" d="M64.17,225.58c-1.29,0-1.91.87-2,2.31h4.07C66.12,226.45,65.45,225.58,64.17,225.58Z"/><path class="cls-1" d="M143.69,229.09c0,1.87.84,3.39,2.59,3.39a3.93,3.93,0,0,0,2.17-.54v-5.61a4.2,4.2,0,0,0-2.27-.56C144.42,225.77,143.69,227.23,143.69,229.09Z"/></svg>