<svg id="Layer_1" data-name="Layer 1" xmlns="http://www.w3.org/2000/svg" viewBox="0 0 101 52"><defs><style>.cls-1{fill:#fff;}</style></defs><title>headline_top</title><path class="cls-1" d="M36.91,24.93c4.29-1.81,6.77-4.76,6.77-9.72,0-8.71-5.29-13.47-19.3-13.47H1V50.26H26.13c15.47,0,20.63-6,20.63-13.94C46.76,30.69,43.08,26.94,36.91,24.93ZM11.72,9.38H23.45c6.23,0,9.24,2.35,9.24,6.17s-3,6.3-9.24,6.3H11.72ZM26,42.62H11.72V29.22H26c7.17,0,9.78,2.54,9.78,6.76S33.16,42.62,26,42.62Zm42.49-.27v-13h25.8V21.44H68.48V9.65H98.57V1.74H57.69V50.26H98.83V42.35Z"/></svg>