<?xml version="1.0" encoding="utf-8"?>
<!-- Generator: Adobe Illustrator 23.1.0, SVG Export Plug-In . SVG Version: 6.00 Build 0)  -->
<svg version="1.1" id="Layer_1" xmlns="http://www.w3.org/2000/svg" xmlns:xlink="http://www.w3.org/1999/xlink" x="0px" y="0px"
	 viewBox="0 0 592 126" style="enable-background:new 0 0 592 126;" xml:space="preserve">
<style type="text/css">
	.st0{fill:#FFFFFF;}
</style>
<g>
	<g>
		<path class="st0" d="M5.9,5.6c0.3-0.4,0.6-0.8,0.9-1.1l0.7-1.3L6.2,2.4L5.5,3.7C5.3,4.1,5.1,4.6,4.9,5.1c-0.2-0.4-0.4-1-0.6-1.3
			L3.6,2.4L2.3,3.2l0.7,1.3c0.2,0.4,0.6,0.8,0.9,1.1c-0.5-0.1-1-0.2-1.4-0.2H1v1.5h1.5c0.4,0,0.9-0.1,1.4-0.2
			C3.6,7.1,3.3,7.5,3.1,7.9L2.3,9.2l1.3,0.7l0.7-1.3c0.2-0.4,0.4-0.9,0.6-1.3c0.1,0.4,0.3,1,0.6,1.3l0.7,1.3l1.3-0.7L6.8,7.9
			C6.5,7.5,6.2,7.1,5.9,6.8c0.4,0.1,1,0.2,1.4,0.2h1.5V5.4H7.3C6.9,5.4,6.4,5.5,5.9,5.6z M13.9,11.2l6.8,7.5h2.6l-6.4-7
			c-0.6-0.6-1-0.9-1.3-1.1C16,10.3,16.4,10,17,9.3L23,2.7h-2.5L13.9,10V2.7h-2v15.9h2V11.2z M27.4,11.1C27.8,10,28.8,9,30.2,9
			c0.6,0,1.3,0.1,1.7,0.2V7.3c-0.3-0.1-0.8-0.2-1.3-0.2C29,7.1,28,8,27.4,9l-0.1-1.7h-1.8v11.3h1.9V11.1z M39.3,12.1
			c-3.8,0-5.9,1.1-5.9,3.6c0,2,1.5,3.2,3.7,3.2c1.4,0,2.5-0.5,3.4-1.2l0.1,0.9h1.8v-7.6c0-2.9-1.8-4-4.4-4c-1.5,0-2.9,0.4-3.8,0.9
			v1.6c0.8-0.4,2.1-0.8,3.6-0.8c1.9,0,2.6,0.7,2.6,2.6v0.8H39.3z M40.4,16.4c-0.9,0.6-1.8,0.9-2.9,0.9c-1.4,0-2.1-0.6-2.1-1.6
			c0-1.4,1.2-2.1,4.2-2.1h0.8V16.4z M46.9,18.7h1.9V9h3.6V7.4h-3.6V6.1c0-1.9,0.5-2.7,2.4-2.7c0.8,0,1.3,0.1,2,0.3V2.1
			c-0.5-0.2-1.3-0.4-2.4-0.4c-2.4,0-3.9,1.4-3.9,4.1v1.5h-2.5V9h2.5V18.7z M55.4,15.5c0,2.5,1.2,3.4,3.4,3.4c0.9,0,1.9-0.2,2.5-0.4
			v-1.6c-0.5,0.2-1.3,0.4-2.1,0.4c-1.2,0-1.8-0.3-1.8-1.8V9h4.1V7.4h-4.1V3.9h-1.5c-0.4,0-0.4,0.1-0.4,0.4v3h-1.9V9h1.9V15.5z
			 M71,15.5c0-2-1.3-2.9-3.7-3.4c-1.6-0.4-2.4-0.7-2.4-1.8c0-1.1,0.7-1.6,2.3-1.6c1.3,0,2.4,0.4,3.2,0.8V7.9
			c-0.7-0.5-1.9-0.8-3.2-0.8c-3.1,0-4.2,1.3-4.2,3.3c0,2,1.3,2.8,3.7,3.3c1.6,0.4,2.5,0.8,2.5,1.9c0,1.1-1,1.7-2.8,1.7
			c-1.2,0-2.7-0.4-3.5-0.7v1.6c0.7,0.4,2.1,0.7,3.5,0.7C69.4,18.9,71,17.5,71,15.5z M75,15.5c0,2.5,1.2,3.4,3.4,3.4
			c0.9,0,1.9-0.2,2.5-0.4v-1.6c-0.5,0.2-1.3,0.4-2.1,0.4c-1.2,0-1.8-0.3-1.8-1.8V9H81V7.4h-4.1V3.9h-1.5C75,3.9,75,4,75,4.3v3H73V9
			H75V15.5z M87.6,18.9c3.7,0,5.2-2.6,5.2-5.9c0-3.3-1.4-5.9-5.2-5.9c-3.7,0-5.2,2.6-5.2,5.9C82.4,16.3,83.8,18.9,87.6,18.9z
			 M87.6,8.7c2.4,0,3.2,1.8,3.2,4.3c0,2.5-0.8,4.3-3.2,4.3c-2.4,0-3.2-1.8-3.2-4.3C84.4,10.5,85.2,8.7,87.6,8.7z M96.8,18.7h1.9V9
			h6.2v9.7h1.9V9h3.6V7.4h-3.6V6.1c0-1.9,0.5-2.7,2.4-2.7c0.8,0,1.3,0.1,2,0.3V2.1c-0.5-0.2-1.3-0.4-2.4-0.4c-2.4,0-3.9,1.4-3.9,4.1
			v1.5h-6.2V6.1c0-1.9,0.5-2.7,2.4-2.7c0.8,0,1.3,0.1,2,0.3V2.1c-0.5-0.2-1.3-0.4-2.4-0.4c-2.4,0-3.9,1.4-3.9,4.1v1.5h-2.5V9h2.5
			V18.7z M115,18.7h2l4.1-11.3h-2l-2.6,8c-0.2,0.5-0.4,1.1-0.5,1.7c-0.1-0.6-0.3-1.2-0.5-1.7L113,7.4h-2.1L115,18.7z M127.8,18.9
			c1.7,0,3-0.4,3.9-0.8v-1.6c-0.8,0.3-2,0.7-3.7,0.7c-2.2,0-3.2-1.4-3.3-3.9h7.5c0-0.2,0-0.5,0-0.8c0-3.1-1.6-5.4-4.8-5.4
			c-3.2,0-4.8,2.5-4.8,5.8C122.7,16.7,124.4,18.9,127.8,18.9z M127.5,8.7c1.7,0,2.7,1.3,2.8,3.2h-5.6C124.8,9.9,125.8,8.7,127.5,8.7
			z M137.2,11.1C137.6,10,138.6,9,140,9c0.6,0,1.3,0.1,1.7,0.2V7.3c-0.3-0.1-0.8-0.2-1.3-0.2c-1.5,0-2.5,0.9-3.1,1.9L137,7.4h-1.8
			v11.3h1.9V11.1z M145.9,18c0.8,0.6,1.9,1,3.2,1c2.9,0,4.9-2.1,4.9-6.1c0-3.9-1.7-5.8-4.6-5.8c-1.4,0-2.5,0.5-3.4,1.2V2h-1.9v16.7
			h1.7L145.9,18z M146,9.7c0.9-0.6,1.8-0.9,3-0.9c2,0,3,1.5,3,4.3c0,2.8-1.1,4.3-3.1,4.3c-1.1,0-2-0.2-2.9-0.7V9.7z M158.8,11.1
			c0.4-1.1,1.3-2.2,2.8-2.2c0.6,0,1.3,0.1,1.7,0.2V7.3c-0.3-0.1-0.8-0.2-1.3-0.2c-1.5,0-2.5,0.9-3.1,1.9l-0.1-1.7h-1.8v11.3h1.9
			V11.1z M173.7,11.1c0-2.9-1.8-4-4.4-4c-1.5,0-2.9,0.4-3.8,0.9v1.6c0.8-0.4,2.1-0.8,3.6-0.8c1.9,0,2.6,0.7,2.6,2.6v0.8h-1.1
			c-3.8,0-5.9,1.1-5.9,3.6c0,2,1.5,3.2,3.7,3.2c1.4,0,2.5-0.5,3.4-1.2l0.1,0.9h1.8V11.1z M171.8,16.4c-0.9,0.6-1.8,0.9-2.9,0.9
			c-1.4,0-2.1-0.6-2.1-1.6c0-1.4,1.2-2.1,4.2-2.1h0.8V16.4z M181.1,18.9c1.4,0,2.5-0.5,3.4-1.2l0.1,0.9h1.8V7.4h-1.9v9
			c-0.9,0.6-1.8,0.9-2.9,0.9c-1.5,0-2.4-0.7-2.4-2.3V7.4h-1.9v7.9C177.2,17.7,178.6,18.9,181.1,18.9z M191.4,12.9c0-2.6,1-4.1,3-4.1
			c1.2,0,2.3,0.3,2.9,0.6V7.7c-0.7-0.4-1.8-0.6-3-0.6c-3.3,0-5,2.4-5,5.8c0,3.9,1.7,6,4.9,6c1.3,0,2.6-0.4,3.3-0.8v-1.6
			c-0.7,0.3-1.6,0.7-3.2,0.7C192.5,17.2,191.4,15.8,191.4,12.9z M201.9,9.8c1-0.7,1.9-1,3.1-1c1.5,0,2.4,0.7,2.4,2.3v7.6h1.9v-7.9
			c0-2.4-1.3-3.7-3.9-3.7c-1.5,0-2.6,0.5-3.5,1.3V2H200v16.7h1.9V9.8z M219.5,2.7h-1.9V5h1.9V2.7z M219.5,7.4h-1.9v11.3h1.9V7.4z
			 M225.2,9.8c1-0.7,1.9-1.1,3.1-1.1c1.5,0,2.4,0.7,2.4,2.3v7.6h1.9v-7.9c0-2.4-1.3-3.7-3.9-3.7c-1.5,0-2.6,0.5-3.6,1.3l-0.1-1h-1.8
			v11.3h1.9V9.8z M243.3,18.8c0.7,0,1.4-0.1,1.8-0.3V17c-0.4,0.1-0.9,0.1-1.4,0.1c-0.8,0-1-0.4-1-1.1V2h-1.9v14.2
			C240.9,18.1,241.8,18.8,243.3,18.8z M255.2,2h-1.9l-7.2,16.7h1.9L255.2,2z M267,17h-3.4V2.7h-1.2l-4.2,0.9v1.7l3.4-0.7V17h-3.4
			v1.7h8.8V17z M276.1,18.9c4.4,0,5.7-3.5,5.7-8.3c0-4.7-1.3-8.2-5.7-8.2c-4.4,0-5.7,3.5-5.7,8.3C270.5,15.4,271.7,18.9,276.1,18.9z
			 M276.1,4.2c2.7,0,3.6,2.7,3.6,6.5c0,3.8-0.9,6.5-3.6,6.5s-3.6-2.7-3.6-6.5C272.6,6.9,273.4,4.2,276.1,4.2z M289.9,18.9
			c4.4,0,5.7-3.5,5.7-8.3c0-4.7-1.3-8.2-5.7-8.2c-4.4,0-5.7,3.5-5.7,8.3C284.3,15.4,285.5,18.9,289.9,18.9z M289.9,4.2
			c2.7,0,3.6,2.7,3.6,6.5c0,3.8-0.9,6.5-3.6,6.5c-2.7,0-3.6-2.7-3.6-6.5C286.4,6.9,287.2,4.2,289.9,4.2z M305.5,13.5l5,5.1h2.5
			l-4.9-5c-0.5-0.4-0.7-0.6-1-0.8c0.3-0.2,0.6-0.4,1.1-0.8l4.6-4.7h-2.3l-4.9,5V2h-1.9v16.7h1.9V13.5z M317.3,9.8
			c1-0.7,1.9-1.1,3.1-1.1c1.5,0,2.4,0.7,2.4,2.3v7.6h1.9V9.8c1-0.7,1.9-1.1,3.1-1.1c1.5,0,2.4,0.7,2.4,2.3v7.6h1.9v-7.9
			c0-2.4-1.3-3.7-3.9-3.7c-1.7,0-3,0.7-4,1.7c-0.6-1.1-1.8-1.7-3.5-1.7c-1.5,0-2.6,0.5-3.6,1.3l-0.1-1h-1.8v11.3h1.9V9.8z
			 M338.8,16.3h-2.4v2.4h2.4V16.3z M338.8,7.4h-2.4v2.4h2.4V7.4z M349.6,13.5l5,5.1h2.5l-4.9-5c-0.5-0.4-0.7-0.6-1-0.8
			c0.3-0.2,0.6-0.4,1.1-0.8l4.6-4.7h-2.3l-4.9,5V2h-1.9v16.7h1.9V13.5z M363.9,18.9c3.7,0,5.2-2.6,5.2-5.9c0-3.3-1.4-5.9-5.2-5.9
			c-3.7,0-5.2,2.6-5.2,5.9C358.7,16.3,360.1,18.9,363.9,18.9z M363.9,8.7c2.4,0,3.2,1.8,3.2,4.3c0,2.5-0.8,4.3-3.2,4.3
			c-2.4,0-3.2-1.8-3.2-4.3C360.7,10.5,361.5,8.7,363.9,8.7z M374.2,9.8c1-0.7,1.9-1.1,3.1-1.1c1.5,0,2.4,0.7,2.4,2.3v7.6h1.9V9.8
			c1-0.7,1.9-1.1,3.1-1.1c1.5,0,2.4,0.7,2.4,2.3v7.6h1.9v-7.9c0-2.4-1.3-3.7-3.9-3.7c-1.7,0-3,0.7-4,1.7c-0.6-1.1-1.8-1.7-3.5-1.7
			c-1.5,0-2.6,0.5-3.6,1.3l-0.1-1h-1.8v11.3h1.9V9.8z M394.8,18c0.8,0.6,1.9,1,3.2,1c2.9,0,4.9-2.1,4.9-6.1c0-3.9-1.7-5.8-4.6-5.8
			c-1.4,0-2.5,0.5-3.4,1.2V2H393v16.7h1.7L394.8,18z M394.9,9.7c0.9-0.6,1.8-0.9,3-0.9c2,0,3,1.5,3,4.3c0,2.8-1.1,4.3-3.1,4.3
			c-1.1,0-2-0.2-2.9-0.7V9.7z M407.7,2.7h-1.9V5h1.9V2.7z M407.7,7.4h-1.9v11.3h1.9V7.4z M413.5,9.8c1-0.7,1.9-1.1,3.1-1.1
			c1.5,0,2.4,0.7,2.4,2.3v7.6h1.9v-7.9c0-2.4-1.3-3.7-3.9-3.7c-1.5,0-2.6,0.5-3.6,1.3l-0.1-1h-1.8v11.3h1.9V9.8z M426.3,7.4h-1.9
			v11.3h1.9V7.4z M426.3,2.7h-1.9V5h1.9V2.7z M434.4,18.9c1.7,0,3-0.4,3.9-0.8v-1.6c-0.8,0.3-2,0.7-3.7,0.7c-2.2,0-3.2-1.4-3.3-3.9
			h7.5c0-0.2,0-0.5,0-0.8c0-3.1-1.6-5.4-4.8-5.4c-3.2,0-4.8,2.5-4.8,5.8C429.4,16.7,431.1,18.9,434.4,18.9z M434.1,8.7
			c1.7,0,2.7,1.3,2.8,3.2h-5.6C431.4,9.9,432.4,8.7,434.1,8.7z M443.8,11.1c0.4-1.1,1.3-2.2,2.8-2.2c0.6,0,1.3,0.1,1.7,0.2V7.3
			c-0.3-0.1-0.8-0.2-1.3-0.2c-1.5,0-2.5,0.9-3.1,1.9l-0.1-1.7h-1.8v11.3h1.9V11.1z M451.3,15.5c0,2.5,1.2,3.4,3.4,3.4
			c0.9,0,1.9-0.2,2.5-0.4v-1.6c-0.5,0.2-1.3,0.4-2.1,0.4c-1.2,0-1.8-0.3-1.8-1.8V9h4.1V7.4h-4.1V3.9h-1.5c-0.4,0-0.4,0.1-0.4,0.4v3
			h-1.9V9h1.9V15.5z M473.9,17h-3.4V2.7h-1.2l-4.2,0.9v1.7l3.4-0.7V17h-3.4v1.7h8.8V17z M487.6,17h-3.4V2.7H483l-4.2,0.9v1.7
			l3.4-0.7V17h-3.4v1.7h8.8V17z M492.3,21.9l0.4-0.6c1.5-1.9,2.1-3.1,2.1-4.2c0-0.6-0.4-0.9-1.1-0.9H492l0.4,2.4l-1.6,3.3H492.3z
			 M499.5,18.7h2.2l7-14.2V2.7h-10.5v1.7h8.3L499.5,18.7z M517.1,11.1h-5.6v2h5.6V11.1z M529.8,17h-3.4V2.7h-1.2L521,3.6v1.7
			l3.4-0.7V17H521v1.7h8.8V17z M543.5,17h-3.4V2.7h-1.2l-4.2,0.9v1.7l3.4-0.7V17h-3.4v1.7h8.8V17z M548.2,21.9l0.4-0.6
			c1.5-1.9,2.1-3.1,2.1-4.2c0-0.6-0.4-0.9-1.1-0.9h-1.7l0.4,2.4l-1.6,3.3H548.2z M564.4,14c0-4.2-4.4-4.9-7.3-5.1l0.2-4.5h6.6V2.7
			h-8.5l-0.3,7.9c2.2,0,7.3,0.1,7.3,3.3c0,1.8-1,3.2-3.6,3.2c-1.7,0-3.3-0.4-4.3-0.9V18c1,0.6,2.5,0.9,4.4,0.9
			C562.8,18.9,564.4,16.8,564.4,14z M571,7.4h-2.4v2.4h2.4V7.4z M568.7,21.9l0.4-0.6c1.5-1.9,2.1-3.1,2.1-4.2c0-0.6-0.4-0.9-1.1-0.9
			h-1.7l0.4,2.4l-1.6,3.3H568.7z M17,45.3c2,0,3.3-0.3,4.4-0.8v-1.7c-1.1,0.5-2.4,0.7-4.1,0.7c-2.8,0-4.7-2-4.7-6.5
			c0-4,1.4-6.4,4.5-6.4c1.6,0,3.1,0.4,4,0.8v-1.8c-0.9-0.6-2.5-0.9-4.1-0.9c-4.4,0-6.5,3.3-6.5,8.2C10.6,42.5,12.9,45.3,17,45.3z
			 M29.7,45.3c4.8,0,6.4-3.5,6.4-8.3c0-4.7-1.7-8.2-6.4-8.2c-4.8,0-6.4,3.5-6.4,8.3C23.3,41.8,25,45.3,29.7,45.3z M29.7,30.6
			c3.2,0,4.3,2.7,4.3,6.5c0,3.8-1.1,6.5-4.3,6.5c-3.2,0-4.3-2.7-4.3-6.5C25.4,33.3,26.6,30.6,29.7,30.6z M38.9,40.1v1.3
			c0.6-0.3,1.5-0.6,2.5-0.6c1.3,0,1.8,0.6,1.8,1.4c0,1-0.8,1.8-2.5,3.2l-2,1.7v1.2h6.5v-1.3h-4.4l0.9-0.6c1.6-1.2,3.1-2.5,3.1-4.2
			c0-1.5-0.9-2.6-3.3-2.6C40.3,39.5,39.4,39.8,38.9,40.1z M53,37.5h-5.6v2H53V37.5z M65.7,30.8v-1.7h-9.6v15.9h9.6v-1.7h-7.5v-5.6
			h6.4v-1.7h-6.4v-5.3H65.7z M74.1,33.5c-1.5,0-2.6,0.5-3.6,1.3l-0.1-1h-1.8v11.3h1.9v-8.8c1-0.7,1.9-1.1,3.1-1.1
			c1.5,0,2.4,0.7,2.4,2.3v7.6H78v-8.8c1-0.7,1.9-1.1,3.1-1.1c1.5,0,2.4,0.7,2.4,2.3v7.6h1.9v-7.9c0-2.4-1.3-3.7-3.9-3.7
			c-1.7,0-3,0.7-4,1.7C77,34.1,75.8,33.5,74.1,33.5z M91.2,29.1h-1.9v2.3h1.9V29.1z M89.3,45.1h1.9V33.8h-1.9V45.1z M102.4,41.9
			c0-2-1.3-2.9-3.7-3.4c-1.6-0.4-2.4-0.7-2.4-1.8c0-1.1,0.7-1.6,2.3-1.6c1.3,0,2.4,0.4,3.2,0.8v-1.6c-0.7-0.5-1.9-0.8-3.2-0.8
			c-3.1,0-4.2,1.3-4.2,3.3c0,2,1.3,2.8,3.7,3.3c1.6,0.4,2.5,0.8,2.5,1.9c0,1.1-1,1.7-2.8,1.7c-1.2,0-2.7-0.4-3.5-0.7v1.6
			c0.7,0.4,2.1,0.7,3.5,0.7C100.7,45.3,102.4,43.9,102.4,41.9z M108.3,43.7c-1.2,0-2.7-0.4-3.5-0.7v1.6c0.7,0.4,2.1,0.7,3.5,0.7
			c3.1,0,4.7-1.4,4.7-3.4c0-2-1.3-2.9-3.7-3.4c-1.6-0.4-2.4-0.7-2.4-1.8c0-1.1,0.7-1.6,2.3-1.6c1.3,0,2.4,0.4,3.2,0.8v-1.6
			c-0.7-0.5-1.9-0.8-3.2-0.8c-3.1,0-4.2,1.3-4.2,3.3c0,2,1.3,2.8,3.7,3.3c1.6,0.4,2.5,0.8,2.5,1.9C111.1,43.1,110.1,43.7,108.3,43.7
			z M116.3,45.1h1.9V33.8h-1.9V45.1z M118.2,29.1h-1.9v2.3h1.9V29.1z M126.4,45.3c3.7,0,5.2-2.6,5.2-5.9c0-3.3-1.4-5.9-5.2-5.9
			c-3.7,0-5.2,2.6-5.2,5.9C121.2,42.7,122.6,45.3,126.4,45.3z M126.4,35.1c2.4,0,3.2,1.8,3.2,4.3c0,2.5-0.8,4.3-3.2,4.3
			c-2.4,0-3.2-1.8-3.2-4.3C123.2,36.9,124,35.1,126.4,35.1z M144,45.1v-7.9c0-2.4-1.3-3.7-3.9-3.7c-1.5,0-2.6,0.5-3.6,1.3l-0.1-1
			h-1.8v11.3h1.9v-8.8c1-0.7,1.9-1.1,3.1-1.1c1.5,0,2.4,0.7,2.4,2.3v7.6H144z M146.5,39.3c0,3.8,1.7,6,5.1,6c1.7,0,3-0.4,3.9-0.8
			v-1.6c-0.8,0.3-2,0.7-3.7,0.7c-2.2,0-3.2-1.4-3.3-3.9h7.5c0-0.2,0-0.5,0-0.8c0-3.1-1.6-5.4-4.8-5.4
			C148.1,33.5,146.5,36,146.5,39.3z M154.1,38.2h-5.6c0.1-1.9,1.1-3.2,2.8-3.2C153,35.1,154,36.3,154.1,38.2z M168.4,45.1v-7.9
			c0-2.4-1.3-3.7-3.9-3.7c-1.5,0-2.6,0.5-3.6,1.3l-0.1-1H159v11.3h1.9v-8.8c1-0.7,1.9-1.1,3.1-1.1c1.5,0,2.4,0.7,2.4,2.3v7.6H168.4z
			 M178.3,29.1h-1.9v2.3h1.9V29.1z M178.3,33.8h-1.9v11.3h1.9V33.8z M187.4,33.5c-1.5,0-2.6,0.5-3.6,1.3l-0.1-1H182v11.3h1.9v-8.8
			c1-0.7,1.9-1.1,3.1-1.1c1.5,0,2.4,0.7,2.4,2.3v7.6h1.9v-7.9C191.4,34.8,190,33.5,187.4,33.5z M203.1,45.3c1.4,0,2.5-0.5,3.4-1.2
			v0.7c0,2.6-0.9,3.7-3.7,3.8c-1.5,0-2.7-0.3-3.5-0.7v1.7c0.9,0.4,2.2,0.7,3.7,0.7c3.4,0,5.4-1.9,5.4-5.3V33.8h-1.7l-0.1,0.8
			c-0.8-0.7-1.9-1-3.2-1c-2.9,0-4.9,2-4.9,6C198.6,43.4,200.2,45.3,203.1,45.3z M203.6,35.2c1.1,0,2,0.2,2.9,0.8v6.8
			c-0.9,0.6-1.8,0.9-3,0.9c-2,0-3-1.5-3-4.3C200.5,36.7,201.6,35.2,203.6,35.2z M219.5,28.4h-1.9l-7.2,16.7h1.9L219.5,28.4z
			 M223.6,39.9l5,5.1h2.5l-4.9-5c-0.5-0.4-0.7-0.6-1-0.8c0.3-0.2,0.6-0.4,1.1-0.8l4.6-4.7h-2.3l-4.9,5V28.4h-1.9v16.7h1.9V39.9z
			 M235.3,36.2c1-0.7,1.9-1.1,3.1-1.1c1.5,0,2.4,0.7,2.4,2.3v7.6h1.9v-8.8c1-0.7,1.9-1.1,3.1-1.1c1.5,0,2.4,0.7,2.4,2.3v7.6h1.9
			v-7.9c0-2.4-1.3-3.7-3.9-3.7c-1.7,0-3,0.7-4,1.7c-0.6-1.1-1.8-1.7-3.5-1.7c-1.5,0-2.6,0.5-3.6,1.3l-0.1-1h-1.8v11.3h1.9V36.2z
			 M267.8,33.8h-2.3l-4.9,5V28.4h-1.9v16.7h1.9v-5.1l5,5.1h2.5l-4.9-5c-0.5-0.4-0.7-0.6-1-0.8c0.3-0.2,0.6-0.4,1.1-0.8L267.8,33.8z
			 M274.8,45.3c3.7,0,5.2-2.6,5.2-5.9c0-3.3-1.4-5.9-5.2-5.9c-3.7,0-5.2,2.6-5.2,5.9C269.6,42.7,271,45.3,274.8,45.3z M274.8,35.1
			c2.4,0,3.2,1.8,3.2,4.3c0,2.5-0.8,4.3-3.2,4.3c-2.4,0-3.2-1.8-3.2-4.3C271.6,36.9,272.4,35.1,274.8,35.1z M290.5,37.5v7.6h1.9
			v-8.8c1-0.7,1.9-1.1,3.1-1.1c1.5,0,2.4,0.7,2.4,2.3v7.6h1.9v-7.9c0-2.4-1.3-3.7-3.9-3.7c-1.7,0-3,0.7-4,1.7
			c-0.6-1.1-1.8-1.7-3.5-1.7c-1.5,0-2.6,0.5-3.6,1.3l-0.1-1H283v11.3h1.9v-8.8c1-0.7,1.9-1.1,3.1-1.1
			C289.6,35.2,290.5,35.8,290.5,37.5z M303.7,28.4v16.7h1.7l0.1-0.7c0.8,0.6,1.9,1,3.2,1c2.9,0,4.9-2.1,4.9-6.1
			c0-3.9-1.7-5.8-4.6-5.8c-1.4,0-2.5,0.5-3.4,1.2v-6.3H303.7z M308.6,35.2c2,0,3,1.5,3,4.3c0,2.8-1.1,4.3-3.1,4.3
			c-1.1,0-2-0.2-2.9-0.7v-6.9C306.5,35.4,307.5,35.2,308.6,35.2z M318.3,29.1h-1.9v2.3h1.9V29.1z M316.4,45.1h1.9V33.8h-1.9V45.1z
			 M331.4,45.1v-7.9c0-2.4-1.3-3.7-3.9-3.7c-1.5,0-2.6,0.5-3.6,1.3l-0.1-1H322v11.3h1.9v-8.8c1-0.7,1.9-1.1,3.1-1.1
			c1.5,0,2.4,0.7,2.4,2.3v7.6H331.4z M336.6,29.1h-1.9v2.3h1.9V29.1z M336.6,33.8h-1.9v11.3h1.9V33.8z M344.7,45.3
			c1.7,0,3-0.4,3.9-0.8v-1.6c-0.8,0.3-2,0.7-3.7,0.7c-2.2,0-3.2-1.4-3.3-3.9h7.5c0-0.2,0-0.5,0-0.8c0-3.1-1.6-5.4-4.8-5.4
			c-3.2,0-4.8,2.5-4.8,5.8C339.6,43.1,341.3,45.3,344.7,45.3z M344.4,35.1c1.7,0,2.7,1.3,2.8,3.2h-5.6
			C341.7,36.3,342.7,35.1,344.4,35.1z M353.9,35.4l-0.1-1.7H352v11.3h1.9v-7.5c0.4-1.1,1.3-2.2,2.8-2.2c0.6,0,1.3,0.1,1.7,0.2v-1.8
			c-0.3-0.1-0.8-0.2-1.3-0.2C355.6,33.5,354.5,34.4,353.9,35.4z M364.7,45.3c0.9,0,1.9-0.2,2.5-0.4v-1.6c-0.5,0.2-1.3,0.4-2.1,0.4
			c-1.2,0-1.8-0.3-1.8-1.8v-6.4h4.1v-1.6h-4.1v-3.5h-1.5c-0.4,0-0.4,0.1-0.4,0.4v3h-1.9v1.6h1.9v6.6
			C361.3,44.4,362.5,45.3,364.7,45.3z M373.5,43.5v1.5H384v-1.7h-7.7l2.7-2.7c2.3-2.3,4.5-4.4,4.5-7.2c0-2.8-1.5-4.6-5.3-4.6
			c-1.8,0-3.1,0.3-4.1,0.9v1.8c1.1-0.6,2.4-0.9,4.1-0.9c2.2,0,3.2,1.1,3.2,2.9c0,1.8-1.4,3.5-3.9,5.9L373.5,43.5z M393,45.3
			c3.7,0,5.4-2.5,5.4-5.2c0-3-1.8-5.2-5.3-5.2c-1.5,0-2.8,0.6-3.8,1.4c0.3-3.8,1.8-5.8,5-5.8c1.4,0,2.3,0.2,3.2,0.6v-1.8
			c-0.8-0.3-1.8-0.5-3.3-0.5c-4.8,0-7.1,3.2-7.1,9C387.2,42.7,389.3,45.3,393,45.3z M392.9,36.6c2.3,0,3.4,1.4,3.4,3.5
			c0,2-1.1,3.5-3.3,3.5c-2.2,0-3.7-1.6-3.7-5.7C390.4,37.1,391.6,36.6,392.9,36.6z M401.3,33c0,1.6,0.7,3,2.2,3.7
			c-2,0.7-2.8,2.3-2.8,4.1c0,2.6,1.7,4.5,5.7,4.5c3.9,0,5.6-1.9,5.6-4.5c0-1.9-0.8-3.4-2.8-4.1c1.5-0.7,2.2-2,2.2-3.7
			c0-2.8-1.8-4.2-5.1-4.2C403,28.9,401.3,30.3,401.3,33z M409.9,40.7c0,1.7-1.1,2.9-3.5,2.9c-2.4,0-3.5-1.2-3.5-2.9
			c0-1.6,1.1-3.1,3.5-3.1C408.8,37.6,409.9,39.1,409.9,40.7z M409.3,33.1c0,1.6-1,2.8-3,2.8c-2,0-3-1.2-3-2.8c0-1.6,1.1-2.6,3-2.6
			C408.2,30.5,409.3,31.5,409.3,33.1z M414.2,39.4h5.6v-2h-5.6V39.4z M432.7,43.4h-7.7l2.7-2.7c2.3-2.3,4.5-4.4,4.5-7.2
			c0-2.8-1.5-4.6-5.3-4.6c-1.8,0-3.1,0.3-4.1,0.9v1.8c1.1-0.6,2.4-0.9,4.1-0.9c2.2,0,3.2,1.1,3.2,2.9c0,1.8-1.4,3.5-3.9,5.9l-4,4
			v1.5h10.4V43.4z M443,30.6c1.4,0,2.3,0.2,3.2,0.6v-1.8c-0.8-0.3-1.8-0.5-3.3-0.5c-4.8,0-7.1,3.2-7.1,9c0,4.9,2.1,7.5,5.8,7.5
			c3.7,0,5.4-2.5,5.4-5.2c0-3-1.8-5.2-5.3-5.2c-1.5,0-2.8,0.6-3.8,1.4C438.3,32.6,439.8,30.6,443,30.6z M441.6,36.6
			c2.3,0,3.4,1.4,3.4,3.5c0,2-1.1,3.5-3.3,3.5c-2.2,0-3.7-1.6-3.7-5.7C439,37.1,440.3,36.6,441.6,36.6z M450.1,29.7v1.8
			c0.8-0.5,2.3-0.9,3.9-0.9c1.8,0,3,0.9,3,2.5c0,1.8-1.1,2.8-3.3,2.8h-1.4v1.7h1.4c2.6,0,3.9,1.2,3.9,3.1c0,1.7-1.2,2.9-3.5,2.9
			c-1.7,0-3.3-0.4-4.4-0.9v1.7c1,0.6,2.5,0.9,4.4,0.9c3.8,0,5.6-2,5.6-4.6c0-1.8-0.9-3.3-2.8-4.1c1.5-0.7,2.2-2.1,2.2-3.6
			c0-2.8-1.7-4.2-5-4.2C452.5,28.9,451,29.3,450.1,29.7z M466.4,42.7H464v2.4h2.4V42.7z M473.5,45.1h2l1.4-4.1h6.6l1.4,4.1h2.2
			l-5.7-15.9h-2.2L473.5,45.1z M480.2,30.8c0.1,0.7,0.3,1.5,0.6,2.1l2.1,6.4h-5.4l2.2-6.4C479.8,32.2,480,31.5,480.2,30.8z
			 M496.2,37.5v7.6h1.9v-7.9c0-2.4-1.3-3.7-3.9-3.7c-1.5,0-2.6,0.5-3.6,1.3l-0.1-1h-1.8v11.3h1.9v-8.8c1-0.7,1.9-1.1,3.1-1.1
			C495.3,35.2,496.2,35.8,496.2,37.5z M500.6,39.5c0,3.9,1.7,5.8,4.6,5.8c1.4,0,2.5-0.5,3.4-1.2v0.7c0,2.6-0.9,3.7-3.7,3.8
			c-1.5,0-2.7-0.3-3.5-0.7v1.7c0.9,0.4,2.2,0.7,3.7,0.7c3.4,0,5.4-1.9,5.4-5.3V33.8h-1.7l-0.1,0.8c-0.8-0.7-1.9-1-3.2-1
			C502.6,33.5,500.6,35.5,500.6,39.5z M508.6,36v6.8c-0.9,0.6-1.8,0.9-3,0.9c-2,0-3-1.5-3-4.3c0-2.8,1.1-4.2,3.1-4.2
			C506.8,35.2,507.8,35.4,508.6,36z M514,36c0.8-0.4,2.1-0.8,3.6-0.8c1.9,0,2.6,0.7,2.6,2.6v0.8h-1.1c-3.8,0-5.9,1.1-5.9,3.6
			c0,2,1.5,3.2,3.7,3.2c1.4,0,2.5-0.5,3.4-1.2l0.1,0.9h1.8v-7.6c0-2.9-1.8-4-4.4-4c-1.5,0-2.9,0.4-3.8,0.9V36z M520.2,42.8
			c-0.9,0.6-1.8,0.9-2.9,0.9c-1.4,0-2.1-0.6-2.1-1.6c0-1.4,1.2-2.1,4.2-2.1h0.8V42.8z M527.7,28.4h-1.9v16.7h1.7l0.1-0.7
			c0.8,0.6,1.9,1,3.2,1c2.9,0,4.9-2.1,4.9-6.1c0-3.9-1.7-5.8-4.6-5.8c-1.4,0-2.5,0.5-3.4,1.2V28.4z M530.7,35.2c2,0,3,1.5,3,4.3
			c0,2.8-1.1,4.3-3.1,4.3c-1.1,0-2-0.2-2.9-0.7v-6.9C528.6,35.4,529.5,35.2,530.7,35.2z M537.7,39.3c0,3.8,1.7,6,5.1,6
			c1.7,0,3-0.4,3.9-0.8v-1.6c-0.8,0.3-2,0.7-3.7,0.7c-2.2,0-3.2-1.4-3.3-3.9h7.5c0-0.2,0-0.5,0-0.8c0-3.1-1.6-5.4-4.8-5.4
			C539.2,33.5,537.7,36,537.7,39.3z M545.2,38.2h-5.6c0.1-1.9,1.1-3.2,2.8-3.2C544.1,35.1,545.1,36.3,545.2,38.2z M557.5,45.1h1.9
			v-7.9c0-2.4-1.3-3.7-3.9-3.7c-1.5,0-2.6,0.5-3.6,1.3l-0.1-1h-1.8v11.3h1.9v-8.8c1-0.7,1.9-1.1,3.1-1.1c1.5,0,2.4,0.7,2.4,2.3V45.1
			z M575.3,43.4h-6.4l6.2-8.3v-1.4h-8.4v1.6h6l-6.1,8.3v1.4h8.8V43.4z M581.8,45.3c1.4,0,2.5-0.5,3.4-1.2l0.1,0.9h1.8V33.8h-1.9v9
			c-0.9,0.6-1.8,0.9-2.9,0.9c-1.5,0-2.4-0.7-2.4-2.3v-7.6h-1.9v7.9C577.9,44.1,579.3,45.3,581.8,45.3z M13.5,64l6.8,7.5h2.6l-6.4-7
			c-0.6-0.6-1-0.9-1.3-1.1c0.4-0.2,0.8-0.5,1.4-1.2l6.1-6.6h-2.5l-6.7,7.3v-7.3h-2v15.9h2V64z M26.8,61.8l-0.1-1.7h-1.8v11.3h1.9
			v-7.5c0.4-1.1,1.3-2.2,2.8-2.2c0.6,0,1.3,0.1,1.7,0.2v-1.8C31,60,30.5,59.9,30,59.9C28.5,59.9,27.4,60.8,26.8,61.8z M38.6,64.9
			c-3.8,0-5.9,1.1-5.9,3.6c0,2,1.5,3.2,3.7,3.2c1.4,0,2.5-0.5,3.4-1.2l0.1,0.9h1.8v-7.6c0-2.9-1.8-4-4.4-4c-1.5,0-2.9,0.4-3.8,0.9
			v1.6c0.8-0.4,2.1-0.8,3.6-0.8c1.9,0,2.6,0.7,2.6,2.6v0.8H38.6z M39.8,69.2c-0.9,0.6-1.8,0.9-2.9,0.9c-1.4,0-2.1-0.6-2.1-1.6
			c0-1.4,1.2-2.1,4.2-2.1h0.8V69.2z M50.5,56.2c0.8,0,1.3,0.1,2,0.3v-1.6c-0.5-0.2-1.3-0.4-2.4-0.4c-2.4,0-3.9,1.4-3.9,4.1v1.5h-2.5
			v1.6h2.5v9.7h1.9v-9.7h3.6v-1.6h-3.6v-1.3C48.1,57,48.6,56.2,50.5,56.2z M56.5,68.2v-6.4h4.1v-1.6h-4.1v-3.5H55
			c-0.4,0-0.4,0.1-0.4,0.4v3h-1.9v1.6h1.9v6.6c0,2.5,1.2,3.4,3.4,3.4c0.9,0,1.9-0.2,2.5-0.4v-1.6c-0.5,0.2-1.3,0.4-2.1,0.4
			C57.1,70,56.5,69.7,56.5,68.2z M70,68.3c0-2-1.3-2.9-3.7-3.4c-1.6-0.4-2.4-0.7-2.4-1.8c0-1.1,0.7-1.6,2.3-1.6
			c1.3,0,2.4,0.4,3.2,0.8v-1.6c-0.7-0.5-1.9-0.8-3.2-0.8c-3.1,0-4.2,1.3-4.2,3.3c0,2,1.3,2.8,3.7,3.3c1.6,0.4,2.5,0.8,2.5,1.9
			c0,1.1-1,1.7-2.8,1.7c-1.2,0-2.7-0.4-3.5-0.7V71c0.7,0.4,2.1,0.7,3.5,0.7C68.4,71.7,70,70.3,70,68.3z M77.3,71.7
			c0.9,0,1.9-0.2,2.5-0.4v-1.6c-0.5,0.2-1.3,0.4-2.1,0.4c-1.2,0-1.8-0.3-1.8-1.8v-6.4h4.1v-1.6h-4.1v-3.5h-1.5
			c-0.4,0-0.4,0.1-0.4,0.4v3h-1.9v1.6h1.9v6.6C73.9,70.8,75,71.7,77.3,71.7z M86.4,71.7c3.7,0,5.2-2.6,5.2-5.9
			c0-3.3-1.4-5.9-5.2-5.9c-3.7,0-5.2,2.6-5.2,5.9C81.2,69.1,82.6,71.7,86.4,71.7z M86.4,61.5c2.4,0,3.2,1.8,3.2,4.3
			c0,2.5-0.8,4.3-3.2,4.3c-2.4,0-3.2-1.8-3.2-4.3C83.2,63.3,84,61.5,86.4,61.5z M95.5,71.5h1.9v-9.7h6.2v9.7h1.9v-9.7h3.6v-1.6h-3.6
			v-1.3c0-1.9,0.5-2.7,2.4-2.7c0.8,0,1.3,0.1,2,0.3v-1.6c-0.5-0.2-1.3-0.4-2.4-0.4c-2.4,0-3.9,1.4-3.9,4.1v1.5h-6.2v-1.3
			c0-1.9,0.5-2.7,2.4-2.7c0.8,0,1.3,0.1,2,0.3v-1.6c-0.5-0.2-1.3-0.4-2.4-0.4c-2.4,0-3.9,1.4-3.9,4.1v1.5H93v1.6h2.5V71.5z
			 M119.7,60.2h-2l-2.6,8c-0.2,0.5-0.4,1.1-0.5,1.7c-0.1-0.6-0.3-1.2-0.5-1.7l-2.6-7.9h-2.1l4.1,11.3h2L119.7,60.2z M126.3,71.7
			c1.7,0,3-0.4,3.9-0.8v-1.6c-0.8,0.3-2,0.7-3.7,0.7c-2.2,0-3.2-1.4-3.3-3.9h7.5c0-0.2,0-0.5,0-0.8c0-3.1-1.6-5.4-4.8-5.4
			c-3.2,0-4.8,2.5-4.8,5.8C121.2,69.5,122.9,71.7,126.3,71.7z M126,61.5c1.7,0,2.7,1.3,2.8,3.2h-5.6C123.3,62.7,124.3,61.5,126,61.5
			z M135.6,63.9c0.4-1.1,1.3-2.2,2.8-2.2c0.6,0,1.3,0.1,1.7,0.2v-1.8c-0.3-0.1-0.8-0.2-1.3-0.2c-1.5,0-2.5,0.9-3.1,1.9l-0.1-1.7
			h-1.8v11.3h1.9V63.9z M147.7,59.9c-1.4,0-2.5,0.5-3.4,1.2v-6.3h-1.9v16.7h1.7l0.1-0.7c0.8,0.6,1.9,1,3.2,1c2.9,0,4.9-2.1,4.9-6.1
			C152.3,61.8,150.6,59.9,147.7,59.9z M147.1,70.1c-1.1,0-2-0.2-2.9-0.7v-6.9c0.9-0.6,1.8-0.9,3-0.9c2,0,3,1.5,3,4.3
			C150.3,68.6,149.2,70.1,147.1,70.1z M161.3,60.1c-0.3-0.1-0.8-0.2-1.3-0.2c-1.5,0-2.5,0.9-3.1,1.9l-0.1-1.7H155v11.3h1.9v-7.5
			c0.4-1.1,1.3-2.2,2.8-2.2c0.6,0,1.3,0.1,1.7,0.2V60.1z M167.4,59.9c-1.5,0-2.9,0.4-3.8,0.9v1.6c0.8-0.4,2.1-0.8,3.6-0.8
			c1.9,0,2.6,0.7,2.6,2.6v0.8h-1.1c-3.8,0-5.9,1.1-5.9,3.6c0,2,1.5,3.2,3.7,3.2c1.4,0,2.5-0.5,3.4-1.2l0.1,0.9h1.8v-7.6
			C171.7,60.9,170,59.9,167.4,59.9z M169.8,69.2c-0.9,0.6-1.8,0.9-2.9,0.9c-1.4,0-2.1-0.6-2.1-1.6c0-1.4,1.2-2.1,4.2-2.1h0.8V69.2z
			 M182.4,69.2c-0.9,0.6-1.8,0.9-2.9,0.9c-1.5,0-2.4-0.7-2.4-2.3v-7.6h-1.9v7.9c0,2.4,1.3,3.7,3.9,3.7c1.4,0,2.5-0.5,3.4-1.2
			l0.1,0.9h1.8V60.2h-1.9V69.2z M192.3,61.6c1.2,0,2.3,0.3,2.9,0.6v-1.7c-0.7-0.4-1.8-0.6-3-0.6c-3.3,0-5,2.4-5,5.8
			c0,3.9,1.7,6,4.9,6c1.3,0,2.6-0.4,3.3-0.8v-1.6c-0.7,0.3-1.6,0.7-3.2,0.7c-1.9,0-3-1.4-3-4.3C189.2,63.1,190.2,61.6,192.3,61.6z
			 M199.6,62.6c1-0.7,1.9-1,3.1-1c1.5,0,2.4,0.7,2.4,2.3v7.6h1.9v-7.9c0-2.4-1.3-3.7-3.9-3.7c-1.5,0-2.6,0.5-3.5,1.3v-6.4h-1.9v16.7
			h1.9V62.6z M224,60.2H222v9c-0.9,0.6-1.8,0.9-2.9,0.9c-1.5,0-2.4-0.7-2.4-2.3v-7.6h-1.9v7.9c0,2.4,1.3,3.7,3.9,3.7
			c1.4,0,2.5-0.5,3.4-1.2l0.1,0.9h1.8V60.2z M235.1,71.5h1.9v-7.9c0-2.4-1.3-3.7-3.9-3.7c-1.5,0-2.6,0.5-3.6,1.3l-0.1-1h-1.8v11.3
			h1.9v-8.8c1-0.7,1.9-1.1,3.1-1.1c1.5,0,2.4,0.7,2.4,2.3V71.5z M247.8,71.5h1.7V54.8h-1.9v6.1c-0.8-0.6-1.8-1-3.1-1
			c-2.9,0-4.9,2-4.9,6c0,3.9,1.7,5.8,4.6,5.8c1.4,0,2.6-0.5,3.5-1.2L247.8,71.5z M247.6,69.2c-0.9,0.6-1.8,0.9-3,0.9
			c-2,0-3-1.5-3-4.3c0-2.8,1.1-4.2,3.1-4.2c1.1,0,2,0.2,2.9,0.8V69.2z M263.4,71.7c2,0,3.3-0.3,4.4-0.8v-1.7
			c-1.1,0.5-2.4,0.7-4.1,0.7c-2.8,0-4.7-2-4.7-6.5c0-4,1.4-6.4,4.5-6.4c1.6,0,3.1,0.4,4,0.8v-1.8c-0.9-0.6-2.5-0.9-4.1-0.9
			c-4.4,0-6.5,3.3-6.5,8.2C257,68.9,259.4,71.7,263.4,71.7z M276.2,55.3c-4.8,0-6.4,3.5-6.4,8.3c0,4.7,1.6,8.2,6.4,8.2
			c4.8,0,6.4-3.5,6.4-8.3C282.6,58.7,280.9,55.3,276.2,55.3z M276.2,70c-3.2,0-4.3-2.7-4.3-6.5c0-3.8,1.1-6.5,4.3-6.5
			c3.2,0,4.3,2.7,4.3,6.5C280.4,67.3,279.3,70,276.2,70z M287.1,71.8l-2,1.7v1.2h6.5v-1.3h-4.4l0.9-0.6c1.6-1.2,3.1-2.5,3.1-4.2
			c0-1.5-0.9-2.6-3.3-2.6c-1.2,0-2.1,0.3-2.6,0.6v1.3c0.6-0.3,1.5-0.6,2.5-0.6c1.3,0,1.8,0.6,1.8,1.4
			C289.6,69.5,288.8,70.4,287.1,71.8z M293.9,65.8h5.6v-2h-5.6V65.8z M312.1,69.8h-7.5v-5.6h6.4v-1.7h-6.4v-5.3h7.5v-1.7h-9.6v15.9
			h9.6V69.8z M331.8,71.5v-7.9c0-2.4-1.3-3.7-3.9-3.7c-1.7,0-3,0.7-4,1.7c-0.6-1.1-1.8-1.7-3.5-1.7c-1.5,0-2.6,0.5-3.6,1.3l-0.1-1
			H315v11.3h1.9v-8.8c1-0.7,1.9-1.1,3.1-1.1c1.5,0,2.4,0.7,2.4,2.3v7.6h1.9v-8.8c1-0.7,1.9-1.1,3.1-1.1c1.5,0,2.4,0.7,2.4,2.3v7.6
			H331.8z M335.7,71.5h1.9V60.2h-1.9V71.5z M337.6,55.5h-1.9v2.3h1.9V55.5z M348.8,68.3c0-2-1.3-2.9-3.7-3.4
			c-1.6-0.4-2.4-0.7-2.4-1.8c0-1.1,0.7-1.6,2.3-1.6c1.3,0,2.4,0.4,3.2,0.8v-1.6c-0.7-0.5-1.9-0.8-3.2-0.8c-3.1,0-4.2,1.3-4.2,3.3
			c0,2,1.3,2.8,3.7,3.3c1.6,0.4,2.5,0.8,2.5,1.9c0,1.1-1,1.7-2.8,1.7c-1.2,0-2.7-0.4-3.5-0.7V71c0.7,0.4,2.1,0.7,3.5,0.7
			C347.2,71.7,348.8,70.3,348.8,68.3z M355.7,64.9c-1.6-0.4-2.4-0.7-2.4-1.8c0-1.1,0.7-1.6,2.3-1.6c1.3,0,2.4,0.4,3.2,0.8v-1.6
			c-0.7-0.5-1.9-0.8-3.2-0.8c-3.1,0-4.2,1.3-4.2,3.3c0,2,1.3,2.8,3.7,3.3c1.6,0.4,2.5,0.8,2.5,1.9c0,1.1-1,1.7-2.8,1.7
			c-1.2,0-2.7-0.4-3.5-0.7V71c0.7,0.4,2.1,0.7,3.5,0.7c3.1,0,4.7-1.4,4.7-3.4C359.4,66.3,358.1,65.4,355.7,64.9z M364.6,55.5h-1.9
			v2.3h1.9V55.5z M362.7,71.5h1.9V60.2h-1.9V71.5z M378,65.8c0-3.3-1.4-5.9-5.2-5.9c-3.7,0-5.2,2.6-5.2,5.9c0,3.3,1.4,5.9,5.2,5.9
			C376.5,71.7,378,69.1,378,65.8z M372.8,70.1c-2.4,0-3.2-1.8-3.2-4.3c0-2.5,0.8-4.3,3.2-4.3c2.4,0,3.2,1.8,3.2,4.3
			C376,68.3,375.2,70.1,372.8,70.1z M386.5,59.9c-1.5,0-2.6,0.5-3.6,1.3l-0.1-1H381v11.3h1.9v-8.8c1-0.7,1.9-1.1,3.1-1.1
			c1.5,0,2.4,0.7,2.4,2.3v7.6h1.9v-7.9C390.4,61.2,389.1,59.9,386.5,59.9z M402.5,65.3c0-3.1-1.6-5.4-4.8-5.4
			c-3.2,0-4.8,2.5-4.8,5.8c0,3.8,1.7,6,5.1,6c1.7,0,3-0.4,3.9-0.8v-1.6c-0.8,0.3-2,0.7-3.7,0.7c-2.2,0-3.2-1.4-3.3-3.9h7.5
			C402.4,66,402.5,65.6,402.5,65.3z M394.9,64.6c0.1-1.9,1.1-3.2,2.8-3.2c1.7,0,2.7,1.3,2.8,3.2H394.9z M414.8,71.5v-7.9
			c0-2.4-1.3-3.7-3.9-3.7c-1.5,0-2.6,0.5-3.6,1.3l-0.1-1h-1.8v11.3h1.9v-8.8c1-0.7,1.9-1.1,3.1-1.1c1.5,0,2.4,0.7,2.4,2.3v7.6H414.8
			z M428.1,59.9c-1.4,0-2.5,0.5-3.4,1.2v-6.3h-1.9v16.7h1.7l0.1-0.7c0.8,0.6,1.9,1,3.2,1c2.9,0,4.9-2.1,4.9-6.1
			C432.7,61.8,431,59.9,428.1,59.9z M427.6,70.1c-1.1,0-2-0.2-2.9-0.7v-6.9c0.9-0.6,1.8-0.9,3-0.9c2,0,3,1.5,3,4.3
			C430.7,68.6,429.6,70.1,427.6,70.1z M439.4,59.9c-3.2,0-4.8,2.5-4.8,5.8c0,3.8,1.7,6,5.1,6c1.7,0,3-0.4,3.9-0.8v-1.6
			c-0.8,0.3-2,0.7-3.7,0.7c-2.2,0-3.2-1.4-3.3-3.9h7.5c0-0.2,0-0.5,0-0.8C444.1,62.3,442.6,59.9,439.4,59.9z M436.6,64.6
			c0.1-1.9,1.1-3.2,2.8-3.2c1.7,0,2.7,1.3,2.8,3.2H436.6z M449,55.5h-1.9v2.3h1.9V55.5z M449,60.2h-1.9v11.3h1.9V60.2z M462.2,62.5
			c-2.3-0.7-3.4-1.2-3.4-2.8c0-1.6,1.1-2.7,3.3-2.7c1.7,0,3,0.3,4.1,0.9v-1.8c-1-0.6-2.3-0.9-4.1-0.9c-3.7,0-5.4,1.8-5.4,4.5
			c0,2.7,1.8,3.7,4.7,4.5c2.3,0.7,3.3,1.3,3.3,2.9c0,1.6-1.3,2.8-3.8,2.8c-1.7,0-3.4-0.4-4.5-0.9v1.7c1,0.6,2.6,0.9,4.5,0.9
			c3.9,0,5.8-2,5.8-4.6C466.9,64.3,465.2,63.3,462.2,62.5z M475.4,59.9c-1.4,0-2.6,0.5-3.5,1.2l-0.1-1h-1.8v16.3h1.9v-5.7
			c0.8,0.6,1.8,0.9,3.1,0.9c2.9,0,4.9-2.1,4.9-6.1C480,61.8,478.4,59.9,475.4,59.9z M474.9,70.1c-1.1,0-2-0.2-2.9-0.7v-6.9
			c0.9-0.6,1.8-0.9,3-0.9c2,0,3,1.5,3,4.3C478,68.6,477,70.1,474.9,70.1z M487.8,64.9c-3.8,0-5.9,1.1-5.9,3.6c0,2,1.5,3.2,3.7,3.2
			c1.4,0,2.5-0.5,3.4-1.2l0.1,0.9h1.8v-7.6c0-2.9-1.8-4-4.4-4c-1.5,0-2.9,0.4-3.8,0.9v1.6c0.8-0.4,2.1-0.8,3.6-0.8
			c1.9,0,2.6,0.7,2.6,2.6v0.8H487.8z M488.9,69.2c-0.9,0.6-1.8,0.9-2.9,0.9c-1.4,0-2.1-0.6-2.1-1.6c0-1.4,1.2-2.1,4.2-2.1h0.8V69.2z
			 M503.8,71.5v-7.9c0-2.4-1.3-3.7-3.9-3.7c-1.5,0-2.6,0.5-3.6,1.3l-0.1-1h-1.8v11.3h1.9v-8.8c1-0.7,1.9-1.1,3.1-1.1
			c1.5,0,2.4,0.7,2.4,2.3v7.6H503.8z M514.5,63.9v7.6h1.9v-7.9c0-2.4-1.3-3.7-3.9-3.7c-1.5,0-2.6,0.5-3.6,1.3l-0.1-1h-1.8v11.3h1.9
			v-8.8c1-0.7,1.9-1.1,3.1-1.1C513.7,61.6,514.5,62.2,514.5,63.9z M529.7,65.7c0-3.9-1.7-5.8-4.6-5.8c-1.4,0-2.5,0.5-3.4,1.2v-6.3
			h-1.9v16.7h1.7l0.1-0.7c0.8,0.6,1.9,1,3.2,1C527.7,71.7,529.7,69.7,529.7,65.7z M524.6,70.1c-1.1,0-2-0.2-2.9-0.7v-6.9
			c0.9-0.6,1.8-0.9,3-0.9c2,0,3,1.5,3,4.3C527.7,68.6,526.6,70.1,524.6,70.1z M537.1,61.8c0.6,0,1.3,0.1,1.7,0.2v-1.8
			c-0.3-0.1-0.8-0.2-1.3-0.2c-1.5,0-2.5,0.9-3.1,1.9l-0.1-1.7h-1.8v11.3h1.9v-7.5C534.7,62.8,535.7,61.8,537.1,61.8z M545.1,59.9
			c-3.2,0-4.8,2.5-4.8,5.8c0,3.8,1.7,6,5.1,6c1.7,0,3-0.4,3.9-0.8v-1.6c-0.8,0.3-2,0.7-3.7,0.7c-2.2,0-3.2-1.4-3.3-3.9h7.5
			c0-0.2,0-0.5,0-0.8C549.8,62.3,548.3,59.9,545.1,59.9z M542.3,64.6c0.1-1.9,1.1-3.2,2.8-3.2c1.7,0,2.7,1.3,2.8,3.2H542.3z
			 M552.8,57.8h1.9v-2.3h-1.9V57.8z M552.8,71.5h1.9V60.2h-1.9V71.5z M560.9,56.7h-1.5c-0.4,0-0.4,0.1-0.4,0.4v3h-1.9v1.6h1.9v6.6
			c0,2.5,1.2,3.4,3.4,3.4c0.9,0,1.9-0.2,2.5-0.4v-1.6c-0.5,0.2-1.3,0.4-2.1,0.4c-1.2,0-1.8-0.3-1.8-1.8v-6.4h4.1v-1.6h-4.1V56.7z
			 M571.1,59.9c-3.2,0-4.8,2.5-4.8,5.8c0,3.8,1.7,6,5.1,6c1.7,0,3-0.4,3.9-0.8v-1.6c-0.8,0.3-2,0.7-3.7,0.7c-2.2,0-3.2-1.4-3.3-3.9
			h7.5c0-0.2,0-0.5,0-0.8C575.8,62.3,574.3,59.9,571.1,59.9z M568.3,64.6c0.1-1.9,1.1-3.2,2.8-3.2c1.7,0,2.7,1.3,2.8,3.2H568.3z
			 M584.2,59.9c-1.5,0-2.6,0.5-3.6,1.3l-0.1-1h-1.8v11.3h1.9v-8.8c1-0.7,1.9-1.1,3.1-1.1c1.5,0,2.4,0.7,2.4,2.3v7.6h1.9v-7.9
			C588.2,61.2,586.8,59.9,584.2,59.9z M11.7,84.2h1.9v-2.3h-1.9V84.2z M13.6,86.6h-1.9v11.3h1.9V86.6z M25,97.9H27V90
			c0-2.4-1.3-3.7-3.9-3.7c-1.5,0-2.6,0.5-3.6,1.3l-0.1-1h-1.8v11.3h1.9V89c1-0.7,1.9-1.1,3.1-1.1c1.5,0,2.4,0.7,2.4,2.3V97.9z
			 M37.2,93.8h6.6l1.4,4.1h2.2l-5.7-15.9h-2.2l-5.7,15.9h2L37.2,93.8z M39.9,85.7c0.2-0.6,0.4-1.3,0.6-2.1c0.1,0.7,0.3,1.5,0.6,2.1
			l2.1,6.4h-5.4L39.9,85.7z M54.6,86.3c-1.4,0-2.5,0.5-3.4,1.2v-6.3h-1.9v16.7H51l0.1-0.7c0.8,0.6,1.9,1,3.2,1
			c2.9,0,4.9-2.1,4.9-6.1C59.2,88.2,57.6,86.3,54.6,86.3z M54.1,96.5c-1.1,0-2-0.2-2.9-0.7v-6.9c0.9-0.6,1.8-0.9,3-0.9
			c2,0,3,1.5,3,4.3C57.2,95,56.2,96.5,54.1,96.5z M71.5,97.9V90c0-2.4-1.3-3.7-3.9-3.7c-1.5,0-2.6,0.5-3.5,1.3v-6.4h-1.9v16.7h1.9
			V89c1-0.7,1.9-1,3.1-1c1.5,0,2.4,0.7,2.4,2.3v7.6H71.5z M75.7,84.4h2.1v-2.2h-2.1V84.4z M80,84.4h2.1v-2.2H80V84.4z M83.1,90.3
			c0-2.9-1.8-4-4.4-4c-1.5,0-2.9,0.4-3.8,0.9v1.6c0.8-0.4,2.1-0.8,3.6-0.8c1.9,0,2.6,0.7,2.6,2.6v0.8h-1.1c-3.8,0-5.9,1.1-5.9,3.6
			c0,2,1.5,3.2,3.7,3.2c1.4,0,2.5-0.5,3.4-1.2l0.1,0.9h1.8V90.3z M81.2,95.6c-0.9,0.6-1.8,0.9-2.9,0.9c-1.4,0-2.1-0.6-2.1-1.6
			c0-1.4,1.2-2.1,4.2-2.1h0.8V95.6z M94.4,90.3v7.6h1.9V90c0-2.4-1.3-3.7-3.9-3.7c-1.5,0-2.6,0.5-3.6,1.3l-0.1-1h-1.8v11.3h1.9V89
			c1-0.7,1.9-1.1,3.1-1.1C93.5,88,94.4,88.6,94.4,90.3z M103.4,101.4c-1.5,0-2.7-0.3-3.5-0.7v1.7c0.9,0.4,2.2,0.7,3.7,0.7
			c3.4,0,5.4-1.9,5.4-5.3V86.6h-1.7l-0.1,0.8c-0.8-0.7-1.9-1-3.2-1c-2.9,0-4.9,2-4.9,6c0,3.9,1.7,5.8,4.6,5.8c1.4,0,2.5-0.5,3.4-1.2
			v0.7C107.1,100.3,106.1,101.4,103.4,101.4z M107,95.6c-0.9,0.6-1.8,0.9-3,0.9c-2,0-3-1.5-3-4.3c0-2.8,1.1-4.2,3.1-4.2
			c1.1,0,2,0.2,2.9,0.8V95.6z M114.7,81.9h-1.9v2.3h1.9V81.9z M112.7,97.9h1.9V86.6h-1.9V97.9z M125.9,87.3c-0.8-0.7-1.9-1-3.2-1
			c-2.9,0-4.9,2-4.9,6c0,3.9,1.7,5.8,4.6,5.8c1.4,0,2.5-0.5,3.4-1.2v0.7c0,2.6-0.9,3.7-3.7,3.8c-1.5,0-2.7-0.3-3.5-0.7v1.7
			c0.9,0.4,2.2,0.7,3.7,0.7c3.4,0,5.4-1.9,5.4-5.3V86.6h-1.7L125.9,87.3z M125.8,95.6c-0.9,0.6-1.8,0.9-3,0.9c-2,0-3-1.5-3-4.3
			c0-2.8,1.1-4.2,3.1-4.2c1.1,0,2,0.2,2.9,0.8V95.6z M135,92.1c0.3-0.2,0.6-0.4,1.1-0.8l4.6-4.7h-2.3l-4.9,5V81.2h-1.9v16.7h1.9
			v-5.1l5,5.1h2.5l-4.9-5C135.6,92.4,135.3,92.2,135,92.1z M147.4,86.3c-3.2,0-4.8,2.5-4.8,5.8c0,3.8,1.7,6,5.1,6
			c1.7,0,3-0.4,3.9-0.8v-1.6c-0.8,0.3-2,0.7-3.7,0.7c-2.2,0-3.2-1.4-3.3-3.9h7.5c0-0.2,0-0.5,0-0.8
			C152.1,88.7,150.6,86.3,147.4,86.3z M144.6,91c0.1-1.9,1.1-3.2,2.8-3.2c1.7,0,2.7,1.3,2.8,3.2H144.6z M155.3,97.9h1.9V86.6h-1.9
			V97.9z M155.3,84.2h1.9v-2.3h-1.9V84.2z M163.7,83.1h-1.5c-0.4,0-0.4,0.1-0.4,0.4v3h-1.9v1.6h1.9v6.6c0,2.5,1.2,3.4,3.4,3.4
			c0.9,0,1.9-0.2,2.5-0.4v-1.6c-0.5,0.2-1.3,0.4-2.1,0.4c-1.2,0-1.8-0.3-1.8-1.8v-6.4h4.1v-1.6h-4.1V83.1z M178.8,94.5
			c-0.2,0.5-0.4,1.1-0.5,1.7c-0.1-0.6-0.3-1.2-0.5-1.7l-2.6-7.9h-2.1l4.1,11.3h2l4.1-11.3h-2L178.8,94.5z M190.3,86.3
			c-3.7,0-5.2,2.6-5.2,5.9c0,3.3,1.4,5.9,5.2,5.9c3.7,0,5.2-2.6,5.2-5.9C195.5,88.9,194.1,86.3,190.3,86.3z M190.3,96.5
			c-2.4,0-3.2-1.8-3.2-4.3c0-2.5,0.8-4.3,3.2-4.3c2.4,0,3.2,1.8,3.2,4.3C193.5,94.7,192.6,96.5,190.3,96.5z M211.6,86.3
			c-1.7,0-3,0.7-4,1.7c-0.6-1.1-1.8-1.7-3.5-1.7c-1.5,0-2.6,0.5-3.6,1.3l-0.1-1h-1.8v11.3h1.9V89c1-0.7,1.9-1.1,3.1-1.1
			c1.5,0,2.4,0.7,2.4,2.3v7.6h1.9V89c1-0.7,1.9-1.1,3.1-1.1c1.5,0,2.4,0.7,2.4,2.3v7.6h1.9V90C215.5,87.6,214.2,86.3,211.6,86.3z
			 M228.3,94.5c-0.2,0.5-0.4,1.1-0.5,1.7c-0.1-0.6-0.3-1.2-0.5-1.7l-2.6-7.9h-2.1l4.1,11.3h2l4.1-11.3h-2L228.3,94.5z M239.4,86.3
			c-3.2,0-4.8,2.5-4.8,5.8c0,3.8,1.7,6,5.1,6c1.7,0,3-0.4,3.9-0.8v-1.6c-0.8,0.3-2,0.7-3.7,0.7c-2.2,0-3.2-1.4-3.3-3.9h7.5
			c0-0.2,0-0.5,0-0.8C244.1,88.7,242.6,86.3,239.4,86.3z M236.6,91c0.1-1.9,1.1-3.2,2.8-3.2c1.7,0,2.7,1.3,2.8,3.2H236.6z
			 M249.2,88.2l-0.1-1.7h-1.8v11.3h1.9v-7.5c0.4-1.1,1.3-2.2,2.8-2.2c0.6,0,1.3,0.1,1.7,0.2v-1.8c-0.3-0.1-0.8-0.2-1.3-0.2
			C250.8,86.3,249.8,87.2,249.2,88.2z M266.6,94.4c-0.1,0.4-0.3,1-0.4,1.6c-0.1-0.6-0.3-1.1-0.4-1.6l-2.2-7.9h-1.8l-2.2,7.9
			c-0.1,0.4-0.3,1-0.4,1.6c-0.1-0.6-0.2-1.1-0.4-1.6l-2.3-7.9h-2l3.8,11.3h1.9l2.2-7.2c0.1-0.4,0.2-0.9,0.4-1.4
			c0.1,0.5,0.3,1.1,0.4,1.4l2.2,7.2h1.9l3.8-11.3h-2L266.6,94.4z M277.1,86.3c-3.2,0-4.8,2.5-4.8,5.8c0,3.8,1.7,6,5.1,6
			c1.7,0,3-0.4,3.9-0.8v-1.6c-0.8,0.3-2,0.7-3.7,0.7c-2.2,0-3.2-1.4-3.3-3.9h7.5c0-0.2,0-0.5,0-0.8
			C281.8,88.7,280.2,86.3,277.1,86.3z M274.3,91c0.1-1.9,1.1-3.2,2.8-3.2c1.7,0,2.7,1.3,2.8,3.2H274.3z M290.4,86.3
			c-1.5,0-2.6,0.5-3.6,1.3l-0.1-1H285v11.3h1.9V89c1-0.7,1.9-1.1,3.1-1.1c1.5,0,2.4,0.7,2.4,2.3v7.6h1.9V90
			C294.3,87.6,293,86.3,290.4,86.3z M305.1,87.3c-0.8-0.6-1.8-1-3.1-1c-2.9,0-4.9,2-4.9,6c0,3.9,1.7,5.8,4.6,5.8
			c1.4,0,2.6-0.5,3.5-1.2l0.2,1h1.7V81.2h-1.9V87.3z M305.1,95.6c-0.9,0.6-1.8,0.9-3,0.9c-2,0-3-1.5-3-4.3c0-2.8,1.1-4.2,3.1-4.2
			c1.1,0,2,0.2,2.9,0.8V95.6z M314.7,86.3c-3.2,0-4.8,2.5-4.8,5.8c0,3.8,1.7,6,5.1,6c1.7,0,3-0.4,3.9-0.8v-1.6
			c-0.8,0.3-2,0.7-3.7,0.7c-2.2,0-3.2-1.4-3.3-3.9h7.5c0-0.2,0-0.5,0-0.8C319.5,88.7,317.9,86.3,314.7,86.3z M311.9,91
			c0.1-1.9,1.1-3.2,2.8-3.2c1.7,0,2.7,1.3,2.8,3.2H311.9z M325.1,83.1h-1.5c-0.4,0-0.4,0.1-0.4,0.4v3h-1.9v1.6h1.9v6.6
			c0,2.5,1.2,3.4,3.4,3.4c0.9,0,1.9-0.2,2.5-0.4v-1.6c-0.5,0.2-1.3,0.4-2.1,0.4c-1.2,0-1.8-0.3-1.8-1.8v-6.4h4.1v-1.6h-4.1V83.1z
			 M335.5,86.3c-3.2,0-4.8,2.5-4.8,5.8c0,3.8,1.7,6,5.1,6c1.7,0,3-0.4,3.9-0.8v-1.6c-0.8,0.3-2,0.7-3.7,0.7c-2.2,0-3.2-1.4-3.3-3.9
			h7.5c0-0.2,0-0.5,0-0.8C340.3,88.7,338.7,86.3,335.5,86.3z M332.7,91c0.1-1.9,1.1-3.2,2.8-3.2c1.7,0,2.7,1.3,2.8,3.2H332.7z
			 M348.9,86.3c-1.5,0-2.6,0.5-3.6,1.3l-0.1-1h-1.8v11.3h1.9V89c1-0.7,1.9-1.1,3.1-1.1c1.5,0,2.4,0.7,2.4,2.3v7.6h1.9V90
			C352.8,87.6,351.4,86.3,348.9,86.3z M367.9,90.9c1.9-0.4,3.5-1.8,3.5-4.5c0-3.1-1.7-4.5-5.1-4.5h-4.9v15.9h2v-6.7h1.7
			c0.9,0,1.3,0.4,1.9,1.4l3.3,5.3h2.4l-3.6-5.7C368.7,91.6,368.3,91.2,367.9,90.9z M365.9,89.6h-2.5v-6.1h2.6c2.3,0,3.3,1,3.3,2.9
			C369.2,88.6,368,89.6,365.9,89.6z M379.1,86.3c-3.2,0-4.8,2.5-4.8,5.8c0,3.8,1.7,6,5.1,6c1.7,0,3-0.4,3.9-0.8v-1.6
			c-0.8,0.3-2,0.7-3.7,0.7c-2.2,0-3.2-1.4-3.3-3.9h7.5c0-0.2,0-0.5,0-0.8C383.8,88.7,382.3,86.3,379.1,86.3z M376.3,91
			c0.1-1.9,1.1-3.2,2.8-3.2c1.7,0,2.7,1.3,2.8,3.2H376.3z M387,97.9h1.9V86.6H387V97.9z M387,84.2h1.9v-2.3H387V84.2z M393.7,85v1.5
			h-2.5v1.6h2.5v9.7h1.9v-9.7h3.6v-1.6h-3.6v-1.3c0-1.9,0.5-2.7,2.4-2.7c0.8,0,1.3,0.1,2,0.3v-1.6c-0.5-0.2-1.3-0.4-2.4-0.4
			C395.2,80.9,393.7,82.3,393.7,85z M405.7,86.3c-3.2,0-4.8,2.5-4.8,5.8c0,3.8,1.7,6,5.1,6c1.7,0,3-0.4,3.9-0.8v-1.6
			c-0.8,0.3-2,0.7-3.7,0.7c-2.2,0-3.2-1.4-3.3-3.9h7.5c0-0.2,0-0.5,0-0.8C410.5,88.7,408.9,86.3,405.7,86.3z M402.9,91
			c0.1-1.9,1.1-3.2,2.8-3.2c1.7,0,2.7,1.3,2.8,3.2H402.9z M419.1,86.3c-1.5,0-2.6,0.5-3.6,1.3l-0.1-1h-1.8v11.3h1.9V89
			c1-0.7,1.9-1.1,3.1-1.1c1.5,0,2.4,0.7,2.4,2.3v7.6h1.9V90C423,87.6,421.7,86.3,419.1,86.3z M425.7,92.2h5.6v-2h-5.6V92.2z
			 M432.9,97.9h1.9l7.2-16.7h-1.9L432.9,97.9z M451,90.9c1.9-0.4,3.5-1.8,3.5-4.5c0-3.1-1.7-4.5-5.1-4.5h-4.9v15.9h2v-6.7h1.7
			c0.9,0,1.3,0.4,1.9,1.4l3.3,5.3h2.4l-3.6-5.7C451.8,91.6,451.4,91.2,451,90.9z M449,89.6h-2.5v-6.1h2.6c2.3,0,3.3,1,3.3,2.9
			C452.4,88.6,451.1,89.6,449,89.6z M465.2,82.2h-2.1v2.2h2.1V82.2z M461.9,86.3c-1.5,0-2.9,0.4-3.8,0.9v1.6
			c0.8-0.4,2.1-0.8,3.6-0.8c1.9,0,2.6,0.7,2.6,2.6v0.8h-1.1c-3.8,0-5.9,1.1-5.9,3.6c0,2,1.5,3.2,3.7,3.2c1.4,0,2.5-0.5,3.4-1.2
			l0.1,0.9h1.8v-7.6C466.3,87.3,464.5,86.3,461.9,86.3z M464.4,95.6c-0.9,0.6-1.8,0.9-2.9,0.9c-1.4,0-2.1-0.6-2.1-1.6
			c0-1.4,1.2-2.1,4.2-2.1h0.8V95.6z M458.9,82.2v2.2h2.1v-2.2H458.9z M477.3,87.3c-0.8-0.6-1.8-1-3.1-1c-2.9,0-4.9,2-4.9,6
			c0,3.9,1.7,5.8,4.6,5.8c1.4,0,2.6-0.5,3.5-1.2l0.2,1h1.7V81.2h-1.9V87.3z M477.3,95.6c-0.9,0.6-1.8,0.9-3,0.9c-2,0-3-1.5-3-4.3
			c0-2.8,1.1-4.2,3.1-4.2c1.1,0,2,0.2,2.9,0.8V95.6z M487,86.3c-3.2,0-4.8,2.5-4.8,5.8c0,3.8,1.7,6,5.1,6c1.7,0,3-0.4,3.9-0.8v-1.6
			c-0.8,0.3-2,0.7-3.7,0.7c-2.2,0-3.2-1.4-3.3-3.9h7.5c0-0.2,0-0.5,0-0.8C491.7,88.7,490.2,86.3,487,86.3z M484.2,91
			c0.1-1.9,1.1-3.2,2.8-3.2c1.7,0,2.7,1.3,2.8,3.2H484.2z M496.8,88.2l-0.1-1.7h-1.8v11.3h1.9v-7.5c0.4-1.1,1.3-2.2,2.8-2.2
			c0.6,0,1.3,0.1,1.7,0.2v-1.8c-0.3-0.1-0.8-0.2-1.3-0.2C498.4,86.3,497.4,87.2,496.8,88.2z M507.5,91.3c-1.6-0.4-2.4-0.7-2.4-1.8
			c0-1.1,0.7-1.6,2.3-1.6c1.3,0,2.4,0.4,3.2,0.8v-1.6c-0.7-0.5-1.9-0.8-3.2-0.8c-3.1,0-4.2,1.3-4.2,3.3c0,2,1.3,2.8,3.7,3.3
			c1.6,0.4,2.5,0.8,2.5,1.9c0,1.1-1,1.7-2.8,1.7c-1.2,0-2.7-0.4-3.5-0.7v1.6c0.7,0.4,2.1,0.7,3.5,0.7c3.1,0,4.7-1.4,4.7-3.4
			C511.2,92.7,509.8,91.8,507.5,91.3z M518.4,86.3c-1.5,0-2.9,0.4-3.8,0.9v1.6c0.8-0.4,2.1-0.8,3.6-0.8c1.9,0,2.6,0.7,2.6,2.6v0.8
			h-1.1c-3.8,0-5.9,1.1-5.9,3.6c0,2,1.5,3.2,3.7,3.2c1.4,0,2.5-0.5,3.4-1.2l0.1,0.9h1.8v-7.6C522.7,87.3,521,86.3,518.4,86.3z
			 M520.8,95.6c-0.9,0.6-1.8,0.9-2.9,0.9c-1.4,0-2.1-0.6-2.1-1.6c0-1.4,1.2-2.1,4.2-2.1h0.8V95.6z M529,83.1h-1.5
			c-0.4,0-0.4,0.1-0.4,0.4v3h-1.9v1.6h1.9v6.6c0,2.5,1.2,3.4,3.4,3.4c0.9,0,1.9-0.2,2.5-0.4v-1.6c-0.5,0.2-1.3,0.4-2.1,0.4
			c-1.2,0-1.8-0.3-1.8-1.8v-6.4h4.1v-1.6H529V83.1z M543,87.9v-1.4h-8.4v1.6h6l-6.1,8.3v1.4h8.8v-1.6h-6.4L543,87.9z M546.6,97.9
			h2.4v-2.4h-2.4V97.9z M16.8,108.3h-4.9v15.9h4.7c5.3,0,7-3.4,7-8C23.6,111.7,22,108.3,16.8,108.3z M16.5,122.6h-2.6V110h2.6
			c3.7,0,5.1,2.3,5.1,6.4C21.5,120.4,20.1,122.6,16.5,122.6z M30.6,108.3L25,124.3h2l1.4-4.1H35l1.4,4.1h2.2l-5.7-15.9H30.6z
			 M29,118.4l2.2-6.4c0.2-0.6,0.4-1.3,0.6-2.1c0.1,0.7,0.3,1.5,0.6,2.1l2.1,6.4H29z M39,110h4.6v14.3h2V110h4.6v-1.7H39V110z
			 M51.5,118.6h5.6v-2h-5.6V118.6z M70,115.2h-7.5v-6.9h-2v15.9h2v-7.3H70v7.3h2v-15.9h-2V115.2z M76.2,124.3h1.9V113h-1.9V124.3z
			 M76.2,110.6h1.9v-2.3h-1.9V110.6z M87.5,112.7c-1.5,0-2.6,0.5-3.6,1.3l-0.1-1H82v11.3H84v-8.8c1-0.7,1.9-1.1,3.1-1.1
			c1.5,0,2.4,0.7,2.4,2.3v7.6h1.9v-7.9C91.4,114,90.1,112.7,87.5,112.7z M105.4,120.8c-0.1,0.4-0.3,1-0.4,1.6
			c-0.1-0.6-0.3-1.1-0.4-1.6l-2.2-7.9h-1.8l-2.2,7.9c-0.1,0.4-0.3,1-0.4,1.6c-0.1-0.6-0.2-1.1-0.4-1.6l-2.3-7.9h-2l3.8,11.3h1.9
			l2.2-7.2c0.1-0.4,0.2-0.9,0.4-1.4c0.1,0.5,0.3,1.1,0.4,1.4l2.2,7.2h1.9l3.8-11.3h-2L105.4,120.8z M115.8,112.7
			c-3.2,0-4.8,2.5-4.8,5.8c0,3.8,1.7,6,5.1,6c1.7,0,3-0.4,3.9-0.8v-1.6c-0.8,0.3-2,0.7-3.7,0.7c-2.2,0-3.2-1.4-3.3-3.9h7.5
			c0-0.2,0-0.5,0-0.8C120.6,115.1,119,112.7,115.8,112.7z M113,117.4c0.1-1.9,1.1-3.2,2.8-3.2c1.7,0,2.7,1.3,2.8,3.2H113z
			 M123.7,124.3h1.9V113h-1.9V124.3z M123.7,110.6h1.9v-2.3h-1.9V110.6z M133.3,117.7c-1.6-0.4-2.4-0.7-2.4-1.8
			c0-1.1,0.7-1.6,2.3-1.6c1.3,0,2.4,0.4,3.2,0.8v-1.6c-0.7-0.5-1.9-0.8-3.2-0.8c-3.1,0-4.2,1.3-4.2,3.3c0,2,1.3,2.8,3.7,3.3
			c1.6,0.4,2.5,0.8,2.5,1.9c0,1.1-1,1.7-2.8,1.7c-1.2,0-2.7-0.4-3.5-0.7v1.6c0.7,0.4,2.1,0.7,3.5,0.7c3.1,0,4.7-1.4,4.7-3.4
			C137,119.1,135.7,118.2,133.3,117.7z"/>
	</g>
</g>
<polygon class="st0" points="152,117.6 144.4,110 143.3,111.2 149.7,117.6 143.3,124 144.4,125.1 152,117.6 152,117.6 "/>
</svg>
