<?xml version="1.0" encoding="utf-8"?>
<!-- Generator: Adobe Illustrator 23.1.0, SVG Export Plug-In . SVG Version: 6.00 Build 0)  -->
<svg version="1.1" id="Layer_1" xmlns="http://www.w3.org/2000/svg" xmlns:xlink="http://www.w3.org/1999/xlink" x="0px" y="0px"
	 viewBox="0 0 144 51" style="enable-background:new 0 0 144 51;" xml:space="preserve">
<style type="text/css">
	.st0{fill:#FFFFFF;}
</style>
<path class="st0" d="M118.6,0.5c-6,0-11.3,2-15.5,5.5c-4.3-3.4-9.7-5.5-15.5-5.5c-5.9,0-11.2,2-15.5,5.5c-4.2-3.4-9.6-5.5-15.5-5.5
	c-5.9,0-11.3,2-15.5,5.5c-4.2-3.4-9.7-5.5-15.5-5.5c-13.6,0-24.6,11-24.6,24.7c0,13.6,11,24.6,24.6,24.6c5.9,0,11.3-2,15.5-5.5
	c4.2,3.4,9.7,5.5,15.5,5.5c6,0,11.3-2,15.5-5.5c4.3,3.4,9.7,5.5,15.5,5.5c5.9,0,11.2-2,15.5-5.5c4.2,3.4,9.6,5.5,15.5,5.5
	c13.6,0,24.6-11,24.6-24.6C143.2,11.5,132.2,0.5,118.6,0.5z M103.1,36.2c-2.2-3.1-3.6-6.9-3.6-11c0-4.2,1.3-8,3.6-11.1
	c2.2,3.1,3.6,6.9,3.6,11.1C106.6,29.3,105.3,33.1,103.1,36.2z M72,36.2c-2.2-3.1-3.6-6.9-3.6-11c0-4.2,1.3-8,3.6-11.1
	c2.2,3.1,3.6,6.9,3.6,11.1C75.6,29.3,74.2,33.1,72,36.2z M40.9,36.2c-2.2-3.1-3.5-6.9-3.5-11c0-4.2,1.3-8,3.5-11.1
	c2.2,3.1,3.6,6.9,3.6,11.1C44.5,29.3,43.2,33.1,40.9,36.2z M6.3,25.2c0-10.6,8.5-19.1,19-19.1c4.4,0,8.5,1.5,11.6,4
	c-3.2,4.2-5.2,9.4-5.2,15.1c0,5.7,1.9,10.9,5.2,15.1c-3.2,2.5-7.2,4-11.6,4C14.9,44.2,6.3,35.7,6.3,25.2z M44.9,40.3
	c3.2-4.2,5.2-9.4,5.2-15.1c0-5.8-1.9-11-5.2-15.1c3.2-2.5,7.2-4,11.6-4s8.4,1.5,11.6,4c-3.3,4.2-5.2,9.4-5.2,15.1
	c0,5.7,1.9,10.9,5.2,15.1c-3.2,2.5-7.3,4-11.6,4S48.1,42.8,44.9,40.3z M75.9,40.3c3.3-4.2,5.2-9.4,5.2-15.1c0-5.8-1.9-11-5.2-15.1
	c3.2-2.5,7.3-4,11.6-4s8.4,1.5,11.6,4c-3.3,4.2-5.2,9.4-5.2,15.1c0,5.7,1.9,10.9,5.2,15.1c-3.2,2.5-7.3,4-11.6,4
	S79.1,42.8,75.9,40.3z M118.6,44.2c-4.4,0-8.4-1.5-11.6-4c3.3-4.2,5.2-9.4,5.2-15.1c0-5.8-1.9-11-5.2-15.1c3.2-2.5,7.3-4,11.6-4
	c10.5,0,19,8.5,19,19.1C137.7,35.7,129.1,44.2,118.6,44.2z"/>
</svg>
