<svg id="Layer_1" data-name="Layer 1" xmlns="http://www.w3.org/2000/svg" viewBox="0 0 332.94 38.21"><title>02-name</title><path d="M24.12,28.71H16.37V18.54H9.81V28.71H2.06V2.87H9.81v9.42h6.56V2.87h7.75Z"/><path d="M34.59,21.54a2.89,2.89,0,0,0,1.14,2.14,4.42,4.42,0,0,0,2.71.75,6.16,6.16,0,0,0,2.73-.57,8.57,8.57,0,0,0,1.92-1.2L46.87,26a12.93,12.93,0,0,1-9,3.2A12.9,12.9,0,0,1,32,28a8.43,8.43,0,0,1-3.62-3.33,9.53,9.53,0,0,1-1.22-4.81,9.75,9.75,0,0,1,1.17-4.78,8.26,8.26,0,0,1,3.5-3.34,11.94,11.94,0,0,1,5.63-1.23A10.33,10.33,0,0,1,44.83,13a9.16,9.16,0,0,1,2.65,7,12.29,12.29,0,0,1-.1,1.53Zm0-3.34h5.75a3.58,3.58,0,0,0-.83-2.14,2.52,2.52,0,0,0-1.93-.75,2.81,2.81,0,0,0-2,.77A3.48,3.48,0,0,0,34.59,18.2Z"/><path d="M51,24.65a10,10,0,0,1-1.09-4.71,10,10,0,0,1,1.14-4.81,8.25,8.25,0,0,1,3.38-3.37,11.07,11.07,0,0,1,5.44-1.24,11.13,11.13,0,0,1,4.25.71,16.63,16.63,0,0,1,3.4,2l-4.05,4.28a4,4,0,0,0-3-1.36,3.08,3.08,0,0,0-2.45,1,4,4,0,0,0-.89,2.74,4,4,0,0,0,.92,2.8,3.2,3.2,0,0,0,2.48,1,3.72,3.72,0,0,0,3.13-1.6L68.18,26a12.15,12.15,0,0,1-3.57,2.39,11.72,11.72,0,0,1-4.75.87A11.2,11.2,0,0,1,54.35,28,8,8,0,0,1,51,24.65Z"/><path d="M77.57,23.07v5.64H70.23V2.87h7.34V15.08L80.94,11h8.49L82.77,17.8l7.38,10.91H82.77l-4.21-6.63Z"/><path d="M90,26.4l4-3.5a6.44,6.44,0,0,0,3.5,1.46,2.26,2.26,0,0,0,1-.17.58.58,0,0,0,.31-.55.49.49,0,0,0-.21-.4,2,2,0,0,0-.74-.34l-2.14-.72A9.9,9.9,0,0,1,91.88,20a4.81,4.81,0,0,1-1.39-3.61,5.23,5.23,0,0,1,2-4.23,9,9,0,0,1,5.88-1.65,12.37,12.37,0,0,1,7.78,2.31l-3.57,3.91a7.23,7.23,0,0,0-1.66-1,4.38,4.38,0,0,0-1.77-.36c-.79,0-1.19.18-1.19.54a.69.69,0,0,0,.2.48,2,2,0,0,0,.68.37l2,.72A15.69,15.69,0,0,1,104.12,19a4.6,4.6,0,0,1,1.67,1.83,6.33,6.33,0,0,1,.51,2.71,4.83,4.83,0,0,1-.9,2.82,6.25,6.25,0,0,1-2.76,2.09,11.46,11.46,0,0,1-4.54.8,14,14,0,0,1-4.57-.72A9.41,9.41,0,0,1,90,26.4Z"/><path d="M128.57,14.82a11.58,11.58,0,0,1,1,5.05,11.23,11.23,0,0,1-1.06,5.1,7.34,7.34,0,0,1-6.73,4.25A6.18,6.18,0,0,1,116.16,26v9.72h-7.48V11h7l.54,3.09a6.84,6.84,0,0,1,2.33-2.63,6.14,6.14,0,0,1,3.45-1,7,7,0,0,1,3.84,1.09A7.48,7.48,0,0,1,128.57,14.82Zm-6.63,5.05a4.08,4.08,0,0,0-.8-2.63,2.61,2.61,0,0,0-2.16-1,2.68,2.68,0,0,0-2.18,1,4,4,0,0,0-.81,2.63,4.13,4.13,0,0,0,.81,2.65,2.66,2.66,0,0,0,2.18,1,2.62,2.62,0,0,0,2.14-1A4.08,4.08,0,0,0,121.94,19.87Z"/><path d="M133.16,24.63A10,10,0,0,1,132,19.87a10,10,0,0,1,1.12-4.76,8.09,8.09,0,0,1,3.47-3.35,14.21,14.21,0,0,1,11.61,0,8.24,8.24,0,0,1,3.46,3.35,9.85,9.85,0,0,1,1.14,4.76,9.85,9.85,0,0,1-1.14,4.76A8.24,8.24,0,0,1,148.24,28a14.21,14.21,0,0,1-11.61,0A8.09,8.09,0,0,1,133.16,24.63Zm12.24-4.76a4,4,0,0,0-.82-2.63,2.63,2.63,0,0,0-2.14-1,2.69,2.69,0,0,0-2.16,1,4,4,0,0,0-.83,2.63,4.08,4.08,0,0,0,.83,2.67,2.68,2.68,0,0,0,2.16,1,2.62,2.62,0,0,0,2.14-1A4.08,4.08,0,0,0,145.4,19.87Z"/><path d="M155.63,4.91a3.75,3.75,0,0,1,1.16-2.77A3.83,3.83,0,0,1,159.58,1a3.78,3.78,0,0,1,2.77,1.14,3.77,3.77,0,0,1,1.14,2.77,3.83,3.83,0,0,1-1.14,2.79,3.75,3.75,0,0,1-2.77,1.15,3.8,3.8,0,0,1-2.79-1.15A3.81,3.81,0,0,1,155.63,4.91ZM163.32,11V28.71h-7.48V11Z"/><path d="M167.55,25.84a13.54,13.54,0,0,1-.77-5.09V2.87h7.42v18a2.76,2.76,0,0,0,.62,2,2.84,2.84,0,0,0,2.06.63h.51L177.8,29a16.18,16.18,0,0,1-3.09.24,11.53,11.53,0,0,1-4.7-.78A4.79,4.79,0,0,1,167.55,25.84Z"/><path d="M186.47,21.54a2.89,2.89,0,0,0,1.14,2.14,4.41,4.41,0,0,0,2.7.75,6.21,6.21,0,0,0,2.74-.57,8.57,8.57,0,0,0,1.92-1.2L198.74,26a14.47,14.47,0,0,1-14.87,2,8.32,8.32,0,0,1-3.62-3.33A9.43,9.43,0,0,1,179,19.87a9.76,9.76,0,0,1,1.18-4.78,8.26,8.26,0,0,1,3.5-3.34,11.9,11.9,0,0,1,5.62-1.23c3.16,0,5.61.83,7.38,2.5a9.13,9.13,0,0,1,2.65,7,10.63,10.63,0,0,1-.1,1.53Zm0-3.34h5.75a3.58,3.58,0,0,0-.84-2.14,2.48,2.48,0,0,0-1.92-.75,2.81,2.81,0,0,0-2,.77A3.42,3.42,0,0,0,186.47,18.2Z"/><path d="M215.91,17.32a14.73,14.73,0,0,0-2.58-.31,3.48,3.48,0,0,0-2.69,1,4.44,4.44,0,0,0-.95,3.08v7.58h-7.48V11h6.53l.92,3.37a6.9,6.9,0,0,1,2.17-2.91,4.88,4.88,0,0,1,3-1,5.08,5.08,0,0,1,1.63.24Z"/></svg>