<svg id="Layer_1" data-name="Layer 1" xmlns="http://www.w3.org/2000/svg" viewBox="0 0 462.14 38.21"><title>03-name</title><path d="M21.4,23v6.26H1.61V26.79a15.63,15.63,0,0,1,1.23-6.51A8.89,8.89,0,0,1,7.36,16l3.43-1.67A9.7,9.7,0,0,0,13,13a2.24,2.24,0,0,0,.84-1.77,1.54,1.54,0,0,0-.67-1.32,3.17,3.17,0,0,0-1.88-.48A6.26,6.26,0,0,0,8.52,10a13.75,13.75,0,0,0-2.76,1.78l-4.32-5A16.49,16.49,0,0,1,12.19,2.92a12.24,12.24,0,0,1,5.32,1,7.39,7.39,0,0,1,3.24,2.82,7.6,7.6,0,0,1,1.09,4.06,7.51,7.51,0,0,1-2.09,5.63,18.43,18.43,0,0,1-4.88,3.42l-2.07,1A4.94,4.94,0,0,0,10.22,23Z"/><path d="M26.71,23.45a16,16,0,0,1-1.47-7.1,16.12,16.12,0,0,1,1.47-7.11,10.89,10.89,0,0,1,4.14-4.67,11.78,11.78,0,0,1,6.29-1.65,11.76,11.76,0,0,1,6.29,1.65,10.91,10.91,0,0,1,4.15,4.67A16.12,16.12,0,0,1,49,16.35a16,16,0,0,1-1.46,7.1,10.88,10.88,0,0,1-4.15,4.68,11.76,11.76,0,0,1-6.29,1.65,11.78,11.78,0,0,1-6.29-1.65A10.86,10.86,0,0,1,26.71,23.45ZM41,16.35A9,9,0,0,0,40,11.57a3.18,3.18,0,0,0-5.61,0,9,9,0,0,0-1.07,4.78,9,9,0,0,0,1.07,4.78,3.18,3.18,0,0,0,5.61,0A9,9,0,0,0,41,16.35Z"/><path d="M52.78,9a6.56,6.56,0,0,1,.7-3,5.51,5.51,0,0,1,2.11-2.23A6.4,6.4,0,0,1,59,2.92h.21v1.8h-.11a3.82,3.82,0,0,0-1.73.39,2.2,2.2,0,0,0-1.09,1.14h0a3.55,3.55,0,0,1,2.48.9,3,3,0,0,1,1,2.33,3.24,3.24,0,0,1-1,2.45,3.5,3.5,0,0,1-2.5,1,3.4,3.4,0,0,1-2.43-1A4,4,0,0,1,52.78,9Z"/><path d="M63.83,9a6.56,6.56,0,0,1,.7-3,5.51,5.51,0,0,1,2.11-2.23A6.4,6.4,0,0,1,70,2.92h.21v1.8h-.11a3.82,3.82,0,0,0-1.73.39A2.2,2.2,0,0,0,67.3,6.25h0a3.55,3.55,0,0,1,2.48.9,3,3,0,0,1,1,2.33,3.24,3.24,0,0,1-1,2.45,3.5,3.5,0,0,1-2.5,1,3.4,3.4,0,0,1-2.43-1A4,4,0,0,1,63.83,9Z"/><path d="M86.88,17.34V23h-12V17.34Z"/><path d="M106.37,29.27H90.73V3.43h7.75V23h7.89Z"/><path d="M115.55,22.1a2.89,2.89,0,0,0,1.14,2.14,4.46,4.46,0,0,0,2.7.74,6.24,6.24,0,0,0,2.74-.56,8.57,8.57,0,0,0,1.92-1.2l3.77,3.36a14.47,14.47,0,0,1-14.87,2,8.32,8.32,0,0,1-3.62-3.33,9.43,9.43,0,0,1-1.23-4.81,9.75,9.75,0,0,1,1.17-4.78,8.36,8.36,0,0,1,3.51-3.35,12,12,0,0,1,5.62-1.22,10.33,10.33,0,0,1,7.38,2.5,9.1,9.1,0,0,1,2.65,7,10.68,10.68,0,0,1-.1,1.54Zm0-3.34h5.74a3.58,3.58,0,0,0-.83-2.14,2.49,2.49,0,0,0-1.92-.75,2.79,2.79,0,0,0-2,.77A3.37,3.37,0,0,0,115.55,18.76Z"/><path d="M131.22,5.47a3.75,3.75,0,0,1,1.16-2.77,3.83,3.83,0,0,1,2.79-1.14,3.88,3.88,0,0,1,3.9,3.91,3.82,3.82,0,0,1-1.13,2.79,3.75,3.75,0,0,1-2.77,1.15,3.8,3.8,0,0,1-2.79-1.15A3.81,3.81,0,0,1,131.22,5.47Zm7.68,6.12V29.27h-7.47V11.59Z"/><path d="M143,25.21a10.15,10.15,0,0,1-1.08-4.71A10,10,0,0,1,143,15.69a8.25,8.25,0,0,1,3.38-3.37,11,11,0,0,1,5.44-1.24,11.16,11.16,0,0,1,4.25.71,16.9,16.9,0,0,1,3.4,2l-4,4.28a4,4,0,0,0-3-1.36,3.07,3.07,0,0,0-2.44,1,4,4,0,0,0-.89,2.74,4,4,0,0,0,.92,2.8,3.2,3.2,0,0,0,2.48,1,3.74,3.74,0,0,0,3.13-1.6l4.45,3.87a12.19,12.19,0,0,1-3.57,2.4,11.73,11.73,0,0,1-4.76.87,11.29,11.29,0,0,1-5.5-1.24A8.06,8.06,0,0,1,143,25.21Z"/><path d="M181.61,18.63V29.27h-7.48V20a5.42,5.42,0,0,0-.48-2.68,1.71,1.71,0,0,0-1.6-.79,1.93,1.93,0,0,0-1.83,1,5.2,5.2,0,0,0-.55,2.58v9.18h-7.48V3.43h7.48V14.07a6.88,6.88,0,0,1,2.47-2.21,7.07,7.07,0,0,1,3.35-.78,5.37,5.37,0,0,1,4.62,2A9.1,9.1,0,0,1,181.61,18.63Z"/><path d="M193.2,29.78c-2.58,0-4.45-.6-5.59-1.79s-1.72-3.11-1.72-5.76v-5h-2.62l.38-5.64h2.24V7.2h7.41v4.39h4.39v5.64H193.3v4.25a3.11,3.11,0,0,0,.5,2,2.23,2.23,0,0,0,1.82.62,10.09,10.09,0,0,0,2-.21l.4,5.51A27.69,27.69,0,0,1,193.2,29.78Z"/><path d="M230.56,18.63V29.27h-7.47V19.89a5.87,5.87,0,0,0-.41-2.59,1.36,1.36,0,0,0-1.29-.75q-2,0-2,3.57v9.15H211.9V19.89a5.7,5.7,0,0,0-.42-2.59,1.41,1.41,0,0,0-1.31-.75c-1.32,0-2,1.18-2,3.54v9.18h-7.48V11.59h6.66l.71,2.35a5.94,5.94,0,0,1,5.31-2.86,5.55,5.55,0,0,1,3.36,1,5.65,5.65,0,0,1,2,2.75,6.46,6.46,0,0,1,2.33-2.77,6.15,6.15,0,0,1,3.48-1,5.23,5.23,0,0,1,4.47,2A9,9,0,0,1,230.56,18.63Z"/><path d="M240.73,22.1a2.89,2.89,0,0,0,1.14,2.14,4.48,4.48,0,0,0,2.7.74,6.18,6.18,0,0,0,2.74-.56,8.57,8.57,0,0,0,1.92-1.2L253,26.58a14.49,14.49,0,0,1-14.88,2,8.37,8.37,0,0,1-3.62-3.33,9.53,9.53,0,0,1-1.22-4.81,9.75,9.75,0,0,1,1.17-4.78A8.34,8.34,0,0,1,238,12.3a12,12,0,0,1,5.63-1.22,10.33,10.33,0,0,1,7.38,2.5,9.14,9.14,0,0,1,2.65,7,12.32,12.32,0,0,1-.1,1.54Zm0-3.34h5.75a3.58,3.58,0,0,0-.83-2.14,2.51,2.51,0,0,0-1.92-.75,2.82,2.82,0,0,0-2,.77A3.48,3.48,0,0,0,240.73,18.76Z"/><path d="M264.94,29.78c-2.58,0-4.45-.6-5.59-1.79s-1.72-3.11-1.72-5.76v-5H255l.38-5.64h2.24V7.2H265v4.39h4.39v5.64H265v4.25a3.11,3.11,0,0,0,.5,2,2.2,2.2,0,0,0,1.81.62,10.19,10.19,0,0,0,2-.21l.4,5.51A27.77,27.77,0,0,1,264.94,29.78Z"/><path d="M292.28,29.27h-7l-.51-2.82a6.06,6.06,0,0,1-5.61,3.33,7.36,7.36,0,0,1-6.75-4.22,11.17,11.17,0,0,1-1.07-5.1,11.71,11.71,0,0,1,1-4.94,7.76,7.76,0,0,1,2.71-3.28A6.8,6.8,0,0,1,279,11.08a6,6,0,0,1,3.55,1,7.31,7.31,0,0,1,2.3,2.56V11.59h7.48ZM285,20.43a4.08,4.08,0,0,0-.82-2.64,2.87,2.87,0,0,0-4.35,0,4.08,4.08,0,0,0-.82,2.64,4.13,4.13,0,0,0,.82,2.67,2.85,2.85,0,0,0,4.35,0A4.13,4.13,0,0,0,285,20.43Z"/><path d="M296.37,26.4a13.57,13.57,0,0,1-.76-5.09V3.43H303v18a2.73,2.73,0,0,0,.63,2,2.82,2.82,0,0,0,2.06.63h.51l.4,5.47a16.11,16.11,0,0,1-3.09.24,11.48,11.48,0,0,1-4.69-.78A4.81,4.81,0,0,1,296.37,26.4Z"/><path d="M309.43,26.4a13.57,13.57,0,0,1-.76-5.09V3.43h7.41v18a2.73,2.73,0,0,0,.63,2,2.79,2.79,0,0,0,2.05.63h.51l.41,5.47a16.11,16.11,0,0,1-3.09.24A11.45,11.45,0,0,1,311.9,29,4.77,4.77,0,0,1,309.43,26.4Z"/><path d="M335.35,17.88a14.73,14.73,0,0,0-2.58-.31,3.48,3.48,0,0,0-2.69,1,4.44,4.44,0,0,0-.95,3.08v7.58h-7.48V11.59h6.53L329.1,15a6.84,6.84,0,0,1,2.17-2.91,4.88,4.88,0,0,1,3-1,5.08,5.08,0,0,1,1.63.24Z"/><path d="M357.83,29.27h-7l-.51-2.82a6.06,6.06,0,0,1-5.61,3.33A7.39,7.39,0,0,1,338,25.56a11.17,11.17,0,0,1-1.07-5.1,11.71,11.71,0,0,1,1-4.94,7.76,7.76,0,0,1,2.71-3.28,6.8,6.8,0,0,1,3.89-1.16,6,6,0,0,1,3.55,1,7.31,7.31,0,0,1,2.3,2.56V11.59h7.48ZM339.91,5.74a3.06,3.06,0,0,1,.92-2.24A3,3,0,0,1,343,2.58a3.1,3.1,0,0,1,2.23.92,3,3,0,0,1,.93,2.24A3.18,3.18,0,0,1,343,8.9,3,3,0,0,1,340.83,8,3.08,3.08,0,0,1,339.91,5.74Zm10.61,14.69a4,4,0,0,0-.82-2.64,2.87,2.87,0,0,0-4.35,0,4.08,4.08,0,0,0-.82,2.64,4.13,4.13,0,0,0,.82,2.67,2.85,2.85,0,0,0,4.35,0A4.07,4.07,0,0,0,350.52,20.43ZM348.34,5.74a3,3,0,0,1,.94-2.24,3.06,3.06,0,0,1,2.22-.92,3,3,0,0,1,2.21.92,3.06,3.06,0,0,1,.92,2.24A3.08,3.08,0,0,1,353.71,8a3,3,0,0,1-2.21.93A3,3,0,0,1,349.28,8,3,3,0,0,1,348.34,5.74Z"/><path d="M381.59,29.27h-7l-.51-2.82a6,6,0,0,1-5.61,3.33,7.36,7.36,0,0,1-6.74-4.22,11,11,0,0,1-1.08-5.1,11.55,11.55,0,0,1,1-4.94,7.81,7.81,0,0,1,2.7-3.28,6.83,6.83,0,0,1,3.9-1.16,6.11,6.11,0,0,1,3.55,1,7.16,7.16,0,0,1,2.29,2.55V3.43h7.48Zm-7.31-8.84a4.08,4.08,0,0,0-.81-2.64,2.7,2.7,0,0,0-2.18-1,2.66,2.66,0,0,0-2.17,1,4,4,0,0,0-.82,2.64,4.08,4.08,0,0,0,.83,2.67,2.84,2.84,0,0,0,4.34,0A4.13,4.13,0,0,0,374.28,20.43Z"/><path d="M392,22.1a2.89,2.89,0,0,0,1.14,2.14,4.48,4.48,0,0,0,2.7.74,6.18,6.18,0,0,0,2.74-.56,8.57,8.57,0,0,0,1.92-1.2l3.77,3.36a14.47,14.47,0,0,1-14.87,2,8.37,8.37,0,0,1-3.62-3.33,9.53,9.53,0,0,1-1.22-4.81,9.75,9.75,0,0,1,1.17-4.78,8.34,8.34,0,0,1,3.5-3.35,12,12,0,0,1,5.63-1.22,10.33,10.33,0,0,1,7.38,2.5,9.14,9.14,0,0,1,2.65,7,12.32,12.32,0,0,1-.1,1.54Zm0-3.34h5.75a3.58,3.58,0,0,0-.83-2.14,2.52,2.52,0,0,0-1.93-.75,2.81,2.81,0,0,0-2,.77A3.48,3.48,0,0,0,392,18.76Z"/><path d="M421.41,17.88a14.93,14.93,0,0,0-2.59-.31,3.46,3.46,0,0,0-2.68,1,4.39,4.39,0,0,0-.95,3.08v7.58h-7.48V11.59h6.52l.92,3.37a6.85,6.85,0,0,1,2.18-2.91,4.85,4.85,0,0,1,2.95-1,5.15,5.15,0,0,1,1.64.24Z"/></svg>