<svg id="Layer_1" data-name="Layer 1" xmlns="http://www.w3.org/2000/svg" viewBox="0 0 605.44 38.21"><title>04-name</title><path d="M1.21,22.09,5.26,18a6.83,6.83,0,0,0,2.28,1.72,7.15,7.15,0,0,0,3.24.74,4.43,4.43,0,0,0,2-.41,1.29,1.29,0,0,0,.78-1.21,1.19,1.19,0,0,0-.52-1.05,6.17,6.17,0,0,0-1.58-.69l-2.58-.81A21.74,21.74,0,0,1,5,14.75a7.24,7.24,0,0,1-2.55-2.26A6,6,0,0,1,1.51,9,6.17,6.17,0,0,1,2.7,5.16,7.18,7.18,0,0,1,6,2.77,13.27,13.27,0,0,1,10.78,2,13.3,13.3,0,0,1,16.6,3.07,11.94,11.94,0,0,1,19.87,5.2L16.15,9.43a10.08,10.08,0,0,0-2.26-1.76A5.7,5.7,0,0,0,11.08,7a3.27,3.27,0,0,0-1.84.42A1.23,1.23,0,0,0,9.3,9.59a8,8,0,0,0,1.72.74l2.7.84a22.65,22.65,0,0,1,3.36,1.32,7.18,7.18,0,0,1,2.52,2.14,5.93,5.93,0,0,1,1.08,3.68,6.55,6.55,0,0,1-1.2,4,7.47,7.47,0,0,1-3.37,2.52,13.58,13.58,0,0,1-5.06.87,16.19,16.19,0,0,1-5.61-.95A11.23,11.23,0,0,1,1.21,22.09Z"/><path d="M40.69,13a10.23,10.23,0,0,1,.9,4.46,10,10,0,0,1-.93,4.5,6.48,6.48,0,0,1-5.94,3.75,5.45,5.45,0,0,1-5-2.88v8.58H23.15V9.61h6.14l.48,2.73A6,6,0,0,1,31.83,10a5.41,5.41,0,0,1,3-.85,6.25,6.25,0,0,1,3.39,1A6.6,6.6,0,0,1,40.69,13Zm-5.85,4.46a3.63,3.63,0,0,0-.7-2.33,2.31,2.31,0,0,0-1.91-.88,2.35,2.35,0,0,0-1.92.88,3.58,3.58,0,0,0-.72,2.33,3.63,3.63,0,0,0,.72,2.34,2.47,2.47,0,0,0,3.81,0A3.6,3.6,0,0,0,34.84,17.41Z"/><path d="M44.74,21.61a8.8,8.8,0,0,1-1-4.2,8.8,8.8,0,0,1,1-4.2,7.12,7.12,0,0,1,3.06-3,10.88,10.88,0,0,1,5.13-1.09,10.81,10.81,0,0,1,5.12,1.09,7.24,7.24,0,0,1,3.06,3,8.69,8.69,0,0,1,1,4.2,8.69,8.69,0,0,1-1,4.2,7.22,7.22,0,0,1-3.06,2.95,10.81,10.81,0,0,1-5.12,1.1,10.88,10.88,0,0,1-5.13-1.1A7.1,7.1,0,0,1,44.74,21.61Zm10.8-4.2a3.58,3.58,0,0,0-.72-2.33,2.31,2.31,0,0,0-1.89-.88,2.35,2.35,0,0,0-1.9.88,3.54,3.54,0,0,0-.74,2.33A3.56,3.56,0,0,0,51,19.76a2.36,2.36,0,0,0,1.9.89,2.32,2.32,0,0,0,1.89-.89A3.6,3.6,0,0,0,55.54,17.41Z"/><path d="M76.72,15.16a12.71,12.71,0,0,0-2.28-.27,3.05,3.05,0,0,0-2.37.91,3.9,3.9,0,0,0-.84,2.72v6.69h-6.6V9.61h5.76l.81,3A6.15,6.15,0,0,1,73.12,10a4.31,4.31,0,0,1,2.61-.85,4.55,4.55,0,0,1,1.44.21Z"/><path d="M86.83,25.66q-3.42,0-4.93-1.58T80.38,19V14.59H78.07l.33-5h2V5.74h6.54V9.61h3.87v5H86.92v3.75a2.78,2.78,0,0,0,.44,1.74,2,2,0,0,0,1.6.54,9.16,9.16,0,0,0,1.8-.18l.36,4.86A24.33,24.33,0,0,1,86.83,25.66Z"/><path d="M92.32,23.17l3.54-3.09A5.65,5.65,0,0,0,99,21.37a2,2,0,0,0,.9-.15.51.51,0,0,0,.27-.48.45.45,0,0,0-.18-.36,2.06,2.06,0,0,0-.66-.3l-1.89-.63A8.73,8.73,0,0,1,94,17.53a4.24,4.24,0,0,1-1.23-3.18,4.63,4.63,0,0,1,1.77-3.74,8,8,0,0,1,5.19-1.45,10.92,10.92,0,0,1,6.87,2l-3.15,3.45a6.67,6.67,0,0,0-1.47-.92,3.85,3.85,0,0,0-1.56-.31q-1,0-1,.48a.58.58,0,0,0,.18.42,1.64,1.64,0,0,0,.6.33l1.8.63a13.75,13.75,0,0,1,2.85,1.33,4,4,0,0,1,1.47,1.62,5.57,5.57,0,0,1,.45,2.39,4.26,4.26,0,0,1-.79,2.49A5.52,5.52,0,0,1,103.5,25a10.13,10.13,0,0,1-4,.71,12.38,12.38,0,0,1-4-.63A8.43,8.43,0,0,1,92.32,23.17Z"/><path d="M108.7,4.21a3.31,3.31,0,0,1,1-2.45,3.37,3.37,0,0,1,2.46-1,3.33,3.33,0,0,1,2.45,1,3.33,3.33,0,0,1,1,2.45,3.37,3.37,0,0,1-1,2.46,3.31,3.31,0,0,1-2.45,1,3.35,3.35,0,0,1-2.46-1A3.35,3.35,0,0,1,108.7,4.21Zm6.78,5.4v15.6h-6.6V9.61Z"/><path d="M126,25.66q-3.42,0-4.93-1.58T119.5,19V14.59h-2.31l.33-5h2V5.74H126V9.61h3.87v5H126v3.75a2.78,2.78,0,0,0,.44,1.74,2,2,0,0,0,1.6.54,9.16,9.16,0,0,0,1.8-.18l.36,4.86A24.33,24.33,0,0,1,126,25.66Z"/><path d="M147,25.21h-15.3V23.5l6.12-9.06h-5.73V9.61H146.8v1.71l-6.15,9H147Z"/><path d="M154.84,18.88a2.55,2.55,0,0,0,1,1.89,3.89,3.89,0,0,0,2.38.66,5.56,5.56,0,0,0,2.42-.5,7.57,7.57,0,0,0,1.69-1.06l3.33,3a12.77,12.77,0,0,1-13.12,1.75,7.44,7.44,0,0,1-3.2-2.94,8.33,8.33,0,0,1-1.08-4.24,8.6,8.6,0,0,1,1-4.22,7.29,7.29,0,0,1,3.09-2.95,10.53,10.53,0,0,1,5-1.08,9.12,9.12,0,0,1,6.51,2.2,8.07,8.07,0,0,1,2.34,6.17,9.56,9.56,0,0,1-.09,1.35Zm0-2.94h5.07a3.14,3.14,0,0,0-.73-1.89,2.21,2.21,0,0,0-1.7-.66,2.46,2.46,0,0,0-1.78.67A3,3,0,0,0,154.84,15.94Z"/><path d="M201.37,15.82v9.39h-6.6V16.93a5.14,5.14,0,0,0-.36-2.28,1.21,1.21,0,0,0-1.14-.66q-1.77,0-1.77,3.15v8.07h-6.6V16.93a5,5,0,0,0-.37-2.28,1.25,1.25,0,0,0-1.16-.66q-1.74,0-1.74,3.12v8.1H175V9.61h5.88l.63,2.07a5.23,5.23,0,0,1,4.68-2.52,4.93,4.93,0,0,1,3,.87A5,5,0,0,1,191,12.46,5.81,5.81,0,0,1,193,10a5.46,5.46,0,0,1,3.07-.85A4.62,4.62,0,0,1,200,10.94,8,8,0,0,1,201.37,15.82Z"/><path d="M204.07,4.21a3.31,3.31,0,0,1,1-2.45,3.37,3.37,0,0,1,2.46-1,3.33,3.33,0,0,1,2.45,1,3.33,3.33,0,0,1,1,2.45,3.37,3.37,0,0,1-1,2.46,3.31,3.31,0,0,1-2.45,1,3.35,3.35,0,0,1-2.46-1A3.35,3.35,0,0,1,204.07,4.21Zm6.78,5.4v15.6h-6.6V9.61Z"/><path d="M221.32,25.66q-3.42,0-4.93-1.58T214.87,19V14.59h-2.31l.33-5h2V5.74h6.54V9.61h3.87v5h-3.87v3.75a2.78,2.78,0,0,0,.44,1.74,2,2,0,0,0,1.6.54,9.16,9.16,0,0,0,1.8-.18l.36,4.86A24.33,24.33,0,0,1,221.32,25.66Z"/><path d="M234.19,4.21a3.31,3.31,0,0,1,1-2.45,3.37,3.37,0,0,1,2.46-1,3.33,3.33,0,0,1,2.45,1,3.33,3.33,0,0,1,1,2.45,3.37,3.37,0,0,1-1,2.46,3.31,3.31,0,0,1-2.45,1,3.35,3.35,0,0,1-2.46-1A3.35,3.35,0,0,1,234.19,4.21ZM241,9.61v15.6h-6.6V9.61Z"/><path d="M261.1,15.82v9.39h-6.6V17.05a4.69,4.69,0,0,0-.44-2.37,1.55,1.55,0,0,0-1.42-.69q-2.07,0-2.07,3.12v8.1H244V9.61h5.88l.69,2.22a5.7,5.7,0,0,1,2.16-2,6.38,6.38,0,0,1,3-.69,4.74,4.74,0,0,1,4.06,1.78A8,8,0,0,1,261.1,15.82Z"/><path d="M271.33,25.66c-2.28,0-3.93-.53-4.93-1.58s-1.52-2.74-1.52-5.08V14.59h-2.31l.33-5h2V5.74h6.54V9.61h3.87v5h-3.87v3.75a2.78,2.78,0,0,0,.43,1.74,2,2,0,0,0,1.61.54,9.16,9.16,0,0,0,1.8-.18l.36,4.86A24.33,24.33,0,0,1,271.33,25.66Z"/><path d="M283.57,18.88a2.54,2.54,0,0,0,1,1.89,3.92,3.92,0,0,0,2.39.66,5.49,5.49,0,0,0,2.41-.5,7.65,7.65,0,0,0,1.7-1.06l3.33,3a12.78,12.78,0,0,1-13.13,1.75,7.47,7.47,0,0,1-3.19-2.94A8.33,8.33,0,0,1,277,17.41a8.6,8.6,0,0,1,1-4.22,7.29,7.29,0,0,1,3.09-2.95,10.53,10.53,0,0,1,5-1.08,9.12,9.12,0,0,1,6.51,2.2,8.07,8.07,0,0,1,2.34,6.17,9.56,9.56,0,0,1-.09,1.35Zm0-2.94h5.07a3.14,3.14,0,0,0-.74-1.89,2.19,2.19,0,0,0-1.69-.66,2.46,2.46,0,0,0-1.78.67A3,3,0,0,0,283.57,15.94Z"/><path d="M315.55,23.35a8.55,8.55,0,0,1-2.16,6.25q-2.16,2.2-7,2.21a15.86,15.86,0,0,1-4.91-.69,8.49,8.49,0,0,1-3.19-1.71l3.39-3.63a7.39,7.39,0,0,0,1.87.9,7.1,7.1,0,0,0,2.21.36,3.29,3.29,0,0,0,2.17-.6,2.47,2.47,0,0,0,.87-1.35,7.67,7.67,0,0,0,.17-1.65v-1.2A5.15,5.15,0,0,1,307,24.11a5.91,5.91,0,0,1-3,.74,7,7,0,0,1-3.44-.87,6.44,6.44,0,0,1-2.51-2.58,8.27,8.27,0,0,1-.95-4.11,9.79,9.79,0,0,1,.87-4.22,7,7,0,0,1,2.4-2.88,6,6,0,0,1,3.45-1,5.4,5.4,0,0,1,3.09.88,6.26,6.26,0,0,1,2,2.24l.48-2.67h6.15Zm-6.45-5.94a3.58,3.58,0,0,0-.72-2.33,2.54,2.54,0,0,0-3.84,0,3.46,3.46,0,0,0-.72,2.28,3.41,3.41,0,0,0,.73,2.28,2.52,2.52,0,0,0,3.81,0A3.32,3.32,0,0,0,309.1,17.41Z"/><path d="M330.52,15.16a12.71,12.71,0,0,0-2.28-.27,3.05,3.05,0,0,0-2.37.91,3.9,3.9,0,0,0-.84,2.72v6.69h-6.6V9.61h5.76l.81,3A6.15,6.15,0,0,1,326.92,10a4.31,4.31,0,0,1,2.61-.85,4.55,4.55,0,0,1,1.44.21Z"/><path d="M332.65,4.21a3.31,3.31,0,0,1,1-2.45,3.37,3.37,0,0,1,2.46-1,3.31,3.31,0,0,1,2.44,1,3.34,3.34,0,0,1,1,2.45,3.38,3.38,0,0,1-1,2.46,3.29,3.29,0,0,1-2.44,1,3.35,3.35,0,0,1-2.46-1A3.35,3.35,0,0,1,332.65,4.21Zm6.78,5.4v15.6h-6.6V9.61Z"/><path d="M348.64,18.88a2.54,2.54,0,0,0,1,1.89,3.92,3.92,0,0,0,2.39.66,5.52,5.52,0,0,0,2.41-.5,7.65,7.65,0,0,0,1.7-1.06l3.33,3a12.78,12.78,0,0,1-13.13,1.75,7.47,7.47,0,0,1-3.19-2.94,8.33,8.33,0,0,1-1.08-4.24,8.59,8.59,0,0,1,1-4.22,7.29,7.29,0,0,1,3.09-2.95,10.57,10.57,0,0,1,5-1.08,9.12,9.12,0,0,1,6.51,2.2A8.07,8.07,0,0,1,360,17.53a9.56,9.56,0,0,1-.09,1.35Zm0-2.94h5.07a3.14,3.14,0,0,0-.74-1.89,2.19,2.19,0,0,0-1.69-.66,2.49,2.49,0,0,0-1.79.67A3,3,0,0,0,348.64,15.94Z"/><path d="M374.62,15.16a12.71,12.71,0,0,0-2.28-.27,3.05,3.05,0,0,0-2.37.91,3.9,3.9,0,0,0-.84,2.72v6.69h-6.6V9.61h5.76l.81,3A6.15,6.15,0,0,1,371,10a4.31,4.31,0,0,1,2.61-.85,4.55,4.55,0,0,1,1.44.21Z"/><path d="M384.73,25.66q-3.42,0-4.94-1.58T378.28,19V14.59H376l.33-5h2V5.74h6.54V9.61h3.87v5h-3.87v3.75a2.78,2.78,0,0,0,.43,1.74,2,2,0,0,0,1.61.54,9.16,9.16,0,0,0,1.8-.18L389,25.3A24.33,24.33,0,0,1,384.73,25.66Z"/><path d="M397,18.88a2.54,2.54,0,0,0,1,1.89,3.92,3.92,0,0,0,2.39.66,5.52,5.52,0,0,0,2.41-.5,7.65,7.65,0,0,0,1.7-1.06l3.33,3a12.78,12.78,0,0,1-13.13,1.75,7.41,7.41,0,0,1-3.19-2.94,8.33,8.33,0,0,1-1.08-4.24,8.59,8.59,0,0,1,1-4.22,7.29,7.29,0,0,1,3.09-2.95,10.57,10.57,0,0,1,5-1.08,9.12,9.12,0,0,1,6.51,2.2,8.07,8.07,0,0,1,2.34,6.17,9.56,9.56,0,0,1-.09,1.35Zm0-2.94H402a3.14,3.14,0,0,0-.74-1.89,2.19,2.19,0,0,0-1.69-.66,2.49,2.49,0,0,0-1.79.67A3,3,0,0,0,397,15.94Z"/><path d="M423,15.16a12.71,12.71,0,0,0-2.28-.27,3.05,3.05,0,0,0-2.37.91,3.9,3.9,0,0,0-.84,2.72v6.69h-6.6V9.61h5.76l.81,3A6.15,6.15,0,0,1,419.35,10,4.31,4.31,0,0,1,422,9.16a4.55,4.55,0,0,1,1.44.21Z"/><path d="M438.43,18.76v6.45h-6.84V2.41h6.84v7l4.86-7h7.83L444,11.65l7.92,13.56h-7.35L440,16.78Z"/><path d="M452.59,21.61a8.8,8.8,0,0,1-1-4.2,8.8,8.8,0,0,1,1-4.2,7.12,7.12,0,0,1,3.06-3,10.88,10.88,0,0,1,5.13-1.09,10.77,10.77,0,0,1,5.11,1.09,7.24,7.24,0,0,1,3.06,3,8.69,8.69,0,0,1,1,4.2,8.69,8.69,0,0,1-1,4.2,7.22,7.22,0,0,1-3.06,2.95,10.76,10.76,0,0,1-5.11,1.1,10.88,10.88,0,0,1-5.13-1.1A7.1,7.1,0,0,1,452.59,21.61Zm10.8-4.2a3.58,3.58,0,0,0-.72-2.33,2.31,2.31,0,0,0-1.89-.88,2.37,2.37,0,0,0-1.91.88,3.53,3.53,0,0,0-.73,2.33,3.55,3.55,0,0,0,.73,2.35,2.38,2.38,0,0,0,1.91.89,2.32,2.32,0,0,0,1.89-.89A3.6,3.6,0,0,0,463.39,17.41Z"/><path d="M490.09,13a10.23,10.23,0,0,1,.9,4.46,10,10,0,0,1-.93,4.5,6.61,6.61,0,0,1-2.51,2.8,6.54,6.54,0,0,1-3.43.95,5.45,5.45,0,0,1-5-2.88v8.58h-6.6V9.61h6.15l.48,2.73A6,6,0,0,1,481.22,10a5.44,5.44,0,0,1,3-.85,6.25,6.25,0,0,1,3.39,1A6.6,6.6,0,0,1,490.09,13Zm-5.85,4.46a3.64,3.64,0,0,0-.71-2.33,2.29,2.29,0,0,0-1.9-.88,2.35,2.35,0,0,0-1.92.88,3.58,3.58,0,0,0-.72,2.33,3.63,3.63,0,0,0,.72,2.34,2.47,2.47,0,0,0,3.81,0A3.6,3.6,0,0,0,484.24,17.41Z"/><path d="M501,9v.66h3.66v5H501V25.21h-6.54V14.59h-2.19l.39-5h1.8V8.44A6.7,6.7,0,0,1,496,3.55Q497.55,2,500.89,2a19,19,0,0,1,2.64.22,14.09,14.09,0,0,1,2.1.44l-.3,4.23A11.18,11.18,0,0,0,503,6.61a2.11,2.11,0,0,0-1.61.52A2.77,2.77,0,0,0,501,9Z"/><path d="M505.18,23.17l3.54-3.09a5.65,5.65,0,0,0,3.09,1.29,2,2,0,0,0,.9-.15.51.51,0,0,0,.27-.48.45.45,0,0,0-.18-.36,2.06,2.06,0,0,0-.66-.3l-1.89-.63a8.73,8.73,0,0,1-3.39-1.92,4.24,4.24,0,0,1-1.23-3.18,4.63,4.63,0,0,1,1.77-3.74,8,8,0,0,1,5.19-1.45,10.92,10.92,0,0,1,6.87,2l-3.15,3.45a6.67,6.67,0,0,0-1.47-.92,3.85,3.85,0,0,0-1.56-.31q-1,0-1,.48a.58.58,0,0,0,.18.42,1.64,1.64,0,0,0,.6.33l1.8.63a13.75,13.75,0,0,1,2.85,1.33,4,4,0,0,1,1.47,1.62,5.57,5.57,0,0,1,.45,2.39,4.27,4.27,0,0,1-.8,2.49A5.52,5.52,0,0,1,516.35,25a10.08,10.08,0,0,1-4,.71,12.45,12.45,0,0,1-4-.63A8.39,8.39,0,0,1,505.18,23.17Z"/><path d="M529.09,25.66q-3.42,0-4.94-1.58T522.64,19V14.59h-2.31l.33-5h2V5.74h6.54V9.61h3.87v5h-3.87v3.75a2.78,2.78,0,0,0,.43,1.74,2,2,0,0,0,1.61.54,9.16,9.16,0,0,0,1.8-.18l.36,4.86A24.33,24.33,0,0,1,529.09,25.66Z"/><path d="M535.12,18.19V9.61h6.6v8.64a3.09,3.09,0,0,0,.49,2,1.9,1.9,0,0,0,1.49.56,1.78,1.78,0,0,0,1.45-.56,3.23,3.23,0,0,0,.47-2V9.61h6.6v8.58a7.27,7.27,0,0,1-2.06,5.47q-2.05,2-6.46,2t-6.51-2A7.24,7.24,0,0,1,535.12,18.19Zm2.07-13.74a2.69,2.69,0,0,1,.81-2,2.66,2.66,0,0,1,2-.81,2.7,2.7,0,0,1,2,.81,2.67,2.67,0,0,1,.83,2,2.7,2.7,0,0,1-.83,2,2.71,2.71,0,0,1-2,.82,2.67,2.67,0,0,1-2-.82A2.72,2.72,0,0,1,537.19,4.45Zm7.44,0a2.66,2.66,0,0,1,.82-2,2.72,2.72,0,0,1,2-.81,2.66,2.66,0,0,1,2,.81,2.69,2.69,0,0,1,.81,2,2.72,2.72,0,0,1-.81,2,2.67,2.67,0,0,1-2,.82,2.73,2.73,0,0,1-2-.82A2.69,2.69,0,0,1,544.63,4.45Z"/><path d="M562.42,25.66q-3.42,0-4.94-1.58T556,19V14.59h-2.31l.33-5h2V5.74h6.54V9.61h3.87v5h-3.87v3.75a2.78,2.78,0,0,0,.43,1.74,2,2,0,0,0,1.61.54,9.16,9.16,0,0,0,1.8-.18l.36,4.86A24.33,24.33,0,0,1,562.42,25.66Z"/><path d="M583.51,25.21h-15.3V23.5l6.12-9.06H568.6V9.61h14.67v1.71l-6.15,9h6.39Z"/><path d="M591.31,18.88a2.54,2.54,0,0,0,1,1.89,3.92,3.92,0,0,0,2.39.66,5.52,5.52,0,0,0,2.41-.5,7.89,7.89,0,0,0,1.7-1.06l3.33,3A12.78,12.78,0,0,1,589,24.59a7.41,7.41,0,0,1-3.19-2.94,8.33,8.33,0,0,1-1.08-4.24,8.59,8.59,0,0,1,1-4.22,7.29,7.29,0,0,1,3.09-2.95,10.57,10.57,0,0,1,5-1.08,9.15,9.15,0,0,1,6.51,2.2,8.07,8.07,0,0,1,2.34,6.17,9.56,9.56,0,0,1-.09,1.35Zm0-2.94h5.07a3.14,3.14,0,0,0-.74-1.89,2.19,2.19,0,0,0-1.69-.66,2.49,2.49,0,0,0-1.79.67A3,3,0,0,0,591.31,15.94Z"/></svg>