<svg id="Layer_1" data-name="Layer 1" xmlns="http://www.w3.org/2000/svg" viewBox="0 0 362.96 17.56"><title>copyright</title><path d="M3.05,11,2.1,14H.5L5.16.31H6.91L11.57,14H10L9,11Zm3-9.2L3.5,9.64h5Z"/><path d="M21.58,6.9a5,5,0,0,1,.59,2.45,5.08,5.08,0,0,1-.59,2.46A4.43,4.43,0,0,1,20,13.54a4.25,4.25,0,0,1-2.25.63,3.88,3.88,0,0,1-1.89-.45,3.66,3.66,0,0,1-1.39-1.22L14.34,14H13V.31h1.53V6.16A3.84,3.84,0,0,1,15.86,5a4.09,4.09,0,0,1,1.85-.43A4.21,4.21,0,0,1,20,5.17,4.55,4.55,0,0,1,21.58,6.9Zm-1.34,4.28a3.84,3.84,0,0,0,.4-1.79,4.15,4.15,0,0,0-.37-1.79,3.21,3.21,0,0,0-1.08-1.25,3,3,0,0,0-1.63-.46,3,3,0,0,0-1.64.46A3.17,3.17,0,0,0,14.79,7.6a4,4,0,0,0-.39,1.77,3.85,3.85,0,0,0,.39,1.75,3.15,3.15,0,0,0,1.12,1.25,3,3,0,0,0,4.33-1.19Z"/><path d="M32.78,6.9a5.13,5.13,0,0,1,.59,2.45,5.2,5.2,0,0,1-.59,2.46,4.39,4.39,0,0,1-1.63,1.73,4.2,4.2,0,0,1-2.25.63A3.94,3.94,0,0,1,27,13.72a3.7,3.7,0,0,1-1.38-1.22L25.54,14H24.15V.31h1.53V6.16A3.88,3.88,0,0,1,27.06,5a4.05,4.05,0,0,1,1.84-.43,4.18,4.18,0,0,1,2.26.63A4.58,4.58,0,0,1,32.78,6.9Zm-1.35,4.28a3.84,3.84,0,0,0,.41-1.79,4.16,4.16,0,0,0-.38-1.79,3.05,3.05,0,0,0-1.08-1.25,3,3,0,0,0-1.62-.46,3.1,3.1,0,0,0-1.65.46A3.15,3.15,0,0,0,26,7.6a3.84,3.84,0,0,0-.4,1.77,3.73,3.73,0,0,0,.4,1.75,3.06,3.06,0,0,0,1.11,1.25,3.12,3.12,0,0,0,3.23,0A3.07,3.07,0,0,0,31.43,11.18Z"/><path d="M34.77,13a1.19,1.19,0,0,1,.35-.86,1.22,1.22,0,0,1,1.71,0,1.22,1.22,0,0,1,0,1.71,1.22,1.22,0,0,1-1.71,0A1.2,1.2,0,0,1,34.77,13Z"/><path d="M49.46,14h-7v-.83L47.32,6H42.67V4.72h6.7v.83l-4.85,7.13h4.94Z"/><path d="M52,10a3.07,3.07,0,0,0,1,2.14,3.29,3.29,0,0,0,2.19.71,3.58,3.58,0,0,0,1.57-.33,3.18,3.18,0,0,0,1.13-.85l1.08.9a4.14,4.14,0,0,1-1.63,1.19,5.56,5.56,0,0,1-2.24.43,5.09,5.09,0,0,1-2.47-.57A4,4,0,0,1,51,11.94a5.39,5.39,0,0,1-.57-2.55,5.69,5.69,0,0,1,.55-2.54,4,4,0,0,1,1.57-1.7,4.93,4.93,0,0,1,4.82,0,4.07,4.07,0,0,1,1.52,1.74,5.67,5.67,0,0,1,.51,2.44V10Zm0-1.3h5.83a3.17,3.17,0,0,0-.91-2.07,2.78,2.78,0,0,0-2-.72,2.87,2.87,0,0,0-2,.73A3.08,3.08,0,0,0,52,8.68Z"/><path d="M60.85,1.79A1.15,1.15,0,0,1,61.2.94,1.09,1.09,0,0,1,62,.6a1.12,1.12,0,0,1,.83.34,1.15,1.15,0,0,1,.34.85,1.13,1.13,0,0,1-.34.83A1.16,1.16,0,0,1,62,3a1.13,1.13,0,0,1-.82-.34A1.14,1.14,0,0,1,60.85,1.79ZM62.8,4.72V14H61.27V4.72Z"/><path d="M73.91,13a4.69,4.69,0,0,1-1.23,3.44,4.65,4.65,0,0,1-3.47,1.26,6.3,6.3,0,0,1-2.2-.37,5,5,0,0,1-1.64-1l.92-1a4.4,4.4,0,0,0,1.27.79,4.29,4.29,0,0,0,1.6.27,3.08,3.08,0,0,0,2.42-.89,3.67,3.67,0,0,0,.8-2.53v-.4A3.69,3.69,0,0,1,71,13.74a3.93,3.93,0,0,1-1.84.43,4.25,4.25,0,0,1-2.26-.62,4.48,4.48,0,0,1-1.62-1.72,5.25,5.25,0,0,1-.59-2.48,5,5,0,0,1,.61-2.48,4.53,4.53,0,0,1,1.64-1.72,4.35,4.35,0,0,1,2.23-.61A3.86,3.86,0,0,1,71.05,5a3.59,3.59,0,0,1,1.38,1.3l.09-1.59h1.39Zm-1.84-1.88a3.77,3.77,0,0,0,.4-1.76,3.84,3.84,0,0,0-.4-1.77,3,3,0,0,0-2.75-1.69,3,3,0,0,0-1.62.45,3.06,3.06,0,0,0-1.09,1.24,4,4,0,0,0-.39,1.79,3.85,3.85,0,0,0,.4,1.78,3,3,0,0,0,1.09,1.23,2.94,2.94,0,0,0,1.61.45A3,3,0,0,0,71,12.37,3.08,3.08,0,0,0,72.07,11.11Z"/><path d="M79.28,14.17c-1.67,0-2.5-.94-2.5-2.84V6H75.32l.09-1.32h1.37V2.47h1.53V4.72h2.14V6H78.31v5.27a2.11,2.11,0,0,0,.26,1.23,1.11,1.11,0,0,0,.89.32,4.79,4.79,0,0,0,1.16-.13L80.71,14A5.88,5.88,0,0,1,79.28,14.17Z"/><path d="M86,11.85l1.08-.95a4.63,4.63,0,0,0,3.75,1.89,4.05,4.05,0,0,0,2.36-.66,2.18,2.18,0,0,0,1-1.9,1.89,1.89,0,0,0-.67-1.59,5.58,5.58,0,0,0-1.94-.89L90,7.3a11.86,11.86,0,0,1-1.76-.65,4.2,4.2,0,0,1-1.42-1.11,2.9,2.9,0,0,1-.64-1.93,3,3,0,0,1,.62-1.92A3.81,3.81,0,0,1,88.49.52,6.66,6.66,0,0,1,90.82.13a6.28,6.28,0,0,1,2.6.5,7.05,7.05,0,0,1,2,1.45l-1,1.08a5.41,5.41,0,0,0-1.61-1.22,4.74,4.74,0,0,0-2.06-.42,4.26,4.26,0,0,0-2.14.5,1.67,1.67,0,0,0-.87,1.55,1.77,1.77,0,0,0,.77,1.55A6.63,6.63,0,0,0,90.41,6l1.47.43a12,12,0,0,1,1.86.68,4,4,0,0,1,1.39,1.15,3.07,3.07,0,0,1,.61,2,3.57,3.57,0,0,1-.63,2.1,4,4,0,0,1-1.74,1.39,6.7,6.7,0,0,1-5.26-.12A5.89,5.89,0,0,1,86,11.85Z"/><path d="M97.93,11.85a5.08,5.08,0,0,1-.6-2.48,5.12,5.12,0,0,1,.6-2.49,4.43,4.43,0,0,1,1.66-1.72,4.82,4.82,0,0,1,4.73,0A4.5,4.5,0,0,1,106,6.88a5.12,5.12,0,0,1,.6,2.49,5.08,5.08,0,0,1-.6,2.48,4.34,4.34,0,0,1-1.66,1.71,4.89,4.89,0,0,1-4.73,0A4.27,4.27,0,0,1,97.93,11.85Zm6.72-.65a4,4,0,0,0,.4-1.83,4,4,0,0,0-.4-1.84,2.92,2.92,0,0,0-1.12-1.21,3.1,3.1,0,0,0-3.15,0,2.86,2.86,0,0,0-1.12,1.21,4,4,0,0,0-.4,1.84,4,4,0,0,0,.4,1.83,2.89,2.89,0,0,0,1.12,1.2,3.1,3.1,0,0,0,3.15,0A3,3,0,0,0,104.65,11.2Z"/><path d="M116.56,8.09V14H115V8.45a3,3,0,0,0-.55-2,2.17,2.17,0,0,0-1.73-.63,2.34,2.34,0,0,0-1.53.49,2.86,2.86,0,0,0-.87,1.24A4.24,4.24,0,0,0,110.08,9v5h-1.53V4.72h1.39l.12,1.62A3.47,3.47,0,0,1,111.35,5a3.63,3.63,0,0,1,1.81-.46,3.22,3.22,0,0,1,2.53,1A3.7,3.7,0,0,1,116.56,8.09Z"/><path d="M127.67,14h-1.35l-.12-1.54a3.8,3.8,0,0,1-1.38,1.26,4.06,4.06,0,0,1-1.92.45,4.21,4.21,0,0,1-2.26-.63,4.32,4.32,0,0,1-1.6-1.73,5.14,5.14,0,0,1-.58-2.44,5.08,5.08,0,0,1,.59-2.46,4.53,4.53,0,0,1,1.62-1.74,4.2,4.2,0,0,1,2.25-.63,4.09,4.09,0,0,1,1.85.43,3.72,3.72,0,0,1,1.37,1.17V.31h1.53Zm-1.82-2.89a4,4,0,0,0,.38-1.76,4.1,4.1,0,0,0-.38-1.77,3,3,0,0,0-2.75-1.69,3,3,0,0,0-1.64.46,3.12,3.12,0,0,0-1.09,1.24A4,4,0,0,0,120,9.37a4,4,0,0,0,.39,1.79,3,3,0,0,0,1.11,1.22,2.94,2.94,0,0,0,1.61.45,3,3,0,0,0,1.64-.46A3.08,3.08,0,0,0,125.85,11.11Z"/><path d="M131.24,10a3,3,0,0,0,1,2.14,3.29,3.29,0,0,0,2.19.71A3.58,3.58,0,0,0,136,12.5a3.18,3.18,0,0,0,1.13-.85l1.08.9a4.14,4.14,0,0,1-1.63,1.19,5.56,5.56,0,0,1-2.24.43,5.09,5.09,0,0,1-2.47-.57,4,4,0,0,1-1.61-1.66,5.39,5.39,0,0,1-.57-2.55,5.69,5.69,0,0,1,.55-2.54,4,4,0,0,1,1.57-1.7,4.51,4.51,0,0,1,2.38-.61,4.41,4.41,0,0,1,2.43.65,4.1,4.1,0,0,1,1.53,1.74,5.67,5.67,0,0,1,.51,2.44V10Zm0-1.3h5.83a3.17,3.17,0,0,0-.91-2.07,2.78,2.78,0,0,0-2-.72,2.87,2.87,0,0,0-2,.73A3.08,3.08,0,0,0,131.24,8.68Z"/><path d="M145.36,6.18a3.86,3.86,0,0,0-.81-.09,2,2,0,0,0-1.84,1,5.08,5.08,0,0,0-.57,2.56V14h-1.53V4.72H142l.15,1.7A3.36,3.36,0,0,1,143.28,5a2.77,2.77,0,0,1,1.58-.48,3,3,0,0,1,.61,0Z"/><path d="M155.5,14h-1.36l-.09-1.59a3.71,3.71,0,0,1-1.44,1.31,4.28,4.28,0,0,1-1.93.45,4.11,4.11,0,0,1-2.23-.63,4.52,4.52,0,0,1-1.59-1.74,5.18,5.18,0,0,1-.57-2.43,5.08,5.08,0,0,1,.59-2.46,4.51,4.51,0,0,1,1.61-1.74,4.19,4.19,0,0,1,2.24-.63,4,4,0,0,1,1.88.45A3.67,3.67,0,0,1,154,6.23V4.72h1.51Zm-1.81-2.89a3.89,3.89,0,0,0,.39-1.76,3.92,3.92,0,0,0-.39-1.76,3.25,3.25,0,0,0-1.11-1.24A3,3,0,0,0,151,5.89a3,3,0,0,0-2.77,1.69,4.16,4.16,0,0,0-.38,1.79,4,4,0,0,0,.38,1.77A3,3,0,0,0,151,12.83a3,3,0,0,0,1.61-.46A3.24,3.24,0,0,0,153.69,11.11Z"/><path d="M157.86,10.48V4.72h1.53v5.39c0,1.81.81,2.72,2.42,2.72s2.41-.91,2.41-2.72V4.72h1.53v5.76a3.68,3.68,0,0,1-1,2.7,4.92,4.92,0,0,1-5.92,0A3.65,3.65,0,0,1,157.86,10.48Z"/><path d="M167.39,12.7l1.08-.94a3.71,3.71,0,0,0,1.09.81,3.31,3.31,0,0,0,1.37.26,2.79,2.79,0,0,0,1.58-.38,1.23,1.23,0,0,0,.55-1,1.1,1.1,0,0,0-.48-1,6.28,6.28,0,0,0-1.65-.67l-.36-.1a12.62,12.62,0,0,1-1.48-.54A3,3,0,0,1,168,8.31,2,2,0,0,1,167.58,7a2.12,2.12,0,0,1,.84-1.76,3.81,3.81,0,0,1,2.4-.66,5.43,5.43,0,0,1,2,.34,4.45,4.45,0,0,1,1.45.85l-1,1a3.49,3.49,0,0,0-1-.62,3.61,3.61,0,0,0-1.43-.27,2.1,2.1,0,0,0-1.29.33.94.94,0,0,0-.44.77.87.87,0,0,0,.45.78,6.73,6.73,0,0,0,1.39.55l.4.13a11.83,11.83,0,0,1,1.77.68,2.79,2.79,0,0,1,1.07.86,2.18,2.18,0,0,1,.4,1.36,2.42,2.42,0,0,1-1.06,2.11,5.28,5.28,0,0,1-4.66.31A5.24,5.24,0,0,1,167.39,12.7Z"/><path d="M175.86,12.7l1.08-.94a3.71,3.71,0,0,0,1.09.81,3.31,3.31,0,0,0,1.37.26,2.79,2.79,0,0,0,1.58-.38,1.23,1.23,0,0,0,.55-1,1.1,1.1,0,0,0-.48-1,6.28,6.28,0,0,0-1.65-.67l-.36-.1a12.62,12.62,0,0,1-1.48-.54,3,3,0,0,1-1.06-.81A2,2,0,0,1,176.05,7a2.12,2.12,0,0,1,.84-1.76,3.81,3.81,0,0,1,2.4-.66,5.43,5.43,0,0,1,2,.34,4.45,4.45,0,0,1,1.45.85l-1,1a3.49,3.49,0,0,0-1-.62,3.61,3.61,0,0,0-1.43-.27,2.1,2.1,0,0,0-1.29.33.94.94,0,0,0-.44.77.87.87,0,0,0,.45.78,6.73,6.73,0,0,0,1.39.55l.4.13a11.83,11.83,0,0,1,1.77.68,2.79,2.79,0,0,1,1.07.86,2.18,2.18,0,0,1,.4,1.36A2.42,2.42,0,0,1,182,13.46a5.28,5.28,0,0,1-4.66.31A5.24,5.24,0,0,1,175.86,12.7Z"/><path d="M188,14.17c-1.67,0-2.5-.94-2.5-2.84V6H184l.09-1.32h1.37V2.47H187V4.72h2.14V6H187v5.27a2.11,2.11,0,0,0,.26,1.23,1.11,1.11,0,0,0,.89.32,4.79,4.79,0,0,0,1.16-.13l.09,1.27A5.88,5.88,0,0,1,188,14.17Z"/><path d="M199.51,14h-1.36l-.09-1.59a3.71,3.71,0,0,1-1.44,1.31,4.28,4.28,0,0,1-1.93.45,4.11,4.11,0,0,1-2.23-.63,4.52,4.52,0,0,1-1.59-1.74,5.18,5.18,0,0,1-.57-2.43,5.08,5.08,0,0,1,.59-2.46,4.51,4.51,0,0,1,1.61-1.74,4.19,4.19,0,0,1,2.24-.63,4,4,0,0,1,1.89.45A3.8,3.8,0,0,1,198,6.23V4.72h1.51Zm-1.81-2.89a3.89,3.89,0,0,0,.39-1.76,3.92,3.92,0,0,0-.39-1.76,3.25,3.25,0,0,0-1.11-1.24A3,3,0,0,0,195,5.89a3,3,0,0,0-2.77,1.69,4.16,4.16,0,0,0-.38,1.79,4,4,0,0,0,.38,1.77A3,3,0,0,0,195,12.83a3,3,0,0,0,1.61-.46A3.24,3.24,0,0,0,197.7,11.11Z"/><path d="M204.89,14.17c-1.67,0-2.5-.94-2.5-2.84V6h-1.46L201,4.72h1.37V2.47h1.53V4.72h2.14V6h-2.14v5.27a2,2,0,0,0,.26,1.23,1.09,1.09,0,0,0,.89.32,4.71,4.71,0,0,0,1.15-.13l.09,1.27A5.8,5.8,0,0,1,204.89,14.17Z"/><path d="M211.24,14.17c-1.67,0-2.5-.94-2.5-2.84V6h-1.46l.09-1.32h1.37V2.47h1.53V4.72h2.14V6h-2.14v5.27a2,2,0,0,0,.26,1.23,1.09,1.09,0,0,0,.89.32,4.71,4.71,0,0,0,1.15-.13l.09,1.27A5.8,5.8,0,0,1,211.24,14.17Z"/><path d="M214.07,10.48V4.72h1.53v5.39c0,1.81.81,2.72,2.42,2.72s2.41-.91,2.41-2.72V4.72H222v5.76a3.68,3.68,0,0,1-1,2.7,4.94,4.94,0,0,1-5.93,0A3.68,3.68,0,0,1,214.07,10.48Z"/><path d="M232.33,8.09V14H230.8V8.45a3,3,0,0,0-.55-2,2.17,2.17,0,0,0-1.74-.63,2.31,2.31,0,0,0-1.52.49,2.86,2.86,0,0,0-.87,1.24A4.24,4.24,0,0,0,225.85,9v5h-1.53V4.72h1.39l.12,1.62A3.4,3.4,0,0,1,227.12,5a3.63,3.63,0,0,1,1.81-.46,3.22,3.22,0,0,1,2.53,1A3.7,3.7,0,0,1,232.33,8.09Z"/><path d="M243.44,13a4.69,4.69,0,0,1-1.23,3.44,4.63,4.63,0,0,1-3.47,1.26,6.24,6.24,0,0,1-2.19-.37,4.87,4.87,0,0,1-1.64-1l.92-1a4,4,0,0,0,2.86,1.06,3.06,3.06,0,0,0,2.42-.89,3.67,3.67,0,0,0,.8-2.53v-.4a3.69,3.69,0,0,1-1.38,1.19,3.9,3.9,0,0,1-1.84.43,4.19,4.19,0,0,1-2.25-.62,4.33,4.33,0,0,1-1.62-1.72,5.14,5.14,0,0,1-.6-2.48,5,5,0,0,1,.62-2.48,4.43,4.43,0,0,1,1.63-1.72,4.38,4.38,0,0,1,2.24-.61,3.88,3.88,0,0,1,1.88.47A3.66,3.66,0,0,1,242,6.31l.09-1.59h1.38Zm-1.83-1.88A3.89,3.89,0,0,0,242,9.35a4,4,0,0,0-.39-1.77,3.12,3.12,0,0,0-1.12-1.24,3,3,0,0,0-1.64-.45,3,3,0,0,0-1.62.45,3.06,3.06,0,0,0-1.09,1.24,4,4,0,0,0-.39,1.79,4,4,0,0,0,.4,1.78,3,3,0,0,0,2.7,1.68,3,3,0,0,0,1.64-.46A3.18,3.18,0,0,0,241.61,11.11Z"/><path d="M245.65,13a1.2,1.2,0,0,1,1.21-1.21,1.21,1.21,0,1,1,0,2.41,1.2,1.2,0,0,1-1.21-1.2Z"/><path d="M265.16,3.67A7.12,7.12,0,0,1,266,7.15a7.08,7.08,0,0,1-.85,3.47,6.28,6.28,0,0,1-2.46,2.47A7.53,7.53,0,0,1,259,14h-4.88V.31H259a7.53,7.53,0,0,1,3.74.9A6.19,6.19,0,0,1,265.16,3.67Zm-2.22,6a5.25,5.25,0,0,0,.59-2.53,5.28,5.28,0,0,0-.59-2.53,4.18,4.18,0,0,0-1.67-1.69,5.25,5.25,0,0,0-2.57-.6h-2.21V12h2.21a5.25,5.25,0,0,0,2.57-.6A4.2,4.2,0,0,0,262.94,9.68Z"/><path d="M269.65,11.31,268.83,14h-2.51L271,.31h2.72L278.4,14h-2.52l-.82-2.69Zm2.7-8.71-2.1,6.84h4.23Z"/><path d="M283.66,2.33V14h-2.43V2.33h-3.84v-2h10.1v2Z"/><path d="M293.38,8.29v1.85h-5.8V8.29Z"/><path d="M305.93,14h-2.4V7.91H298.2V14h-2.41V.31h2.41V5.89h5.33V.31h2.4Z"/><path d="M308,1.66a1.47,1.47,0,0,1,.43-1,1.47,1.47,0,0,1,2.09,0A1.44,1.44,0,0,1,311,1.66a1.44,1.44,0,0,1-.44,1.05,1.43,1.43,0,0,1-1,.43A1.47,1.47,0,0,1,308,1.66Zm2.67,3V14h-2.34V4.69Z"/><path d="M321.75,8.18V14h-2.34V8.67a2.9,2.9,0,0,0-.45-1.8,1.75,1.75,0,0,0-1.44-.56,1.85,1.85,0,0,0-1.66.83,3.52,3.52,0,0,0-.54,1.94V14H313V4.69h2.11l.21,1.54a3.47,3.47,0,0,1,1.29-1.29,3.63,3.63,0,0,1,1.81-.45,3.08,3.08,0,0,1,2.5,1A4,4,0,0,1,321.75,8.18Z"/><path d="M334.21,14h-2.38L330,7.5,328.07,14h-2.4l-2.91-9.31h2.43l1.82,7,1.94-7h2l1.94,7,1.82-7h2.43Z"/><path d="M340.16,10.05a2.54,2.54,0,0,0,.86,1.81,3,3,0,0,0,2,.6,3.62,3.62,0,0,0,1.54-.31,3.06,3.06,0,0,0,1.07-.78L347,12.55a4.81,4.81,0,0,1-1.8,1.23,6.2,6.2,0,0,1-2.36.43,5.61,5.61,0,0,1-2.68-.6,4.18,4.18,0,0,1-1.72-1.69,5.33,5.33,0,0,1-.59-2.55,5.32,5.32,0,0,1,.58-2.54,4.14,4.14,0,0,1,1.65-1.72,5.66,5.66,0,0,1,5.15,0,4,4,0,0,1,1.63,1.73,5.57,5.57,0,0,1,.55,2.53c0,.32,0,.55,0,.68Zm0-1.46h4.9a2.78,2.78,0,0,0-.76-1.74,2.27,2.27,0,0,0-1.66-.62,2.4,2.4,0,0,0-1.7.62A2.65,2.65,0,0,0,340.18,8.59Z"/><path d="M348.88,1.66a1.43,1.43,0,0,1,.43-1,1.4,1.4,0,0,1,1.05-.44,1.42,1.42,0,0,1,1,.43,1.43,1.43,0,0,1,.43,1.06,1.43,1.43,0,0,1-.43,1.05,1.48,1.48,0,0,1-2.09,0A1.43,1.43,0,0,1,348.88,1.66Zm2.66,3V14H349.2V4.69Z"/><path d="M354.57,11.47a3.56,3.56,0,0,0,1.05.74,3,3,0,0,0,1.22.24,2.22,2.22,0,0,0,1.22-.28.92.92,0,0,0,.42-.8.8.8,0,0,0-.35-.71,4.64,4.64,0,0,0-1.24-.52l-.61-.2a6.38,6.38,0,0,1-2.11-1,2.13,2.13,0,0,1-.81-1.8,2.34,2.34,0,0,1,.91-1.91,4.13,4.13,0,0,1,2.64-.73,6.63,6.63,0,0,1,2.11.32,5.09,5.09,0,0,1,1.58.87l-1.3,1.38a3.39,3.39,0,0,0-2.23-.83,1.76,1.76,0,0,0-1,.25.7.7,0,0,0-.35.58.68.68,0,0,0,.35.6,5.17,5.17,0,0,0,1,.45l.61.2a10.88,10.88,0,0,1,1.76.72,2.78,2.78,0,0,1,1,.9,2.57,2.57,0,0,1,.35,1.38,2.49,2.49,0,0,1-1.08,2.13,4.79,4.79,0,0,1-2.83.77,5,5,0,0,1-3.76-1.49Z"/><path d="M252.92,16.25v-.91H361.35v.91Z"/></svg>