<svg id="Layer_1" data-name="Layer 1" xmlns="http://www.w3.org/2000/svg" viewBox="0 0 330.96 81.99"><title>cta</title><path d="M317.48,5a8,8,0,0,1,8,8V69a8,8,0,0,1-8,8h-304a8,8,0,0,1-8-8V13a8,8,0,0,1,8-8h304m0-4h-304a12,12,0,0,0-12,12V69a12,12,0,0,0,12,12h304a12,12,0,0,0,12-12V13a12,12,0,0,0-12-12Z"/><path d="M82.54,37.72,78,51.63H75.57L71,37.77,69.94,51.63H65.13L67,30.35H72.3l4.48,14.14,4.48-14.14h5.26l1.9,21.28H83.64Z"/><path d="M95.31,45.61a3.35,3.35,0,0,0,1.18,2.33,4.1,4.1,0,0,0,2.63.78,5.59,5.59,0,0,0,2.34-.47,5.43,5.43,0,0,0,1.64-1.12l2.57,2.29a8.65,8.65,0,0,1-3,1.92,10.88,10.88,0,0,1-3.87.66,9.72,9.72,0,0,1-4.48-1,6.64,6.64,0,0,1-2.82-2.68,8.77,8.77,0,0,1,0-7.92,6.7,6.7,0,0,1,2.73-2.7,8.84,8.84,0,0,1,4.32-1,8.55,8.55,0,0,1,4.18.95,6.44,6.44,0,0,1,2.68,2.69,8.56,8.56,0,0,1,.92,4.06q0,.42-.06,1.14Zm0-2.49h6.3a3.69,3.69,0,0,0-1-2.28,2.89,2.89,0,0,0-2.12-.8,3,3,0,0,0-2.18.81A3.77,3.77,0,0,0,95.31,43.12Z"/><path d="M123.62,42.73v8.9H118.8v-8a4.29,4.29,0,0,0-.56-2.51,2.1,2.1,0,0,0-1.82-.77,2.26,2.26,0,0,0-2.08,1.06,4.8,4.8,0,0,0-.66,2.58v7.61h-4.82V30.35h4.82v9a5.33,5.33,0,0,1,2-1.92,5.86,5.86,0,0,1,2.79-.65,4.63,4.63,0,0,1,3.86,1.61A6.75,6.75,0,0,1,123.62,42.73Z"/><path d="M136.42,41.27a11.65,11.65,0,0,0-1.82-.22,2.85,2.85,0,0,0-2.45,1.11,5,5,0,0,0-.83,3v6.44H126.5V37.13h4.23l.56,2.72a5.76,5.76,0,0,1,1.79-2.3,4.1,4.1,0,0,1,2.44-.78,3.62,3.62,0,0,1,1.2.14Z"/><path d="M149,45.61a3.38,3.38,0,0,0,1.17,2.33,4.13,4.13,0,0,0,2.64.78,5.57,5.57,0,0,0,2.33-.47,5.43,5.43,0,0,0,1.64-1.12l2.58,2.29a8.65,8.65,0,0,1-3,1.92,10.93,10.93,0,0,1-3.88.66,9.75,9.75,0,0,1-4.48-1,6.62,6.62,0,0,1-2.81-2.68,8.69,8.69,0,0,1,0-7.92,6.58,6.58,0,0,1,2.73-2.7,8.77,8.77,0,0,1,4.31-1,8.59,8.59,0,0,1,4.19.95A6.41,6.41,0,0,1,159,40.41a8.45,8.45,0,0,1,.93,4.06q0,.42-.06,1.14Zm0-2.49h6.3a3.7,3.7,0,0,0-1-2.28,2.87,2.87,0,0,0-2.11-.8,3,3,0,0,0-2.19.81A3.76,3.76,0,0,0,149,43.12Z"/><path d="M172.42,41.27a11.52,11.52,0,0,0-1.82-.22,2.86,2.86,0,0,0-2.45,1.11,5,5,0,0,0-.82,3v6.44h-4.82V37.13h4.23l.56,2.72a5.67,5.67,0,0,1,1.79-2.3,4.1,4.1,0,0,1,2.44-.78,3.62,3.62,0,0,1,1.2.14Z"/><path d="M180.21,36v1.18h3.52v3.72h-3.52V51.63h-4.76V40.85h-2.13l.31-3.72h1.82V35.65a6.05,6.05,0,0,1,1.31-4.29,5.37,5.37,0,0,1,4-1.37,13.11,13.11,0,0,1,2.19.2,8.47,8.47,0,0,1,1.62.39l-.22,3.25a6.9,6.9,0,0,0-2.13-.31,2,2,0,0,0-1.58.54A3,3,0,0,0,180.21,36Z"/><path d="M201,51.63H196.5l-.33-2.38a5.72,5.72,0,0,1-1.95,2,5.34,5.34,0,0,1-2.9.76,6.26,6.26,0,0,1-3.3-.91,6.45,6.45,0,0,1-2.4-2.63,8.89,8.89,0,0,1-.88-4.05,9,9,0,0,1,.86-4,6.51,6.51,0,0,1,2.33-2.7,6,6,0,0,1,3.31-.95,5.41,5.41,0,0,1,2.91.78,5.8,5.8,0,0,1,2,2V37.13H201Zm-4.67-7.25a4.17,4.17,0,0,0-.92-2.77A3,3,0,0,0,193,40.52a3,3,0,0,0-2.43,1.08,4.72,4.72,0,0,0,0,5.57A3,3,0,0,0,193,48.25a3,3,0,0,0,2.38-1.1A4.15,4.15,0,0,0,196.28,44.38Z"/><path d="M218.76,42.73v8.9H214v-8a4.37,4.37,0,0,0-.56-2.51,2.11,2.11,0,0,0-1.82-.77,2.28,2.28,0,0,0-2.09,1.06,4.8,4.8,0,0,0-.66,2.58v7.61H204V30.35h4.81v9a5.35,5.35,0,0,1,2-1.92,5.85,5.85,0,0,1,2.78-.65,4.61,4.61,0,0,1,3.86,1.61A6.75,6.75,0,0,1,218.76,42.73Z"/><path d="M231.56,41.27a11.65,11.65,0,0,0-1.82-.22,2.86,2.86,0,0,0-2.45,1.11,5,5,0,0,0-.83,3v6.44h-4.81V37.13h4.22l.56,2.72a5.69,5.69,0,0,1,1.8-2.3,4.07,4.07,0,0,1,2.43-.78,3.69,3.69,0,0,1,1.21.14Z"/><path d="M237.58,45.61a3.38,3.38,0,0,0,1.17,2.33,4.13,4.13,0,0,0,2.64.78,5.57,5.57,0,0,0,2.33-.47,5.31,5.31,0,0,0,1.64-1.12l2.58,2.29a8.65,8.65,0,0,1-3,1.92A10.93,10.93,0,0,1,241,52a9.78,9.78,0,0,1-4.48-1,6.62,6.62,0,0,1-2.81-2.68,8,8,0,0,1-1-4,8.15,8.15,0,0,1,.94-3.93,6.7,6.7,0,0,1,2.73-2.7,8.8,8.8,0,0,1,4.31-1,8.59,8.59,0,0,1,4.19.95,6.36,6.36,0,0,1,2.67,2.69,8.45,8.45,0,0,1,.93,4.06q0,.42-.06,1.14Zm0-2.49h6.3a3.64,3.64,0,0,0-1-2.28,2.85,2.85,0,0,0-2.11-.8,3,3,0,0,0-2.18.81A3.71,3.71,0,0,0,237.58,43.12Z"/><path d="M265.83,42.73v8.9H261v-8a4.29,4.29,0,0,0-.56-2.51,2.1,2.1,0,0,0-1.82-.77,2.25,2.25,0,0,0-2.07,1,4.85,4.85,0,0,0-.64,2.59v7.61H251.1V37.13h4.31l.48,2.24a5.41,5.41,0,0,1,2-1.93,5.71,5.71,0,0,1,2.8-.67,4.6,4.6,0,0,1,3.85,1.61A6.8,6.8,0,0,1,265.83,42.73Z"/></svg>