<svg id="Layer_1" data-name="Layer 1" xmlns="http://www.w3.org/2000/svg" viewBox="0 0 46.88 47"><defs><style>.cls-1{fill:#020203;fill-rule:evenodd;opacity:0.24;}.cls-2{fill:#fff;}</style></defs><title>ico-back</title><path class="cls-1" d="M23.44,0A23.5,23.5,0,1,1,0,23.5,23.47,23.47,0,0,1,23.44,0Z"/><path class="cls-2" d="M11.15,35.11a1.85,1.85,0,0,1-1.3-.9,1.69,1.69,0,0,1,1.36-2.49H28.14a6.15,6.15,0,0,0,5.54-3.09,6.22,6.22,0,0,0-5.36-9.36H15.48a.88.88,0,0,0,.17.2c.4.42.83.82,1.22,1.26A1.68,1.68,0,0,1,15,23.37a2.51,2.51,0,0,1-.74-.51L9.17,17.8a2.11,2.11,0,0,0-.23-.19v-.06c1.61-1.61,3.23-3.21,4.83-4.83a2.53,2.53,0,0,1,1.34-.83h.4a2.08,2.08,0,0,1,1,.55,1.69,1.69,0,0,1-.08,2.39c-.32.33-.66.64-1,.95l0,.08h.3c4.09,0,8.19,0,12.28,0a11.37,11.37,0,0,1,2.33.24,9.55,9.55,0,0,1,7.11,6.7c.19.69.27,1.4.4,2.11v1.13c0,.07,0,.14,0,.22a14.3,14.3,0,0,1-.41,2.07A9.43,9.43,0,0,1,29.88,35c-.41.07-.82.1-1.23.15Z"/></svg>