<svg id="Layer_1" data-name="Layer 1" xmlns="http://www.w3.org/2000/svg" viewBox="0 0 98.23 77.96"><title>logo</title><path d="M4.58,69.18c-1.1-.09-1.29-.47-1.29-1.13s.33-1,1.16-1h16.4V64.5H4c-2.41,0-4,.93-4,3.6s1.23,3.6,4,3.83L17.27,73c1,.09,1.3.44,1.3,1.17s-.31,1.13-1.21,1.13H.66V78h17c2.93,0,4.21-1.16,4.21-3.93,0-2.52-1.17-3.51-4-3.75ZM30,72.78c0,1.88.38,2.56,2.46,2.56H47.36V78H31.67c-3.56,0-5.22-1.6-5.22-4.62V64.5H47.36v2.63H30v2.64H46.66v2.58H30ZM77.92,64.5v2.63h8.36V78h3.57V67.13h8.38V64.5Zm-19.85,0c-3.56,0-5.2,1.9-5.2,4.93V78h3.57V74H70V78h3.57V64.5ZM70,67.13v4.26H56.44V70.21c0-1.85.29-3.08,2.47-3.08Z"/><polygon points="77.92 64.5 77.92 67.13 86.28 67.13 86.28 77.96 89.85 77.96 89.85 67.13 98.23 67.13 98.23 64.5 77.92 64.5"/><path d="M20.52,18.54c.05-1.84.16-6.34.25-9,.12-3.39.83-5.46,2.23-6.7C24.94,1.13,27.19.72,32.58.43A319.54,319.54,0,0,1,73.66,1a4.93,4.93,0,0,1,2.61.65c.7.48.79,1,1,3.85.11,1.61.32,5.92.44,8.29-5.49-.28-14.81-.76-22.92-.84s-15.42.05-16.29.16a3.85,3.85,0,0,0-2.82,1.42l42.11,7.8v6.15Z"/><path d="M20.46,21.54,77.72,32.2c0,1.55-.17,6.49-.26,9.32-.12,3.4-.83,5.46-2.23,6.71-1.94,1.71-4.19,2.12-9.58,2.42a323.22,323.22,0,0,1-41.08-.53A5,5,0,0,1,22,49.46c-.7-.48-.79-1-1-3.84-.12-1.89-.4-7.47-.49-9.32,7.39.5,18.73.87,28,.87,2.32,0,8.36.07,10,.07a4.39,4.39,0,0,0,3.8-1.68L20.46,28.44Z"/></svg>