<svg id="Layer_1" data-name="Layer 1" xmlns="http://www.w3.org/2000/svg" viewBox="0 0 385.05 52.92"><defs><style>.cls-1{fill:#fff;}</style></defs><title>Logo</title><path class="cls-1" d="M122.4,26.47c0-6,0-11.91,0-17.87,0-1,.3-1.16,1.18-1.14q3.5.09,7,0c.79,0,.94.24.94,1,0,4.2,0,8.39,0,12.59,0,.79.2,1,1,1q7.21-.06,14.42,0c.89,0,1-.3,1-1.1,0-4.13,0-8.26,0-12.39,0-.93.27-1.11,1.13-1.09,2.33.06,4.67,0,7,0,.67,0,.93.1.93.86q0,18.17,0,36.35c0,.7-.17.92-.89.91-2.4,0-4.81-.05-7.21,0-.78,0-1-.22-1-1,0-4.47,0-8.93,0-13.4,0-.82-.24-1-1-1q-7.21.05-14.42,0c-.78,0-1,.16-1,1,0,4.47,0,8.93,0,13.4,0,.74-.15,1-.94,1q-3.55-.08-7.11,0c-.83,0-1.08-.19-1.07-1C122.42,38.52,122.4,32.5,122.4,26.47Z"/><path class="cls-1" d="M204.42,26.49c0-6,0-12,0-18.07,0-.75.17-1,.94-1q3.6.08,7.21,0c.8,0,.93.26.93,1,0,9.24,0,18.47,0,27.71,0,.88.17,1.19,1.14,1.18,4.3-.06,8.59,0,12.89,0,1.76,0,2.39-.61,2.39-2.37q0-13.2,0-26.39c0-.82.17-1.1,1-1.08,2.4.06,4.8,0,7.21,0,.65,0,.85.16.85.84,0,9.85,0,19.69,0,29.54,0,4.57-2.62,7.34-7.17,7.67-1.58.12-3.18.06-4.77.06-7.17,0-14.35,0-21.52,0-.83,0-1.08-.18-1.07-1C204.43,38.53,204.42,32.51,204.42,26.49Z"/><path class="cls-1" d="M247.29,26.45c0-6,0-12,0-18,0-.79.19-1,1-1,8.53,0,17.06,0,25.59,0,4,0,6.7,1.87,7.63,5.23a9.35,9.35,0,0,1,.32,2.51q0,14.72,0,29.44c0,.69-.16.92-.89.91-2.4,0-4.81-.05-7.21,0-.78,0-1-.22-1-1q0-13,0-26.09c0-2.27-.49-2.77-2.72-2.77-4.26,0-8.53,0-12.79,0-.78,0-.93.22-.93,1,0,9.27,0,18.55,0,27.82,0,.83-.2,1.09-1.06,1.07-2.37-.06-4.74-.05-7.11,0-.78,0-.95-.22-.95-1C247.3,38.56,247.29,32.51,247.29,26.45Z"/><path class="cls-1" d="M160.5,7.49c3.52,0,6.86,0,10.2,0,.59,0,.72.42.94.78l8.9,14.17c.42-.13.51-.53.69-.82Q185.43,15,189.58,8.3A1.46,1.46,0,0,1,191,7.47c3.18,0,6.36,0,9.58,0,.06.47-.28.75-.47,1.07q-7.21,11.51-14.45,23a3.15,3.15,0,0,0-.53,1.79c0,3.79,0,7.58,0,11.37,0,.63-.12.88-.82.87q-3.65-.07-7.31,0c-.71,0-.91-.19-.91-.91,0-3.79,0-7.58,0-11.37a3,3,0,0,0-.5-1.7Q168.46,20.2,161.3,8.78Z"/><path class="cls-1" d="M385,26.56c0,6,0,12,0,18,0,.83-.19,1.1-1.05,1.08-2.4-.06-4.8,0-7.2,0-.61,0-.81-.14-.81-.78q0-18.26,0-36.53c0-.72.27-.81.88-.8,2.43,0,4.87,0,7.3,0,.75,0,.88.25.88.93C385,14.45,385,20.5,385,26.56Z"/><path class="cls-1" d="M103.35,25.32c-.38-4.26-2.48-7.67-5.38-10.63-4.22-4.31-9.41-7.1-15-9.26C72.94,1.53,62.44.09,51.32,0c-2.92.07-6.23.19-9.53.52A79,79,0,0,0,19.31,5.88C13.6,8.23,8.33,11.26,4.23,16c-5.42,6.3-5.65,13.73-.58,20.27a33.08,33.08,0,0,0,11.87,9.14c10,4.94,20.69,7,31.72,7.48a96.09,96.09,0,0,0,17.62-.76,73.22,73.22,0,0,0,23-6.71C92.56,43.12,96.82,40.22,100,36A15.08,15.08,0,0,0,103.35,25.32Zm-87,13.28c-.93,2.13-1.23,2.21-3.2.94a22.28,22.28,0,0,1-7-6.75c-2.84-4.55-2.52-9.47.93-13.85A30,30,0,0,1,18.3,10.54,65.49,65.49,0,0,1,32.77,6.09c.33-.07.67-.08,1-.12s.88-.12,1.07.36-.2.89-.5,1.25A98.88,98.88,0,0,0,24,23.05C21.18,28.1,18.69,33.3,16.38,38.6Zm46.44-3.23a24.58,24.58,0,0,1-4.34,10.26,7.86,7.86,0,0,1-6.88,3.2h-4a94.34,94.34,0,0,1-21.07-3.41c-.75-.22-1.8-.25-2-1.17s.81-1.33,1.43-1.8A59.52,59.52,0,0,1,39.64,35a87.34,87.34,0,0,1,14.47-4.83,15.63,15.63,0,0,1,4-.36C61.63,29.93,63.41,31.93,62.82,35.36ZM61,19.2A71.35,71.35,0,0,1,48.76,23a10.55,10.55,0,0,1-5.22-.09,3.8,3.8,0,0,1-2.84-3.55,9.55,9.55,0,0,1,.51-3.89A36.93,36.93,0,0,1,44,9c1.8-3.23,4.47-5,8.27-4.76.91,0,1.83,0,2.74,0A90.2,90.2,0,0,1,77.18,7.65c.69.21,1.62.24,1.79,1.1s-.69,1.24-1.26,1.68A65.57,65.57,0,0,1,61,19.2ZM95.78,34.8C92.46,38.62,88.18,41,83.61,43a65.87,65.87,0,0,1-13.15,4c-.61.12-1.4.4-1.81-.18s.27-1.16.65-1.63C76,36.94,81,27.66,85.41,18.07c.69-1.5,1.33-3,2-4.52.44-.93,1-1.12,1.89-.59a22.65,22.65,0,0,1,8.18,7.71,11.87,11.87,0,0,1,1.67,5.88A12.8,12.8,0,0,1,95.78,34.8Z"/><path class="cls-1" d="M367.2,26.53q0-9,0-18.07c0-.59,0-1-.82-1-8.66,0-17.33,0-26,0-4.77,0-7.64,2.9-7.67,7.68,0,9.85,0,19.69,0,29.54,0,.77.29.87.94.86,2.37,0,4.74-.06,7.11,0,.85,0,1-.28,1-1,0-3.28,0-6.56,0-9.85,0-.68.12-.93.87-.92q7.36.05,14.72,0c.72,0,.89.2.88.9,0,3.35,0,6.7,0,10,0,.68.19.86.85.84,2.37,0,4.74-.05,7.11,0,.87,0,1.15-.17,1.14-1.1C367.18,38.5,367.2,32.51,367.2,26.53Zm-9.87-1c-2.47,0-4.94,0-7.41,0s-4.87,0-7.31,0c-.67,0-.94-.11-.92-.86.05-2.23,0-4.47,0-6.7A2,2,0,0,1,344,15.77c4.47,0,8.93,0,13.4,0,.71,0,.82.24.81.86,0,2.71,0,5.41,0,8.12C358.17,25.39,358,25.57,357.33,25.56Z"/><path class="cls-1" d="M324.66,14.72a7.63,7.63,0,0,0-.54-2.77c-1.12-2.89-3.67-4.46-7.38-4.46-8.53,0-17.05,0-25.58,0-.82,0-1,.24-1,1,0,6,0,12,0,18.07s0,12,0,18c0,.83.2,1.08,1.06,1.07,8.42,0,16.85,0,25.27,0,.51,0,1,0,1.52-.09,4-.4,6.59-3.1,6.63-7.11C324.71,30.49,324.66,22.61,324.66,14.72Zm-9,20.2c0,1.7-.7,2.38-2.42,2.38-4.4,0-8.79,0-13.19,0-.65,0-.85-.15-.85-.83,0-3.35,0-6.69,0-10s0-6.49,0-9.74c0-.7.09-1,.91-1,4.39,0,8.79,0,13.19,0,1.68,0,2.35.65,2.35,2.32Q315.69,26.5,315.67,34.92Z"/></svg>