<?xml version="1.0" encoding="utf-8"?>
<!-- Generator: Adobe Illustrator 24.0.1, SVG Export Plug-In . SVG Version: 6.00 Build 0)  -->
<svg version="1.1" id="Isolationsmodus" xmlns="http://www.w3.org/2000/svg" xmlns:xlink="http://www.w3.org/1999/xlink" x="0px"
	 y="0px" viewBox="0 0 757 414" style="enable-background:new 0 0 757 414;" xml:space="preserve">
<style type="text/css">
	.st0{fill:#FFFFFF;}
</style>
<g>
</g>
<g>
</g>
<g>
	<path class="st0" d="M146.74,107.96h3.73v24.26h14.2v3.33h-17.93V107.96z"/>
	<path class="st0" d="M166.25,125.41c0-6.29,4.14-10.63,10.02-10.63c5.84,0,9.74,4.34,9.74,9.98c0,0.57-0.08,1.34-0.16,1.91h-15.9
		c0.45,3.69,2.84,6.08,6.77,6.08c2.72,0,5.19-1.46,6.61-3.57l2.23,2.31c-2.03,2.72-5.11,4.54-9.01,4.54
		C170.34,136.04,166.25,131.45,166.25,125.41z M169.98,123.62h12.33c-0.24-3.49-2.76-5.64-6.04-5.64
		C172.94,117.98,170.55,120.05,169.98,123.62z"/>
	<path class="st0" d="M205.79,132.67c-1.58,2.03-4.06,3.33-6.94,3.33c-5.72,0-9.94-4.3-9.94-10.63c0-6.29,4.22-10.59,9.94-10.59
		c2.88,0,5.35,1.3,6.94,3.33v-2.88h3.65v20.32h-3.65V132.67z M205.79,128.94v-7.06c-1.05-2.27-3.45-3.77-6.29-3.77
		c-3.81,0-6.86,2.76-6.86,7.26c0,4.54,3.04,7.3,6.86,7.3C202.34,132.67,204.74,131.17,205.79,128.94z"/>
	<path class="st0" d="M213.01,131.78l2.35-2.47c1.26,1.87,3.61,3.41,6.29,3.41c2.64,0,4.71-1.05,4.71-3.16
		c0-1.62-1.54-2.51-4.02-2.88l-1.78-0.28c-3.61-0.57-5.96-2.39-5.96-5.64c0-3.2,2.64-5.96,7.54-5.96c3.12,0,5.6,1.38,7.1,3.29
		l-2.27,2.48c-1.3-1.54-2.92-2.43-4.91-2.43c-2.51,0-3.73,1.22-3.73,2.56c0,1.38,1.14,2.07,3,2.35l1.83,0.28
		c4.42,0.65,6.94,2.72,6.94,6.17c0,3.65-3.2,6.57-8.52,6.57C217.67,136.04,214.71,134.05,213.01,131.78z"/>
	<path class="st0" d="M234.01,106.22h3.93v4.38h-3.93V106.22z M234.18,115.23h3.65v20.32h-3.65V115.23z"/>
	<path class="st0" d="M243.42,115.23h3.65v3.08c1.05-1.78,3.29-3.53,6.69-3.53c5.27,0,8.07,3.41,8.07,8.92v11.85h-3.65v-11.48
		c0-3.89-1.95-5.96-5.39-5.96c-3.04,0-5.11,1.95-5.72,4.18v13.27h-3.65V115.23z"/>
	<path class="st0" d="M266.01,124.68c0-5.88,3.81-9.9,9.49-9.9c2.88,0,5.11,1.26,6.65,3.21v-2.76h3.65v17.65
		c0,7.02-4.79,10.59-10.1,10.59c-4.46,0-7.54-1.79-9.25-4.54l2.39-2.23c1.46,2.19,3.69,3.45,6.73,3.45c3.53,0,6.57-2.23,6.57-7.02
		v-1.66c-1.54,1.95-3.81,3.16-6.65,3.16C269.83,134.62,266.01,130.6,266.01,124.68z M282.16,127.68v-5.96
		c-1.05-2.19-3.24-3.61-5.92-3.61c-3.85,0-6.49,2.68-6.49,6.57c0,3.93,2.64,6.61,6.49,6.61
		C278.91,131.29,281.1,129.87,282.16,127.68z"/>
	<path class="st0" d="M300.77,106.22h3.93v4.38h-3.93V106.22z M300.93,115.23h3.65v20.32h-3.65V115.23z"/>
	<path class="st0" d="M310.18,115.23h3.65v3.08c1.05-1.78,3.29-3.53,6.69-3.53c5.27,0,8.07,3.41,8.07,8.92v11.85h-3.65v-11.48
		c0-3.89-1.95-5.96-5.39-5.96c-3.04,0-5.11,1.95-5.72,4.18v13.27h-3.65V115.23z"/>
	<path class="st0" d="M333.99,106.75h3.65v18.09l9.49-9.61h4.3v0.16l-8.11,8.27l9.25,11.76v0.12h-4.38l-7.26-9.45l-3.29,3.37v6.08
		h-3.65V106.75z"/>
	<path class="st0" d="M355.03,106.75h3.65v28.8h-3.65V106.75z"/>
	<path class="st0" d="M363.96,130.72h4.83v4.83h-4.83V130.72z"/>
	<path class="st0" d="M381.96,107.96h3.73v14.32l13.27-14.32h4.63v0.16l-10.75,11.52l11.28,15.78v0.12h-4.5l-9.37-13.14l-4.54,4.91
		v8.24h-3.73V107.96z"/>
	<path class="st0" d="M407.68,107.96h18.25v3.33h-14.52v8.8h13.06v3.33h-13.06v12.13h-3.73V107.96z"/>
	<path class="st0" d="M428.32,129.65l15.13-18.76h-14.44v-2.93h19.35v2.57l-15.21,18.77h15.54v2.92h-20.36V129.65z"/>
	<path class="st0" d="M450.34,121.76h11.56v3h-11.56V121.76z"/>
	<path class="st0" d="M463.16,107.96h3.93l9.17,23.24l9.13-23.24h3.93l-10.95,27.58h-4.22L463.16,107.96z"/>
	<path class="st0" d="M488.91,125.41c0-6.29,4.14-10.63,10.02-10.63c5.84,0,9.74,4.34,9.74,9.98c0,0.57-0.08,1.34-0.16,1.91h-15.9
		c0.45,3.69,2.84,6.08,6.77,6.08c2.72,0,5.19-1.46,6.61-3.57l2.23,2.31c-2.03,2.72-5.11,4.54-9.01,4.54
		C493.01,136.04,488.91,131.45,488.91,125.41z M492.64,123.62h12.33c-0.24-3.49-2.76-5.64-6.04-5.64
		C495.61,117.98,493.21,120.05,492.64,123.62z"/>
	<path class="st0" d="M512.84,115.23h3.65v3.49c1.14-2.23,3.29-3.93,6.41-3.93h0.45v3.53c-3.29,0.08-5.76,1.42-6.86,4.58v12.66
		h-3.65V115.23z"/>
	<path class="st0" d="M524.28,131.78l2.35-2.47c1.26,1.87,3.61,3.41,6.29,3.41c2.64,0,4.71-1.05,4.71-3.16
		c0-1.62-1.54-2.51-4.02-2.88l-1.78-0.28c-3.61-0.57-5.96-2.39-5.96-5.64c0-3.2,2.64-5.96,7.54-5.96c3.12,0,5.6,1.38,7.1,3.29
		l-2.27,2.48c-1.3-1.54-2.92-2.43-4.91-2.43c-2.52,0-3.73,1.22-3.73,2.56c0,1.38,1.14,2.07,3,2.35l1.83,0.28
		c4.42,0.65,6.94,2.72,6.94,6.17c0,3.65-3.21,6.57-8.52,6.57C528.94,136.04,525.98,134.05,524.28,131.78z"/>
	<path class="st0" d="M545.28,106.22h3.93v4.38h-3.93V106.22z M545.44,115.23h3.65v20.32h-3.65V115.23z"/>
	<path class="st0" d="M553.43,125.37c0-5.84,4.06-10.59,10.38-10.59c4.02,0,7.14,1.95,8.96,5.15l-2.72,1.91
		c-1.22-2.27-3.41-3.73-6.13-3.73c-3.9,0-6.77,2.8-6.77,7.26c0,4.5,2.88,7.3,6.77,7.3c2.72,0,4.91-1.46,6.13-3.73l2.72,1.91
		c-1.82,3.2-4.95,5.15-8.96,5.15C557.49,136,553.43,131.25,553.43,125.37z"/>
	<path class="st0" d="M576.75,106.75h3.65v11.64c1.06-1.78,3.29-3.61,6.69-3.61c5.27,0,8.07,3.41,8.07,8.92v11.85h-3.65v-11.48
		c0-3.89-1.95-5.96-5.4-5.96c-3.45,0-5.31,2.56-5.72,4.18v13.27h-3.65V106.75z"/>
	<path class="st0" d="M599.34,125.41c0-6.29,4.14-10.63,10.02-10.63c5.84,0,9.74,4.34,9.74,9.98c0,0.57-0.08,1.34-0.16,1.91h-15.9
		c0.45,3.69,2.84,6.08,6.77,6.08c2.72,0,5.19-1.46,6.61-3.57l2.23,2.31c-2.03,2.72-5.11,4.54-9,4.54
		C603.44,136.04,599.34,131.45,599.34,125.41z M603.08,123.62h12.33c-0.24-3.49-2.76-5.64-6.04-5.64
		C606.04,117.98,603.64,120.05,603.08,123.62z"/>
	<path class="st0" d="M623.27,115.23h3.65v3.49c1.14-2.23,3.29-3.93,6.41-3.93h0.45v3.53c-3.29,0.08-5.76,1.42-6.86,4.58v12.66
		h-3.65V115.23z"/>
	<path class="st0" d="M655.4,135.55h-3.65v-3.08c-1.05,1.79-3.29,3.53-6.69,3.53c-5.27,0-8.07-3.41-8.07-8.92v-11.85h3.65v11.48
		c0,3.89,1.95,5.96,5.39,5.96c3.04,0,5.11-1.95,5.72-4.18v-13.26h3.65V135.55z"/>
	<path class="st0" d="M660.99,115.23h3.65v3.08c1.06-1.78,3.29-3.53,6.69-3.53c5.27,0,8.07,3.41,8.07,8.92v11.85h-3.65v-11.48
		c0-3.89-1.95-5.96-5.4-5.96c-3.04,0-5.11,1.95-5.72,4.18v13.27h-3.65V115.23z"/>
	<path class="st0" d="M683.58,124.68c0-5.88,3.81-9.9,9.49-9.9c2.88,0,5.11,1.26,6.65,3.21v-2.76h3.65v17.65
		c0,7.02-4.79,10.59-10.1,10.59c-4.46,0-7.54-1.79-9.25-4.54l2.39-2.23c1.46,2.19,3.69,3.45,6.73,3.45c3.53,0,6.57-2.23,6.57-7.02
		v-1.66c-1.54,1.95-3.81,3.16-6.65,3.16C687.39,134.62,683.58,130.6,683.58,124.68z M699.73,127.68v-5.96
		c-1.06-2.19-3.25-3.61-5.92-3.61c-3.85,0-6.49,2.68-6.49,6.57c0,3.93,2.64,6.61,6.49,6.61
		C696.48,131.29,698.67,129.87,699.73,127.68z"/>
	<path class="st0" d="M710.67,111.21l-3.2,1.7l-1.06-2.23l5.03-2.72h2.11v14.48h-2.88V111.21z"/>
</g>
<g>
	<g>
		<path class="st0" d="M160.36,217.89c-1.58,2.02-4.04,3.31-6.91,3.31c-5.69,0-9.9-4.28-9.9-10.58c0-6.26,4.2-10.54,9.9-10.54
			c2.87,0,5.33,1.29,6.91,3.31v-2.87h3.64v20.24h-3.64V217.89z M160.36,214.17v-7.03c-1.05-2.26-3.43-3.76-6.26-3.76
			c-3.8,0-6.83,2.75-6.83,7.23c0,4.52,3.03,7.27,6.83,7.27C156.92,217.89,159.31,216.39,160.36,214.17z"/>
		<path class="st0" d="M173.2,220.76h-3.64v-28.68h3.64v11.31c1.58-2.02,4.04-3.31,6.91-3.31c5.69,0,9.9,4.28,9.9,10.54
			c0,6.3-4.2,10.58-9.9,10.58c-2.87,0-5.33-1.29-6.91-3.31V220.76z M186.28,210.62c0-4.52-3.03-7.23-6.83-7.23
			c-2.83,0-5.21,1.54-6.26,3.84v6.87c1.05,2.26,3.43,3.8,6.26,3.8C183.25,217.89,186.28,215.18,186.28,210.62z"/>
		<path class="st0" d="M173.81,247.79c0-3.88-1.86-5.94-5.29-5.94c-2.99,0-4.93,1.94-5.57,4.16v1.01v0.4v11.79h-3.64v-11.43
			c0-3.88-1.86-5.94-5.29-5.94c-2.99,0-4.97,1.94-5.57,4.16v13.21h-3.64v-20.24h3.64v3.07c1.05-1.78,3.19-3.51,6.58-3.51
			c3.47,0,5.82,1.49,6.99,4.12c1.33-2.42,3.96-4.12,7.51-4.12c5.21,0,7.92,3.39,7.92,8.89v11.79h-3.64V247.79z"/>
		<path class="st0" d="M183.94,252.11v-10.14h-3.51v-2.99h3.6v-5.25h3.55v5.25h4.97v2.99h-4.97v10.26c0,2.99,1.33,4.04,4.32,4.04
			h0.65v2.99c-0.44,0.08-1.05,0.16-1.62,0.16C186.32,259.42,183.94,257.16,183.94,252.11z"/>
		<path class="st0" d="M196.38,230.54h3.64v28.68h-3.64V230.54z"/>
		<path class="st0" d="M205.26,254.41h4.81v4.81h-4.81V254.41z"/>
	</g>
	<g>
		<path class="st0" d="M629.96,199.5c2.62-4.58,9.81-6.49,9.81-9.87c0-1.47-0.98-2.4-2.73-2.4c-1.63,0-2.73,1.2-3.32,2.94
			l-3.82-2.24c0.76-2.45,2.94-5.4,7.25-5.4c4.96,0,7.74,3.16,7.74,6.87c0,5.72-6.38,7.41-8.39,9.37h8.72v4.47h-15.26V199.5z"/>
	</g>
	<g>
		<path class="st0" d="M408.98,182.48h54.05v12.89h-39.35v18.77h33.92v12.78h-33.92v19.56h39.35v12.89h-54.05V182.48z"/>
		<path class="st0" d="M475.25,226.58v-44.1h14.7v43.08c0,13.12,5.2,21.71,17.98,21.71c12.66,0,17.87-8.59,17.87-21.71v-43.08h14.7
			v44.1c0,19.79-10.86,34.38-32.57,34.38C486.1,260.95,475.25,246.36,475.25,226.58z"/>
		<path class="st0" d="M583.12,228.27h-12.21v31.1h-14.7v-76.89h34.15c14.81,0,25.44,8.71,25.44,22.96
			c0,11.31-6.67,19.11-16.85,21.82l24.88,31.78v0.34h-17.64L583.12,228.27z M588.78,215.5c7.8,0,11.87-3.73,11.87-10.06
			c0-6.33-4.07-10.06-11.87-10.06h-17.87v20.13H588.78z"/>
	</g>
</g>
</svg>
