<svg id="Layer_1" data-name="Layer 1" xmlns="http://www.w3.org/2000/svg" viewBox="0 0 255.7 53.62"><defs><style>.cls-1{fill:#0b2c60;}.cls-2{fill:#fff;}</style></defs><title>Screen3_button_all</title><rect class="cls-1" width="255.7" height="53.62"/><path class="cls-2" d="M25.21,37.86A6.71,6.71,0,0,1,23,37.53a7.39,7.39,0,0,1-3.21-2.14,7.64,7.64,0,0,1-1-1.44l2.06-1.62a6.41,6.41,0,0,0,1.63,2,4,4,0,0,0,2.64.86,4.24,4.24,0,0,0,3.48-1.44,6.69,6.69,0,0,0,1.18-4.32V16.68h2.75V29.54A11.27,11.27,0,0,1,32.07,33a7.41,7.41,0,0,1-1.43,2.62,6.21,6.21,0,0,1-2.32,1.67A7.91,7.91,0,0,1,25.21,37.86Z"/><path class="cls-2" d="M43.68,37.86a7.69,7.69,0,0,1-3.11-.61,7.16,7.16,0,0,1-2.41-1.68A7.39,7.39,0,0,1,36.63,33a9.17,9.17,0,0,1-.54-3.18,9.49,9.49,0,0,1,.54-3.26A7.33,7.33,0,0,1,38.15,24a6.87,6.87,0,0,1,2.34-1.64,7.48,7.48,0,0,1,3-.58,7.16,7.16,0,0,1,2.93.58A6.81,6.81,0,0,1,48.65,24a7.22,7.22,0,0,1,1.46,2.39,8.3,8.3,0,0,1,.52,3c0,.23,0,.46,0,.72a7.24,7.24,0,0,1-.09.72H38.81a5.32,5.32,0,0,0,1.52,3.35,4.78,4.78,0,0,0,3.47,1.24,5.47,5.47,0,0,0,2.81-.75,6.08,6.08,0,0,0,2.06-1.94l1.64,1.74a8.63,8.63,0,0,1-2.81,2.5A7.72,7.72,0,0,1,43.68,37.86Zm-.21-13.62a4.4,4.4,0,0,0-3.08,1.12,5.23,5.23,0,0,0-1.55,3.14h9.08a4.5,4.5,0,0,0-1.39-3.12A4.37,4.37,0,0,0,43.47,24.24Z"/><path class="cls-2" d="M59.93,37.65a5.17,5.17,0,0,1-3.87-1.33,5.84,5.84,0,0,1-1.3-4.21V24.42h-2.6V22.16h2.66v-4h2.63v4h3.67v2.26H57.45V32.2a3.08,3.08,0,0,0,.76,2.39,3.63,3.63,0,0,0,2.44.67h.48v2.26a3.66,3.66,0,0,1-.55.09Q60.26,37.65,59.93,37.65Z"/><path class="cls-2" d="M62.71,35.47l8.6-11h-8V22.16H74.78v2l-8.63,11H75v2.27H62.71Z"/><path class="cls-2" d="M84.22,37.65a5.17,5.17,0,0,1-3.87-1.33A5.84,5.84,0,0,1,79,32.11V24.42h-2.6V22.16h2.66v-4h2.63v4h3.67v2.26H81.74V32.2a3.08,3.08,0,0,0,.76,2.39,3.62,3.62,0,0,0,2.43.67h.48v2.26a3.7,3.7,0,0,1-.55.09C84.65,37.64,84.44,37.65,84.22,37.65Z"/><path class="cls-2" d="M102,37.86a7.69,7.69,0,0,1-3.11-.61,7.16,7.16,0,0,1-2.41-1.68A7.39,7.39,0,0,1,94.91,33a9.17,9.17,0,0,1-.54-3.18,9.49,9.49,0,0,1,.54-3.26A7.33,7.33,0,0,1,96.44,24a6.87,6.87,0,0,1,2.34-1.64,7.48,7.48,0,0,1,3-.58,7.16,7.16,0,0,1,2.93.58A6.81,6.81,0,0,1,106.94,24a7.22,7.22,0,0,1,1.46,2.39,8.3,8.3,0,0,1,.52,3c0,.23,0,.46,0,.72a7.24,7.24,0,0,1-.09.72H97.09a5.32,5.32,0,0,0,1.52,3.35,4.78,4.78,0,0,0,3.47,1.24,5.47,5.47,0,0,0,2.81-.75A6.08,6.08,0,0,0,107,32.69l1.64,1.74a8.63,8.63,0,0,1-2.81,2.5A7.72,7.72,0,0,1,102,37.86Zm-.21-13.62a4.4,4.4,0,0,0-3.08,1.12,5.23,5.23,0,0,0-1.55,3.14h9.08a4.5,4.5,0,0,0-1.39-3.12A4.37,4.37,0,0,0,101.75,24.24Z"/><path class="cls-2" d="M112,22.16h2.69v2.33a5.86,5.86,0,0,1,1.82-1.84,6.34,6.34,0,0,1,7.54,1,7.44,7.44,0,0,1,1.51,4.94v8.94h-2.69V28.83a4.86,4.86,0,0,0-1-3.35,3.75,3.75,0,0,0-2.94-1.15,4.42,4.42,0,0,0-2.78.95,4,4,0,0,0-.9,1,4.52,4.52,0,0,0-.54,1.21v10H112Z"/><path class="cls-2" d="M135.75,37.65a5.17,5.17,0,0,1-3.87-1.33,5.84,5.84,0,0,1-1.3-4.21V24.42H128V22.16h2.66v-4h2.63v4h3.67v2.26h-3.67V32.2a3.08,3.08,0,0,0,.76,2.39,3.63,3.63,0,0,0,2.44.67h.48v2.26a3.66,3.66,0,0,1-.55.09Q136.08,37.65,135.75,37.65Z"/><path class="cls-2" d="M151.29,35.32a6.2,6.2,0,0,1-2.18,1.84,6.33,6.33,0,0,1-2.93.67,7.3,7.3,0,0,1-2.93-.58,6.74,6.74,0,0,1-2.32-1.64,7.67,7.67,0,0,1-1.52-2.53,9.89,9.89,0,0,1,0-6.52A7.67,7.67,0,0,1,140.94,24a6.75,6.75,0,0,1,2.32-1.64,7.3,7.3,0,0,1,2.93-.58,6.32,6.32,0,0,1,2.93.67,6.21,6.21,0,0,1,2.18,1.84V15.76H154V37.49h-2.69Zm-4.63,0a5,5,0,0,0,2.81-.8,4.91,4.91,0,0,0,1.82-2.08v-5.2a4.89,4.89,0,0,0-1.82-2.11,5,5,0,0,0-2.81-.8,5.31,5.31,0,0,0-2,.37,4.5,4.5,0,0,0-1.61,1.09A5.13,5.13,0,0,0,142,27.52a6.36,6.36,0,0,0-.39,2.3,6.49,6.49,0,0,0,.39,2.31,5.11,5.11,0,0,0,1.08,1.75A4.49,4.49,0,0,0,144.69,35,5.29,5.29,0,0,0,146.66,35.32Z"/><path class="cls-2" d="M164.79,37.86a7.69,7.69,0,0,1-3.11-.61,7.16,7.16,0,0,1-2.41-1.68A7.39,7.39,0,0,1,157.74,33a9.17,9.17,0,0,1-.54-3.18,9.49,9.49,0,0,1,.54-3.26A7.33,7.33,0,0,1,159.27,24a6.87,6.87,0,0,1,2.34-1.64,7.48,7.48,0,0,1,3-.58,7.16,7.16,0,0,1,2.93.58A6.81,6.81,0,0,1,169.77,24a7.22,7.22,0,0,1,1.46,2.39,8.3,8.3,0,0,1,.52,3c0,.23,0,.46,0,.72a7.24,7.24,0,0,1-.09.72H159.92a5.32,5.32,0,0,0,1.52,3.35,4.78,4.78,0,0,0,3.47,1.24,5.47,5.47,0,0,0,2.81-.75,6.08,6.08,0,0,0,2.06-1.94l1.64,1.74a8.63,8.63,0,0,1-2.81,2.5A7.72,7.72,0,0,1,164.79,37.86Zm-.21-13.62a4.4,4.4,0,0,0-3.08,1.12A5.23,5.23,0,0,0,160,28.5H169a4.5,4.5,0,0,0-1.39-3.12A4.37,4.37,0,0,0,164.58,24.24Z"/><path class="cls-2" d="M181.55,37.83a7.69,7.69,0,0,1-3.17-.63,7.23,7.23,0,0,1-2.4-1.71,7.55,7.55,0,0,1-1.54-2.56,9,9,0,0,1-.54-3.12,8.89,8.89,0,0,1,.54-3.11A7.59,7.59,0,0,1,176,24.16a7.23,7.23,0,0,1,2.4-1.71,7.69,7.69,0,0,1,3.17-.63,7.34,7.34,0,0,1,3.91,1,7.58,7.58,0,0,1,2.69,2.86l-2,1.44a5.57,5.57,0,0,0-1.84-2.05,4.72,4.72,0,0,0-2.67-.77,5.08,5.08,0,0,0-2,.38,4.58,4.58,0,0,0-1.58,1.1,5.09,5.09,0,0,0-1,1.73,6.5,6.5,0,0,0-.37,2.27,6.58,6.58,0,0,0,.37,2.29,5.06,5.06,0,0,0,1,1.73,4.55,4.55,0,0,0,1.58,1.1,5.08,5.08,0,0,0,2,.38,4.72,4.72,0,0,0,2.67-.76,5.58,5.58,0,0,0,1.84-2.05l2,1.44a7.58,7.58,0,0,1-2.69,2.86A7.34,7.34,0,0,1,181.55,37.83Z"/><path class="cls-2" d="M191.08,15.76h2.69V29.41l7-7.25h3.17v.12l-6,6.24,6.81,8.88v.09h-3.23l-5.35-7.13-2.42,2.54v4.59h-2.69Z"/><path class="cls-2" d="M213.28,37.86a7.7,7.7,0,0,1-3.11-.61,7.15,7.15,0,0,1-2.4-1.68A7.38,7.38,0,0,1,206.23,33a9.2,9.2,0,0,1-.54-3.18,9.51,9.51,0,0,1,.54-3.26A7.33,7.33,0,0,1,207.75,24a6.87,6.87,0,0,1,2.35-1.64,7.48,7.48,0,0,1,3-.58,7.16,7.16,0,0,1,2.93.58A6.82,6.82,0,0,1,218.26,24a7.23,7.23,0,0,1,1.46,2.39,8.3,8.3,0,0,1,.52,3c0,.23,0,.46,0,.72s0,.5-.09.72H208.41a5.31,5.31,0,0,0,1.52,3.35,4.78,4.78,0,0,0,3.46,1.24,5.47,5.47,0,0,0,2.81-.75,6.06,6.06,0,0,0,2.06-1.94l1.64,1.74a8.65,8.65,0,0,1-2.81,2.5A7.72,7.72,0,0,1,213.28,37.86Zm-.21-13.62A4.39,4.39,0,0,0,210,25.36a5.22,5.22,0,0,0-1.55,3.14h9.08a4.5,4.5,0,0,0-1.39-3.12A4.37,4.37,0,0,0,213.07,24.24Z"/><path class="cls-2" d="M223.32,22.16H226v2.33a5.86,5.86,0,0,1,1.82-1.84,6.34,6.34,0,0,1,7.54,1,7.44,7.44,0,0,1,1.51,4.94v8.94h-2.69V28.83a4.86,4.86,0,0,0-1-3.35,3.75,3.75,0,0,0-2.94-1.15,4.42,4.42,0,0,0-2.78.95,4,4,0,0,0-.9,1,4.52,4.52,0,0,0-.54,1.21v10h-2.69Z"/></svg>