<?xml version="1.0" encoding="utf-8"?>
<!-- Generator: Adobe Illustrator 22.0.1, SVG Export Plug-In . SVG Version: 6.00 Build 0)  -->
<svg version="1.1" id="Layer_1" xmlns="http://www.w3.org/2000/svg" xmlns:xlink="http://www.w3.org/1999/xlink" x="0px" y="0px"
	 viewBox="0 0 186.4 23.7" style="enable-background:new 0 0 186.4 23.7;" xml:space="preserve">
<style type="text/css">
	.st0{fill:#FFFFFF;}
</style>
<title>1_name</title>
<g>
	<path class="st0" d="M3.6,11.9c0-4.7,3.6-8,8.2-8c3.4,0,5.4,1.9,6.5,3.8L15.5,9c-0.6-1.2-2-2.2-3.6-2.2C9,6.8,7,8.9,7,11.9
		c0,2.9,2,5.1,4.8,5.1c1.6,0,3-1,3.6-2.2l2.8,1.4c-1.1,1.9-3.1,3.8-6.5,3.8C7.2,19.8,3.6,16.6,3.6,11.9z"/>
	<path class="st0" d="M22.6,19.6V4.1h3.3v15.4H22.6z"/>
	<path class="st0" d="M34.8,19.6V7h-4.5V4.1h12.3V7h-4.5v12.5H34.8z"/>
	<path class="st0" d="M56.2,19.6l-0.9-2.6h-6.6l-1,2.6h-3.7l6-15.4H54l5.9,15.4H56.2z M51.9,7.4L49.5,14h4.8L51.9,7.4z"/>
	<path class="st0" d="M65.8,19.6V7h-4.5V4.1h12.3V7h-4.5v12.5H65.8z"/>
	<path class="st0" d="M78,19.6V4.1h3.3v15.4H78z"/>
	<path class="st0" d="M85.9,11.9c0-4.6,3.4-8,8-8c4.7,0,8.1,3.3,8.1,8s-3.4,8-8.1,8C89.3,19.8,85.9,16.5,85.9,11.9z M98.6,11.9
		c0-2.9-1.9-5.1-4.7-5.1s-4.7,2.2-4.7,5.1c0,2.9,1.8,5.1,4.7,5.1S98.6,14.7,98.6,11.9z"/>
	<path class="st0" d="M117.3,19.6l-7.4-10.1v10.1h-3.3V4.1h3.4l7.1,9.7V4.1h3.3v15.4H117.3z"/>
	<path class="st0" d="M133.9,11.9c0-4.5,3-8,7.5-8c4.5,0,7.5,3.5,7.5,8s-3,8-7.5,8C136.9,19.8,133.9,16.4,133.9,11.9z M147.5,11.9
		c0-3.9-2.4-6.8-6.1-6.8c-3.7,0-6.1,2.8-6.1,6.8c0,3.9,2.4,6.8,6.1,6.8C145.1,18.6,147.5,15.7,147.5,11.9z"/>
	<path class="st0" d="M165.5,19.6l-9.7-13.3v13.3h-1.3V4.1h1.3l9.7,13.1V4.1h1.3v15.4H165.5z"/>
	<path class="st0" d="M173,19.6V4.1h9.8v1.2h-8.5V11h8.3v1.2h-8.3v6.1h8.5v1.2H173z"/>
</g>
</svg>
