<?xml version="1.0" encoding="utf-8"?>
<!-- Generator: Adobe Illustrator 22.0.1, SVG Export Plug-In . SVG Version: 6.00 Build 0)  -->
<svg version="1.1" id="Layer_1" xmlns="http://www.w3.org/2000/svg" xmlns:xlink="http://www.w3.org/1999/xlink" x="0px" y="0px"
	 viewBox="0 0 186.4 23.7" style="enable-background:new 0 0 186.4 23.7;" xml:space="preserve">
<style type="text/css">
	.st0{fill:#FFFFFF;}
</style>
<title>2_name</title>
<g>
	<path class="st0" d="M9.4,11.9c0-4.7,3.6-8,8.2-8c3.4,0,5.4,1.9,6.5,3.8L21.3,9c-0.6-1.2-2-2.2-3.6-2.2c-2.8,0-4.8,2.2-4.8,5.1
		c0,2.9,2,5.1,4.8,5.1c1.6,0,3-1,3.6-2.2l2.8,1.4c-1.1,1.9-3.1,3.8-6.5,3.8C13,19.8,9.4,16.6,9.4,11.9z"/>
	<path class="st0" d="M28.4,19.6V4.1h3.3v15.4H28.4z"/>
	<path class="st0" d="M40.6,19.6V7h-4.5V4.1h12.3V7h-4.5v12.5H40.6z"/>
	<path class="st0" d="M62,19.6L61,16.9h-6.6l-1,2.6h-3.7l6-15.4h4.1l5.9,15.4H62z M57.7,7.4L55.3,14h4.8L57.7,7.4z"/>
	<path class="st0" d="M71.6,19.6V7h-4.5V4.1h12.3V7h-4.5v12.5H71.6z"/>
	<path class="st0" d="M83.8,19.6V4.1h3.3v15.4H83.8z"/>
	<path class="st0" d="M91.7,11.9c0-4.6,3.4-8,8-8c4.7,0,8.1,3.3,8.1,8s-3.4,8-8.1,8C95.1,19.8,91.7,16.5,91.7,11.9z M104.4,11.9
		c0-2.9-1.9-5.1-4.7-5.1c-2.8,0-4.7,2.2-4.7,5.1c0,2.9,1.8,5.1,4.7,5.1C102.6,16.9,104.4,14.7,104.4,11.9z"/>
	<path class="st0" d="M123.1,19.6l-7.4-10.1v10.1h-3.3V4.1h3.4l7.1,9.7V4.1h3.3v15.4H123.1z"/>
	<path class="st0" d="M142.3,19.6V5.9l-2.5,2.6L139,7.7l3.4-3.6h1.2v15.4H142.3z"/>
	<path class="st0" d="M149.2,11.9c0-3.7,1.5-8,5.7-8c4.1,0,5.7,4.3,5.7,8c0,3.7-1.6,8-5.7,8C150.7,19.8,149.2,15.5,149.2,11.9z
		 M159.2,11.9c0-3.2-1-6.8-4.3-6.8c-3.3,0-4.3,3.6-4.3,6.8c0,3.2,1.1,6.8,4.3,6.8C158.1,18.6,159.2,15,159.2,11.9z"/>
	<path class="st0" d="M165.6,11.9c0-3.7,1.5-8,5.7-8c4.1,0,5.7,4.3,5.7,8c0,3.7-1.6,8-5.7,8C167.1,19.8,165.6,15.5,165.6,11.9z
		 M175.6,11.9c0-3.2-1-6.8-4.3-6.8c-3.3,0-4.3,3.6-4.3,6.8c0,3.2,1.1,6.8,4.3,6.8C174.5,18.6,175.6,15,175.6,11.9z"/>
</g>
</svg>
