<?xml version="1.0" encoding="utf-8"?>
<!-- Generator: Adobe Illustrator 22.0.1, SVG Export Plug-In . SVG Version: 6.00 Build 0)  -->
<svg version="1.1" id="Layer_1" xmlns="http://www.w3.org/2000/svg" xmlns:xlink="http://www.w3.org/1999/xlink" x="0px" y="0px"
	 viewBox="0 0 186.4 23.7" style="enable-background:new 0 0 186.4 23.7;" xml:space="preserve">
<style type="text/css">
	.st0{fill:#FFFFFF;}
</style>
<title>3_name</title>
<g>
	<path class="st0" d="M6.7,11.9c0-4.7,3.6-8,8.2-8c3.4,0,5.4,1.9,6.5,3.8L18.6,9c-0.6-1.2-2-2.2-3.6-2.2c-2.8,0-4.8,2.2-4.8,5.1
		c0,2.9,2,5.1,4.8,5.1c1.6,0,3-1,3.6-2.2l2.8,1.4c-1.1,1.9-3.1,3.8-6.5,3.8C10.3,19.8,6.7,16.6,6.7,11.9z"/>
	<path class="st0" d="M25.7,19.6V4.1h3.3v15.4H25.7z"/>
	<path class="st0" d="M37.9,19.6V7h-4.5V4.1h12.3V7h-4.5v12.5H37.9z"/>
	<path class="st0" d="M59.3,19.6l-0.9-2.6h-6.6l-1,2.6H47l6-15.4h4.1L63,19.6H59.3z M55,7.4L52.6,14h4.8L55,7.4z"/>
	<path class="st0" d="M68.8,19.6V7h-4.5V4.1h12.3V7h-4.5v12.5H68.8z"/>
	<path class="st0" d="M81.1,19.6V4.1h3.3v15.4H81.1z"/>
	<path class="st0" d="M89,11.9c0-4.6,3.4-8,8-8c4.7,0,8.1,3.3,8.1,8s-3.4,8-8.1,8C92.4,19.8,89,16.5,89,11.9z M101.7,11.9
		c0-2.9-1.9-5.1-4.7-5.1c-2.8,0-4.7,2.2-4.7,5.1c0,2.9,1.8,5.1,4.7,5.1C99.9,16.9,101.7,14.7,101.7,11.9z"/>
	<path class="st0" d="M120.4,19.6L113,9.5v10.1h-3.3V4.1h3.4l7.1,9.7V4.1h3.3v15.4H120.4z"/>
	<path class="st0" d="M136.4,17.3l0.9-0.8c0.9,1.2,2.4,2.2,4.3,2.2c2.4,0,3.9-1.3,3.9-3.3c0-2.2-1.8-3.1-4.1-3.1c-0.6,0-1.2,0-1.4,0
		V11c0.2,0,0.8,0,1.4,0c2,0,3.9-0.9,3.9-2.9c0-1.9-1.7-3-3.7-3c-1.8,0-3,0.7-4.1,2l-0.8-0.8c1.1-1.3,2.8-2.3,5-2.3
		c2.7,0,5,1.5,5,4.1c0,2.4-2,3.4-3.3,3.6c1.3,0.1,3.5,1.3,3.5,3.8c0,2.5-1.9,4.4-5.2,4.4C139.1,19.8,137.3,18.7,136.4,17.3z"/>
	<path class="st0" d="M151.9,11.9c0-3.7,1.5-8,5.7-8c4.1,0,5.7,4.3,5.7,8c0,3.7-1.6,8-5.7,8C153.5,19.8,151.9,15.5,151.9,11.9z
		 M161.9,11.9c0-3.2-1-6.8-4.3-6.8c-3.3,0-4.3,3.6-4.3,6.8c0,3.2,1.1,6.8,4.3,6.8C160.8,18.6,161.9,15,161.9,11.9z"/>
	<path class="st0" d="M168.3,11.9c0-3.7,1.5-8,5.7-8c4.1,0,5.7,4.3,5.7,8c0,3.7-1.6,8-5.7,8C169.8,19.8,168.3,15.5,168.3,11.9z
		 M178.3,11.9c0-3.2-1-6.8-4.3-6.8c-3.3,0-4.3,3.6-4.3,6.8c0,3.2,1.1,6.8,4.3,6.8C177.2,18.6,178.3,15,178.3,11.9z"/>
</g>
</svg>
