<svg id="Layer_1" data-name="Layer 1" xmlns="http://www.w3.org/2000/svg" viewBox="0 0 186 48"><defs><style>.cls-1{fill:#3e738e;fill-rule:evenodd;}.cls-2{fill:#fff;}</style></defs><title>cta</title><path class="cls-1" d="M4,0H182a4,4,0,0,1,4,3.93V44.07A4,4,0,0,1,182,48H4a4,4,0,0,1-4-3.93V3.93A4,4,0,0,1,4,0Z"/><path class="cls-2" d="M27,27.71a3.67,3.67,0,0,1-3.8,4,4.52,4.52,0,0,1-3.58-1.88L18.38,31.6a6.08,6.08,0,0,0,4.95,2.19c3.38,0,6-1.93,6-6.05V14.49H27Zm12.68-8.33c-3.92,0-6.76,3.21-6.76,7.19,0,4.29,2.92,7.22,7,7.22a7.46,7.46,0,0,0,5.45-2.1l-1-1.4A6,6,0,0,1,40.1,32a4.84,4.84,0,0,1-5-4.75H46.26v-.54C46.26,22.62,43.82,19.38,39.67,19.38Zm-4.52,6.34a4.59,4.59,0,0,1,4.49-4.58,4.45,4.45,0,0,1,4.52,4.58Zm18.5,6.17c-.93,0-1.39-.74-1.39-1.77V21.6h2.79V19.72H52.26V16H50.13v3.75H47.86V21.6h2.27v9c0,2,1,3.21,3,3.21a3.5,3.5,0,0,0,2.56-.88l-.63-1.59A2.06,2.06,0,0,1,53.65,31.89Zm14.1-10.55V19.72H57.41V21.6H65L57.41,31.8v1.65H67.86V31.6H60.13Zm7.67,10.55c-.93,0-1.39-.74-1.39-1.77V21.6h2.79V19.72H74V16H71.9v3.75H69.63V21.6H71.9v9c0,2,1,3.21,3,3.21a3.5,3.5,0,0,0,2.56-.88l-.63-1.59A2.06,2.06,0,0,1,75.42,31.89ZM99.21,19.72h-2.7L89.29,27V14.49H87.16v19h2.13V29.53l2.28-2.25,4.94,6.17h2.73L93.13,26Zm8-.34a7.16,7.16,0,0,0-5.48,2.28l1,1.47a5.47,5.47,0,0,1,4.21-1.9c2,0,3.46,1.05,3.46,2.9V26.6a5.72,5.72,0,0,0-4.54-1.88c-2.33,0-4.81,1.45-4.81,4.52a4.58,4.58,0,0,0,4.81,4.55,5.92,5.92,0,0,0,4.54-1.9v1.56h2.13V24C112.48,20.69,110.07,19.38,107.17,19.38Zm3.18,11.17a4.57,4.57,0,0,1-3.78,1.7,3,3,0,1,1,0-6,4.6,4.6,0,0,1,3.78,1.7ZM126,29.81A5.23,5.23,0,0,1,122,31.89c-1.85,0-3.07-.72-3.07-3.13v-9h-2.13v9.69c0,3,1.51,4.38,4.38,4.38A6.71,6.71,0,0,0,126,31.52v1.93h2.13V19.72H126ZM137.3,16a2.52,2.52,0,0,1,1.7.68l.88-1.39a4,4,0,0,0-2.89-1c-2.45,0-4,1.65-4,4.46v1h-2.28V21.6H133V33.45h2.13V21.6h2.78V19.72h-2.78v-1C135.14,16.94,135.91,16,137.3,16Zm9.12,3.41c-3.92,0-6.76,3.21-6.76,7.19,0,4.29,2.93,7.22,7,7.22a7.46,7.46,0,0,0,5.45-2.1l-1-1.4A6,6,0,0,1,146.85,32a4.84,4.84,0,0,1-4.95-4.75H153v-.54C153,22.62,150.57,19.38,146.42,19.38Zm-4.52,6.34a4.59,4.59,0,0,1,4.49-4.58,4.45,4.45,0,0,1,4.52,4.58Zm21.57-6.34a6.81,6.81,0,0,0-4.88,2.33v-2h-2.13V33.45h2.13v-10a5.27,5.27,0,0,1,4.06-2.13c1.85,0,3.07.76,3.07,3.18v9h2.13V23.82C167.85,20.83,166.34,19.38,163.47,19.38Z"/></svg>