<?xml version="1.0" encoding="utf-8"?>
<!-- Generator: Adobe Illustrator 22.0.1, SVG Export Plug-In . SVG Version: 6.00 Build 0)  -->
<svg version="1.1" id="Layer_1" xmlns="http://www.w3.org/2000/svg" xmlns:xlink="http://www.w3.org/1999/xlink" x="0px" y="0px"
	 viewBox="0 0 91.5 96.6" style="enable-background:new 0 0 91.5 96.6;" xml:space="preserve">
<style type="text/css">
	.st0{fill:#FFFFFF;}
</style>
<path class="st0" d="M90.4,40.2l-6.7,6.8c0.1,1.1,0.2,2.2,0.2,3.3c0,21.3-17.1,38.6-38.1,38.6S7.6,71.6,7.6,50.2
	c0-21.3,17.1-38.6,38.1-38.6c9.3,0,16.7,2.4,22.8,7.5l-10.6,1.5c-2.1,0.3-3.5,2.3-3.2,4.4c0.3,1.9,1.9,3.3,3.8,3.3
	c0.2,0,0.4,0,0.5,0l17.8-2.6c2.1-0.3,3.5-2.3,3.2-4.4l-2.5-18c-0.3-2.1-2.2-3.6-4.3-3.3c-2.1,0.3-3.5,2.3-3.2,4.4l1,7.4
	C64,6.6,55.8,3.9,45.8,3.9C20.5,3.9,0,24.7,0,50.2c0,25.6,20.5,46.4,45.8,46.4c25.2,0,45.8-20.8,45.8-46.4
	C91.5,46.8,91.1,43.4,90.4,40.2z"/>
</svg>
