<svg id="Layer_1" data-name="Layer 1" xmlns="http://www.w3.org/2000/svg" viewBox="0 0 346 76"><title>1-question</title><path d="M18.9,18.21l-4-17.06H11.54L7.78,18.21,3.86,1.15H.73l5.15,20.3H9.35L13.19,4.77l3.92,16.68h3.47l5.07-20.3h-3ZM34.13,6.14c-4.12,0-7.31,3-7.31,7.81,0,4.45,2.63,7.87,7.39,7.87,3.67,0,6.08-2.16,6.75-4.73H38.33a4.06,4.06,0,0,1-4.12,2.49,4.64,4.64,0,0,1-4.65-4.82h11.6C41.46,10,38.75,6.14,34.13,6.14Zm-4.54,6.44a4.44,4.44,0,0,1,8.88,0Zm14.83,8.87H47V1.15H44.42Zm13.63-1.87c-2.24,0-4.34-1.85-4.34-5.66s2.1-5.54,4.34-5.54a3.82,3.82,0,0,1,3.89,3h2.58a6.22,6.22,0,0,0-6.3-5.29c-4.45,0-7.28,3.33-7.28,7.81s2.69,7.87,7,7.87a6.71,6.71,0,0,0,6.72-5.27H62.06A4,4,0,0,1,58.05,19.58ZM76,6.14a5.25,5.25,0,0,0-4.88,2.52V1.15H68.54v20.3h2.54V13.28c0-3.25,1.52-4.93,4-4.93,2.91,0,3.3,2,3.3,4.34v8.76h2.55V11.93C80.91,8.49,79.6,6.14,76,6.14Zm15.41,0c-4.12,0-7.31,3-7.31,7.81,0,4.45,2.63,7.87,7.39,7.87,3.67,0,6.08-2.16,6.75-4.73H95.57a4.06,4.06,0,0,1-4.12,2.49,4.64,4.64,0,0,1-4.65-4.82H98.4C98.7,10,96,6.14,91.37,6.14Zm-4.54,6.44a4.44,4.44,0,0,1,8.88,0ZM104.15,9V6.39h-2.49V21.45h2.54V13.56c0-3.33,1.18-4.62,3.53-4.62a9.59,9.59,0,0,1,1.43.11V6.33c-.31,0-.5,0-.76,0A4.54,4.54,0,0,0,104.15,9Zm23.75.79-2.36-.54c-1.9-.42-3.3-1.31-3.3-3.1,0-2.27,2.74-3,4.31-3,2,0,4.37.81,5,3.13h2.77c-.81-3.89-4-5.54-7.7-5.54-3.27,0-7.33,1.65-7.33,5.54,0,3.36,2.77,4.93,5.57,5.55l2.52.53c2.52.59,4.37,1.43,4.37,3.58s-1.71,3.42-4.73,3.42S122,18,121.46,15.15h-2.8c.53,4,3.55,6.67,8.34,6.67,4,0,7.73-2.13,7.73-6.08S131,10.48,127.9,9.81Zm17.91-3.67a5.29,5.29,0,0,0-4.93,2.63V6.39h-2.54v20h2.54V19.19a5.31,5.31,0,0,0,4.93,2.63c3.47,0,6.44-2.83,6.44-7.84S149.28,6.14,145.81,6.14Zm-.64,13.49c-2.27,0-4.4-1.68-4.4-5.65s2.13-5.66,4.4-5.66c2.6,0,4.31,2,4.31,5.66S147.77,19.63,145.17,19.63Zm17-13.49c-3.5,0-7.22,2.38-7.22,7.84s3.72,7.84,7.22,7.84,7.22-2.38,7.22-7.84S165.64,6.14,162.14,6.14Zm0,13.44c-2.32,0-4.51-1.57-4.51-5.6s2.19-5.6,4.51-5.6,4.51,1.57,4.51,5.6C166.65,17.84,164.46,19.58,162.14,19.58ZM176,9V6.39h-2.49V21.45H176V13.56c0-3.33,1.18-4.62,3.53-4.62a9.59,9.59,0,0,1,1.43.11V6.33c-.31,0-.5,0-.76,0A4.54,4.54,0,0,0,176,9Zm11.34-6.41h-2.55V6.39h-2.38v2h2.38v9.24c0,3.14.68,3.78,3.56,3.78h1.85V19.33h-1.29c-1.46,0-1.57-.4-1.57-2V8.43h2.86v-2h-2.86Zm9.56,0H194.3V6.39h-2.38v2h2.38v9.24c0,3.14.68,3.78,3.56,3.78h1.85V19.33h-1.29c-1.46,0-1.57-.4-1.57-2V8.43h2.86v-2h-2.86ZM207.78,18,204,6.39h-2.83l5.43,15.06-.11.31c-.67,2.35-1.48,2.47-3.16,2.47h-1v2.12h1.32c3.38,0,4.11-1,5.23-4.25l5.38-15.71h-2.66ZM224.17,6.14a5.29,5.29,0,0,0-4.93,2.63V6.39H216.7v20h2.54V19.19a5.31,5.31,0,0,0,4.93,2.63c3.47,0,6.44-2.83,6.44-7.84S227.64,6.14,224.17,6.14Zm-.64,13.49c-2.27,0-4.4-1.68-4.4-5.65s2.13-5.66,4.4-5.66c2.6,0,4.31,2,4.31,5.66S226.13,19.63,223.53,19.63ZM249.29,6.14a5.29,5.29,0,0,0-4.93,2.63V1.15h-2.54v20.3h2.54V19.19a5.31,5.31,0,0,0,4.93,2.63c3.47,0,6.44-2.83,6.44-7.84S252.76,6.14,249.29,6.14Zm-.64,13.49c-2.27,0-4.4-1.68-4.4-5.65s2.13-5.66,4.4-5.66c2.6,0,4.31,2,4.31,5.66S251.25,19.63,248.65,19.63Zm10.73,1.82h2.54V6.39h-2.54Zm0-17.22h2.54V1.15h-2.54Zm13.88,8.43-2.12-.42c-1.46-.31-2.3-.84-2.3-2,0-1.37,1.68-1.91,3.16-1.91,1.8,0,3.14.7,3.56,2.5h2.66c-.48-2.89-2.66-4.68-5.94-4.68s-6,1.54-6,4.2c0,2.83,2.24,3.72,4.29,4.17l2.24.45c1.62.36,3,1,3,2.49s-1.57,2.24-3.5,2.24a3.55,3.55,0,0,1-3.84-3.08h-2.68c.3,2.63,2.52,5.24,6.46,5.24,3.45,0,6.14-1.68,6.14-4.68S276,13.17,273.26,12.66Zm12.51-10h-2.55V6.39h-2.38v2h2.38v9.24c0,3.14.68,3.78,3.56,3.78h1.85V19.33h-1.29c-1.46,0-1.57-.4-1.57-2V8.43h2.86v-2h-2.86ZM310,8.77A5.28,5.28,0,0,0,305,6.14c-3.47,0-6.44,2.91-6.44,7.84s3,7.84,6.44,7.84A5.29,5.29,0,0,0,310,19.19v2.26h2.55V1.15H310Zm-4.29,10.86c-2.6,0-4.31-2-4.31-5.65s1.71-5.66,4.31-5.66c2.27,0,4.4,1.68,4.4,5.66S307.93,19.63,305.66,19.63Zm20.84-4.95c0,3.25-1.4,4.93-3.84,4.93-2.8,0-3.16-2-3.16-4.34V6.39H317V16c0,3.45,1.35,5.8,4.82,5.8a5.07,5.07,0,0,0,4.73-2.52v2.15h2.55V6.39H326.5ZM338.94.79c-3.94,0-6.86,2.38-6.86,6h2.55a3.94,3.94,0,0,1,4.26-3.89c2.15,0,3.72,1.12,3.72,2.91s-1.15,2.94-2.6,3.86c-2.35,1.52-3.47,2.52-3.47,4.88v.95h2.6v-.87c0-1.54.62-2,2.35-3.16,1.91-1.21,3.78-3.08,3.78-5.77C345.27,2.33,342.11.79,338.94.79Zm-2.66,20.66h3.22V18.23h-3.22Z"/><path d="M114.4,39.84l-20.24,0,.06,29,5.08,0,0-12.79,14.28,0v-4.2l-14.28,0,0-7.76,15.16,0Zm2.79,7.48,0,21.52H122l0-21.52Zm4.74-7.49h-4.76v4.8h4.76Zm16.18,7.44h-4.32l0-5.68H129l0,5.68h-3.2v3.44H129l0,12.44c0,4.4.93,5.64,5.53,5.63h3.52V65.15h-1.71c-2,0-2.57-.51-2.57-2.71l0-11.72h4.32Zm16.13-.51c-3,0-5.28,1.25-6.51,3.49v-3H143l0,21.52h4.76l0-11.44c0-3.88,1.31-6.68,5-6.69s4.08,2.83,4.09,5.75l0,12.36h4.76l0-13.52C161.57,50.1,159.44,46.75,154.24,46.76Zm22.82,0c-6.12,0-10.55,4.62-10.54,11.1,0,6.2,4,11.43,10.9,11.42a9.75,9.75,0,0,0,9.75-7h-4.68c-.84,2-2.75,3-5.27,3-2.72,0-5.53-1.95-5.86-5.95l16,0C187.83,52.08,183.65,46.69,177.06,46.71Zm-5.7,9.13a5.64,5.64,0,0,1,5.7-5.41,5.4,5.4,0,0,1,5.49,5.39Zm31,0-3-.59c-1.88-.36-2.88-1.11-2.89-2.55s1.92-2.37,4-2.37c2.4,0,4.2.75,4.72,2.71h4.48c-.89-4.32-4.73-6.35-8.93-6.34-4.64,0-8.75,2.46-8.75,6.26s2.86,5.51,6.5,6.26l3.24.63c2.12.44,3.72,1.2,3.73,3s-1.8,2.8-4.32,2.8c-2.84,0-4.4-1.23-4.85-3.46h-4.64c.53,4,4.06,7.07,9.34,7.05,4.88,0,9.11-2.49,9.1-7C210.09,58,206.77,56.64,202.41,55.81Zm21.52,0-3-.6C219,54.82,218,54.06,218,52.62s1.91-2.37,4-2.37c2.4,0,4.2.75,4.73,2.71h4.48c-.89-4.32-4.74-6.35-8.94-6.34-4.64,0-8.75,2.46-8.74,6.26,0,4,2.85,5.51,6.49,6.26l3.24.64c2.12.43,3.72,1.19,3.73,2.95s-1.8,2.8-4.32,2.81c-2.84,0-4.4-1.23-4.84-3.47h-4.64c.52,4,4.05,7.07,9.33,7.06,4.88,0,9.12-2.5,9.11-7C231.62,58,228.29,56.6,223.93,55.77Zm15.82,7.36v5.44h5.44V63.12ZM244,39c-6,0-10.39,3.67-10.38,9.27h4.72c.11-3.32,2-5.41,5.59-5.42,2.52,0,4.64,1.27,4.64,3.55s-1.67,3.77-4,5.17c-2.95,1.81-4.51,3.49-4.5,7.21v1.36h4.76V58.92c0-2.64,1.15-3.44,3.63-5s5-4.05,5-7.81C253.46,41.22,248.82,39,244,39Z"/></svg>