<svg id="Layer_1" data-name="Layer 1" xmlns="http://www.w3.org/2000/svg" viewBox="0 0 366 54"><title>1name-M</title><path d="M112.59,20.3V0h-3.45V16.21L100.55,0H95.79V20.3h3.44V4.09l8.6,16.21Zm14.22-2a19,19,0,0,0,.28,2h3a25.07,25.07,0,0,1-.44-5.15c0-1.37.05-3.17.05-3.89.09-4.82-2.74-6.47-6.35-6.47S117.21,6.92,117,10h3.28a2.73,2.73,0,0,1,3-2.72c1.68,0,3.14.79,3.14,3.36v.28c-5.49.59-10.14,1.49-10.14,5.27,0,2.74,2.3,4.5,5.58,4.5C124.1,20.66,125.83,19.91,126.81,18.26Zm-7-2.19c0-1.71,1.93-2.41,6.69-2.85v1.14c0,2.58-1.45,3.81-3.92,3.81C120.9,18.17,119.81,17.39,119.81,16.07ZM147,15.15h-3.25a3.47,3.47,0,0,1-3.7,2.74c-2,0-3.86-1.54-3.86-5.12s1.85-5.1,3.95-5.1a3.4,3.4,0,0,1,3.5,2.72h3.24A6.66,6.66,0,0,0,140.1,4.9c-4.51,0-7.4,3.42-7.4,7.9s2.89,7.86,7.26,7.86A6.9,6.9,0,0,0,147,15.15Zm6.67-2.86c0-2.71.93-4.67,3.5-4.67s2.86,2,2.86,4V20.3h3.33V10.84c0-3.59-1.48-5.94-5.12-5.94a4.88,4.88,0,0,0-4.57,2.44V0H150.3V20.3h3.33Zm16.56,0c0-2.71.93-4.67,3.5-4.67s2.86,2,2.86,4V20.3h3.33V10.84c0-3.59-1.48-5.94-5.12-5.94a4.88,4.88,0,0,0-4.57,2.44V0h-3.33V20.3h3.33Zm22.86,6a19,19,0,0,0,.28,2h3a25.07,25.07,0,0,1-.44-5.15c0-1.37.05-3.17.05-3.89.09-4.82-2.74-6.47-6.35-6.47s-6.19,2.13-6.42,5.18h3.28a2.73,2.73,0,0,1,3-2.72c1.68,0,3.14.79,3.14,3.36v.28c-5.49.59-10.14,1.49-10.14,5.27,0,2.74,2.3,4.5,5.58,4.5C190.34,20.66,192.07,19.91,193.05,18.26Zm-7-2.19c0-1.71,1.93-2.41,6.69-2.85v1.14c0,2.58-1.45,3.81-3.92,3.81C187.14,18.17,186.05,17.39,186.05,16.07ZM203.31,0H200V20.3h3.33ZM208,16.35c0,3.08.64,3.95,3.86,3.95h2.46V17.75h-1.2c-1.43,0-1.79-.36-1.79-1.9V7.64h3V5.24h-3v-4H208v4h-2.24v2.4H208ZM221.43,0H218.1V3.36h3.33Zm0,5.24H218.1V20.3h3.33Zm14.23,2a5,5,0,0,0-4.48-2.35c-3.59,0-6.56,2.86-6.56,7.56s3,7.59,6.56,7.59a5,5,0,0,0,4.48-2.35v1.76A3.85,3.85,0,0,1,234.9,22a3.69,3.69,0,0,1-3,1.09c-2,0-2.91-.56-3.22-2h-3.3c.53,3.31,3.14,4.62,6.44,4.62,2.35,0,4.14-.5,5.35-1.62S239,21.22,239,18.79V5.24h-3.33ZM231.9,17.42c-2.24,0-3.8-1.85-3.8-5s1.56-4.9,3.8-4.9,3.9,1.54,3.9,4.9S234.06,17.42,231.9,17.42ZM249.6,4.9c-4.28,0-7.39,3.22-7.39,7.76,0,4.34,2.77,8,7.62,8a6.81,6.81,0,0,0,6.83-4.87h-3.28a3.62,3.62,0,0,1-3.69,2.1,4.16,4.16,0,0,1-4.09-4.17h11.23C257.14,8.68,254.22,4.9,249.6,4.9Zm-4,6.38a4,4,0,0,1,4-3.78,3.79,3.79,0,0,1,3.84,3.78Zm19.92,6.86c-2,0-3.08-.86-3.39-2.43h-3.25c.37,2.83,2.83,4.95,6.53,4.95,3.41,0,6.38-1.73,6.38-4.87,0-2.94-2.32-3.89-5.37-4.48l-2.13-.42c-1.32-.25-2-.78-2-1.79s1.35-1.65,2.8-1.65c1.68,0,2.94.53,3.31,1.9h3.13c-.61-3-3.3-4.45-6.24-4.45-3.25,0-6.13,1.71-6.13,4.37s2,3.86,4.53,4.39l2.27.45c1.48.31,2.6.84,2.6,2.07S267.28,18.14,265.52,18.14ZM79.52,33c0-3.47-2.86-5.37-6.61-5.37-4.45,0-7.34,2.77-7.25,6.86H69c0-3.17,1.85-4.32,3.78-4.32A2.93,2.93,0,0,1,76,33.29c0,3.36-4.06,7-10.83,12.27V48.3H80V45.39H69.35C75.48,41.13,79.52,37.21,79.52,33Zm2,9.24H90.6v-3H81.47Zm13.09,6h3.33V33.24H94.56Zm0-16.94h3.33V28H94.56ZM110,32.9a4.88,4.88,0,0,0-4.57,2.44v-2.1h-3.33V48.3h3.33v-8c0-2.71.93-4.67,3.5-4.67s2.86,2,2.86,4V48.3h3.33V38.84C115.14,35.25,113.66,32.9,110,32.9Zm8.13,9.35h9.13v-3h-9.13Zm10.21-11.7v2.29h4.54V48.3h3.33V28h-2.46C132.73,30.21,131.3,30.46,128.36,30.55Zm11.91,11.7h9.13v-3h-9.13ZM157.08,28h-3.55V48.3H167.3v-3H157.08Zm25.41,11.26c.09-4.82-2.74-6.47-6.35-6.47S170,34.92,169.72,38H173a2.73,2.73,0,0,1,3-2.72c1.68,0,3.14.79,3.14,3.36v.28c-5.49.59-10.14,1.49-10.14,5.27,0,2.74,2.3,4.5,5.58,4.5,2.24,0,4-.75,5-2.4a19,19,0,0,0,.28,2h3a25.07,25.07,0,0,1-.44-5.15C182.44,41.78,182.49,40,182.49,39.26Zm-3.25,3.1c0,2.58-1.45,3.81-3.92,3.81-1.68,0-2.77-.78-2.77-2.1,0-1.71,1.93-2.41,6.69-2.85ZM191.66,44l-3.42-10.8H184.6l5.46,15-.16.36c-.68,2-1.29,2.07-2.75,2.07h-1.26V53.2h1.51c3.39,0,4.37-1,5.8-4.93l5.29-15h-3.41ZM207.42,32.9c-4.28,0-7.39,3.22-7.39,7.76,0,4.34,2.77,8,7.62,8a6.81,6.81,0,0,0,6.83-4.87H211.2a3.62,3.62,0,0,1-3.69,2.1,4.16,4.16,0,0,1-4.09-4.17h11.23C215,36.68,212,32.9,207.42,32.9Zm-4,6.38a4,4,0,0,1,4-3.78,3.79,3.79,0,0,1,3.84,3.78Zm17.46-3.36V33.24H217.6V48.3h3.33V40.4c0-3,1.21-3.86,3.31-3.86.5,0,1,0,1.59.08V33.26c-.25,0-.61,0-.87,0A4.5,4.5,0,0,0,220.88,35.92Zm6.75,6.33h9.13v-3h-9.13Zm21.6-5.85-2.49-.48c-1.76-.33-3-1.12-3-2.68,0-2,2.32-2.69,3.89-2.69,2,0,4.11.7,4.7,3.13h3.45c-.82-4.22-3.92-6-8-6-3.72,0-7.67,1.93-7.67,5.71,0,3.44,2.63,5.07,5.85,5.74l2.47.47c1.93.37,4.17,1,4.17,3.14s-1.93,3-4.34,3a4.87,4.87,0,0,1-5.21-4.17h-3.5c.45,4.48,3.7,7.08,8.54,7.08,4,0,8.07-2.07,8.07-6.18S252.79,37.07,249.23,36.4Zm18-3.5a4.88,4.88,0,0,0-4.57,2.44V28h-3.33V48.3h3.33v-8c0-2.71.93-4.67,3.5-4.67s2.86,2,2.86,4V48.3h3.33V38.84C272.3,35.25,270.82,32.9,267.18,32.9Zm8.66-1.54h3.33V28h-3.33Zm0,16.94h3.33V33.24h-3.33Zm10.84-12.38V33.24H283.4V48.3h3.33V40.4c0-3,1.21-3.86,3.31-3.86.5,0,1,0,1.59.08V33.26c-.25,0-.61,0-.87,0A4.5,4.5,0,0,0,286.68,35.92Zm14.11-.28v-2.4h-3v-4h-3.33v4H292.2v2.4h2.24v8.71c0,3.08.64,3.95,3.86,3.95h2.46V45.75h-1.2c-1.43,0-1.79-.36-1.79-1.9V35.64Z"/></svg>