<svg id="Layer_1" data-name="Layer 1" xmlns="http://www.w3.org/2000/svg" viewBox="0 0 366 54"><title>1name-F</title><path d="M33.66,16.58,25.07.36H20.31v20.3h3.44V4.45l8.6,16.21h4.76V.36H33.66Zm20.61-5c.09-4.82-2.74-6.47-6.35-6.47s-6.19,2.13-6.42,5.18h3.28a2.72,2.72,0,0,1,3-2.71c1.68,0,3.14.78,3.14,3.36v.28c-5.49.58-10.14,1.48-10.14,5.26,0,2.74,2.3,4.51,5.58,4.51,2.24,0,4-.76,4.95-2.41a18.67,18.67,0,0,0,.28,2h3a25,25,0,0,1-.44-5.15C54.22,14.14,54.27,12.35,54.27,11.62ZM51,14.73c0,2.57-1.45,3.81-3.92,3.81-1.68,0-2.77-.79-2.77-2.1,0-1.71,1.93-2.41,6.69-2.86ZM66.16,5.26A4.88,4.88,0,0,0,61.59,7.7V.36H58.26v20.3h3.33v-8c0-2.72.93-4.68,3.5-4.68S68,10,68,12v8.65h3.33V11.2C71.28,7.62,69.8,5.26,66.16,5.26ZM78.63,1.62H75.3v4H73.06V8H75.3v8.71c0,3.08.64,3.94,3.86,3.94h2.46V18.12h-1.2c-1.43,0-1.79-.37-1.79-1.91V8h3V5.6h-3Zm6.75,19h3.33V.36H85.38Zm14-15.4c-3.67,0-7.42,2.47-7.42,7.9S95.68,21,99.35,21s7.42-2.41,7.42-7.87S103,5.26,99.35,5.26Zm0,13.05c-2.13,0-4-1.68-4-5.15S97.22,8,99.35,8s4,1.71,4,5.18S101.48,18.31,99.35,18.31Zm17.79-6.63L115,11.26c-1.32-.26-2-.79-2-1.8s1.35-1.65,2.8-1.65c1.68,0,2.94.53,3.31,1.91h3.13c-.61-3-3.3-4.46-6.24-4.46-3.25,0-6.13,1.71-6.13,4.37s2,3.87,4.53,4.4l2.27.45c1.48.3,2.6.84,2.6,2.07s-1.26,2-3,2c-2,0-3.08-.87-3.39-2.44H109.6c.37,2.83,2.83,5,6.53,5,3.41,0,6.38-1.74,6.38-4.87C122.51,13.22,120.19,12.26,117.14,11.68Zm15.3-6.42c-4.28,0-7.39,3.22-7.39,7.76,0,4.34,2.77,8,7.62,8a6.82,6.82,0,0,0,6.83-4.87h-3.28a3.64,3.64,0,0,1-3.69,2.1,4.17,4.17,0,0,1-4.09-4.18h11.23C140,9,137.06,5.26,132.44,5.26Zm-4,6.39a4,4,0,0,1,4-3.78,3.79,3.79,0,0,1,3.84,3.78Zm20.82,0-2.13-.42c-1.32-.26-2-.79-2-1.8s1.35-1.65,2.8-1.65c1.68,0,2.94.53,3.31,1.91h3.13c-.61-3-3.3-4.46-6.24-4.46C144.86,5.26,142,7,142,9.63s2,3.87,4.53,4.4l2.27.45c1.48.3,2.6.84,2.6,2.07s-1.26,2-3,2c-2,0-3.08-.87-3.39-2.44h-3.25c.37,2.83,2.83,5,6.53,5,3.41,0,6.38-1.74,6.38-4.87C154.63,13.22,152.31,12.26,149.26,11.68Zm24-2.92-2.49-.47c-1.76-.34-3-1.12-3-2.69,0-2,2.32-2.69,3.89-2.69,2,0,4.11.7,4.7,3.14h3.45c-.82-4.23-3.92-6-8-6-3.72,0-7.67,1.93-7.67,5.71,0,3.45,2.63,5.07,5.85,5.74l2.47.48c1.93.36,4.17,1,4.17,3.13s-1.93,3.06-4.34,3.06a4.88,4.88,0,0,1-5.21-4.18h-3.5c.45,4.48,3.7,7.09,8.54,7.09,4,0,8.07-2.07,8.07-6.19S176.81,9.44,173.25,8.76Zm17.86-3.5a5,5,0,0,0-4.48,2.36v-2H183.3v20h3.33V18.68A5,5,0,0,0,191.11,21c3.7,0,6.47-3.05,6.47-7.9S194.81,5.26,191.11,5.26Zm-.73,13.05c-2.18,0-3.89-1.71-3.89-5.18S188.2,8,190.38,8c2.36,0,3.73,2,3.73,5.15S192.74,18.31,190.38,18.31Zm16.89-13c-3.67,0-7.42,2.47-7.42,7.9S203.6,21,207.27,21s7.42-2.41,7.42-7.87S210.94,5.26,207.27,5.26Zm0,13.05c-2.13,0-4-1.68-4-5.15s1.84-5.18,4-5.18,4,1.71,4,5.18S209.4,18.31,207.27,18.31Zm14.43-10V5.6h-3.28V20.66h3.33V12.77c0-3,1.21-3.87,3.31-3.87a15,15,0,0,1,1.59.09V5.63a8.29,8.29,0,0,0-.87-.06A4.51,4.51,0,0,0,221.7,8.29Zm11.09-6.67h-3.33v4h-2.24V8h2.24v8.71c0,3.08.64,3.94,3.86,3.94h2.46V18.12h-1.2c-1.43,0-1.79-.37-1.79-1.91V8h3V5.6h-3Zm5.22,13h9.13v-3H238ZM264,9.88a5.25,5.25,0,0,0,2.27-4.34c0-4.17-3.61-5.18-7.31-5.18h-7.64v20.3h8.15c4.14,0,7.58-1.65,7.58-6A4.78,4.78,0,0,0,264,9.88Zm-9.13-6.66h4.43c2,0,3.36.92,3.36,2.72,0,2-1.26,2.91-3.36,2.91h-4.43Zm4.74,14.59h-4.74V11.56h4.54c2.72,0,4,1,4,3.08S262.1,17.81,259.56,17.81ZM280,13.64c0,2.71-.9,4.67-3.39,4.67s-2.77-2-2.77-4V5.6h-3.34v9.49c0,3.59,1.46,5.94,5,5.94A4.79,4.79,0,0,0,280,18.59v2.07h3.33V5.6H280Zm13.9-2-2.13-.42c-1.32-.26-2-.79-2-1.8s1.35-1.65,2.8-1.65c1.68,0,2.94.53,3.31,1.91H299c-.61-3-3.3-4.46-6.24-4.46-3.25,0-6.13,1.71-6.13,4.37s2,3.87,4.53,4.4l2.27.45c1.48.3,2.6.84,2.6,2.07s-1.26,2-3,2c-2,0-3.08-.87-3.39-2.44h-3.25c.37,2.83,2.83,5,6.53,5,3.41,0,6.38-1.74,6.38-4.87C299.23,13.22,296.91,12.26,293.86,11.68ZM306.59,1.62h-3.33v4H301V8h2.24v8.71c0,3.08.64,3.94,3.86,3.94h2.46V18.12h-1.2c-1.43,0-1.79-.37-1.79-1.91V8h3V5.6h-3Zm6.75,2.1h3.33V.36h-3.33Zm0,16.94h3.33V5.6h-3.33Zm13.94-15.4c-4.28,0-7.39,3.22-7.39,7.76,0,4.34,2.77,8,7.62,8a6.82,6.82,0,0,0,6.83-4.87h-3.28a3.64,3.64,0,0,1-3.69,2.1,4.17,4.17,0,0,1-4.09-4.18h11.23C334.82,9,331.9,5.26,327.28,5.26Zm-4,6.39a4,4,0,0,1,4-3.78,3.79,3.79,0,0,1,3.84,3.78Zm21.54-6.08a4.51,4.51,0,0,0-4.08,2.72V5.6h-3.28V20.66h3.33V12.77c0-3,1.21-3.87,3.31-3.87a15,15,0,0,1,1.59.09V5.63A8.29,8.29,0,0,0,344.82,5.57Z"/></svg>