<svg id="Layer_1" data-name="Layer 1" xmlns="http://www.w3.org/2000/svg" viewBox="0 0 366 54"><title>1name-Y</title><path d="M98.24,16.94,93.17.36H88.05v20.3h3.13V3.58l5.41,17.08h3.3l5.4-17.08V20.66h3.14V.36h-5.12ZM119.71,5.32c-4.28,0-7.42,3.11-7.42,7.78,0,4.37,2.66,7.93,7.5,7.93a6.65,6.65,0,0,0,6.78-4.79h-2.94a3.86,3.86,0,0,1-3.95,2.3c-2.38,0-4.09-1.71-4.39-4.51h11.48C127.07,9.13,124.36,5.32,119.71,5.32Zm-4.37,6.41c.42-2.88,2.07-4,4.34-4a4,4,0,0,1,4.06,4Zm14.55,8.93h2.91V.36h-2.91Zm19.76-9c0-4.51-2.18-6.38-6.07-6.38-3.45,0-6.11,1.9-6.33,5.12h2.94c.11-1.88,1.26-2.88,3.28-2.88,1.84,0,3.24.89,3.24,3.55v.31c-5.82.59-10.16,1.6-10.16,5.26,0,2.75,2.32,4.43,5.38,4.43,2.46,0,4.14-.81,5-2.35a16.28,16.28,0,0,0,.25,2H150a27.81,27.81,0,0,1-.42-5.43C149.6,14.59,149.65,12,149.65,11.62Zm-2.8,3c0,3-1.9,4.2-4.28,4.2-1.79,0-2.86-.87-2.86-2.24,0-1.93,2.47-2.61,7.14-3.05Zm14.8-9.27a5.09,5.09,0,0,0-4.73,2.46V5.6H154V20.66h2.91V12.57c0-3,1.2-4.81,3.75-4.81,2.77,0,3.11,2,3.11,4.2v8.7h2.91V11.17C166.69,7.67,165.29,5.32,161.65,5.32Zm18.94,2.49a5,5,0,0,0-4.65-2.49c-3.5,0-6.41,2.74-6.41,7.53s2.91,7.56,6.41,7.56a5,5,0,0,0,4.65-2.49v1.6a3.89,3.89,0,0,1-.9,3,3.82,3.82,0,0,1-3,1.1c-2.21,0-3-.82-3.36-2.19h-3c.48,3.17,2.92,4.62,6.3,4.62a7,7,0,0,0,5.27-1.82c1-1,1.62-2.52,1.62-5.29V5.6h-2.91Zm-4,10.22c-2.43,0-4-1.9-4-5.18s1.54-5.12,4-5.12c2.24,0,4.09,1.54,4.09,5.12S178.85,18,176.61,18Zm17.9-12.71c-4.28,0-7.42,3.11-7.42,7.78,0,4.37,2.66,7.93,7.5,7.93a6.65,6.65,0,0,0,6.78-4.79h-2.94a3.86,3.86,0,0,1-4,2.3c-2.38,0-4.09-1.71-4.39-4.51h11.48C201.87,9.13,199.16,5.32,194.51,5.32Zm-4.37,6.41c.42-2.88,2.07-4,4.34-4a4,4,0,0,1,4.06,4ZM205,14.39h9V11.7h-9ZM226.53,8.9l-2.4-.5c-1.77-.36-3.08-1.23-3.08-2.91,0-2.13,2.54-2.83,4-2.83,1.93,0,4.11.76,4.79,3.14H233c-.82-4.09-4-5.8-7.73-5.8-3.45,0-7.42,1.79-7.42,5.63,0,3.41,2.74,5,5.63,5.63l2.49.5c2.15.45,4.2,1.29,4.2,3.39s-1.82,3.22-4.48,3.22c-2.89,0-4.73-1.4-5.32-4.2h-3.14c.45,4.25,3.67,6.86,8.35,6.86,3.92,0,7.81-2.1,7.81-6.13S229.78,9.58,226.53,8.9Zm17.92-3.58a5.09,5.09,0,0,0-4.73,2.46V.36h-2.91v20.3h2.91V12.57c0-3,1.2-4.81,3.75-4.81,2.77,0,3.11,2,3.11,4.2v8.7h2.91V11.17C249.49,7.67,248.09,5.32,244.45,5.32Zm8.92-1.74h2.91V.36h-2.91Zm0,17.08h2.91V5.6h-2.91Zm10.41-12.4V5.6h-2.85V20.66h2.91V12.77c0-3.17,1.17-4.26,3.41-4.26a13.71,13.71,0,0,1,1.52.09v-3a7.49,7.49,0,0,0-.82,0A4.48,4.48,0,0,0,263.78,8.26ZM278,7.81V5.6h-3V1.74h-2.92V5.6h-2.29V7.81h2.29v9c0,3.11.68,3.86,3.73,3.86h2.13V18.34h-1.24c-1.45,0-1.7-.39-1.7-1.93V7.81Z"/></svg>