<svg id="Layer_1" data-name="Layer 1" xmlns="http://www.w3.org/2000/svg" viewBox="0 0 346 76"><title>2-question</title><path d="M18.9,18.21l-4-17.06H11.54L7.78,18.21,3.86,1.15H.73l5.15,20.3H9.35L13.19,4.77l3.92,16.68h3.47l5.07-20.3h-3ZM34.13,6.14c-4.12,0-7.31,3-7.31,7.81,0,4.45,2.63,7.87,7.39,7.87,3.67,0,6.08-2.16,6.75-4.73H38.33a4.06,4.06,0,0,1-4.12,2.49,4.64,4.64,0,0,1-4.65-4.82h11.6C41.46,10,38.75,6.14,34.13,6.14Zm-4.54,6.44a4.44,4.44,0,0,1,8.88,0Zm14.83,8.87H47V1.15H44.42Zm13.63-1.87c-2.24,0-4.34-1.85-4.34-5.66s2.1-5.54,4.34-5.54a3.82,3.82,0,0,1,3.89,3h2.58a6.22,6.22,0,0,0-6.3-5.29c-4.45,0-7.28,3.33-7.28,7.81s2.69,7.87,7,7.87a6.71,6.71,0,0,0,6.72-5.27H62.06A4,4,0,0,1,58.05,19.58ZM76,6.14a5.25,5.25,0,0,0-4.88,2.52V1.15H68.54v20.3h2.54V13.28c0-3.25,1.52-4.93,4-4.93,2.91,0,3.3,2,3.3,4.34v8.76h2.55V11.93C80.91,8.49,79.6,6.14,76,6.14Zm15.41,0c-4.12,0-7.31,3-7.31,7.81,0,4.45,2.63,7.87,7.39,7.87,3.67,0,6.08-2.16,6.75-4.73H95.57a4.06,4.06,0,0,1-4.12,2.49,4.64,4.64,0,0,1-4.65-4.82H98.4C98.7,10,96,6.14,91.37,6.14Zm-4.54,6.44a4.44,4.44,0,0,1,8.88,0ZM104.15,9V6.39h-2.49V21.45h2.54V13.56c0-3.33,1.18-4.62,3.53-4.62a9.59,9.59,0,0,1,1.43.11V6.33c-.31,0-.5,0-.76,0A4.54,4.54,0,0,0,104.15,9Zm23.75.79-2.36-.54c-1.9-.42-3.3-1.31-3.3-3.1,0-2.27,2.74-3,4.31-3,2,0,4.37.81,5,3.13h2.77c-.81-3.89-4-5.54-7.7-5.54-3.27,0-7.33,1.65-7.33,5.54,0,3.36,2.77,4.93,5.57,5.55l2.52.53c2.52.59,4.37,1.43,4.37,3.58s-1.71,3.42-4.73,3.42S122,18,121.46,15.15h-2.8c.53,4,3.55,6.67,8.34,6.67,4,0,7.73-2.13,7.73-6.08S131,10.48,127.9,9.81Zm17.91-3.67a5.29,5.29,0,0,0-4.93,2.63V6.39h-2.54v20h2.54V19.19a5.31,5.31,0,0,0,4.93,2.63c3.47,0,6.44-2.83,6.44-7.84S149.28,6.14,145.81,6.14Zm-.64,13.49c-2.27,0-4.4-1.68-4.4-5.65s2.13-5.66,4.4-5.66c2.6,0,4.31,2,4.31,5.66S147.77,19.63,145.17,19.63Zm17-13.49c-3.5,0-7.22,2.38-7.22,7.84s3.72,7.84,7.22,7.84,7.22-2.38,7.22-7.84S165.64,6.14,162.14,6.14Zm0,13.44c-2.32,0-4.51-1.57-4.51-5.6s2.19-5.6,4.51-5.6,4.51,1.57,4.51,5.6C166.65,17.84,164.46,19.58,162.14,19.58ZM176,9V6.39h-2.49V21.45H176V13.56c0-3.33,1.18-4.62,3.53-4.62a9.59,9.59,0,0,1,1.43.11V6.33c-.31,0-.5,0-.76,0A4.54,4.54,0,0,0,176,9Zm11.34-6.41h-2.55V6.39h-2.38v2h2.38v9.24c0,3.14.68,3.78,3.56,3.78h1.85V19.33h-1.29c-1.46,0-1.57-.4-1.57-2V8.43h2.86v-2h-2.86Zm9.56,0H194.3V6.39h-2.38v2h2.38v9.24c0,3.14.68,3.78,3.56,3.78h1.85V19.33h-1.29c-1.46,0-1.57-.4-1.57-2V8.43h2.86v-2h-2.86ZM207.78,18,204,6.39h-2.83l5.43,15.06-.11.31c-.67,2.35-1.48,2.47-3.16,2.47h-1v2.12h1.32c3.38,0,4.11-1,5.23-4.25l5.38-15.71h-2.66ZM224.17,6.14a5.29,5.29,0,0,0-4.93,2.63V6.39H216.7v20h2.54V19.19a5.31,5.31,0,0,0,4.93,2.63c3.47,0,6.44-2.83,6.44-7.84S227.64,6.14,224.17,6.14Zm-.64,13.49c-2.27,0-4.4-1.68-4.4-5.65s2.13-5.66,4.4-5.66c2.6,0,4.31,2,4.31,5.66S226.13,19.63,223.53,19.63ZM249.29,6.14a5.29,5.29,0,0,0-4.93,2.63V1.15h-2.54v20.3h2.54V19.19a5.31,5.31,0,0,0,4.93,2.63c3.47,0,6.44-2.83,6.44-7.84S252.76,6.14,249.29,6.14Zm-.64,13.49c-2.27,0-4.4-1.68-4.4-5.65s2.13-5.66,4.4-5.66c2.6,0,4.31,2,4.31,5.66S251.25,19.63,248.65,19.63Zm10.73-15.4h2.54V1.15h-2.54Zm0,17.22h2.54V6.39h-2.54Zm13.88-8.79-2.12-.42c-1.46-.31-2.3-.84-2.3-2,0-1.37,1.68-1.91,3.16-1.91,1.8,0,3.14.7,3.56,2.5h2.66c-.48-2.89-2.66-4.68-5.94-4.68s-6,1.54-6,4.2c0,2.83,2.24,3.72,4.29,4.17l2.24.45c1.62.36,3,1,3,2.49s-1.57,2.24-3.5,2.24a3.55,3.55,0,0,1-3.84-3.08h-2.68c.3,2.63,2.52,5.24,6.46,5.24,3.45,0,6.14-1.68,6.14-4.68S276,13.17,273.26,12.66Zm12.51-10h-2.55V6.39h-2.38v2h2.38v9.24c0,3.14.68,3.78,3.56,3.78h1.85V19.33h-1.29c-1.46,0-1.57-.4-1.57-2V8.43h2.86v-2h-2.86ZM310,8.77A5.28,5.28,0,0,0,305,6.14c-3.47,0-6.44,2.91-6.44,7.84s3,7.84,6.44,7.84A5.29,5.29,0,0,0,310,19.19v2.26h2.55V1.15H310Zm-4.29,10.86c-2.6,0-4.31-2-4.31-5.65s1.71-5.66,4.31-5.66c2.27,0,4.4,1.68,4.4,5.66S307.93,19.63,305.66,19.63Zm20.84-4.95c0,3.25-1.4,4.93-3.84,4.93-2.8,0-3.16-2-3.16-4.34V6.39H317V16c0,3.45,1.35,5.8,4.82,5.8a5.07,5.07,0,0,0,4.73-2.52v2.15h2.55V6.39H326.5Zm9.78,6.77h3.22V18.23h-3.22ZM338.94.79c-3.94,0-6.86,2.38-6.86,6h2.55a3.94,3.94,0,0,1,4.26-3.89c2.15,0,3.72,1.12,3.72,2.91s-1.15,2.94-2.6,3.86c-2.35,1.52-3.47,2.52-3.47,4.88v.95h2.6v-.87c0-1.54.62-2,2.35-3.16,1.91-1.21,3.78-3.08,3.78-5.77C345.27,2.33,342.11.79,338.94.79Z"/><path d="M145.83,43.11h-5.15L134.05,54.8l-6.51-11.65h-5.21l9.35,15.92,0,10.15h4.58l0-10.07Zm8.07,6.28c-4.72,0-9.54,3.19-9.52,10.17s4.84,10.1,9.56,10.09,9.53-3.11,9.52-10.13S158.61,49.38,153.9,49.39Zm0,16.77c-2.73,0-5.11-2.15-5.12-6.61s2.36-6.66,5.09-6.67S159,55.07,159,59.53,156.67,66.16,153.93,66.16Zm25.29-16.39v2.59a6.39,6.39,0,0,0-5.76-3c-4.61,0-8.42,3.69-8.41,9.73s3.84,9.75,8.45,9.74a6.42,6.42,0,0,0,5.75-3v2.27a4.88,4.88,0,0,1-1,3.28,4.74,4.74,0,0,1-3.85,1.41c-2.59,0-3.74-.71-4.14-2.55h-4.25c.69,4.25,4,5.93,8.29,5.92,3,0,5.33-.66,6.87-2.1s2.33-3.71,2.33-6.84l0-17.42Zm-4.78,15.66c-2.88,0-4.9-2.36-4.91-6.36s2-6.3,4.88-6.31,5,2,5,6.29S177.21,65.43,174.44,65.43Zm30.56-8c.1-6.19-3.54-8.31-8.19-8.3s-7.95,2.76-8.22,6.68h4.21c.1-2.34,1.72-3.49,3.88-3.5s4,1,4,4.31V57c-7.06.77-13,1.94-13,6.8,0,3.52,3,5.78,7.18,5.77,2.88,0,5.11-1,6.36-3.1a20.92,20.92,0,0,0,.37,2.62h3.92a31.63,31.63,0,0,1-.59-6.62C204.94,60.69,205,58.39,205,57.45Zm-9.19,8.91c-2.16,0-3.57-1-3.57-2.69,0-2.2,2.47-3.1,8.59-3.69v1.47C200.84,64.76,199,66.35,195.81,66.36ZM213,64.16v4.9h4.9v-4.9Zm3.84-21.67c-5.4,0-9.35,3.29-9.34,8.33h4.25c.1-3,1.82-4.86,5-4.87,2.26,0,4.17,1.15,4.18,3.2s-1.51,3.38-3.63,4.65c-2.66,1.62-4.06,3.14-4,6.49V61.5h4.29V60.37c0-2.37,1-3.09,3.27-4.47s4.53-3.64,4.52-7C225.3,44.45,221.12,42.48,216.8,42.49Z"/></svg>