<svg id="Layer_1" data-name="Layer 1" xmlns="http://www.w3.org/2000/svg" viewBox="0 0 366 54"><title>2name-M</title><path d="M48.75,13.8c0,2.83-1.23,4.32-3.39,4.32s-3.44-1.49-3.44-4.32H38.39c0,4.4,2.49,7.23,7,7.23s7-2.83,7-7.23V.36H48.75ZM62.9,5.26c-4.28,0-7.39,3.22-7.39,7.76,0,4.34,2.77,8,7.62,8A6.82,6.82,0,0,0,70,16.16H66.68A3.65,3.65,0,0,1,63,18.26a4.17,4.17,0,0,1-4.09-4.18H70.13C70.43,9,67.52,5.26,62.9,5.26Zm-4,6.39a4,4,0,0,1,4-3.78,3.8,3.8,0,0,1,3.84,3.78ZM76.35,8.29V5.6H73.08V20.66h3.33V12.77c0-3,1.2-3.87,3.3-3.87a15,15,0,0,1,1.6.09V5.63a8.48,8.48,0,0,0-.87-.06A4.53,4.53,0,0,0,76.35,8.29Zm13.92,3.39-2.12-.42c-1.32-.26-2-.79-2-1.8s1.34-1.65,2.8-1.65c1.68,0,2.94.53,3.3,1.91h3.14c-.62-3-3.3-4.46-6.24-4.46C85.88,5.26,83,7,83,9.63s2,3.87,4.54,4.4l2.27.45c1.48.3,2.6.84,2.6,2.07s-1.26,2-3,2c-2,0-3.08-.87-3.39-2.44H82.74c.37,2.83,2.83,5,6.53,5,3.41,0,6.38-1.74,6.38-4.87C95.65,13.22,93.33,12.26,90.27,11.68Zm15.31-6.42c-4.28,0-7.39,3.22-7.39,7.76,0,4.34,2.77,8,7.62,8a6.82,6.82,0,0,0,6.83-4.87h-3.28a3.65,3.65,0,0,1-3.69,2.1,4.17,4.17,0,0,1-4.09-4.18h11.23C113.11,9,110.2,5.26,105.58,5.26Zm-4,6.39a4,4,0,0,1,4-3.78,3.8,3.8,0,0,1,3.84,3.78Zm19.36,4.76L117.52,5.6h-3.64l5.46,15-.17.36c-.67,2-1.28,2.08-2.74,2.08h-1.26v2.54h1.51c3.39,0,4.37-1,5.8-4.92l5.29-15h-3.42Zm7.85-1.79h9.12v-3h-9.12Zm21.6-5.86-2.49-.47c-1.77-.34-3-1.12-3-2.69,0-2,2.33-2.69,3.9-2.69,2,0,4.11.7,4.7,3.14h3.44C156.1,1.82,153,0,149,0c-3.72,0-7.67,1.93-7.67,5.71,0,3.45,2.63,5.07,5.85,5.74l2.47.48c1.93.36,4.17,1,4.17,3.13s-1.93,3.06-4.34,3.06a4.87,4.87,0,0,1-5.21-4.18h-3.5c.45,4.48,3.7,7.09,8.54,7.09,4,0,8.06-2.07,8.06-6.19S154,9.44,150.39,8.76Zm13.86-7.14h-3.34v4h-2.24V8h2.24v8.71c0,3.08.65,3.94,3.87,3.94h2.46V18.12H166c-1.43,0-1.79-.37-1.79-1.91V8h3V5.6h-3Zm10,6.67V5.6H171V20.66h3.33V12.77c0-3,1.2-3.87,3.3-3.87a15,15,0,0,1,1.6.09V5.63a8.48,8.48,0,0,0-.87-.06A4.53,4.53,0,0,0,174.27,8.29Zm13.67-3c-4.28,0-7.39,3.22-7.39,7.76,0,4.34,2.77,8,7.62,8A6.82,6.82,0,0,0,195,16.16h-3.28a3.65,3.65,0,0,1-3.69,2.1,4.17,4.17,0,0,1-4.09-4.18h11.23C195.47,9,192.56,5.26,187.94,5.26Zm-4,6.39a4,4,0,0,1,4-3.78,3.8,3.8,0,0,1,3.84,3.78Zm18-10h-3.34v4h-2.24V8h2.24v8.71c0,3.08.65,3.94,3.87,3.94h2.46V18.12h-1.2c-1.43,0-1.79-.37-1.79-1.91V8h3V5.6h-3Zm13,16.64c-2,0-3.86-1.54-3.86-5.13S212.93,8,215,8a3.39,3.39,0,0,1,3.5,2.71h3.25A6.68,6.68,0,0,0,215,5.26c-4.5,0-7.39,3.42-7.39,7.9S210.53,21,214.89,21a6.9,6.9,0,0,0,7-5.52h-3.24A3.47,3.47,0,0,1,215,18.26Zm18.18-13a4.88,4.88,0,0,0-4.56,2.44V.36h-3.33v20.3h3.33v-8c0-2.72.92-4.68,3.5-4.68s2.86,2,2.86,4v8.65h3.33V11.2C238.26,7.62,236.77,5.26,233.13,5.26Zm8.14,9.36h9.12v-3h-9.12Zm20-14.26h-6.69v20.3h3.55V13h3.19c4.79,0,8.57-1.12,8.57-6.24C269.84,1.06,265.67.36,261.22.36Zm.17,9.72h-3.31V3.22h3.14c2.49,0,4.93.28,4.93,3.56C266.15,9.69,264.07,10.08,261.39,10.08Zm23.1,1.54c.08-4.82-2.74-6.47-6.36-6.47s-6.18,2.13-6.41,5.18H275a2.72,2.72,0,0,1,3-2.71c1.68,0,3.14.78,3.14,3.36v.28c-5.49.58-10.14,1.48-10.14,5.26,0,2.74,2.3,4.51,5.57,4.51,2.24,0,4-.76,5-2.41a16.48,16.48,0,0,0,.28,2h3.05a24.25,24.25,0,0,1-.45-5.15C284.43,14.14,284.49,12.35,284.49,11.62Zm-3.25,3.11c0,2.57-1.45,3.81-3.92,3.81-1.68,0-2.77-.79-2.77-2.1,0-1.71,1.93-2.41,6.69-2.86Zm15.13-9.47a4.88,4.88,0,0,0-4.56,2.44V5.6h-3.33V20.66h3.33v-8c0-2.72.92-4.68,3.5-4.68s2.86,2,2.86,4v8.65h3.33V11.2C301.5,7.62,300,5.26,296.37,5.26Zm12.48-3.64h-3.34v4h-2.24V8h2.24v8.71c0,3.08.65,3.94,3.87,3.94h2.46V18.12h-1.2c-1.43,0-1.79-.37-1.79-1.91V8h3V5.6h-3Zm13.38,10.06-2.12-.42c-1.32-.26-2-.79-2-1.8s1.34-1.65,2.8-1.65c1.68,0,2.94.53,3.3,1.91h3.14c-.62-3-3.3-4.46-6.24-4.46C317.84,5.26,315,7,315,9.63s2,3.87,4.54,4.4l2.27.45c1.48.3,2.6.84,2.6,2.07s-1.26,2-3,2c-2,0-3.08-.87-3.39-2.44H314.7c.37,2.83,2.83,5,6.53,5,3.41,0,6.38-1.74,6.38-4.87C327.61,13.22,325.29,12.26,322.23,11.68Z"/></svg>