<svg id="Layer_1" data-name="Layer 1" xmlns="http://www.w3.org/2000/svg" viewBox="0 0 366 54"><title>2name-Y</title><path d="M78.7,0,71.14,20.3h3.64l1.56-4.51h8.24l1.59,4.51h3.89L82.45,0ZM77.38,12.82l3.05-8.7,3.08,8.7Zm21.46,5.07c-2,0-3.86-1.54-3.86-5.12s1.85-5.1,4-5.1a3.4,3.4,0,0,1,3.5,2.72h3.25A6.68,6.68,0,0,0,98.93,4.9c-4.51,0-7.39,3.42-7.39,7.9s2.88,7.86,7.25,7.86a6.89,6.89,0,0,0,7-5.51h-3.25A3.46,3.46,0,0,1,98.84,17.89Zm14.1-16.63h-3.33v4h-2.24v2.4h2.24v8.71c0,3.08.64,3.95,3.86,3.95h2.47V17.75h-1.21c-1.43,0-1.79-.36-1.79-1.9V7.64h3V5.24h-3Zm6.75,2.1H123V0h-3.33Zm0,16.94H123V5.24h-3.33ZM132.52,16,129,5.24h-3.66l5.48,15.06H134l5.43-15.06H136ZM148.2,4.9c-4.29,0-7.4,3.22-7.4,7.76,0,4.34,2.78,8,7.62,8a6.81,6.81,0,0,0,6.83-4.87H152a3.65,3.65,0,0,1-3.7,2.1,4.17,4.17,0,0,1-4.09-4.17h11.23C155.73,8.68,152.82,4.9,148.2,4.9Zm-4,6.38a4,4,0,0,1,4-3.78A3.78,3.78,0,0,1,152,11.28Zm14.65,3H168v-3h-9.13ZM175.66,0H172.1V20.3h13.78v-3H175.66Zm19.22,4.9c-4.29,0-7.4,3.22-7.4,7.76,0,4.34,2.78,8,7.62,8a6.81,6.81,0,0,0,6.83-4.87h-3.27a3.65,3.65,0,0,1-3.7,2.1,4.17,4.17,0,0,1-4.09-4.17H202.1C202.41,8.68,199.5,4.9,194.88,4.9Zm-4,6.38a4,4,0,0,1,4-3.78,3.78,3.78,0,0,1,3.83,3.78Zm25.18-4a5,5,0,0,0-4.48-2.35C208,4.9,205,7.76,205,12.46s3,7.59,6.55,7.59a5,5,0,0,0,4.48-2.35v1.76a3.85,3.85,0,0,1-.76,2.55,3.68,3.68,0,0,1-3,1.09c-2,0-2.92-.56-3.22-2h-3.31c.53,3.31,3.14,4.62,6.44,4.62,2.35,0,4.15-.5,5.35-1.62s1.82-2.89,1.82-5.32V5.24h-3.33ZM212.3,17.42c-2.24,0-3.81-1.85-3.81-5s1.57-4.9,3.81-4.9,3.89,1.54,3.89,4.9S214.45,17.42,212.3,17.42ZM233.61,7.25a5,5,0,0,0-4.48-2.35c-3.59,0-6.55,2.86-6.55,7.56s3,7.59,6.55,7.59a5,5,0,0,0,4.48-2.35v1.76a3.85,3.85,0,0,1-.76,2.55,3.68,3.68,0,0,1-3,1.09c-2,0-2.92-.56-3.22-2h-3.31c.53,3.31,3.14,4.62,6.44,4.62,2.35,0,4.15-.5,5.35-1.62s1.82-2.89,1.82-5.32V5.24h-3.33Zm-3.75,10.17c-2.24,0-3.81-1.85-3.81-5s1.57-4.9,3.81-4.9,3.89,1.54,3.89,4.9S232,17.42,229.86,17.42Zm11.31,2.88h3.33V5.24h-3.33Zm0-16.94h3.33V0h-3.33ZM256.63,4.9a4.88,4.88,0,0,0-4.57,2.44V5.24h-3.33V20.3h3.33v-8c0-2.71.93-4.67,3.5-4.67s2.86,2,2.86,4V20.3h3.33V10.84C261.75,7.25,260.27,4.9,256.63,4.9Zm18.66,2.35a5,5,0,0,0-4.48-2.35c-3.59,0-6.55,2.86-6.55,7.56s3,7.59,6.55,7.59a5,5,0,0,0,4.48-2.35v1.76a3.85,3.85,0,0,1-.76,2.55,3.68,3.68,0,0,1-3,1.09c-2,0-2.92-.56-3.22-2H265c.53,3.31,3.14,4.62,6.44,4.62,2.35,0,4.15-.5,5.35-1.62s1.82-2.89,1.82-5.32V5.24h-3.33Zm-3.75,10.17c-2.24,0-3.81-1.85-3.81-5s1.57-4.9,3.81-4.9,3.89,1.54,3.89,4.9S273.69,17.42,271.54,17.42Zm17.95-6.11-2.13-.42c-1.32-.25-2-.78-2-1.79s1.35-1.65,2.8-1.65c1.68,0,2.94.53,3.31,1.9h3.13c-.61-3-3.3-4.45-6.24-4.45-3.25,0-6.13,1.71-6.13,4.37s2,3.86,4.53,4.39l2.27.45c1.49.31,2.61.84,2.61,2.07s-1.26,2-3,2c-2,0-3.08-.86-3.39-2.43H282c.36,2.83,2.82,4.95,6.52,4.95,3.42,0,6.38-1.73,6.38-4.87C294.86,12.85,292.54,11.9,289.49,11.31Z"/></svg>