<svg id="Layer_1" data-name="Layer 1" xmlns="http://www.w3.org/2000/svg" viewBox="0 0 346 76"><title>3-question</title><path d="M96.25,42.69,90,63.51,83.61,42.72l-7.09,0,.06,26.09H81l0-21.13,6.67,21.12h4.64l6.58-21.14,0,21.12h4.46l0-26.09ZM117.34,49c-5.51,0-9.5,4.16-9.48,10,0,5.58,3.58,10.28,9.81,10.27a8.75,8.75,0,0,0,8.77-6.28h-4.21c-.76,1.84-2.48,2.7-4.75,2.71-2.45,0-5-1.76-5.27-5.35l14.44,0C127,53.79,123.28,48.93,117.34,49Zm-5.13,8.21a5.1,5.1,0,0,1,5.13-4.87,4.89,4.89,0,0,1,5,4.85Zm30.48-14.57,0,9.33a6.43,6.43,0,0,0-5.77-3c-4.6,0-8.41,4-8.4,10.14s3.84,10.14,8.45,10.13a6.42,6.42,0,0,0,5.75-3v2.56H147L147,42.58Zm-4.78,23.09c-2.87,0-4.9-2.51-4.9-6.65s2-6.63,4.88-6.64,5,2.15,5,6.62S140.69,65.67,137.91,65.68ZM152.3,49.3l0,19.37h4.29l0-19.37Zm4.27-6.74h-4.28v4.32h4.28Zm13.15,6.71h-3.89V44.16h-4.28v5.11h-2.88v3.1h2.88l0,11.19c0,4,.84,5.08,5,5.07h3.16V65.35h-1.55c-1.84,0-2.31-.46-2.31-2.44l0-10.55h3.88ZM189.2,57c.1-6.19-3.54-8.3-8.19-8.29s-7.95,2.75-8.23,6.67H177c.1-2.34,1.72-3.49,3.88-3.5s4,1,4,4.31v.36c-7.06.77-13,1.94-13,6.8,0,3.53,3,5.79,7.18,5.78,2.88,0,5.11-1,6.36-3.11a21.13,21.13,0,0,0,.37,2.63h3.92a31.09,31.09,0,0,1-.59-6.62C189.14,60.2,189.2,57.9,189.2,57ZM180,65.87c-2.16,0-3.57-1-3.57-2.69,0-2.19,2.47-3.1,8.59-3.69V61C185,64.28,183.17,65.87,180,65.87ZM202.53,49.2h-3.89V44.09h-4.28v5.11h-2.88v3.09h2.88l0,11.19c0,4,.84,5.08,5,5.07h3.16V65.28H201c-1.84,0-2.31-.47-2.31-2.45l0-10.54h3.88Zm7.57-6.75h-4.28v4.32h4.28Zm-4.27,6.74,0,19.36h4.29l0-19.36Zm16.88-.47c-4.72,0-9.53,3.19-9.52,10.17S218,69,222.75,69s9.53-3.11,9.52-10.13S227.42,48.71,222.71,48.72Zm0,16.77c-2.73,0-5.11-2.15-5.12-6.61s2.36-6.66,5.1-6.67,5.11,2.19,5.12,6.65S225.48,65.49,222.74,65.49Zm22.6-16.82a6.28,6.28,0,0,0-5.86,3.14V49.12h-4.28l0,19.37h4.28l0-10.29c0-3.5,1.18-6,4.49-6s3.67,2.54,3.68,5.17l0,11.12H252l0-12.16C251.93,51.68,250,48.66,245.34,48.67Zm14,14.87v4.9h4.9v-4.9Zm3.84-21.67c-5.39,0-9.35,3.29-9.34,8.33h4.25c.1-3,1.83-4.86,5-4.87,2.27,0,4.18,1.14,4.18,3.2s-1.5,3.38-3.62,4.65c-2.66,1.62-4.06,3.14-4.06,6.48v1.23h4.28V59.75c0-2.37,1-3.1,3.26-4.47s4.53-3.64,4.52-7C271.66,43.83,267.48,41.86,263.16,41.87ZM18.9,18.21l-4-17.06H11.54L7.78,18.21,3.86,1.15H.73l5.15,20.3H9.35L13.19,4.77l3.92,16.68h3.47l5.07-20.3h-3ZM34.13,6.14c-4.12,0-7.31,3-7.31,7.81,0,4.45,2.63,7.87,7.39,7.87,3.67,0,6.08-2.16,6.75-4.73H38.33a4.06,4.06,0,0,1-4.12,2.49,4.64,4.64,0,0,1-4.65-4.82h11.6C41.46,10,38.75,6.14,34.13,6.14Zm-4.54,6.44a4.44,4.44,0,0,1,8.88,0Zm14.83,8.87H47V1.15H44.42Zm13.63-1.87c-2.24,0-4.34-1.85-4.34-5.66s2.1-5.54,4.34-5.54a3.82,3.82,0,0,1,3.89,3h2.58a6.22,6.22,0,0,0-6.3-5.29c-4.45,0-7.28,3.33-7.28,7.81s2.69,7.87,7,7.87a6.71,6.71,0,0,0,6.72-5.27H62.06A4,4,0,0,1,58.05,19.58Zm20.31-6.89v8.76h2.55V11.93c0-3.44-1.31-5.79-5-5.79a5.25,5.25,0,0,0-4.88,2.52V1.15H68.54v20.3h2.54V13.28c0-3.25,1.52-4.93,4-4.93C78,8.35,78.36,10.37,78.36,12.69Zm13.09,9.13c3.67,0,6.08-2.16,6.75-4.73H95.57a4.06,4.06,0,0,1-4.12,2.49,4.64,4.64,0,0,1-4.65-4.82H98.4c.3-4.79-2.41-8.62-7-8.62-4.12,0-7.31,3-7.31,7.81C84.06,18.4,86.69,21.82,91.45,21.82Zm-.08-13.5a4.3,4.3,0,0,1,4.34,4.26H86.83A4.26,4.26,0,0,1,91.37,8.32Zm17.79-2c-.31,0-.5,0-.76,0A4.54,4.54,0,0,0,104.15,9V6.39h-2.49V21.45h2.54V13.56c0-3.33,1.18-4.62,3.53-4.62a9.59,9.59,0,0,1,1.43.11Zm25.57,9.41c0-4.09-3.73-5.26-6.83-5.93l-2.36-.54c-1.9-.42-3.3-1.31-3.3-3.1,0-2.27,2.74-3,4.31-3,2,0,4.37.81,5,3.13h2.77c-.81-3.89-4-5.54-7.7-5.54-3.27,0-7.33,1.65-7.33,5.54,0,3.36,2.77,4.93,5.57,5.55l2.52.53c2.52.59,4.37,1.43,4.37,3.58s-1.71,3.42-4.73,3.42S122,18,121.46,15.15h-2.8c.53,4,3.55,6.67,8.34,6.67C131,21.82,134.73,19.69,134.73,15.74Zm11.08-9.6a5.29,5.29,0,0,0-4.93,2.63V6.39h-2.54v20h2.54V19.19a5.31,5.31,0,0,0,4.93,2.63c3.47,0,6.44-2.83,6.44-7.84S149.28,6.14,145.81,6.14Zm-.64,13.49c-2.27,0-4.4-1.68-4.4-5.65s2.13-5.66,4.4-5.66c2.6,0,4.31,2,4.31,5.66S147.77,19.63,145.17,19.63ZM169.36,14c0-5.46-3.72-7.84-7.22-7.84s-7.22,2.38-7.22,7.84,3.72,7.84,7.22,7.84S169.36,19.44,169.36,14Zm-11.73,0c0-4.12,2.19-5.6,4.51-5.6s4.51,1.57,4.51,5.6c0,3.86-2.19,5.6-4.51,5.6S157.63,18,157.63,14ZM176,13.56c0-3.33,1.18-4.62,3.53-4.62a9.59,9.59,0,0,1,1.43.11V6.33c-.31,0-.5,0-.76,0A4.54,4.54,0,0,0,176,9V6.39h-2.49V21.45H176Zm11.29-11h-2.55V6.39h-2.38v2h2.38v9.24c0,3.14.68,3.78,3.56,3.78h1.85V19.33h-1.29c-1.46,0-1.57-.4-1.57-2V8.43h2.86v-2h-2.86Zm7,15.06c0,3.14.68,3.78,3.56,3.78h1.85V19.33h-1.29c-1.46,0-1.57-.4-1.57-2V8.43h2.86v-2h-2.86V2.61H194.3V6.39h-2.38v2h2.38Zm14.49,4.43,5.38-15.71h-2.66L207.78,18,204,6.39h-2.83l5.43,15.06-.11.31c-.67,2.35-1.48,2.47-3.16,2.47h-1v2.12h1.32C206.94,26.35,207.67,25.35,208.79,22.1Zm10.45-2.91a5.31,5.31,0,0,0,4.93,2.63c3.47,0,6.44-2.83,6.44-7.84s-3-7.84-6.44-7.84a5.29,5.29,0,0,0-4.93,2.63V6.39H216.7v20h2.54Zm4.29-10.87c2.6,0,4.31,2,4.31,5.66s-1.71,5.65-4.31,5.65c-2.27,0-4.4-1.68-4.4-5.65S221.26,8.32,223.53,8.32Zm25.76-2.18a5.29,5.29,0,0,0-4.93,2.63V1.15h-2.54v20.3h2.54V19.19a5.31,5.31,0,0,0,4.93,2.63c3.47,0,6.44-2.83,6.44-7.84S252.76,6.14,249.29,6.14Zm-.64,13.49c-2.27,0-4.4-1.68-4.4-5.65s2.13-5.66,4.4-5.66c2.6,0,4.31,2,4.31,5.66S251.25,19.63,248.65,19.63ZM261.92,1.15h-2.54V4.23h2.54Zm0,5.24h-2.54V21.45h2.54Zm11.34,6.27-2.12-.42c-1.46-.31-2.3-.84-2.3-2,0-1.37,1.68-1.91,3.16-1.91,1.8,0,3.14.7,3.56,2.5h2.66c-.48-2.89-2.66-4.68-5.94-4.68s-6,1.54-6,4.2c0,2.83,2.24,3.72,4.29,4.17l2.24.45c1.62.36,3,1,3,2.49s-1.57,2.24-3.5,2.24a3.55,3.55,0,0,1-3.84-3.08h-2.68c.3,2.63,2.52,5.24,6.46,5.24,3.45,0,6.14-1.68,6.14-4.68S276,13.17,273.26,12.66Zm12.51-10h-2.55V6.39h-2.38v2h2.38v9.24c0,3.14.68,3.78,3.56,3.78h1.85V19.33h-1.29c-1.46,0-1.57-.4-1.57-2V8.43h2.86v-2h-2.86ZM310,8.77A5.28,5.28,0,0,0,305,6.14c-3.47,0-6.44,2.91-6.44,7.84s3,7.84,6.44,7.84A5.29,5.29,0,0,0,310,19.19v2.26h2.55V1.15H310Zm-4.29,10.86c-2.6,0-4.31-2-4.31-5.65s1.71-5.66,4.31-5.66c2.27,0,4.4,1.68,4.4,5.66S307.93,19.63,305.66,19.63Zm20.84-4.95c0,3.25-1.4,4.93-3.84,4.93-2.8,0-3.16-2-3.16-4.34V6.39H317V16c0,3.45,1.35,5.8,4.82,5.8a5.07,5.07,0,0,0,4.73-2.52v2.15h2.55V6.39H326.5ZM338.94.79c-3.94,0-6.86,2.38-6.86,6h2.55a3.94,3.94,0,0,1,4.26-3.89c2.15,0,3.72,1.12,3.72,2.91s-1.15,2.94-2.6,3.86c-2.35,1.52-3.47,2.52-3.47,4.88v.95h2.6v-.87c0-1.54.62-2,2.35-3.16,1.91-1.21,3.78-3.08,3.78-5.77C345.27,2.33,342.11.79,338.94.79Zm-2.66,20.66h3.22V18.23h-3.22Z"/></svg>