<svg id="Layer_1" data-name="Layer 1" xmlns="http://www.w3.org/2000/svg" viewBox="0 0 366 54"><title>3name-F</title><path d="M12.36,18.12c-3.25,0-5.74-2.75-5.74-7.68s2.54-7.53,5.76-7.53a5,5,0,0,1,5.24,4.2H21A8.12,8.12,0,0,0,12.5,0C6.59,0,3,4.06,3,10.44S6.39,21,12.33,21c4.7,0,7.89-2.55,8.76-7.11H17.68A5,5,0,0,1,12.36,18.12Zm24.36-6.5C36.81,6.8,34,5.15,30.37,5.15S24.18,7.28,24,10.33h3.27a2.73,2.73,0,0,1,3-2.71c1.68,0,3.13.78,3.13,3.36v.28c-5.49.58-10.13,1.48-10.13,5.26,0,2.74,2.29,4.51,5.57,4.51,2.24,0,4-.76,5-2.41a18.67,18.67,0,0,0,.28,2h3.06a24.25,24.25,0,0,1-.45-5.15C36.67,14.14,36.72,12.35,36.72,11.62Zm-3.24,3.11c0,2.57-1.46,3.81-3.92,3.81-1.68,0-2.78-.79-2.78-2.1,0-1.71,1.94-2.41,6.7-2.86ZM44,8.29V5.6H40.71V20.66H44V12.77c0-3,1.21-3.87,3.31-3.87A15,15,0,0,1,48.94,9V5.63a8.28,8.28,0,0,0-.86-.06A4.52,4.52,0,0,0,44,8.29Zm17.28-.67a5,5,0,0,0-4.48-2.36c-3.59,0-6.55,3.06-6.55,7.87s3,7.9,6.55,7.9a5,5,0,0,0,4.48-2.35v2H64.6V.36H61.27ZM57.52,18.31c-2.24,0-3.81-2-3.81-5.18S55.28,8,57.52,8s3.89,1.68,3.89,5.15S59.67,18.31,57.52,18.31Zm11.31,2.35h3.33V5.6H68.83Zm0-16.94h3.33V.36H68.83Zm17.56,3.9a5,5,0,0,0-4.48-2.36c-3.59,0-6.55,2.86-6.55,7.56s3,7.59,6.55,7.59a5,5,0,0,0,4.48-2.35v1.76a3.83,3.83,0,0,1-.76,2.55,3.68,3.68,0,0,1-3,1.09c-2,0-2.92-.56-3.22-2H76.11c.53,3.3,3.14,4.62,6.44,4.62,2.35,0,4.15-.51,5.35-1.63s1.82-2.88,1.82-5.32V5.6H86.39ZM82.64,17.78c-2.24,0-3.81-1.85-3.81-5s1.57-4.9,3.81-4.9,3.89,1.54,3.89,4.9S84.79,17.78,82.64,17.78Zm23.88-6.16c.09-4.82-2.74-6.47-6.35-6.47S94,7.28,93.76,10.33H97a2.73,2.73,0,0,1,3-2.71c1.68,0,3.13.78,3.13,3.36v.28c-5.49.58-10.13,1.48-10.13,5.26,0,2.74,2.29,4.51,5.57,4.51,2.24,0,4-.76,5-2.41a18.67,18.67,0,0,0,.28,2h3.06a24.25,24.25,0,0,1-.45-5.15C106.47,14.14,106.52,12.35,106.52,11.62Zm-3.24,3.11c0,2.57-1.46,3.81-3.92,3.81-1.68,0-2.78-.79-2.78-2.1,0-1.71,1.94-2.41,6.7-2.86Zm15.13-9.47a4.88,4.88,0,0,0-4.57,2.44V5.6h-3.33V20.66h3.33v-8c0-2.72.93-4.68,3.5-4.68s2.86,2,2.86,4v8.65h3.33V11.2C123.53,7.62,122.05,5.26,118.41,5.26Zm32.22,0a5.69,5.69,0,0,0-4.9,2.66c-.7-1.68-2-2.66-4.4-2.66A4.69,4.69,0,0,0,137,7.7V5.6h-3.33V20.66H137v-8c0-2.72.84-4.68,3.31-4.68s2.66,2,2.66,4v8.65h3.33v-8c0-2.72.84-4.68,3.3-4.68s2.66,2,2.66,4v8.65h3.34V11.2C155.56,7.62,154.21,5.26,150.63,5.26Zm8.56,15.4h3.33V5.6h-3.33Zm0-16.94h3.33V.36h-3.33Zm11.37-2.1h-3.33v4H165V8h2.24v8.71c0,3.08.64,3.94,3.86,3.94h2.47V18.12h-1.21c-1.43,0-1.79-.37-1.79-1.91V8h3V5.6h-3Zm11.58,1.71h6.38V20.66h3.56V3.33h6.38v-3H182.14Zm26.59,10.31c0,2.71-.9,4.67-3.39,4.67s-2.77-2-2.77-4V5.6h-3.33v9.49c0,3.59,1.45,5.94,5,5.94a4.78,4.78,0,0,0,4.45-2.44v2.07h3.33V5.6h-3.33Zm15.16-8.38a4.88,4.88,0,0,0-4.57,2.44V5.6H216V20.66h3.33v-8c0-2.72.93-4.68,3.5-4.68s2.86,2,2.86,4v8.65H229V11.2C229,7.62,227.53,5.26,223.89,5.26Zm16.56,0a4.88,4.88,0,0,0-4.57,2.44V5.6h-3.33V20.66h3.33v-8c0-2.72.93-4.68,3.5-4.68s2.86,2,2.86,4v8.65h3.33V11.2C245.57,7.62,244.09,5.26,240.45,5.26Zm15.05,0c-4.29,0-7.4,3.22-7.4,7.76,0,4.34,2.78,8,7.62,8a6.82,6.82,0,0,0,6.83-4.87h-3.27a3.66,3.66,0,0,1-3.7,2.1,4.18,4.18,0,0,1-4.09-4.18h11.23C263,9,260.12,5.26,255.5,5.26Zm-4,6.39a4,4,0,0,1,4-3.78,3.78,3.78,0,0,1,3.83,3.78Zm14.18,9H269V.36h-3.33ZM286.14,5.6h-4l-5.58,6.05V.36h-3.33v20.3h3.33V15.85l1.6-1.71,4.73,6.52h3.89l-6.41-8.87Zm5.93,2.69V5.6h-3.28V20.66h3.33V12.77c0-3,1.21-3.87,3.31-3.87A15,15,0,0,1,297,9V5.63a8.28,8.28,0,0,0-.86-.06A4.52,4.52,0,0,0,292.07,8.29Zm19.85,3.33c.09-4.82-2.74-6.47-6.35-6.47s-6.19,2.13-6.41,5.18h3.27a2.73,2.73,0,0,1,3-2.71c1.68,0,3.13.78,3.13,3.36v.28c-5.49.58-10.13,1.48-10.13,5.26,0,2.74,2.29,4.51,5.57,4.51,2.24,0,4-.76,5-2.41a18.67,18.67,0,0,0,.28,2h3.06a24.25,24.25,0,0,1-.45-5.15C311.87,14.14,311.92,12.35,311.92,11.62Zm-3.24,3.11c0,2.57-1.46,3.81-3.92,3.81-1.68,0-2.78-.79-2.78-2.1,0-1.71,1.94-2.41,6.7-2.86Zm17.23-7.11a5,5,0,0,0-4.48-2.36c-3.59,0-6.55,2.86-6.55,7.56s3,7.59,6.55,7.59a5,5,0,0,0,4.48-2.35v1.76a3.83,3.83,0,0,1-.76,2.55,3.68,3.68,0,0,1-3,1.09c-2,0-2.92-.56-3.22-2h-3.31c.53,3.3,3.14,4.62,6.44,4.62,2.35,0,4.15-.51,5.35-1.63s1.82-2.88,1.82-5.32V5.6h-3.33Zm-3.75,10.16c-2.24,0-3.81-1.85-3.81-5s1.57-4.9,3.81-4.9,3.89,1.54,3.89,4.9S324.31,17.78,322.16,17.78Zm17.7-12.52c-4.29,0-7.4,3.22-7.4,7.76,0,4.34,2.78,8,7.62,8a6.82,6.82,0,0,0,6.83-4.87h-3.27a3.66,3.66,0,0,1-3.7,2.1,4.18,4.18,0,0,1-4.09-4.18h11.23C347.39,9,344.48,5.26,339.86,5.26Zm-4,6.39a4,4,0,0,1,4-3.78,3.78,3.78,0,0,1,3.83,3.78Zm22.08-6.39a4.88,4.88,0,0,0-4.57,2.44V5.6H350V20.66h3.33v-8c0-2.72.93-4.68,3.5-4.68s2.86,2,2.86,4v8.65h3.33V11.2C363.05,7.62,361.57,5.26,357.93,5.26Z"/></svg>