<svg id="Layer_1" data-name="Layer 1" xmlns="http://www.w3.org/2000/svg" viewBox="0 0 366 54"><title>3name-Y</title><path d="M128.65,14.9c0-4.12-3.55-5.32-6.8-6l-2.41-.5c-1.76-.36-3.08-1.23-3.08-2.91,0-2.13,2.55-2.83,4-2.83,1.93,0,4.12.76,4.79,3.14h3.08c-.81-4.09-4-5.8-7.73-5.8-3.44,0-7.42,1.79-7.42,5.63,0,3.41,2.75,5,5.63,5.63l2.49.5c2.16.45,4.2,1.29,4.2,3.39s-1.82,3.22-4.48,3.22c-2.88,0-4.73-1.4-5.32-4.2H112.5c.44,4.25,3.66,6.86,8.34,6.86C124.76,21,128.65,18.93,128.65,14.9Zm17.53,5.76,4.2-15.06h-3.17l-2.57,10.92L141.84,5.6h-3L136,16.52,133.46,5.6H130.3l4.17,15.06h2.75L140.3,9l3.16,11.64Zm13,.37a6.63,6.63,0,0,0,6.77-4.79H163a3.85,3.85,0,0,1-3.94,2.3c-2.38,0-4.09-1.71-4.4-4.51h11.48c.31-4.9-2.41-8.71-7.06-8.71-4.28,0-7.42,3.11-7.42,7.78C151.64,17.47,154.3,21,159.15,21ZM159,7.7a4,4,0,0,1,4.06,4h-8.4C155.12,8.85,156.77,7.7,159,7.7Zm19.72,11a16.28,16.28,0,0,0,.25,2h2.8a27.81,27.81,0,0,1-.42-5.43c0-.64.06-3.25.06-3.61,0-4.51-2.19-6.38-6.08-6.38-3.44,0-6.1,1.9-6.33,5.12H172c.12-1.88,1.26-2.88,3.28-2.88,1.85,0,3.25.89,3.25,3.55v.31c-5.83.59-10.17,1.6-10.17,5.26,0,2.75,2.33,4.43,5.38,4.43C176.18,21,177.86,20.22,178.76,18.68Zm-4.4.11c-1.79,0-2.85-.87-2.85-2.24,0-1.93,2.46-2.61,7.14-3.05v1.09C178.65,17.58,176.74,18.79,174.36,18.79Zm17.88-.45H191c-1.46,0-1.71-.39-1.71-1.93V7.81h3V5.6h-3V1.74h-2.91V5.6h-2.3V7.81h2.3v9c0,3.11.67,3.86,3.72,3.86h2.13Zm9.56-6.58-2.16-.42c-1.37-.31-2.1-.76-2.1-1.88s1.54-1.82,3-1.82c1.71,0,3,.59,3.42,2.16h2.88c-.59-2.91-3-4.51-6-4.51-3.27,0-6.1,1.63-6.1,4.29,0,2.85,2.13,3.83,4.39,4.28l2.27.45c1.57.31,2.89.89,2.89,2.27s-1.43,2.12-3.34,2.12A3.29,3.29,0,0,1,197.29,16h-3c.37,2.83,2.66,5,6.5,5,3.47,0,6.33-1.74,6.33-4.79S204.63,12.35,201.8,11.76Zm21.8,8.9V11.17c0-3.5-1.4-5.85-5-5.85a5.09,5.09,0,0,0-4.73,2.46V.36h-2.91v20.3h2.91V12.57c0-3,1.21-4.81,3.75-4.81,2.78,0,3.11,2,3.11,4.2v8.7ZM230.39,5.6h-2.91V20.66h2.91Zm0-5.24h-2.91V3.58h2.91Zm11,8.15a13.54,13.54,0,0,1,1.51.09v-3a7.31,7.31,0,0,0-.81,0,4.46,4.46,0,0,0-4.17,2.72V5.6H235V20.66H238V12.77C238,9.6,239.13,8.51,241.37,8.51Zm7.73-6.77h-2.91V5.6h-2.3V7.81h2.3v9c0,3.11.67,3.86,3.72,3.86H252V18.34h-1.23c-1.46,0-1.71-.39-1.71-1.93V7.81h3V5.6h-3ZM84.32,35.32a5.65,5.65,0,0,0-5,2.66c-.67-1.68-2-2.66-4.37-2.66a4.85,4.85,0,0,0-4.45,2.46V35.6H67.6V50.66h2.91V42.57c0-3,1.12-4.81,3.47-4.81,2.61,0,3,2,3,4.2v8.7h2.91V42.57c0-3,1.15-4.81,3.48-4.81,2.6,0,3,2,3,4.2v8.7h2.92V41.17C89.22,37.67,87.84,35.32,84.32,35.32Zm8.84,15.34h2.91V35.6H93.16Zm0-17.08h2.91V30.36H93.16Zm11.06-1.84h-2.91V35.6H99v2.21h2.3v9c0,3.11.67,3.86,3.72,3.86h2.13V48.34h-1.23c-1.46,0-1.71-.39-1.71-1.93v-8.6h3V35.6h-3Zm13.9,18.92h3.19v-9.1h9.86V38.88h-9.86v-5.8h10.47V30.36H118.12Zm16.28,0h2.91V30.36H134.4Zm13.94-15.34c-4.28,0-7.42,3.11-7.42,7.78,0,4.37,2.66,7.93,7.51,7.93a6.63,6.63,0,0,0,6.77-4.79h-2.94a3.85,3.85,0,0,1-3.94,2.3c-2.38,0-4.09-1.71-4.4-4.51H155.4C155.71,39.13,153,35.32,148.34,35.32ZM144,41.73c.42-2.88,2.07-4,4.34-4a4,4,0,0,1,4.06,4Zm20.92-6.41c-4.28,0-7.42,3.11-7.42,7.78,0,4.37,2.66,7.93,7.51,7.93a6.63,6.63,0,0,0,6.77-4.79h-2.94a3.85,3.85,0,0,1-3.94,2.3c-2.38,0-4.09-1.71-4.4-4.51H172C172.27,39.13,169.55,35.32,164.9,35.32Zm-4.36,6.41c.42-2.88,2.07-4,4.34-4a4,4,0,0,1,4.06,4Zm20.64,6.81c-2.1,0-4-1.68-4-5.41s1.93-5.32,4-5.32a3.65,3.65,0,0,1,3.76,2.89h2.91a6.49,6.49,0,0,0-6.53-5.38c-4.45,0-7.28,3.39-7.28,7.84S176.76,51,181.13,51A6.86,6.86,0,0,0,188,45.65h-2.94A3.8,3.8,0,0,1,181.18,48.54ZM198,35.32c-4.28,0-7.42,3.11-7.42,7.78,0,4.37,2.66,7.93,7.51,7.93a6.63,6.63,0,0,0,6.77-4.79h-2.94a3.85,3.85,0,0,1-3.94,2.3c-2.38,0-4.09-1.71-4.4-4.51h11.48C205.39,39.13,202.67,35.32,198,35.32Zm-4.36,6.41c.42-2.88,2.07-4,4.34-4a4,4,0,0,1,4.06,4Zm14.84,2.66h9V41.7h-9ZM222,50.66h3.19v-9.1h9.86V38.88h-9.86v-5.8H235.7V30.36H222Zm25.6-6.88c0,3-1.17,4.78-3.64,4.78-2.63,0-3-2-3-4.17V35.6H238.1v9.58c0,3.66,1.37,5.85,4.92,5.85a4.87,4.87,0,0,0,4.6-2.49v2.12h2.94V35.6h-2.92Zm10.74-12h-2.91V35.6h-2.3v2.21h2.3v9c0,3.11.67,3.86,3.72,3.86h2.13V48.34h-1.23c-1.46,0-1.71-.39-1.71-1.93v-8.6h3V35.6h-3Zm9.56,0H265V35.6h-2.3v2.21H265v9c0,3.11.67,3.86,3.72,3.86h2.13V48.34h-1.23c-1.46,0-1.71-.39-1.71-1.93v-8.6h3V35.6h-3Zm12.44,3.58c-4.28,0-7.42,3.11-7.42,7.78,0,4.37,2.66,7.93,7.51,7.93a6.63,6.63,0,0,0,6.77-4.79H284.3a3.85,3.85,0,0,1-3.94,2.3c-2.38,0-4.09-1.71-4.4-4.51h11.48C287.75,39.13,285,35.32,280.38,35.32ZM276,41.73c.42-2.88,2.07-4,4.34-4a4,4,0,0,1,4.06,4Zm21.57-6.19a4.46,4.46,0,0,0-4.17,2.72V35.6h-2.86V50.66h2.91V42.77c0-3.17,1.18-4.26,3.42-4.26a13.54,13.54,0,0,1,1.51.09v-3A7.31,7.31,0,0,0,297.59,35.54Z"/></svg>