<svg id="Layer_1" data-name="Layer 1" xmlns="http://www.w3.org/2000/svg" viewBox="0 0 374 68"><defs><style>.cls-1{fill:#fff;}</style></defs><title>cta1</title><path class="cls-1" d="M86.69,37.11c0,2.83-1.24,4.31-3.39,4.31s-3.45-1.48-3.45-4.31H76.33c0,4.39,2.49,7.22,7,7.22s6.94-2.83,6.94-7.22V23.67H86.69Zm14.43-8.54c-4.29,0-7.39,3.22-7.39,7.75,0,4.34,2.77,8,7.61,8a6.8,6.8,0,0,0,6.83-4.87H104.9a3.64,3.64,0,0,1-3.7,2.1,4.17,4.17,0,0,1-4.09-4.17h11.23C108.65,32.35,105.74,28.57,101.12,28.57Zm-4,6.38a4,4,0,0,1,4-3.78A3.78,3.78,0,0,1,105,35Zm18.27-10h-3.33v4h-2.24v2.41h2.24V40c0,3.08.64,3.95,3.86,3.95h2.47V41.42h-1.21c-1.42,0-1.79-.36-1.79-1.9V31.31h3V28.9h-3Zm18.09,6.52V28.9H121.83v2.55h7.5l-8.06,10V44h12.4V41.42h-8.29Zm7.59-6.52h-3.33v4h-2.24v2.41h2.24V40c0,3.08.64,3.95,3.86,3.95h2.47V41.42h-1.21c-1.42,0-1.79-.36-1.79-1.9V31.31h3V28.9h-3Zm20.26,3.64c-4.29,0-7.39,3.22-7.39,7.75,0,4.34,2.77,8,7.61,8a6.8,6.8,0,0,0,6.83-4.87H165.1a3.64,3.64,0,0,1-3.7,2.1,4.17,4.17,0,0,1-4.09-4.17h11.23C168.85,32.35,165.94,28.57,161.32,28.57Zm-4,6.38a4,4,0,0,1,4-3.78A3.78,3.78,0,0,1,165.15,35Zm22.36-6.38A4.87,4.87,0,0,0,175.11,31V28.9h-3.34V44h3.34V36c0-2.72.92-4.68,3.5-4.68s2.85,2,2.85,4V44h3.33V34.5C184.79,30.92,183.31,28.57,179.67,28.57Zm12.75-3.64h-3.33v4h-2.24v2.41h2.24V40c0,3.08.64,3.95,3.86,3.95h2.47V41.42h-1.21c-1.42,0-1.79-.36-1.79-1.9V31.31h3V28.9h-3Zm17,6A5,5,0,0,0,205,28.57c-3.58,0-6.55,3.05-6.55,7.87s3,7.89,6.55,7.89A5,5,0,0,0,209.45,42v2h3.33V23.67h-3.33Zm-3.75,10.7c-2.24,0-3.81-2-3.81-5.18s1.57-5.16,3.81-5.16,3.89,1.68,3.89,5.16S207.85,41.62,205.7,41.62Zm18-13c-4.29,0-7.39,3.22-7.39,7.75,0,4.34,2.77,8,7.61,8a6.8,6.8,0,0,0,6.83-4.87h-3.27a3.64,3.64,0,0,1-3.7,2.1,4.17,4.17,0,0,1-4.09-4.17H230.9C231.21,32.35,228.3,28.57,223.68,28.57Zm-4,6.38a4,4,0,0,1,4-3.78A3.78,3.78,0,0,1,227.51,35Zm21.74,6.61c-2,0-3.87-1.54-3.87-5.12s1.85-5.1,4-5.1a3.4,3.4,0,0,1,3.5,2.72h3.25a6.67,6.67,0,0,0-6.75-5.49c-4.51,0-7.39,3.41-7.39,7.89s2.88,7.87,7.25,7.87a6.9,6.9,0,0,0,7-5.51H245.1A3.46,3.46,0,0,1,241.41,41.56ZM264.88,28.9h-4L255.31,35V23.67H252V44h3.34V39.15l1.59-1.71L261.63,44h3.9l-6.42-8.88Zm9.32-.33c-4.29,0-7.39,3.22-7.39,7.75,0,4.34,2.77,8,7.61,8a6.8,6.8,0,0,0,6.83-4.87H278a3.64,3.64,0,0,1-3.7,2.1,4.17,4.17,0,0,1-4.09-4.17h11.23C281.73,32.35,278.82,28.57,274.2,28.57Zm-4,6.38a4,4,0,0,1,4-3.78A3.78,3.78,0,0,1,278,35Zm22.36-6.38A4.87,4.87,0,0,0,288,31V28.9h-3.34V44H288V36c0-2.72.92-4.68,3.5-4.68s2.85,2,2.85,4V44h3.33V34.5C297.67,30.92,296.19,28.57,292.55,28.57Z"/></svg>