<svg id="Layer_1" data-name="Layer 1" xmlns="http://www.w3.org/2000/svg" viewBox="0 0 374 68"><defs><style>.cls-1{fill:#fff;}</style></defs><title>cta2</title><path class="cls-1" d="M100,34.84c0,2.83-1.24,4.31-3.39,4.31s-3.45-1.48-3.45-4.31H89.67c0,4.4,2.49,7.22,7,7.22s6.94-2.82,6.94-7.22V21.4H100Zm14.43-8.54c-4.29,0-7.39,3.22-7.39,7.76,0,4.34,2.77,8,7.61,8a6.8,6.8,0,0,0,6.83-4.87h-3.27a3.64,3.64,0,0,1-3.7,2.1,4.17,4.17,0,0,1-4.09-4.17h11.23C122,30.08,119.08,26.3,114.46,26.3Zm-4,6.38a4,4,0,0,1,4-3.78,3.78,3.78,0,0,1,3.83,3.78Zm18.27-10h-3.33v4h-2.24V29h2.24v8.71c0,3.08.64,4,3.86,4h2.47V39.15h-1.21c-1.42,0-1.79-.36-1.79-1.9V29h3v-2.4h-3Zm18.09,6.52V26.64H135.17v2.54h7.5l-8.06,10V41.7H147V39.15h-8.29Zm7.59-6.52h-3.33v4h-2.24V29h2.24v8.71c0,3.08.64,4,3.86,4h2.47V39.15h-1.21c-1.42,0-1.79-.36-1.79-1.9V29h3v-2.4h-3Zm20.51,10.05-2.13-.42c-1.31-.25-2-.78-2-1.79s1.34-1.65,2.8-1.65c1.68,0,2.94.53,3.3,1.9H180c-.62-3-3.31-4.45-6.25-4.45-3.25,0-6.13,1.71-6.13,4.37s2,3.86,4.54,4.39l2.26.45c1.49.31,2.61.84,2.61,2.07s-1.26,2-3,2c-2,0-3.08-.86-3.38-2.43h-3.25c.36,2.83,2.83,5,6.52,5,3.42,0,6.39-1.73,6.39-4.87C180.29,34.25,178,33.3,174.91,32.71ZM192,26.3a4.86,4.86,0,0,0-4.56,2.44V21.4h-3.34V41.7h3.34v-8c0-2.71.92-4.67,3.5-4.67s2.85,2,2.85,4V41.7h3.33V32.24C197.13,28.65,195.65,26.3,192,26.3Zm15.36,0c-3.67,0-7.42,2.46-7.42,7.9s3.75,7.86,7.42,7.86,7.42-2.4,7.42-7.86S211,26.3,207.37,26.3Zm0,13.05c-2.13,0-4-1.68-4-5.15s1.85-5.18,4-5.18,4,1.7,4,5.18S209.49,39.35,207.37,39.35Zm19.24-13a5,5,0,0,0-4.48,2.35v-2h-3.34v20h3.34V39.71a5,5,0,0,0,4.48,2.35c3.69,0,6.46-3.05,6.46-7.89S230.3,26.3,226.61,26.3Zm-.73,13.05c-2.19,0-3.89-1.71-3.89-5.18s1.7-5.15,3.89-5.15c2.35,0,3.72,2,3.72,5.15S228.23,39.35,225.88,39.35Zm18.57-13A5,5,0,0,0,240,28.65v-2h-3.34v20H240V39.71a5,5,0,0,0,4.48,2.35c3.69,0,6.46-3.05,6.46-7.89S248.14,26.3,244.45,26.3Zm-.73,13.05c-2.19,0-3.89-1.71-3.89-5.18s1.7-5.15,3.89-5.15c2.35,0,3.72,2,3.72,5.15S246.07,39.35,243.72,39.35Zm17.14-13c-4.29,0-7.39,3.22-7.39,7.76,0,4.34,2.77,8,7.61,8a6.8,6.8,0,0,0,6.83-4.87h-3.27a3.64,3.64,0,0,1-3.7,2.1,4.17,4.17,0,0,1-4.09-4.17h11.23C268.39,30.08,265.48,26.3,260.86,26.3Zm-4,6.38a4,4,0,0,1,4-3.78,3.78,3.78,0,0,1,3.83,3.78Zm22.36-6.38a4.86,4.86,0,0,0-4.56,2.44v-2.1h-3.34V41.7h3.34v-8c0-2.71.92-4.67,3.5-4.67s2.85,2,2.85,4V41.7h3.33V32.24C284.33,28.65,282.85,26.3,279.21,26.3Z"/></svg>