<svg id="Layer_1" data-name="Layer 1" xmlns="http://www.w3.org/2000/svg" viewBox="0 0 380 209"><title>headline</title><path d="M43.38,51.32V1.62h-6v39L9.85,1.62H2.62l34.8,49.7Zm-40.76,0h6V18.92l-6-8.69Zm86.87-5.76H64.9v5.76H89.49Zm0-43.94H64.9V7.38H89.49Zm-30.09,0h-6v49.7h6ZM89.49,22.36H64.9v5.77H89.49Zm29.69,29L102.42,1.62H96l16.76,49.7ZM132.9,10.76l13.59,40.56h6.29L136,1.62h-5.9l-11.4,33.86,2.92,8.82Zm37-9.14h-6.16l-11.27,34.2,2.92,8.88Zm35.38,49.7h6V28.53L194.72,1.62h-6.83L205.26,30Zm23.52-49.7h-6.49l-11,18.22L214.53,25Zm40.76,0H245V7.38h24.58Zm0,43.94H245v5.76h24.58ZM239.45,1.62h-6v49.7h6Zm30.09,20.74H245v5.77h24.58Zm32.68,13.79L300,30.45H288.57l5.76-14.65-3.05-7.75-17,43.27h6.1l6-15.17Zm17.89,15.17L300.63,1.62h-6.36l19.48,49.7Zm4,0h5.76V1.62h-5.76Zm37.84-35.85c0-8-6-13.85-15.37-13.85h-11.2V7.38H346.4c6.17,0,9.28,3.65,9.28,8.09s-3.11,8.08-9.28,8.08H335.34v5.7h11.2C355.55,29.25,361.91,23.55,361.91,15.47Zm-17.1,18.76,11.34,17.09h7.15L351.71,34.23Zm28.79,9.21a4.18,4.18,0,1,0,4.18,4.17A4.16,4.16,0,0,0,373.6,43.44ZM36.86,83.06,37,124.17l6,0-.07-32.41Zm40.75-8.7h-6l.08,39.05-27.66-39-7.23,0,34.91,49.64h6ZM123.21,95l-24.59,0v5.77l24.6,0Zm0-20.75-24.6,0,0,5.77,24.59,0Zm.09,43.95-24.59.05V124l24.6,0Zm-36.05,5.85,6,0-.11-49.72-6,0Zm115.86-50h-6.16l-11.2,34.23,2.94,8.88Zm-73.92.16L146,123.93h6.43L135.59,74.23Zm36.95,9.06,13.68,40.55,6.3,0L169.2,74.16h-5.9L152,108.07l2.93,8.81Zm91,40.38L234.33,74H227l.11,49.72h6L233,85.42l17.39,38.28Zm15.34-49.75-16.16,36.43,2.93,6.35,14.31-32.38.09,39.31h6l-.1-49.72Zm29.37-.07v5.77l24.59,0V73.82Zm24.65,26.47V94.57l-24.6.05v5.77Zm-24.56,17.49v5.76l24.6,0v-5.77Zm-11.45,5.79,6,0-.11-49.71h-6Zm50.11-8a4.18,4.18,0,1,0,4.19,4.17A4.16,4.16,0,0,0,340.57,115.62ZM81.13,161.15l-2.37-.53c-1.91-.42-3.32-1.32-3.32-3.11,0-2.27,2.76-3,4.34-3,2,0,4.39.82,5.06,3.14h2.79c-.82-3.89-4-5.54-7.74-5.54-3.3,0-7.38,1.65-7.38,5.54,0,3.36,2.79,4.93,5.6,5.54l2.54.53c2.53.59,4.39,1.43,4.39,3.59,0,2-1.72,3.41-4.76,3.41s-5.09-1.45-5.63-4.25H71.84c.53,4,3.57,6.66,8.39,6.66,4,0,7.77-2.13,7.77-6.08S84.25,161.82,81.13,161.15ZM95.67,154H93.11v3.78H90.72v2h2.39V169c0,3.13.67,3.78,3.57,3.78h1.86v-2.13H97.25c-1.47,0-1.58-.39-1.58-2v-8.93h2.87v-2H95.67Zm18,13.15,0-3.47c0-4.25-1.83-6.21-6-6.21-2.93,0-5.86,1.82-6.09,5.06h2.65c.11-1.87,1.32-3,3.46-3,1.92,0,3.44.89,3.44,3.67v.36c-6.2.67-10.25,1.74-10.25,5.29,0,2.77,2.37,4.34,5.21,4.34s4.25-.87,5.18-2.44a15.57,15.57,0,0,0,.2,2.08h2.59A25.51,25.51,0,0,1,113.69,167.11Zm-2.33-.61c0,3.55-2.28,4.64-4.68,4.64-1.83,0-2.93-.95-2.93-2.38,0-2.07,3-2.77,7.61-3.21Zm9-6.13v-2.63H117.9V172.8h2.56v-7.9c0-3.33,1.18-4.62,3.55-4.62a9.82,9.82,0,0,1,1.44.11v-2.71a7,7,0,0,0-.77,0A4.59,4.59,0,0,0,120.41,160.37Zm12.34,12.43h1.86v-2.13h-1.3c-1.46,0-1.57-.39-1.57-2v-8.93h2.87v-2h-2.87V154h-2.57v3.78h-2.39v2h2.39V169C129.17,172.15,129.85,172.8,132.75,172.8Zm18.3-4.37h-2.64a4.08,4.08,0,0,1-4.14,2.49,4.65,4.65,0,0,1-4.68-4.81h11.66c.31-4.79-2.42-8.63-7.07-8.63-4.13,0-7.34,3-7.34,7.81,0,4.45,2.64,7.87,7.43,7.87C148,173.16,150.38,171,151.05,168.43Zm-6.87-8.76a4.3,4.3,0,0,1,4.37,4.25h-8.93A4.27,4.27,0,0,1,144.18,159.67Zm28.5,10.86v2.27h2.56V152.5h-2.56v7.61a5.33,5.33,0,0,0-5-2.63c-3.49,0-6.47,2.91-6.47,7.84s3,7.84,6.47,7.84A5.33,5.33,0,0,0,172.68,170.53Zm-4.31.45c-2.62,0-4.33-2-4.33-5.66s1.71-5.65,4.33-5.65c2.28,0,4.42,1.68,4.42,5.65S170.65,171,168.37,171Zm20.61-.26a15.82,15.82,0,0,0,.19,2.08h2.59a25.62,25.62,0,0,1-.39-5.69l0-3.47c0-4.25-1.83-6.21-6-6.21-2.93,0-5.85,1.82-6.08,5.06h2.65c.11-1.87,1.32-3,3.46-3,1.91,0,3.44.89,3.44,3.67v.36c-6.2.67-10.25,1.74-10.25,5.29,0,2.77,2.36,4.34,5.21,4.34C186.5,173.16,188.05,172.29,189,170.72Zm-4.62.42c-1.83,0-2.93-.95-2.93-2.38,0-2.07,3-2.77,7.6-3.21v.95C189,170.05,186.75,171.14,184.36,171.14ZM201,171a3.55,3.55,0,0,1-3.86-3.08h-2.7c.31,2.64,2.53,5.24,6.5,5.24,3.47,0,6.17-1.68,6.17-4.68s-2.42-4-5.18-4.47l-2.14-.42c-1.47-.31-2.31-.84-2.31-2.05,0-1.37,1.69-1.9,3.18-1.9,1.8,0,3.16.7,3.58,2.49h2.67c-.48-2.88-2.67-4.67-6-4.67s-6,1.53-6,4.19c0,2.83,2.25,3.73,4.31,4.18l2.25.44c1.63.37,3.07.95,3.07,2.49S203,171,201,171Zm27.85-4.64V152.5H226v13.83c0,3.69-1.88,4.51-3.55,4.51-2,0-3.71-1.52-3.71-4.31h-2.68c0,4.39,2.42,6.63,6.39,6.63S228.86,170.81,228.86,166.36Zm14.49,4.36a17.77,17.77,0,0,0,.19,2.08h2.59a26.24,26.24,0,0,1-.39-5.69l0-3.47c0-4.25-1.83-6.21-6-6.21-2.92,0-5.85,1.82-6.08,5.06h2.65c.11-1.87,1.32-3,3.46-3,1.92,0,3.44.89,3.44,3.67v.36c-6.2.67-10.25,1.74-10.25,5.29,0,2.77,2.36,4.34,5.21,4.34S242.42,172.29,243.35,170.72Zm-7.55-2c0-2.07,3-2.77,7.6-3.21v.95c0,3.55-2.28,4.64-4.67,4.64C236.9,171.14,235.8,170.19,235.8,168.76Zm20.71-9.07c2.93,0,3.32,2,3.32,4.34v8.77h2.56v-9.52c0-3.45-1.32-5.8-5-5.8a5.28,5.28,0,0,0-4.9,2.52v-7.5H250v20.3h2.56v-8.18C252.51,161.37,254,159.69,256.51,159.69Zm13.14.68v-2.63h-2.51V172.8h2.57v-7.9c0-3.33,1.18-4.62,3.54-4.62a9.72,9.72,0,0,1,1.44.11v-2.71a7,7,0,0,0-.76,0A4.6,4.6,0,0,0,269.65,160.37Zm15.9-3.73v1.1h-2.11v2h2.11v13h2.56v-13H291v-2h-2.85V156.5c0-1.56.23-1.87,1.58-1.87H291V152.5h-1.33C286.17,152.5,285.55,153.51,285.55,156.64Zm8.79,16.16h2.56V157.74h-2.56Zm0-17.22h2.56V152.5h-2.56ZM304.85,154h-2.56v3.78h-2.4v2h2.4V169c0,3.13.67,3.78,3.57,3.78h1.86v-2.13h-1.29c-1.47,0-1.58-.39-1.58-2v-8.93h2.87v-2h-2.87ZM122.58,196.89c0,3.25-1.41,4.93-3.86,4.93-2.82,0-3.18-2-3.18-4.34v-8.87H113v9.63c0,3.44,1.36,5.79,4.85,5.79a5.12,5.12,0,0,0,4.76-2.52v2.16h2.56V188.61h-2.56Zm14.17-8.54a5.3,5.3,0,0,0-4.9,2.52v-2.26h-2.56v15.06h2.56v-8.18c0-3.25,1.52-4.92,4-4.92,2.93,0,3.32,2,3.32,4.33v8.77h2.56v-9.52C141.73,190.71,140.41,188.35,136.75,188.35ZM156.87,191a5.3,5.3,0,0,0-5-2.64c-3.49,0-6.48,2.92-6.48,7.84s3,7.84,6.48,7.84a5.32,5.32,0,0,0,5-2.63v2.27h2.57v-20.3h-2.57Zm-4.3,10.86c-2.62,0-4.34-2-4.34-5.66s1.72-5.65,4.34-5.65c2.28,0,4.42,1.68,4.42,5.65S154.85,201.85,152.57,201.85ZM181.09,191a5.08,5.08,0,0,0-4.81-2.64c-3.36,0-6.42,2.72-6.42,7.53s3.06,7.53,6.42,7.53a5.05,5.05,0,0,0,4.81-2.6v1.43c0,2.07-.45,2.71-1,3.33a4,4,0,0,1-3.09,1.12c-2.34,0-3.21-1-3.52-2.38h-2.73c.48,3.05,2.76,4.62,6.22,4.62a6.86,6.86,0,0,0,5.24-2c.87-.95,1.43-2.24,1.43-5.29v-13h-2.56Zm-4.17,10.27c-2.5,0-4.28-1.9-4.28-5.38s1.78-5.34,4.28-5.34c2.26,0,4.28,1.54,4.28,5.34S179.18,201.26,176.92,201.26Zm17.48-12.91c-4.14,0-7.35,3-7.35,7.81,0,4.46,2.65,7.87,7.44,7.87,3.68,0,6.11-2.16,6.78-4.73h-2.65a4.06,4.06,0,0,1-4.13,2.49,4.65,4.65,0,0,1-4.68-4.81h11.66C201.78,192.19,199.05,188.35,194.4,188.35Zm-4.56,6.44a4.47,4.47,0,0,1,8.93,0Zm21.81.09-2.14-.42c-1.46-.31-2.3-.84-2.3-2.05,0-1.37,1.69-1.9,3.18-1.9,1.8,0,3.15.7,3.57,2.49h2.68c-.48-2.88-2.68-4.67-6-4.67s-6,1.54-6,4.19c0,2.83,2.25,3.73,4.3,4.18l2.26.44c1.63.37,3.06,1,3.06,2.5s-1.57,2.23-3.51,2.23a3.55,3.55,0,0,1-3.86-3.07h-2.7c.3,2.63,2.53,5.23,6.5,5.23,3.46,0,6.17-1.68,6.17-4.67S214.41,195.38,211.65,194.88Zm18,2c0,3.25-1.41,4.93-3.86,4.93-2.82,0-3.18-2-3.18-4.34v-8.87h-2.56v9.63c0,3.44,1.35,5.79,4.84,5.79a5.12,5.12,0,0,0,4.76-2.52v2.16h2.56V188.61h-2.56Zm14.17-8.54a5.3,5.3,0,0,0-4.9,2.52v-2.26h-2.56v15.06h2.56v-8.18c0-3.25,1.52-4.92,4-4.92,2.93,0,3.32,2,3.32,4.33v8.77h2.56v-9.52C248.8,190.71,247.48,188.35,243.82,188.35ZM263.94,191a5.29,5.29,0,0,0-4.95-2.64c-3.49,0-6.48,2.92-6.48,7.84s3,7.84,6.48,7.84a5.31,5.31,0,0,0,4.95-2.63v2.27h2.57v-20.3h-2.57Zm-4.3,10.86c-2.62,0-4.34-2-4.34-5.66s1.72-5.65,4.34-5.65c2.28,0,4.42,1.68,4.42,5.65S261.92,201.85,259.64,201.85Z"/></svg>