<svg id="Layer_1" data-name="Layer 1" xmlns="http://www.w3.org/2000/svg" viewBox="0 0 90 90"><defs><style>.cls-1{stroke:#000;stroke-miterlimit:10;stroke-width:2px;}</style></defs><title>ico-yes</title><path class="cls-1" d="M45,87A42,42,0,1,1,87,45,42,42,0,0,1,45,87ZM45,6A39,39,0,1,0,84,45,39,39,0,0,0,45,6Z"/><path class="cls-1" d="M39.14,62.43A1.53,1.53,0,0,1,38.08,62L23.56,47.7a1.51,1.51,0,0,1,2.12-2.16L39.14,58.79,66,31.93a1.51,1.51,0,0,1,2.13,2.13L40.21,62A1.51,1.51,0,0,1,39.14,62.43Z"/></svg>