<svg id="Layer_1" data-name="Layer 1" xmlns="http://www.w3.org/2000/svg" viewBox="0 0 90 90"><defs><style>.cls-1{stroke:#000;stroke-miterlimit:10;stroke-width:2px;}</style></defs><title>ico-no</title><path class="cls-1" d="M45,87A42,42,0,1,1,87,45,42,42,0,0,1,45,87ZM45,6A39,39,0,1,0,84,45,39,39,0,0,0,45,6Z"/><path class="cls-1" d="M61.16,62.67a1.48,1.48,0,0,1-1.07-.45L27.78,29.91a1.51,1.51,0,1,1,2.13-2.13L62.22,60.09a1.5,1.5,0,0,1,0,2.13A1.48,1.48,0,0,1,61.16,62.67Z"/><path class="cls-1" d="M28.84,62.67a1.48,1.48,0,0,1-1.06-.45,1.5,1.5,0,0,1,0-2.13L60.09,27.78a1.51,1.51,0,1,1,2.13,2.13L29.91,62.22A1.48,1.48,0,0,1,28.84,62.67Z"/></svg>