<svg id="Layer_1" data-name="Layer 1" xmlns="http://www.w3.org/2000/svg" viewBox="0 0 800 34"><defs><style>.cls-1{fill:#0a0204;}.cls-2{fill:#fff;}</style></defs><title>Logo</title><rect class="cls-1" x="1.73" y="-0.39" width="798.27" height="34.06"/><rect class="cls-2" x="1.73" y="4.15" width="798.27" height="1.02"/><rect class="cls-2" x="1.73" y="28.27" width="798.27" height="1.01"/><path class="cls-2" d="M276.19,10.69H285v1.39h-8.79Zm0,5.32H285v1.38h-8.79Zm0,5.32H285v1.39h-8.79Z"/><path class="cls-2" d="M292.16,15.87c3.37.55,4.3,1.57,4.3,3.45S295,23,291.64,23s-4.95-2.13-5.15-4.09h1.56c.26,1.59,1.5,2.73,3.65,2.73,2.54,0,3.35-1.12,3.37-2.23s-.58-1.77-2.91-2.17Zm-1.33,1.24c-1.8-.16-4-.87-4-3.26,0-2.09,2-3.4,4.42-3.4,3.19,0,4.54,2.1,4.68,3.5h-1.6a2.83,2.83,0,0,0-3.08-2.14c-1.88,0-3,.9-3,2.06s1.09,1.69,2.57,1.89Z"/><path class="cls-2" d="M299.56,22.72h-1.4v-12h1.4Zm1.33-10.64V10.69h2.36c2.26,0,3.71,1.41,3.71,3.35a3.41,3.41,0,0,1-3.71,3.35h-2.36V16h2.36c1.49,0,2.31-.8,2.31-2s-.82-2-2.31-2Z"/><path class="cls-2" d="M308.64,10.69H310v12h-1.4Zm5.44,0c2.26,0,3.71,1.41,3.71,3.35a3.41,3.41,0,0,1-3.71,3.35h-2.71V16H314c1.5,0,2.28-.87,2.28-2a2,2,0,0,0-2.28-2h-2.66V10.69Zm2.31,12-2.72-4.12h1.66l2.81,4.12Z"/><rect class="cls-2" x="319.79" y="10.69" width="1.39" height="12.04"/><path class="cls-2" d="M322.68,10.69h9.12v1.39h-9.12Zm5.27,12h-1.4V13.38H328Z"/><path class="cls-2" d="M341.64,15.86c3.37.55,4.3,1.57,4.3,3.45S344.51,23,341.12,23s-5-2.13-5.15-4.09h1.56c.26,1.59,1.49,2.73,3.64,2.73,2.55,0,3.36-1.13,3.37-2.23s-.57-1.77-2.9-2.17Zm-1.33,1.23c-1.8-.16-4-.86-4-3.25,0-2.09,2-3.4,4.42-3.4,3.19,0,4.53,2.1,4.68,3.5h-1.61a2.82,2.82,0,0,0-3.07-2.14c-1.88,0-3,.9-3,2s1.09,1.71,2.57,1.89Z"/><path class="cls-2" d="M349,22.72h-1.39v-12H349Zm1.34-10.65V10.68h2.35c2.27,0,3.71,1.41,3.71,3.35a3.41,3.41,0,0,1-3.71,3.35h-2.35V16h2.35c1.5,0,2.32-.81,2.32-2s-.82-2-2.32-2Z"/><path class="cls-2" d="M357.46,16a6.27,6.27,0,0,1,12.46,0h-1.49A4.78,4.78,0,0,0,359,16Zm12.46,1.35a6.27,6.27,0,0,1-12.46,0H359a4.77,4.77,0,0,0,9.48,0Z"/><path class="cls-2" d="M371.78,10.68h1.39v12h-1.39Zm5.44,0c2.26,0,3.7,1.41,3.7,3.36a3.4,3.4,0,0,1-3.7,3.35h-2.71V16h2.66c1.49,0,2.28-.86,2.28-2a2,2,0,0,0-2.28-2h-2.66v-1.4Zm2.31,12-2.73-4.13h1.67l2.81,4.13Z"/><path class="cls-2" d="M381.57,10.68h9.11v1.4h-9.11Zm5.26,12h-1.39V13.38h1.39Z"/><path class="cls-2" d="M411,10.69h8.8v1.39H411ZM411,16h8.8v1.38H411Zm0,5.32h8.8v1.39H411Z"/><path class="cls-2" d="M427,15.87c3.37.55,4.3,1.57,4.3,3.45S429.84,23,426.45,23s-4.95-2.13-5.15-4.09h1.56c.26,1.59,1.49,2.73,3.64,2.73,2.55,0,3.35-1.12,3.38-2.23s-.59-1.77-2.91-2.17Zm-1.33,1.24c-1.8-.16-4-.87-4-3.26,0-2.09,2-3.4,4.41-3.4,3.2,0,4.55,2.1,4.69,3.5h-1.6a2.84,2.84,0,0,0-3.09-2.14c-1.87,0-3,.9-3,2.06s1.09,1.69,2.57,1.89Z"/><path class="cls-2" d="M434.37,22.72H433v-12h1.4Zm1.33-10.64V10.69h2.36c2.26,0,3.7,1.41,3.7,3.35a3.4,3.4,0,0,1-3.7,3.35H435.7V16h2.36c1.49,0,2.31-.8,2.31-2s-.82-2-2.31-2Z"/><path class="cls-2" d="M443.45,10.69h1.39v12h-1.39Zm5.44,0c2.26,0,3.7,1.41,3.7,3.35a3.4,3.4,0,0,1-3.7,3.35h-2.71V16h2.66c1.5,0,2.28-.87,2.28-2a2,2,0,0,0-2.28-2h-2.66V10.69Zm2.31,12-2.72-4.12h1.66L453,22.72Z"/><rect class="cls-2" x="454.6" y="10.69" width="1.4" height="12.04"/><path class="cls-2" d="M457.49,10.69h9.12v1.39h-9.12Zm5.26,12h-1.39V13.38h1.39Z"/><path class="cls-2" d="M476.44,15.86c3.38.55,4.31,1.57,4.31,3.45S479.32,23,475.93,23s-4.95-2.13-5.15-4.09h1.56c.25,1.59,1.49,2.73,3.64,2.73,2.55,0,3.36-1.13,3.37-2.23s-.58-1.77-2.91-2.17Zm-1.33,1.23c-1.79-.16-4-.86-4-3.25,0-2.09,2-3.4,4.41-3.4,3.2,0,4.55,2.1,4.69,3.5h-1.6a2.84,2.84,0,0,0-3.09-2.14c-1.87,0-3,.9-3,2s1.09,1.71,2.56,1.89Z"/><path class="cls-2" d="M483.84,22.72h-1.39v-12h1.39Zm1.34-10.65V10.68h2.36c2.26,0,3.7,1.41,3.7,3.35a3.4,3.4,0,0,1-3.7,3.35h-2.36V16h2.36c1.49,0,2.31-.81,2.31-2s-.82-2-2.31-2Z"/><path class="cls-2" d="M492.27,16a6.27,6.27,0,0,1,12.47,0h-1.5a4.77,4.77,0,0,0-9.47,0Zm12.47,1.35a6.27,6.27,0,0,1-12.47,0h1.5a4.77,4.77,0,0,0,9.47,0Z"/><path class="cls-2" d="M506.59,10.68H508v12h-1.39Zm5.43,0c2.27,0,3.71,1.41,3.71,3.36A3.41,3.41,0,0,1,512,17.39h-2.71V16H512c1.49,0,2.27-.86,2.27-2a2,2,0,0,0-2.27-2h-2.67v-1.4Zm2.32,12-2.73-4.13h1.67l2.8,4.13Z"/><path class="cls-2" d="M516.38,10.68h9.11v1.4h-9.11Zm5.26,12h-1.39V13.38h1.39Z"/></svg>