<svg id="Layer_1" data-name="Layer 1" xmlns="http://www.w3.org/2000/svg" viewBox="0 0 301 87"><title>txt-fin</title><path d="M78.75,18.74H67.83V12H78.1V9.52H67.83V3.36H78.75V.9H65V21.2H78.75ZM84.69,13c0-3.24,1.51-4.92,4-4.92,2.91,0,3.31,2,3.31,4.34V21.2h2.54V11.68c0-3.44-1.31-5.8-5-5.8A5.24,5.24,0,0,0,84.69,8.4V6.14H82.14V21.2h2.55Zm14.74,4.4c0,3.14.67,3.78,3.55,3.78h1.85V19.07h-1.29c-1.45,0-1.57-.39-1.57-2V8.18h2.86v-2H102V2.36H99.43V6.14H97.05v2h2.38Zm14.23,4.14a5.27,5.27,0,0,0,4.93-2.63V21.2h2.55V.9h-2.55V8.52a5.27,5.27,0,0,0-4.93-2.64c-3.47,0-6.44,2.92-6.44,7.84S110.19,21.56,113.66,21.56Zm.65-13.49c2.26,0,4.39,1.68,4.39,5.65s-2.13,5.66-4.39,5.66c-2.61,0-4.32-2-4.32-5.66S111.7,8.07,114.31,8.07Zm17.86,13.49c3.67,0,6.08-2.15,6.75-4.73h-2.63a4,4,0,0,1-4.12,2.49,4.61,4.61,0,0,1-4.64-4.81h11.59c.31-4.79-2.41-8.63-7-8.63-4.12,0-7.31,3-7.31,7.82C124.78,18.15,127.41,21.56,132.17,21.56Zm-.08-13.49a4.28,4.28,0,0,1,4.34,4.25h-8.88A4.26,4.26,0,0,1,132.09,8.07Zm16.28,13.49a6.7,6.7,0,0,0,6.72-5.26h-2.63a4,4,0,0,1-4,3c-2.24,0-4.34-1.84-4.34-5.65s2.1-5.55,4.34-5.55a3.84,3.84,0,0,1,3.9,3.06h2.57a6.22,6.22,0,0,0-6.3-5.3c-4.45,0-7.28,3.34-7.28,7.82S144,21.56,148.37,21.56ZM165,12.38l5.74-6.24h-3.14l-6.07,6.77V.9h-2.55V21.2h2.55v-5l1.76-1.9,5.12,6.94h3.11Zm14.89,9.18c3.67,0,6.08-2.15,6.75-4.73H184a4,4,0,0,1-4.12,2.49,4.61,4.61,0,0,1-4.64-4.81H186.8c.31-4.79-2.41-8.63-7-8.63-4.12,0-7.31,3-7.31,7.82C172.46,18.15,175.09,21.56,179.85,21.56Zm-.08-13.49a4.28,4.28,0,0,1,4.34,4.25h-8.88A4.26,4.26,0,0,1,179.77,8.07ZM208,8.52A5.27,5.27,0,0,0,203,5.88c-3.47,0-6.44,2.92-6.44,7.84s3,7.84,6.44,7.84A5.27,5.27,0,0,0,208,18.93V21.2h2.55V.9H208Zm-4.28,10.86c-2.61,0-4.32-2-4.32-5.66s1.71-5.65,4.32-5.65c2.26,0,4.39,1.68,4.39,5.65S205.93,19.38,203.67,19.38ZM217.73,6.14h-2.55V21.2h2.55Zm0-5.24h-2.55V4h2.55Zm11.36,20.66c3.67,0,6.08-2.15,6.75-4.73h-2.63a4,4,0,0,1-4.12,2.49,4.61,4.61,0,0,1-4.64-4.81H236c.31-4.79-2.41-8.63-7-8.63-4.12,0-7.31,3-7.31,7.82C221.7,18.15,224.33,21.56,229.09,21.56ZM229,8.07a4.28,4.28,0,0,1,4.34,4.25h-8.88A4.26,4.26,0,0,1,229,8.07ZM1.89,51.2H15.67V48.74H4.75V42H15V39.52H4.75V33.36H15.67V30.9H1.89Zm22.57-1.79a3.54,3.54,0,0,1-3.83-3.08H17.94c.31,2.63,2.52,5.23,6.47,5.23,3.44,0,6.13-1.68,6.13-4.67s-2.41-4-5.15-4.48L23.26,42c-1.46-.31-2.3-.84-2.3-2.05,0-1.37,1.68-1.9,3.17-1.9,1.79,0,3.13.7,3.55,2.49h2.66c-.47-2.88-2.66-4.67-5.93-4.67s-6,1.54-6,4.2c0,2.82,2.24,3.72,4.28,4.17l2.24.45c1.62.36,3.05,1,3.05,2.49S26.39,49.41,24.46,49.41Zm12.71-.48a5.26,5.26,0,0,0,4.92,2.63c3.48,0,6.44-2.82,6.44-7.84s-3-7.84-6.44-7.84a5.27,5.27,0,0,0-4.92,2.64V36.14H34.62v20h2.55Zm4.28-10.86c2.6,0,4.31,2,4.31,5.65s-1.71,5.66-4.31,5.66c-2.27,0-4.4-1.68-4.4-5.66S39.18,38.07,41.45,38.07Zm18.23-2a6.79,6.79,0,0,0-.75,0,4.58,4.58,0,0,0-4.26,2.72V36.14H52.18V51.2h2.55V43.3c0-3.33,1.17-4.62,3.52-4.62a8.51,8.51,0,0,1,1.43.12Zm5.61-5.18H62.74V34h2.55Zm0,5.24H62.74V51.2h2.55Zm8.28-3.78H71v3.78H68.65v2H71v9.24c0,3.14.67,3.78,3.55,3.78h1.85V49.07H75.14c-1.45,0-1.57-.39-1.57-2V38.18h2.86v-2H73.57ZM94.7,49.16c-3.14,0-5.07-1.46-5.6-4.26H86.3c.53,4,3.55,6.66,8.34,6.66,4,0,7.73-2.12,7.73-6.07s-3.72-5.27-6.83-5.94L93.19,39c-1.91-.42-3.31-1.32-3.31-3.11,0-2.27,2.75-3,4.31-3,2,0,4.37.82,5,3.14H102c-.82-3.89-4-5.54-7.7-5.54C91,30.54,87,32.19,87,36.08c0,3.36,2.77,4.93,5.57,5.54l2.52.54c2.52.58,4.37,1.42,4.37,3.58S97.72,49.16,94.7,49.16Zm25.19-5.44c0-4.92-3-7.84-6.44-7.84a5.27,5.27,0,0,0-4.92,2.64V36.14H106v20h2.55V48.93a5.26,5.26,0,0,0,4.92,2.63C116.93,51.56,119.89,48.74,119.89,43.72Zm-11.48,0c0-4,2.13-5.65,4.4-5.65,2.6,0,4.31,2,4.31,5.65s-1.71,5.66-4.31,5.66C110.54,49.38,108.41,47.7,108.41,43.72Zm21.37-7.84c-3.5,0-7.22,2.38-7.22,7.84s3.72,7.84,7.22,7.84S137,49.18,137,43.72,133.28,35.88,129.78,35.88Zm0,13.44c-2.32,0-4.51-1.56-4.51-5.6s2.19-5.6,4.51-5.6,4.51,1.57,4.51,5.6C134.29,47.59,132.11,49.32,129.78,49.32Zm13.87-6c0-3.33,1.17-4.62,3.52-4.62a8.51,8.51,0,0,1,1.43.12V36.08a6.79,6.79,0,0,0-.75,0,4.58,4.58,0,0,0-4.26,2.72V36.14H141.1V51.2h2.55Zm12.29,7.9h1.85V49.07H156.5c-1.45,0-1.57-.39-1.57-2V38.18h2.86v-2h-2.86V32.36h-2.54v3.78H150v2h2.38v9.24C152.39,50.56,153.06,51.2,155.94,51.2Zm29.67,0-8.46-12,7.59-8.29h-3.56L172,41.12V30.9h-2.86V51.2H172V44.82l3.19-3.53,7,9.91Zm15.2-7.48c0-5.46-3.73-7.84-7.23-7.84s-7.22,2.38-7.22,7.84,3.72,7.84,7.22,7.84S200.81,49.18,200.81,43.72Zm-7.23,5.6c-2.32,0-4.51-1.56-4.51-5.6s2.19-5.6,4.51-5.6,4.51,1.57,4.51,5.6C198.09,47.59,195.91,49.32,193.58,49.32ZM207.45,30.9H204.9V51.2h2.55Zm7.56,0h-2.55V51.2H215Zm11.28,5c-4.12,0-7.31,3-7.31,7.82,0,4.45,2.63,7.86,7.39,7.86,3.67,0,6.08-2.15,6.75-4.73h-2.63a4,4,0,0,1-4.12,2.49,4.61,4.61,0,0,1-4.64-4.81h11.59C233.63,39.72,230.91,35.88,226.29,35.88Zm-4.54,6.44a4.44,4.44,0,0,1,8.88,0Zm17.38,3.84,1.76-1.9L246,51.2h3.11l-6.52-8.82,5.74-6.24H245.2l-6.07,6.77v-12h-2.55V51.2h2.55Zm16.29,5h1.85V49.07H256c-1.45,0-1.57-.39-1.57-2V38.18h2.86v-2h-2.86V32.36h-2.54v3.78h-2.38v2h2.38v9.24C251.87,50.56,252.54,51.2,255.42,51.2Zm7.83-20.3H260.7V34h2.55Zm0,5.24H260.7V51.2h2.55Zm11.25-.26c-3.5,0-7.22,2.38-7.22,7.84s3.72,7.84,7.22,7.84,7.23-2.38,7.23-7.84S278,35.88,274.5,35.88Zm0,13.44c-2.32,0-4.51-1.56-4.51-5.6s2.19-5.6,4.51-5.6,4.51,1.57,4.51,5.6C279,47.59,276.83,49.32,274.5,49.32Zm18.74-13.44a5.24,5.24,0,0,0-4.87,2.52V36.14h-2.55V51.2h2.55V43c0-3.24,1.51-4.92,4-4.92,2.91,0,3.31,2,3.31,4.34V51.2h2.54V41.68C298.19,38.24,296.88,35.88,293.24,35.88ZM12.1,74.42c0,3.25-1.4,4.93-3.83,4.93-2.8,0-3.17-2-3.17-4.34V66.14H2.55v9.63c0,3.44,1.35,5.79,4.82,5.79A5.07,5.07,0,0,0,12.1,79V81.2h2.55V66.14H12.1Zm14.66-8.54a5.24,5.24,0,0,0-4.87,2.52V66.14H19.34V81.2h2.55V73c0-3.24,1.51-4.92,4-4.92,2.91,0,3.31,2,3.31,4.34V81.2h2.54V71.68C31.71,68.24,30.4,65.88,26.76,65.88Zm19.47,2.64a5.27,5.27,0,0,0-4.93-2.64c-3.47,0-6.44,2.92-6.44,7.84s3,7.84,6.44,7.84a5.27,5.27,0,0,0,4.93-2.63V81.2h2.55V60.9H46.23ZM42,79.38c-2.61,0-4.32-2-4.32-5.66s1.71-5.65,4.32-5.65c2.26,0,4.39,1.68,4.39,5.65S44.21,79.38,42,79.38ZM61.66,65v1.1h-2.1v2h2.1v13h2.55v-13H67v-2H64.21V64.9c0-1.56.22-1.87,1.57-1.87H67V60.9H65.72C62.28,60.9,61.66,61.91,61.66,65ZM70.58,81.2h2.55V66.14H70.58Zm0-17.22h2.55V60.9H70.58Zm15,1.9a5.24,5.24,0,0,0-4.87,2.52V66.14H78.14V81.2h2.55V73c0-3.24,1.51-4.92,4-4.92,2.91,0,3.31,2,3.31,4.34V81.2h2.54V71.68C90.51,68.24,89.2,65.88,85.56,65.88ZM105,68.52a5.27,5.27,0,0,0-4.93-2.64c-3.47,0-6.44,2.92-6.44,7.84s3,7.84,6.44,7.84A5.27,5.27,0,0,0,105,78.93V81.2h2.55V60.9H105Zm-4.28,10.86c-2.61,0-4.32-2-4.32-5.66s1.71-5.65,4.32-5.65c2.26,0,4.39,1.68,4.39,5.65S103,79.38,100.75,79.38Zm17.78-13.5c-4.12,0-7.31,3-7.31,7.82,0,4.45,2.63,7.86,7.39,7.86,3.67,0,6.08-2.15,6.75-4.73h-2.63a4,4,0,0,1-4.12,2.49A4.61,4.61,0,0,1,114,74.51h11.59C125.87,69.72,123.15,65.88,118.53,65.88ZM114,72.32a4.44,4.44,0,0,1,8.88,0Zm32.72-3.8a5.27,5.27,0,0,0-4.93-2.64c-3.47,0-6.44,2.92-6.44,7.84s3,7.84,6.44,7.84a5.27,5.27,0,0,0,4.93-2.63V81.2h2.55V60.9h-2.55Zm-4.28,10.86c-2.61,0-4.32-2-4.32-5.66s1.71-5.65,4.32-5.65c2.26,0,4.39,1.68,4.39,5.65S144.69,79.38,142.43,79.38Zm17.78-13.5c-4.12,0-7.31,3-7.31,7.82,0,4.45,2.63,7.86,7.39,7.86,3.67,0,6.08-2.15,6.75-4.73h-2.63a4,4,0,0,1-4.12,2.49,4.61,4.61,0,0,1-4.64-4.81h11.59C167.55,69.72,164.83,65.88,160.21,65.88Zm-4.54,6.44a4.44,4.44,0,0,1,8.88,0ZM170.5,81.2h2.55V66.14H170.5Zm0-17.22h2.55V60.9H170.5Zm15,1.9a5.24,5.24,0,0,0-4.87,2.52V66.14h-2.55V81.2h2.55V73c0-3.24,1.51-4.92,4-4.92,2.91,0,3.31,2,3.31,4.34V81.2h2.54V71.68C190.43,68.24,189.12,65.88,185.48,65.88Zm15.41,0c-4.12,0-7.31,3-7.31,7.82,0,4.45,2.63,7.86,7.39,7.86,3.67,0,6.08-2.15,6.75-4.73h-2.63A4,4,0,0,1,201,79.32a4.61,4.61,0,0,1-4.64-4.81h11.59C208.23,69.72,205.51,65.88,200.89,65.88Zm-4.54,6.44a4.44,4.44,0,0,1,8.88,0Zm22.25-6.44a5.24,5.24,0,0,0-4.87,2.52V66.14h-2.55V81.2h2.55V73c0-3.24,1.51-4.92,4-4.92,2.91,0,3.31,2,3.31,4.34V81.2h2.54V71.68C223.55,68.24,222.24,65.88,218.6,65.88Zm24.82,3.67L241.07,69c-1.91-.42-3.31-1.32-3.31-3.11,0-2.27,2.75-3,4.31-3,2,0,4.37.82,5,3.14h2.78c-.82-3.89-4-5.54-7.7-5.54-3.28,0-7.34,1.65-7.34,5.54,0,3.36,2.77,4.93,5.57,5.54l2.52.54c2.52.58,4.37,1.42,4.37,3.58s-1.71,3.42-4.73,3.42-5.07-1.46-5.6-4.26h-2.8c.53,4,3.55,6.66,8.34,6.66,4,0,7.73-2.12,7.73-6.07S246.53,70.22,243.42,69.55Zm13.71-7.19h-2.54v3.78h-2.38v2h2.38v9.24c0,3.14.67,3.78,3.55,3.78H260V79.07H258.7c-1.45,0-1.57-.39-1.57-2V68.18H260v-2h-2.86Zm10.94,15.4-3.84-11.62H261.4l5.43,15.06-.11.31c-.67,2.35-1.48,2.46-3.16,2.46h-1V86.1h1.32c3.39,0,4.11-1,5.23-4.26l5.38-15.7h-2.66ZM277,81.2h2.55V60.9H277Zm13.83-15.32c-4.12,0-7.31,3-7.31,7.82,0,4.45,2.63,7.86,7.39,7.86,3.67,0,6.08-2.15,6.75-4.73H295a4,4,0,0,1-4.12,2.49,4.61,4.61,0,0,1-4.64-4.81h11.59C298.15,69.72,295.43,65.88,290.81,65.88Zm-4.54,6.44a4.44,4.44,0,0,1,8.88,0Z"/></svg>