<svg id="Layer_1" data-name="Layer 1" xmlns="http://www.w3.org/2000/svg" viewBox="0 0 100 25"><title>web</title><path d="M.69,19.57H12.78V18H2.43V10.63h9.73V9H2.43V2.33H12.78V.72H.69ZM21,11.8l-2-.37c-1.56-.28-2.63-1-2.63-2.39,0-1.69,2-2.29,3.57-2.29,2,0,3.51,1,3.85,2.65h1.69c-.34-2.21-2.37-4.08-5.39-4.08S14.73,7,14.73,9.17s1.79,3.33,3.79,3.74l2.19.42c1.9.37,3.46.94,3.46,2.58,0,1.87-2.11,2.57-3.8,2.57-2.13,0-3.95-1-4.24-3.2H14.44c.42,3.2,2.91,4.63,5.8,4.63,3,0,5.56-1.48,5.56-4.26S23.26,12.21,21,11.8ZM35.75,5.35A5.34,5.34,0,0,0,31,8V5.58H29.4V24.12H31V17.26a5.31,5.31,0,0,0,4.74,2.65c3.22,0,5.85-2.63,5.85-7.28S39,5.35,35.75,5.35Zm-.34,13.1c-2.11,0-4.5-1.66-4.5-5.82S33.3,6.8,35.41,6.8c2.6,0,4.45,2.11,4.45,5.83S38,18.45,35.41,18.45Zm14.66-13a4.5,4.5,0,0,0-4.13,2.65V5.58H44.4v14H46V12.24c0-3,.93-5,3.82-5h.34a1.71,1.71,0,0,1,.39,0V5.5a1.14,1.14,0,0,0-.26,0ZM52.4,3.29H54V.72H52.4Zm0,16.28H54v-14H52.4ZM60.69,2.44H59.05V5.58H56.74V7h2.31v9.25c0,2.79.57,3.33,3.07,3.33h1.33V18.12h-.84c-1.87,0-1.92-.39-1.92-2.19V7h2.76V5.58H60.69Zm5.45,17.13H68.4V17.13H66.14ZM81.87,8a5.29,5.29,0,0,0-4.73-2.65c-3.23,0-5.86,2.62-5.86,7.28s2.63,7.28,5.86,7.28a5.31,5.31,0,0,0,4.73-2.63v2.29h1.61V.72H81.87Zm-4.4,10.45c-2.6,0-4.44-2.1-4.44-5.82S74.87,6.8,77.47,6.8c2.11,0,4.5,1.67,4.5,5.83S79.58,18.45,77.47,18.45ZM92.86,5.35c-3.74,0-6.55,2.78-6.55,7.28,0,4.34,2.52,7.28,6.6,7.28,3.1,0,5.36-1.61,6.06-4.52H97.28a4.07,4.07,0,0,1-4.26,3c-2.86,0-5-2-5-5.39H99.1C99.31,8.68,96.79,5.35,92.86,5.35ZM88,11.56c.33-3.12,2.21-4.76,4.81-4.76a4.59,4.59,0,0,1,4.5,4.76Z"/></svg>